<?xml version="1.0" encoding="UTF-8"?>
<svg version="1.1" xmlns="http://www.w3.org/2000/svg" width="1200" height="290">
<path d="M0 0 C13.86 0 27.72 0 42 0 C47.98034723 18.40942304 53.55604234 36.90866568 58.9375 55.5 C60.08382797 59.45951532 61.23100942 63.41877128 62.38319397 67.37658691 C63.09181881 69.8118244 63.7975254 72.24791341 64.49998474 74.68493652 C64.81444046 75.76537231 65.12889618 76.84580811 65.45288086 77.95898438 C65.72853378 78.91172241 66.00418671 79.86446045 66.28819275 80.84606934 C66.80661327 82.95645322 66.80661327 82.95645322 68 84 C68.29845322 82.97713898 68.59690643 81.95427795 68.90440369 80.90042114 C71.71288432 71.27610074 74.52336528 61.65236648 77.33582211 52.02920723 C78.78177864 47.08145259 80.22702165 42.13349183 81.6706543 37.18505859 C83.06302245 32.41244441 84.45723831 27.64037363 85.85275459 22.86867905 C86.38569998 21.04515824 86.91797141 19.22144032 87.44956779 17.39752579 C88.19239571 14.8492953 88.93758449 12.3017667 89.68334961 9.75439453 C89.90417206 8.99482452 90.12499451 8.23525452 90.35250854 7.45266724 C91.88594784 2.22810432 91.88594784 2.22810432 93 0 C106.86 0 120.72 0 135 0 C135 38.61 135 77.22 135 117 C126.42 117 117.84 117 109 117 C108.67 88.29 108.34 59.58 108 30 C104.2875 41.776875 100.575 53.55375 96.75 65.6875 C95.5856543 69.38026123 94.42130859 73.07302246 93.22167969 76.87768555 C92.16122693 80.24245136 92.16122693 80.24245136 91.10089111 83.60725403 C90.63539585 85.0842339 90.16972959 86.56115988 89.70391846 88.03804016 C88.99066909 90.29956072 88.27797924 92.56125691 87.56542969 94.82299805 C87.34435295 95.52374891 87.12327621 96.22449978 86.89550018 96.94648552 C85.84985535 100.26795442 84.81617612 103.59227528 83.8092041 106.9256897 C83.45096558 108.11012665 83.09272705 109.2945636 82.72363281 110.51489258 C82.41290833 111.55430496 82.10218384 112.59371735 81.78204346 113.66462708 C81 116 81 116 80 117 C78.07332493 117.08748207 76.14348139 117.10697334 74.21484375 117.09765625 C72.46010742 117.09282227 72.46010742 117.09282227 70.66992188 117.08789062 C69.43822266 117.07951172 68.20652344 117.07113281 66.9375 117.0625 C65.08415039 117.05573242 65.08415039 117.05573242 63.19335938 117.04882812 C60.12885883 117.03699608 57.06445279 117.02051173 54 117 C51.23485748 108.33176392 48.47001816 99.66343121 45.70554161 90.99498272 C44.42118718 86.9677197 43.13673727 82.94048719 41.85205078 78.91333008 C40.60688242 75.0100388 39.36198881 71.10665998 38.11726761 67.20322609 C37.64783682 65.73125039 37.1783152 64.25930365 36.70869064 62.78738976 C33.11756396 51.53163335 29.55781662 40.26641931 26 29 C25.67 58.04 25.34 87.08 25 117 C16.75 117 8.5 117 0 117 C0 78.39 0 39.78 0 0 Z " fill="#124B37" transform="translate(624,87)"/>
<path d="M0 0 C13.86 0 27.72 0 42 0 C43.9567642 5.21803788 45.77999488 10.32658244 47.34423828 15.65356445 C47.55764862 16.37167801 47.77105896 17.08979156 47.99093628 17.82966614 C48.68675276 20.17341625 49.37854414 22.51833347 50.0703125 24.86328125 C50.55660923 26.50383743 51.04317571 28.14431367 51.52999878 29.78471375 C52.80452521 34.08175084 54.07570144 38.37977148 55.34606934 42.67803955 C56.89360667 47.91204314 58.4447652 53.14497441 59.99575615 58.37795544 C61.20143369 62.44591783 62.40644969 66.5140718 63.60940552 70.58283997 C63.94059387 71.7020433 63.94059387 71.7020433 64.2784729 72.84385681 C64.69030848 74.23560735 65.10176126 75.62747124 65.51275635 77.01947021 C66.30475558 79.69443264 67.11769755 82.35309264 68 85 C68.26895584 84.0826004 68.53791168 83.16520081 68.8150177 82.22000122 C71.35965053 73.54049334 73.90461411 64.86108249 76.44989491 56.1817646 C77.75818334 51.72050838 79.06635848 47.25921901 80.37426758 42.79785156 C81.63835994 38.48596189 82.90275919 34.17416231 84.16736412 29.86242294 C84.64785194 28.22397895 85.12823238 26.58550347 85.60849953 24.94699478 C86.28533928 22.6379175 86.96257378 20.32895633 87.63989258 18.02001953 C87.834823 17.3546669 88.02975342 16.68931427 88.23059082 16.00379944 C89.7982139 10.66221795 91.40027728 5.33240908 93 0 C106.86 0 120.72 0 135 0 C135 38.61 135 77.22 135 117 C126.75 117 118.5 117 110 117 C109.67 87.63 109.34 58.26 109 28 C105.679375 38.415625 102.35875 48.83125 98.9375 59.5625 C97.90488037 62.79877197 96.87226074 66.03504395 95.80834961 69.36938477 C90.75900846 85.21348611 85.79747067 101.07718819 81 117 C72.42 117 63.84 117 55 117 C50.49983636 105.74959089 50.49983636 105.74959089 48.68164062 100.01245117 C48.48265671 99.38813705 48.28367279 98.76382294 48.07865906 98.12059021 C47.43429323 96.09582777 46.79519624 94.06944724 46.15625 92.04296875 C45.70103437 90.60856956 45.24550234 89.17427076 44.78967285 87.74006653 C43.59766823 83.98643571 42.41022626 80.23137675 41.22369385 76.47601318 C40.26314581 73.43850382 39.29939598 70.40201518 38.33545685 67.36558056 C36.32638062 61.03670237 34.31947827 54.70713141 32.31835938 48.37573242 C31.79018616 46.70555305 31.79018616 46.70555305 31.25134277 45.00163269 C29.48108551 39.34057843 27.74433684 33.66909473 26 28 C25.67 57.37 25.34 86.74 25 117 C16.75 117 8.5 117 0 117 C0 78.39 0 39.78 0 0 Z " fill="#124B37" transform="translate(909,87)"/>
<path d="M0 0 C8.90901374 7.08914845 15.62060332 16.47218491 17 28 C17.53405405 39.93189189 17.53405405 39.93189189 16 43 C7.42 43 -1.16 43 -10 43 C-10 39.04 -10 35.08 -10 31 C-12.10726165 23.94877832 -13.83069343 19.99190425 -20 16 C-28.63638529 11.34963869 -36.81878557 11.27514658 -46.10546875 13.93359375 C-55.79726027 17.50425378 -60.82994251 23.48212479 -65.25390625 32.578125 C-69.88375398 44.12854651 -69.94127906 58.85330138 -65.3203125 70.421875 C-60.80609443 79.23662034 -54.39047892 85.45604738 -45.14453125 89.13671875 C-35.83501035 91.69250026 -26.41633651 90.62577274 -18 86 C-10.55642381 81.36844148 -7.97426962 73.93138566 -5 66 C3.58 66 12.16 66 21 66 C20.26065062 73.39349378 19.80562326 77.80099039 16.5625 84 C16.20905518 84.68497559 15.85561035 85.36995117 15.49145508 86.07568359 C8.55472964 98.86456502 -2.08709579 105.89943582 -15.6875 110.3125 C-32.41808947 115.07291566 -50.12048416 113.69507872 -65.66015625 105.6171875 C-80.40811914 97.11986952 -88.80599796 84.91788105 -93.8125 68.6875 C-97.70461846 51.50849438 -95.96501627 31.9271906 -86.87109375 16.6875 C-77.79948012 3.6577084 -65.9117696 -5.83854824 -50 -9 C-32.28015872 -11.91880563 -15.30657041 -9.72890736 0 0 Z " fill="#124B37" transform="translate(336,94)"/>
<path d="M0 0 C8.25 0 16.5 0 25 0 C25 23.76 25 47.52 25 72 C42.16 72 59.32 72 77 72 C77 48.24 77 24.48 77 0 C85.25 0 93.5 0 102 0 C102 38.61 102 77.22 102 117 C93.75 117 85.5 117 77 117 C77 107.43 77 97.86 77 88 C59.84 88 42.68 88 25 88 C25 97.57 25 107.14 25 117 C16.75 117 8.5 117 0 117 C0 78.39 0 39.78 0 0 Z " fill="#124B37" transform="translate(374,87)"/>
<path d="M0 0 C10.23 0 20.46 0 31 0 C40.40209154 23.76189515 49.75107332 47.54371642 59.02127075 71.35739136 C61.04113394 76.54441103 63.06750178 81.72883592 65.09898376 86.91131592 C66.42069304 90.28404727 67.73982667 93.65778262 69.05856323 97.03167725 C69.6821643 98.62527725 70.30692559 100.21842376 70.93289185 101.81109619 C71.79166557 103.99657508 72.64631554 106.18362292 73.5 108.37109375 C73.75539047 109.01794632 74.01078094 109.66479889 74.27391052 110.33125305 C76 114.77203775 76 114.77203775 76 117 C67.42 117 58.84 117 50 117 C49.01 115.02 48.02 113.04 47 111 C38.48643751 101.95433985 24.31184458 102.08506427 12.82617188 101.31054688 C4.39614089 100.61138424 -2.40269206 98.7350139 -10 95 C-10.23783203 95.87398437 -10.23783203 95.87398437 -10.48046875 96.765625 C-12.50607612 103.88322881 -15.10059829 110.04143589 -18 117 C-26.91 117 -35.82 117 -45 117 C-42.94151265 110.13837549 -40.78207797 103.60846183 -38.11328125 97 C-37.55186684 95.59325768 -37.55186684 95.59325768 -36.97911072 94.15809631 C-36.17667017 92.14762685 -35.37251154 90.1378424 -34.56677246 88.12869263 C-32.42094682 82.77608459 -30.2893709 77.41782776 -28.16015625 72.05859375 C-27.72726288 70.96904892 -27.29436951 69.87950409 -26.84835815 68.75694275 C-21.8797508 56.21992129 -17.09313649 43.61455413 -12.34106445 30.99414062 C-8.41218003 20.5796839 -4.28333601 10.27451496 0 0 Z M15 27 C12.25813863 34.16499699 9.53596575 41.33724609 6.82739258 48.51489258 C5.90353502 50.95606407 4.97517327 53.39553587 4.04223633 55.83325195 C2.70248332 59.33628895 1.37901569 62.84510707 0.05859375 66.35546875 C-0.36216934 67.44522507 -0.78293243 68.53498138 -1.21644592 69.65776062 C-1.59691574 70.67844131 -1.97738556 71.69912201 -2.36938477 72.75073242 C-2.70913834 73.64563889 -3.04889191 74.54054535 -3.39894104 75.46257019 C-4.08717287 78.36800887 -3.88079736 80.16411979 -3 83 C3.14668925 88.11282779 12.62611211 88.04322074 20.1875 88.6875 C22.66027751 88.91928287 25.13293861 89.15231177 27.60546875 89.38671875 C29.23198364 89.52920044 29.23198364 89.52920044 30.89135742 89.67456055 C33.95661593 89.99545818 36.96613334 90.4613612 40 91 C39.33596436 87.14994177 38.23699807 83.67244629 36.86694336 80.01635742 C36.20637184 78.24508736 36.20637184 78.24508736 35.53245544 76.43803406 C35.05166645 75.16048159 34.57079394 73.88296054 34.08984375 72.60546875 C33.59769578 71.28994442 33.10588445 69.97429411 32.61439514 68.65852356 C31.32394352 65.20659075 30.02894178 61.75638248 28.73297119 58.30651855 C27.40971256 54.78155169 26.09078346 51.2549659 24.77148438 47.72851562 C22.18521392 40.81742258 19.59413232 33.90814642 17 27 C16.34 27 15.68 27 15 27 Z " fill="#124B37" transform="translate(162,87)"/>
<path d="M0 0 C1.25159912 0.00523682 2.50319824 0.01047363 3.79272461 0.01586914 C4.78942421 0.01799156 4.78942421 0.01799156 5.80625916 0.02015686 C7.93590735 0.02577021 10.06545175 0.03832485 12.19506836 0.05102539 C13.63582205 0.05603868 15.07657739 0.06060188 16.51733398 0.06469727 C20.05577938 0.07574394 23.59416375 0.09301747 27.13256836 0.11352539 C29.88920954 5.45093951 32.26684198 10.76636433 34.35522461 16.39477539 C34.97320541 18.03491984 35.59120774 19.67505616 36.20922852 21.31518555 C36.53207825 22.1768634 36.85492798 23.03854126 37.18756104 23.92633057 C44.45056024 43.29799507 52.00088414 62.54989061 59.66015625 81.76782227 C63.04660069 90.26950312 66.42893359 98.77267624 69.68725586 107.32446289 C69.93943878 107.9766983 70.1916217 108.62893372 70.45144653 109.30093384 C71.49632618 112.07380258 72.13256836 114.11922252 72.13256836 117.11352539 C63.22256836 117.11352539 54.31256836 117.11352539 45.13256836 117.11352539 C41.17256836 106.22352539 41.17256836 106.22352539 37.13256836 95.11352539 C34.31889941 95.11352539 32.4392726 96.3225938 29.89038086 97.51196289 C22.97335303 100.44101765 16.44654617 101.19047502 9.00756836 101.73852539 C-0.97099193 102.53337303 -9.83962474 103.59962194 -18.86743164 108.11352539 C-20.18743164 111.08352539 -21.50743164 114.05352539 -22.86743164 117.11352539 C-31.11743164 117.11352539 -39.36743164 117.11352539 -47.86743164 117.11352539 C-46.53481593 111.1167547 -45.22865598 105.94192206 -42.95336914 100.36352539 C-42.66682465 99.64446014 -42.38028015 98.9253949 -42.08505249 98.18453979 C-41.46662096 96.63475414 -40.84512275 95.08618929 -40.2208252 93.53875732 C-38.87234937 90.19616925 -37.53891726 86.84763972 -36.2043457 83.4994812 C-35.50069083 81.73462641 -34.79625253 79.97008379 -34.09106445 78.20584106 C-30.55483127 69.35390598 -27.08806921 60.4753585 -23.63095093 51.59228516 C-22.29223232 48.15307913 -20.95107712 44.7148255 -19.60997009 41.27655029 C-17.4427843 35.72040365 -15.27643042 30.16393365 -13.11206055 24.60668945 C-11.79328306 21.22117041 -10.47197106 17.83665207 -9.14855957 14.45294189 C-8.44784508 12.65937704 -7.74988706 10.86473604 -7.05200195 9.07006836 C-6.64175781 8.02222168 -6.23151367 6.974375 -5.80883789 5.89477539 C-5.4550708 4.98791992 -5.10130371 4.08106445 -4.73681641 3.14672852 C-3.44969512 0.13657797 -3.44969512 0.13657797 0 0 Z M11.13256836 26.11352539 C8.1279141 34.01292442 5.12859275 41.91431838 2.13608551 49.818326 C0.74642372 53.4882854 -0.64507465 57.15752636 -2.04077148 60.82519531 C-3.38726274 64.36376271 -4.72892765 67.90412488 -6.06724548 71.44579124 C-6.57905596 72.79765245 -7.09261124 74.1488544 -7.60792542 75.49938393 C-8.32858049 77.38895622 -9.04250095 79.28109288 -9.75610352 81.17333984 C-10.16469604 82.25033646 -10.57328857 83.32733307 -10.9942627 84.43696594 C-12.02250259 87.11963964 -12.02250259 87.11963964 -11.86743164 90.11352539 C-7.59764754 89.75579294 -3.32952554 89.38290541 0.93774414 88.99658203 C2.38628109 88.86751884 3.83517877 88.74243467 5.28442383 88.62158203 C18.07105069 87.56849834 18.07105069 87.56849834 29.75756836 82.48852539 C31.68811348 79.15394745 30.75402322 77.32610741 29.86773682 73.69778442 C28.5776305 69.16281168 26.9133812 64.78763516 25.21850586 60.39086914 C24.65675156 58.9117379 24.65675156 58.9117379 24.08364868 57.40272522 C22.89740449 54.28325237 21.70263971 51.16712576 20.50756836 48.05102539 C19.69710518 45.92428838 18.88720368 43.79733724 18.07788086 41.67016602 C16.10259792 36.4821254 14.12032705 31.29679791 12.13256836 26.11352539 C11.80256836 26.11352539 11.47256836 26.11352539 11.13256836 26.11352539 Z " fill="#124B37" transform="translate(821.867431640625,86.886474609375)"/>
<path d="M0 0 C10.23 0 20.46 0 31 0 C33.66692863 6.81239755 36.33365423 13.62487432 39 20.4375 C39.4040506 21.46985779 39.8081012 22.50221558 40.22439575 23.56585693 C44.61128116 34.77516263 48.99633931 45.98517217 53.37109375 57.19921875 C53.71391388 58.07796661 54.05673401 58.95671448 54.40994263 59.86209106 C56.07872628 64.14019305 57.74679235 68.41857358 59.4140625 72.69726562 C62.40645343 80.37387358 65.40787453 88.04657622 68.44140625 95.70703125 C68.96753478 97.03759549 69.493658 98.36816182 70.01977539 99.69873047 C70.97735712 102.11990362 71.93941493 104.5391318 72.90405273 106.95751953 C73.31727783 108.00149902 73.73050293 109.04547852 74.15625 110.12109375 C74.51525391 111.0227124 74.87425781 111.92433105 75.24414062 112.85327148 C76 115 76 115 76 117 C67.42 117 58.84 117 50 117 C48.35 113.7 46.7 110.4 45 107 C37.8654081 102.14240552 27.68437372 102.31224518 19.25390625 101.57421875 C8.5836709 100.61938548 -0.35940211 98.91912057 -10 94 C-10.15855469 94.57105469 -10.31710937 95.14210938 -10.48046875 95.73046875 C-12.57165428 102.9976273 -15.23058413 109.96418672 -18 117 C-26.91 117 -35.82 117 -45 117 C-43.12887408 110.76291361 -41.26580555 104.79108757 -38.875 98.77734375 C-38.57565048 98.01434464 -38.27630096 97.25134552 -37.96788025 96.46522522 C-36.98213574 93.95457191 -35.99102605 91.44607265 -35 88.9375 C-33.56213708 85.28060131 -32.12695771 81.62265033 -30.69140625 77.96484375 C-30.31568985 77.00871185 -29.93997345 76.05257996 -29.5528717 75.06747437 C-26.66826026 67.72138965 -23.81091378 60.36500089 -20.96484375 53.00390625 C-20.54522369 51.91899399 -20.12560364 50.83408173 -19.69326782 49.71629333 C-18.03964139 45.43998883 -16.38640003 41.16353911 -14.73608398 36.88595581 C-9.96710336 24.52733814 -5.09314548 12.22896019 0 0 Z M15 27 C12.20927217 34.16033168 9.45191019 41.33285591 6.7175293 48.51489258 C5.7831402 50.95729314 4.84111126 53.39678502 3.89135742 55.83325195 C2.52852195 59.33330981 1.19338373 62.84286299 -0.13671875 66.35546875 C-0.56780441 67.44522507 -0.99889008 68.53498138 -1.44303894 69.65776062 C-1.82365982 70.67844131 -2.2042807 71.69912201 -2.59643555 72.75073242 C-2.94063034 73.64563889 -3.28482513 74.54054535 -3.63945007 75.46257019 C-4.24923738 78.10689037 -4.24923738 78.10689037 -2.74397278 80.72261047 C1.7436689 86.58285571 9.15811721 86.96981496 16 88 C20.22320917 88.46665838 24.45067169 88.80847027 28.6875 89.125 C29.78255859 89.21136719 30.87761719 89.29773438 32.00585938 89.38671875 C34.67022655 89.59614499 37.33487497 89.80049251 40 90 C35.05269079 75.67364128 29.87280563 61.44543606 24.5625 47.25 C23.8233825 45.26960036 23.0844494 43.2891319 22.34570312 41.30859375 C20.56591479 36.53827083 18.78367567 31.76887069 17 27 C16.34 27 15.68 27 15 27 Z " fill="#124B37" transform="translate(534,87)"/>
<path d="M0 0 C1.25159912 0.00523682 2.50319824 0.01047363 3.79272461 0.01586914 C4.78942421 0.01799156 4.78942421 0.01799156 5.80625916 0.02015686 C7.93590735 0.02577021 10.06545175 0.03832485 12.19506836 0.05102539 C13.63582205 0.05603868 15.07657739 0.06060188 16.51733398 0.06469727 C20.05577938 0.07574394 23.59416375 0.09301747 27.13256836 0.11352539 C30.31476292 6.21362601 32.89905795 12.39797637 35.33569336 18.82836914 C35.73088669 19.8609082 36.12608002 20.89344727 36.5332489 21.95727539 C37.38034498 24.17160538 38.22564567 26.3866229 39.06930542 28.6022644 C41.29716746 34.4528549 43.53803161 40.29846651 45.77709961 46.14477539 C46.22779312 47.32265121 46.67848663 48.50052704 47.14283752 49.71409607 C51.40472091 60.8449086 55.72644837 71.95189482 60.07006836 83.05102539 C60.39632202 83.88471649 60.72257568 84.71840759 61.05871582 85.57736206 C61.68864426 87.18694102 62.31863688 88.79649486 62.94869995 90.40602112 C63.81443888 92.61908077 64.67847553 94.83279854 65.54223633 97.04663086 C66.57976916 99.70529397 67.626286 102.36013581 68.67993164 105.01245117 C69.36998291 106.765979 69.36998291 106.765979 70.07397461 108.55493164 C70.47430908 109.56370361 70.87464355 110.57247559 71.28710938 111.61181641 C72.13256836 114.11352539 72.13256836 114.11352539 72.13256836 117.11352539 C63.55256836 117.11352539 54.97256836 117.11352539 46.13256836 117.11352539 C41.63256836 108.11352539 41.63256836 108.11352539 40.42944336 104.83227539 C40.04272461 103.78813477 40.04272461 103.78813477 39.64819336 102.72290039 C39.39553711 102.02680664 39.14288086 101.33071289 38.88256836 100.61352539 C38.48038086 99.52297852 38.48038086 99.52297852 38.07006836 98.41040039 C37.42013012 96.64628231 36.77574586 94.88011958 36.13256836 93.11352539 C32.98555678 93.11352539 30.95420609 95.10368266 28.39819336 96.82446289 C23.65247316 99.52461404 18.90887897 100.39965898 13.51928711 100.85961914 C11.64660156 101.03267578 11.64660156 101.03267578 9.73608398 101.20922852 C7.13737384 101.4360486 4.53841461 101.66003369 1.93920898 101.88110352 C-8.31941469 102.61924279 -8.31941469 102.61924279 -17.86743164 106.11352539 C-19.7142656 108.46119343 -19.7142656 108.46119343 -20.36743164 111.23852539 C-20.64586914 112.12797852 -20.92430664 113.01743164 -21.21118164 113.93383789 C-21.42774414 114.65313477 -21.64430664 115.37243164 -21.86743164 116.11352539 C-22.86743164 117.11352539 -22.86743164 117.11352539 -25.27587891 117.22705078 C-26.31800537 117.22181396 -27.36013184 117.21657715 -28.43383789 117.21118164 C-29.55854492 117.20795898 -30.68325195 117.20473633 -31.84204102 117.20141602 C-33.02604492 117.19303711 -34.21004883 117.1846582 -35.42993164 117.17602539 C-36.61780273 117.17151367 -37.80567383 117.16700195 -39.02954102 117.16235352 C-41.9755539 117.15052214 -44.92146845 117.13403826 -47.86743164 117.11352539 C-47.23010907 111.65256726 -45.41834995 106.96923152 -43.39477539 101.90649414 C-43.04000122 101.00502655 -42.68522705 100.10355896 -42.31970215 99.17477417 C-41.1534575 96.21471705 -39.97915571 93.25792512 -38.80493164 90.30102539 C-37.98992718 88.23608946 -37.17556328 86.1709006 -36.36181641 84.10546875 C-34.68883566 79.86019915 -33.01332565 75.6159409 -31.33618164 71.37231445 C-27.96959843 62.84641947 -24.64053514 54.30595841 -21.3135376 45.76455688 C-20.31341828 43.19780588 -19.31209674 40.63152748 -18.31030273 38.06542969 C-15.50287785 30.87420064 -12.69832552 23.68191805 -9.90649414 16.48461914 C-9.47925049 15.38561279 -9.05200684 14.28660645 -8.61181641 13.15429688 C-7.85231043 11.20022811 -7.09481555 9.24537583 -6.33984375 7.28955078 C-3.5576513 0.14085209 -3.5576513 0.14085209 0 0 Z M11.13256836 26.11352539 C8.12986593 34.03093344 5.13070281 41.94966898 2.13608551 49.87013817 C0.74554793 53.54763551 -0.64621773 57.22465833 -2.04077148 60.90063477 C-3.3858104 64.44622758 -4.72764742 67.9930166 -6.06724548 71.54066849 C-6.57964023 72.89592478 -7.09319954 74.25074134 -7.60792542 75.60511398 C-8.32703937 77.49787336 -9.04168207 79.39232969 -9.75610352 81.28686523 C-10.16469604 82.36608246 -10.57328857 83.44529968 -10.9942627 84.55722046 C-11.97517768 86.97874495 -11.97517768 86.97874495 -11.86743164 89.11352539 C10.2174903 89.43093317 10.2174903 89.43093317 28.69506836 79.48852539 C30.30306842 75.7132209 30.15888546 75.20796286 28.94580078 71.51049805 C28.65756439 70.62420715 28.369328 69.73791626 28.07235718 68.82476807 C26.62696572 64.65488762 25.12494745 60.51282926 23.55834961 56.38696289 C23.22965378 55.51327057 22.90095795 54.63957825 22.56230164 53.7394104 C21.52634473 50.98792686 20.48579536 48.23820773 19.44506836 45.48852539 C18.73577761 43.60713045 18.02679051 41.725621 17.31811523 39.84399414 C15.59310206 35.26584188 13.86397205 30.68926445 12.13256836 26.11352539 C11.80256836 26.11352539 11.47256836 26.11352539 11.13256836 26.11352539 Z " fill="#124B37" transform="translate(1104.867431640625,86.886474609375)"/>
<path d="M0 0 C10.456875 -0.0825 20.91375 -0.165 31.6875 -0.25 C34.96260498 -0.28641602 38.23770996 -0.32283203 41.61206055 -0.36035156 C44.24527331 -0.37204806 46.87849337 -0.3822376 49.51171875 -0.390625 C50.17685989 -0.40107849 50.84200104 -0.41153198 51.52729797 -0.42230225 C63.20449624 -0.59629748 75.01490105 0.50186291 84.2890625 8.30859375 C91.6682516 15.60354554 95.31116664 23.55558344 95.46899414 33.98852539 C95.45340454 35.16983032 95.45340454 35.16983032 95.4375 36.375 C95.42775146 37.20572021 95.41800293 38.03644043 95.40795898 38.89233398 C95.09883126 49.63216464 92.09534978 57.03929333 84.55859375 64.8359375 C75.7269579 72.30574858 64.28140779 74.34826516 53.02734375 74.1953125 C51.94990906 74.19229126 51.94990906 74.19229126 50.85070801 74.18920898 C48.21290538 74.1788849 45.57519505 74.15096451 42.9375 74.125 C34.0584375 74.063125 34.0584375 74.063125 25 74 C25 88.19 25 102.38 25 117 C16.75 117 8.5 117 0 117 C0 78.39 0 39.78 0 0 Z M25 20 C25 30.89 25 41.78 25 53 C29.71494271 53.09219877 34.4267173 53.17171589 39.1418457 53.21972656 C40.74319091 53.23975347 42.3444638 53.26698354 43.94555664 53.30175781 C46.25685537 53.35067419 48.56718154 53.37305711 50.87890625 53.390625 C51.58648575 53.41127014 52.29406525 53.43191528 53.02308655 53.45318604 C58.55254613 53.45564214 61.56618902 52.0674996 66 49 C69.07739874 44.38390189 70.37936075 39.55219607 69.78515625 33.98828125 C68.74549162 28.78995809 66.83249224 25.65828804 63 22 C58.38151957 20.02805514 54.40565955 19.76475472 49.4140625 19.8046875 C47.48747803 19.81218018 47.48747803 19.81218018 45.52197266 19.81982422 C43.09797119 19.84713623 43.09797119 19.84713623 40.625 19.875 C35.46875 19.91625 30.3125 19.9575 25 20 Z " fill="#124B37" transform="translate(23,87)"/>
</svg>
