<?xml version="1.0" encoding="UTF-8"?>
<svg version="1.1" xmlns="http://www.w3.org/2000/svg" width="882" height="947">
<path d="M0 0 C4.95270767 2.08106731 8.4161968 5.91667449 12.2890625 9.53515625 C14.38826907 11.44380084 16.45262931 13.10516887 18.75 14.75 C19.4925 15.4925 20.235 16.235 21 17 C20.73571761 22.25677249 18.56748361 26.61355112 16.359375 31.29296875 C15.99531555 32.07964432 15.6312561 32.86631989 15.25616455 33.67683411 C14.09425714 36.1836222 12.922395 38.6856023 11.75 41.1875 C10.97718568 42.84929382 10.20504386 44.51140056 9.43359375 46.17382812 C7.95553864 49.3573954 6.4741831 52.53939091 4.99023438 55.72021484 C2.62467493 60.79740007 0.3008256 65.89316752 -2 71 C-0.27319118 69.88265311 1.45361659 68.76530459 3.18041992 67.64794922 C4.70530486 66.66126867 6.23020766 65.67461572 7.75512695 64.68798828 C12.36010832 61.70848852 16.96497406 58.72881292 21.56787109 55.74609375 C22.9782593 54.83377629 24.39004114 53.92360961 25.80322266 53.015625 C29.24731042 50.80036463 32.66385781 48.55739478 36.0390625 46.23828125 C36.67626221 45.80789551 37.31346191 45.37750977 37.9699707 44.93408203 C39.16752565 44.12386399 40.35678747 43.30120163 41.53588867 42.46435547 C43.14453125 41.38671875 43.14453125 41.38671875 46 40 C48.85913749 41.08169227 51.01465804 42.69375428 53.3125 44.6796875 C53.91320312 45.19660156 54.51390625 45.71351563 55.1328125 46.24609375 C55.74898437 46.78363281 56.36515625 47.32117188 57 47.875 C57.61617187 48.40480469 58.23234375 48.93460938 58.8671875 49.48046875 C62.02961332 52.21535631 65.09231846 54.99054961 68 58 C63.47729405 63.64792023 58.90107268 69.17642106 54 74.5 C49.88621091 78.9698512 46.02912703 83.59044893 42.21484375 88.31640625 C39.34280523 91.79628361 36.30954943 95.11247295 33.26953125 98.4453125 C30.06861502 102.04840925 27.05390977 105.79238232 24.04296875 109.5546875 C22.13421464 111.83935303 20.13961197 113.93250978 18 116 C12.59510481 114.47987323 9.01507372 110.72614782 5 107 C5.87231029 102.55534292 8.36704622 99.92642203 11.3125 96.625 C12.40899932 95.37122068 13.50534926 94.11731071 14.6015625 92.86328125 C15.44702637 91.90349365 15.44702637 91.90349365 16.30957031 90.92431641 C18.95958653 87.90764572 21.5746991 84.8614022 24.1875 81.8125 C24.92722046 80.95108398 24.92722046 80.95108398 25.68188477 80.07226562 C30.20951638 74.78614484 34.62512075 69.41336069 39 64 C32.07773154 67.54669036 25.4959744 71.51634758 18.9375 75.6875 C18.1326416 76.19716309 17.3277832 76.70682617 16.49853516 77.23193359 C13.14001568 79.36074067 9.78390749 81.49233372 6.44628906 83.65380859 C3.99363053 85.2414628 1.52928175 86.80941113 -0.9375 88.375 C-1.68845947 88.86959717 -2.43941895 89.36419434 -3.21313477 89.8737793 C-3.91494873 90.3150415 -4.6167627 90.75630371 -5.33984375 91.2109375 C-5.95206787 91.60587402 -6.56429199 92.00081055 -7.19506836 92.40771484 C-9 93 -9 93 -11.06762695 92.23339844 C-13.60970768 90.61083472 -15.91350133 88.78109102 -18.25 86.875 C-19.58804688 85.78832031 -19.58804688 85.78832031 -20.953125 84.6796875 C-21.62859375 84.12539062 -22.3040625 83.57109375 -23 83 C-20.88265244 76.25702657 -18.32299548 69.77535864 -15.55078125 63.27734375 C-15.13330124 62.29125626 -14.71582123 61.30516876 -14.28569031 60.28919983 C-12.96450303 57.17059397 -11.63858402 54.05402637 -10.3125 50.9375 C-9.41049262 48.8106803 -8.5087968 46.68372844 -7.60742188 44.55664062 C-5.40854776 39.36956026 -3.2057956 34.18414051 -1 29 C-8.39410118 36.36511069 -15.16702816 44.14079799 -21.7265625 52.25390625 C-24.72514698 55.87590778 -27.87292075 59.34742454 -31.0546875 62.80859375 C-32.82528214 64.80317928 -34.43628241 66.84128295 -36 69 C-40.13813705 68.46823005 -42.27082318 66.22067834 -45.25 63.4375 C-46.14203125 62.61121094 -47.0340625 61.78492188 -47.953125 60.93359375 C-48.96632813 59.97646484 -48.96632813 59.97646484 -50 59 C-47.85499408 55.13898934 -45.39675329 52.08861065 -42.375 48.875 C-38.9516685 45.1738329 -35.66176549 41.42689024 -32.5 37.5 C-29.44651321 33.71539666 -26.29331699 30.07792463 -23 26.5 C-18.89879023 22.0438169 -15.0521255 17.43848231 -11.25 12.7265625 C-7.64311347 8.35571736 -3.83060956 4.17473051 0 0 Z " fill="#000000" transform="translate(659,167)"/>
<path d="M0 0 C26 0 26 0 29 2 C29.88552856 4.207901 29.88552856 4.207901 30.60986328 6.98461914 C30.88669952 8.02231949 31.16353577 9.06001984 31.44876099 10.12916565 C31.88017899 11.815131 31.88017899 11.815131 32.3203125 13.53515625 C32.62444061 14.68414902 32.92856873 15.83314178 33.24191284 17.01695251 C34.21378615 20.69604883 35.1700069 24.37898943 36.125 28.0625 C37.08989264 31.74879254 38.05798879 35.43420826 39.0295105 39.11875916 C39.63387597 41.4145887 40.23384483 43.71158072 40.82913208 46.00978088 C41.099664 47.04432907 41.37019592 48.07887726 41.64892578 49.14477539 C41.88636505 50.06029678 42.12380432 50.97581818 42.36843872 51.91908264 C42.81216817 53.96925878 42.81216817 53.96925878 44 55 C52.415 28.27 52.415 28.27 61 1 C74.86 1.495 74.86 1.495 89 2 C89.04174925 14.48899094 88.93428413 26.95878854 88.62768555 39.44384766 C88.56236729 42.13045869 88.50267976 44.81715684 88.44335938 47.50390625 C88.19092533 58.35745496 87.69993644 69.16568971 87 80 C81.39 79.67 75.78 79.34 70 79 C70.33 60.19 70.66 41.38 71 22 C66.28358862 36.26735813 66.28358862 36.26735813 61.57739258 50.53808594 C58.38098345 60.1944641 55.11843008 69.69154832 51 79 C45.39 78.67 39.78 78.34 34 78 C29.31240762 62.98973079 24.78040621 47.95392465 20.52734375 32.81542969 C20.21023438 31.69040039 19.893125 30.56537109 19.56640625 29.40625 C19.28740479 28.40916016 19.00840332 27.41207031 18.72094727 26.38476562 C18.07784976 24.01465713 18.07784976 24.01465713 17 22 C16.97494385 23.23451904 16.9498877 24.46903809 16.92407227 25.7409668 C16.82894646 30.3798831 16.72899538 35.01868568 16.62768555 39.6574707 C16.58472982 41.65418818 16.54303269 43.65093319 16.50268555 45.64770508 C16.28330949 56.46213198 16.04087152 67.22729905 15 78 C12.72923158 78.02699725 10.45837179 78.04639453 8.1875 78.0625 C6.29064453 78.07990234 6.29064453 78.07990234 4.35546875 78.09765625 C1 78 1 78 -2 77 C-1.34 51.59 -0.68 26.18 0 0 Z " fill="#000000" transform="translate(422,107)"/>
<path d="M0 0 C2.97064086 2.80163284 5.2241446 5.63648217 7.4375 9.0625 C10.96075439 14.43872522 14.55118362 19.76206082 18.1875 25.0625 C18.73728516 25.86486084 19.28707031 26.66722168 19.85351562 27.49389648 C21.56844521 29.99631896 23.28419091 32.4981805 25 35 C27.31336592 38.3744075 29.62565418 41.74955095 31.9375 45.125 C32.45658936 45.88176025 32.97567871 46.63852051 33.51049805 47.41821289 C34.50783542 48.87432866 35.50167727 50.3328459 36.49169922 51.79394531 C37.56020706 53.35675477 38.64710244 54.90706503 39.74658203 56.44824219 C40.30587402 57.24649414 40.86516602 58.04474609 41.44140625 58.8671875 C41.95517822 59.5876123 42.4689502 60.30803711 42.99829102 61.05029297 C43.49413696 62.01539795 43.49413696 62.01539795 44 63 C42.70019417 66.89941749 41.06745898 67.53257489 37.625 69.6875 C36.15933594 70.62142578 36.15933594 70.62142578 34.6640625 71.57421875 C32 73 32 73 29 73 C27.30859375 70.8671875 27.30859375 70.8671875 25.4375 67.875 C22.2491291 62.89947893 18.95332961 58.04557182 15.5 53.25 C15.05454834 52.6297998 14.60909668 52.00959961 14.15014648 51.37060547 C13.10176227 49.91253864 12.05113716 48.45608345 11 47 C7.97833023 49.0612766 4.95781955 51.1242456 1.9375 53.1875 C1.08994141 53.76564453 0.24238281 54.34378906 -0.63085938 54.93945312 C-5.46041968 58.23996345 -10.25390752 61.58049511 -15 65 C-13.3519163 70.15921854 -10.20757354 74.1694469 -7.0625 78.5 C2 91.06811377 2 91.06811377 2 94 C0.11947058 95.45194365 -1.83136849 96.81364605 -3.8125 98.125 C-5.43091797 99.21167969 -5.43091797 99.21167969 -7.08203125 100.3203125 C-10 102 -10 102 -13 102 C-14.23583984 100.64916992 -14.23583984 100.64916992 -15.4609375 98.73046875 C-15.92556396 98.01640869 -16.39019043 97.30234863 -16.86889648 96.56665039 C-17.36591064 95.78153076 -17.8629248 94.99641113 -18.375 94.1875 C-19.45581968 92.52265032 -20.53789151 90.858613 -21.62109375 89.1953125 C-22.17909668 88.33325195 -22.73709961 87.47119141 -23.31201172 86.58300781 C-25.95841673 82.53340339 -28.6954049 78.54767266 -31.4375 74.5625 C-32.51827785 72.98701256 -33.59900662 71.41149145 -34.6796875 69.8359375 C-35.22077148 69.04799805 -35.76185547 68.26005859 -36.31933594 67.44824219 C-39.23753419 63.19727007 -42.15000447 58.94238029 -45.0625 54.6875 C-45.86675415 53.51392944 -45.86675415 53.51392944 -46.68725586 52.31665039 C-49.4860279 48.22908143 -52.26266334 44.12898024 -55 40 C-53.50589642 36.19299032 -51.3813123 34.50238376 -48.0625 32.1875 C-47.18722656 31.56230469 -46.31195313 30.93710938 -45.41015625 30.29296875 C-44.61480469 29.86628906 -43.81945312 29.43960938 -43 29 C-39.2173534 30.2608822 -38.65505319 31.6124305 -36.49609375 34.91015625 C-35.83802734 35.89951172 -35.17996094 36.88886719 -34.50195312 37.90820312 C-33.82068359 38.94912109 -33.13941406 39.99003906 -32.4375 41.0625 C-31.08826561 43.11998725 -29.73311421 45.17361075 -28.37109375 47.22265625 C-27.4728186 48.59562866 -27.4728186 48.59562866 -26.55639648 49.99633789 C-26.04278564 50.65754639 -25.5291748 51.31875488 -25 52 C-22.2485706 52 -21.11253614 50.86213701 -18.859375 49.296875 C-18.03566406 48.72839844 -17.21195313 48.15992188 -16.36328125 47.57421875 C-15.50089844 46.97222656 -14.63851562 46.37023437 -13.75 45.75 C-12.05747717 44.5778571 -10.36477287 43.40597617 -8.671875 42.234375 C-7.87072266 41.67814453 -7.06957031 41.12191406 -6.24414062 40.54882812 C-3.5168678 38.66655889 -0.765465 36.8255684 2 35 C0.09077473 28.96012384 -4.04029895 24.18778737 -7.74414062 19.15039062 C-8.27330078 18.41884766 -8.80246094 17.68730469 -9.34765625 16.93359375 C-9.83242432 16.27415771 -10.31719238 15.61472168 -10.81665039 14.93530273 C-12.03256726 12.94673805 -12.56603318 11.27761257 -13 9 C-11.20966193 7.68568828 -9.41768797 6.3736047 -7.625 5.0625 C-6.62726563 4.33160156 -5.62953125 3.60070312 -4.6015625 2.84765625 C-2 1 -2 1 0 0 Z " fill="#000000" transform="translate(272,152)"/>
<path d="M0 0 C2.86194195 2.15003986 5.46331106 4.47713498 8 7 C5.93687686 10.66415876 3.64127824 13.70548128 0.8125 16.8125 C0.09707031 17.60269531 -0.61835938 18.39289063 -1.35546875 19.20703125 C-2.16951172 20.09455078 -2.16951172 20.09455078 -3 21 C-3.58007812 20.57847656 -4.16015625 20.15695313 -4.7578125 19.72265625 C-10.81247026 15.30432131 -10.81247026 15.30432131 -18 14 C-23.7110274 15.11913062 -27.28322444 17.59546544 -30.8125 22.1796875 C-33.98720955 27.04618306 -34.83453278 32.28345046 -34 38 C-31.28567185 46.94494504 -26.45145245 52.93106837 -18.3125 57.4375 C-11.67762804 60.50417564 -5.77711122 61.46737205 1.2890625 59.296875 C6.98906909 56.77777097 10.30579895 53.06569714 13.3125 47.625 C14.80707692 41.91843359 14.69002346 37.85698513 11.875 32.75 C11.48054688 32.12609375 11.08609375 31.5021875 10.6796875 30.859375 C10 29 10 29 10.63671875 27.09375 C12.29566196 24.54591744 14.0596032 22.14195793 15.9375 19.75 C16.97197266 18.41195312 16.97197266 18.41195312 18.02734375 17.046875 C18.67832031 16.37140625 19.32929688 15.6959375 20 15 C20.99 15 21.98 15 23 15 C29.87237039 23.69101294 32.0906632 33.10700124 31 44 C28.05541279 56.43084259 20.66126959 66.40833745 9.9609375 73.31640625 C-0.06011985 78.72618024 -10.49702513 79.17821389 -21.26953125 75.96875 C-32.24949681 72.0731399 -41.15701242 64.79939407 -46.78125 54.56640625 C-51.56795587 44.48670831 -52.74306829 34.22096753 -49.09765625 23.5390625 C-44.21038297 12.23398195 -36.55536849 3.36766334 -25.04296875 -1.30859375 C-16.75201213 -4.11451979 -7.87808157 -4.08701906 0 0 Z " fill="#000000" transform="translate(203,231)"/>
<path d="M0 0 C1.65258789 1.29760742 1.65258789 1.29760742 2.72265625 3.10546875 C3.11517578 3.75966797 3.50769531 4.41386719 3.91210938 5.08789062 C4.29173828 5.78076172 4.67136719 6.47363281 5.0625 7.1875 C5.47693359 7.86103516 5.89136719 8.53457031 6.31835938 9.22851562 C9.14859175 14.13712508 9.14859175 14.13712508 8.5546875 17.5859375 C6.55941685 20.68412158 4.38592385 23.58297338 2.0625 26.4375 C1.05975939 27.69129714 0.05715897 28.94520641 -0.9453125 30.19921875 C-1.71149902 31.15127197 -1.71149902 31.15127197 -2.49316406 32.12255859 C-4.7877812 34.98153555 -7.05035263 37.86531236 -9.3125 40.75 C-9.75779053 41.3164624 -10.20308105 41.8829248 -10.66186523 42.46655273 C-13.85403568 46.52957017 -17.03027835 50.60479555 -20.20068359 54.68481445 C-21.394166 56.22047167 -22.5884936 57.75547242 -23.78369141 59.28979492 C-26.61370004 62.92329455 -29.43427877 66.56305106 -32.23046875 70.22265625 C-33.21612801 71.50261789 -34.20180413 72.78256655 -35.1875 74.0625 C-35.63287109 74.65224609 -36.07824219 75.24199219 -36.53710938 75.84960938 C-38.63972032 78.5669806 -39.66321101 79.887737 -43 81 C-44.40166223 78.97270313 -45.7695127 76.93283551 -47.125 74.875 C-47.52332031 74.30523437 -47.92164063 73.73546875 -48.33203125 73.1484375 C-49.4453125 71.4296875 -49.4453125 71.4296875 -51 68 C-50.2421875 65.0078125 -50.2421875 65.0078125 -49 62 C-48.18413999 55.39391018 -50.5754493 50.88384557 -53.4375 45.125 C-56.68094602 38.59837203 -58.59328209 33.32092241 -59 26 C-59.9437146 26.231427 -59.9437146 26.231427 -60.90649414 26.4675293 C-63.26173058 27.03281714 -65.62593303 27.52050864 -68 28 C-69.051875 28.226875 -70.10375 28.45375 -71.1875 28.6875 C-74.75489497 27.81547012 -75.2337227 26.6803357 -77.25 23.6875 C-78.18092634 22.13345361 -79.09888614 20.57152087 -80 19 C-80.66 18.01 -81.32 17.02 -82 16 C-82 15.01 -82 14.02 -82 13 C-66.94773318 10.05096786 -51.85794792 7.37830973 -36.72900391 4.85302734 C-33.08004894 4.24247872 -29.43262721 3.62325139 -25.78515625 3.00390625 C-23.44279679 2.61145085 -21.10035196 2.21950456 -18.7578125 1.828125 C-17.67863556 1.6438092 -16.59945862 1.45949341 -15.48757935 1.26959229 C-4.76794078 -0.50086577 -4.76794078 -0.50086577 0 0 Z M-23.5078125 19.05859375 C-24.74144531 19.27966797 -25.97507812 19.50074219 -27.24609375 19.72851562 C-28.52613281 19.96248047 -29.80617188 20.19644531 -31.125 20.4375 C-33.05666016 20.78264648 -33.05666016 20.78264648 -35.02734375 21.13476562 C-41.59054902 22.25729103 -41.59054902 22.25729103 -48 24 C-48.66489367 30.73204836 -46.37712085 35.43701823 -43.5 41.4375 C-43.07074219 42.35982422 -42.64148438 43.28214844 -42.19921875 44.23242188 C-41.14454193 46.49411773 -40.0780141 48.74935886 -39 51 C-35.42600634 47.50927142 -32.08926448 43.88920181 -28.875 40.0625 C-28.40924561 39.50981445 -27.94349121 38.95712891 -27.46362305 38.38769531 C-23.8430067 34.06402903 -20.30664331 29.67633451 -16.8125 25.25 C-16.09006104 24.3374646 -16.09006104 24.3374646 -15.35302734 23.40649414 C-13.03494409 20.9655757 -13.03494409 20.9655757 -12 18 C-15.96939965 17.87453845 -19.60294051 18.35533741 -23.5078125 19.05859375 Z " fill="#000000" transform="translate(766,281)"/>
<path d="M0 0 C1.42529297 1.38842773 1.42529297 1.38842773 2.7421875 3.18359375 C3.49435547 4.1900293 3.49435547 4.1900293 4.26171875 5.21679688 C4.79410156 5.94962891 5.32648438 6.68246094 5.875 7.4375 C7.03813632 8.99938807 8.20223038 10.56056328 9.3671875 12.12109375 C9.9662793 12.9291748 10.56537109 13.73725586 11.18261719 14.56982422 C14.06508216 18.42421116 17.03309738 22.21047883 20 26 C25.21113585 32.67858125 30.37406193 39.39208963 35.4987793 46.13720703 C39.12337932 50.89587051 42.84574027 55.54732972 46.70703125 60.1171875 C48 62 48 62 48 65 C45.94237091 65.70194375 43.87863969 66.38601697 41.8125 67.0625 C40.66394531 67.44535156 39.51539063 67.82820313 38.33203125 68.22265625 C33.69913976 69.30348322 31.24720119 68.67782673 27.125 66.4375 C20.60322359 63.43748285 13.78637089 65.48283284 7.04882812 66.93359375 C1.30388781 68.10375618 -4.32747847 68.89084051 -10 67 C-9.94199219 67.97582031 -9.88398438 68.95164062 -9.82421875 69.95703125 C-9.77910156 71.22933594 -9.73398437 72.50164062 -9.6875 73.8125 C-9.62949219 75.07707031 -9.57148438 76.34164062 -9.51171875 77.64453125 C-10 81 -10 81 -12.10473633 82.60424805 C-15.32534856 84.1568444 -18.31786535 84.94621386 -21.8125 85.6875 C-22.97394531 85.93886719 -24.13539063 86.19023437 -25.33203125 86.44921875 C-26.21246094 86.63097656 -27.09289062 86.81273437 -28 87 C-27.38451424 79.27873702 -26.76724013 71.55761908 -26.1478672 63.83666706 C-25.86011846 60.24900582 -25.57291795 56.66130269 -25.28710938 53.07348633 C-23.98262637 36.70319879 -22.63151393 20.34167733 -21 4 C-18.95977898 3.36629499 -16.91952607 2.73269766 -14.87902832 2.09988403 C-13.30811291 1.61114028 -11.73899552 1.11660848 -10.17089844 0.61889648 C-9.15044434 0.31060913 -9.15044434 0.31060913 -8.109375 -0.00390625 C-7.41811523 -0.21861572 -6.72685547 -0.4333252 -6.01464844 -0.65454102 C-3.6184259 -1.06542988 -2.25795009 -0.89776694 0 0 Z M-6 19 C-7.23497188 31.32455202 -8.33515537 43.63039069 -9 56 C-0.97597433 60.01201284 11.6310805 55.63106552 20 54 C16.92689438 48.24269295 13.2516868 43.28191466 9.1875 38.1875 C4.6384572 32.425654 0.21729839 26.66013915 -3.86328125 20.5546875 C-4.42595703 19.78511719 -4.42595703 19.78511719 -5 19 C-5.33 19 -5.66 19 -6 19 Z " fill="#000000" transform="translate(357,122)"/>
<path d="M0 0 C27.68506767 -0.11114655 55.33418537 -0.13587533 83 1 C81.89890331 6.77908929 80.22943562 12.02857817 77 17 C74.99732211 18.15792693 73.19919104 18.65096389 70.97265625 19.24609375 C64.31899104 21.78897966 60.94833914 31.61053388 57.97851562 37.63183594 C57.66462891 38.25219727 57.35074219 38.87255859 57.02734375 39.51171875 C56.62116821 40.33869263 56.62116821 40.33869263 56.20678711 41.18237305 C55 43 55 43 50 48 C53.3 51.3 56.6 54.6 60 58 C58.11994266 64.01618347 55.93937169 69.42532955 53 75 C48.80480758 71.53440626 44.88764919 67.93494625 41.0625 64.0625 C38.1864921 61.15194546 35.30785176 58.33387428 32.1875 55.6875 C28.42865088 52.47761059 24.97257866 49.01209591 21.5 45.5 C18.10994673 42.07154341 14.74805942 38.67739215 11.0625 35.5625 C4.65687546 30.13916346 -1.10754793 23.96693531 -7 18 C-6.02216461 15.37449704 -5.0427937 12.74958495 -4.0625 10.125 C-3.78470703 9.37863281 -3.50691406 8.63226563 -3.22070312 7.86328125 C-1.11328125 2.2265625 -1.11328125 2.2265625 0 0 Z M14 15 C18.21485921 20.10276833 18.21485921 20.10276833 22.875 24.4375 C25.57674832 26.73804886 28.14058549 29.09111706 30.625 31.625 C33.63208119 34.65263072 36.51470797 37.52157011 40 40 C42.60887985 39.81146767 43.67361687 39.35263378 45.45703125 37.42578125 C49.93628335 30.4422787 53.21503207 23.56993586 57 16 C42.81 15.67 28.62 15.34 14 15 Z " fill="#000000" transform="translate(116,325)"/>
<path d="M0 0 C3.18434069 1.03514282 6.30881978 2.15663844 9.4296875 3.37109375 C10.57953125 3.81453125 11.729375 4.25796875 12.9140625 4.71484375 C15.6796875 5.87109375 15.6796875 5.87109375 16.6796875 6.87109375 C16.78195513 9.57887046 16.81914551 12.26045181 16.8125 14.96875 C16.81447891 16.23714218 16.81447891 16.23714218 16.8164978 17.53115845 C16.81843448 20.33200589 16.81202534 23.13275621 16.8046875 25.93359375 C16.80335815 27.36029892 16.80335815 27.36029892 16.80200195 28.81582642 C16.77980934 49.17733519 16.29472302 69.52000785 15.6796875 89.87109375 C10.3996875 87.89109375 5.1196875 85.91109375 -0.3203125 83.87109375 C-0.3203125 78.59109375 -0.3203125 73.31109375 -0.3203125 67.87109375 C-1.9290625 67.97421875 -3.5378125 68.07734375 -5.1953125 68.18359375 C-11.86436722 68.23117321 -17.63301953 66.61943227 -23.91162109 64.56176758 C-28.76211136 63.03694495 -32.23674333 62.68063768 -37.3203125 63.87109375 C-38.0009375 64.24234375 -38.6815625 64.61359375 -39.3828125 64.99609375 C-43.0544543 66.65425456 -46.30646277 65.24597531 -49.9296875 63.90625 C-52.40641997 62.92325307 -54.86790733 61.91312361 -57.3203125 60.87109375 C-57.3203125 57.87109375 -57.3203125 57.87109375 -54.94140625 55.234375 C-53.88676542 54.21064924 -52.82512953 53.19409663 -51.7578125 52.18359375 C-50.64652872 51.10482742 -49.53714618 50.02409905 -48.4296875 48.94140625 C-47.89150391 48.41579102 -47.35332031 47.89017578 -46.79882812 47.34863281 C-44.35527429 44.90669295 -42.13257757 42.2922767 -39.89453125 39.6640625 C-37.73572427 37.20527241 -35.40365145 34.94401593 -33.0703125 32.65234375 C-31.23788763 30.78719701 -29.52678115 28.85181629 -27.8203125 26.87109375 C-25.5747331 24.26461766 -23.27479738 21.78174854 -20.8203125 19.37109375 C-18.38641518 16.98056208 -16.10675691 14.52063113 -13.8828125 11.93359375 C-12.69867176 10.57648863 -11.51102443 9.22243705 -10.3203125 7.87109375 C-9.30904297 6.72253906 -9.30904297 6.72253906 -8.27734375 5.55078125 C-7.59027344 4.81085938 -6.90320313 4.0709375 -6.1953125 3.30859375 C-5.57398438 2.62667969 -4.95265625 1.94476563 -4.3125 1.2421875 C-2.3203125 -0.12890625 -2.3203125 -0.12890625 0 0 Z M-0.3203125 19.87109375 C-2.0211258 21.63872471 -3.67779485 23.42538233 -5.3203125 25.24609375 C-5.8150708 25.79048096 -6.3098291 26.33486816 -6.81958008 26.89575195 C-8.32279685 28.55153545 -9.82202175 30.21085281 -11.3203125 31.87109375 C-12.12855469 32.76441406 -12.93679688 33.65773438 -13.76953125 34.578125 C-18.64777919 39.98421129 -23.48999184 45.42217616 -28.3203125 50.87109375 C-25.30355075 53.8878555 -21.680947 54.38825105 -17.6328125 55.49609375 C-16.84197266 55.72554687 -16.05113281 55.955 -15.23632812 56.19140625 C-10.44972139 57.51948211 -6.28911012 58.22275177 -1.3203125 57.87109375 C0.84531746 55.70546379 0.10767979 50.88163589 0.2421875 47.87109375 C0.30587524 46.53449707 0.30587524 46.53449707 0.37084961 45.17089844 C0.74267349 36.73491024 0.77810562 28.31318107 0.6796875 19.87109375 C0.3496875 19.87109375 0.0196875 19.87109375 -0.3203125 19.87109375 Z " fill="#000000" transform="translate(579.3203125,131.12890625)"/>
<path d="M0 0 C5.98756603 3.95405304 9.04081493 8.82963014 10.62890625 15.734375 C11.07292403 19.64173143 10.90616088 23.40536324 10.625 27.3125 C10.57609619 28.06072021 10.52719238 28.80894043 10.47680664 29.57983398 C10.12664812 34.73920975 9.65298776 39.86938185 9 45 C17.99072547 46.40386743 26.98944381 47.7301465 36 49 C36.02753831 50.5207267 36.04663375 52.04160674 36.0625 53.5625 C36.07410156 54.40941406 36.08570313 55.25632812 36.09765625 56.12890625 C35.9839999 59.47040302 35.49158255 62.69500034 35 66 C9.31767786 63.47140414 -16.34810527 60.82098277 -42 58 C-42.17400581 50.29402849 -41.50722061 42.78388211 -40.6875 35.125 C-40.51057617 33.32095703 -40.51057617 33.32095703 -40.33007812 31.48046875 C-39.14090523 20.24735862 -37.92513897 9.1127515 -29.0625 1.25 C-20.52239304 -5.0243643 -9.34454232 -4.6072495 0 0 Z M-22 17 C-24.39798887 19.39798887 -24.40796552 20.420622 -24.8515625 23.71875 C-24.98046875 24.65074219 -25.109375 25.58273437 -25.2421875 26.54296875 C-25.36851563 27.51878906 -25.49484375 28.49460937 -25.625 29.5 C-25.7590625 30.47582031 -25.893125 31.45164062 -26.03125 32.45703125 C-26.73120204 37.21221132 -26.73120204 37.21221132 -27 42 C-25.21042488 42.34438559 -23.41815936 42.67479226 -21.625 43 C-20.62726563 43.185625 -19.62953125 43.37125 -18.6015625 43.5625 C-14.04983763 44.11542103 -9.57848725 44.08235101 -5 44 C-4.57457547 40.62805013 -4.1900251 37.25262102 -3.8125 33.875 C-3.69197266 32.92367187 -3.57144531 31.97234375 -3.44726562 30.9921875 C-2.85463603 25.48646742 -2.59504662 21.70064361 -6 17 C-12.19706375 13.61978341 -16.10280831 12.96507937 -22 17 Z " fill="#000000" transform="translate(123,393)"/>
<path d="M0 0 C8.68437022 7.14957725 10.72388737 14.30939908 12.27734375 25.18359375 C14.91734375 20.89359375 17.55734375 16.60359375 20.27734375 12.18359375 C22.25734375 12.84359375 24.23734375 13.50359375 26.27734375 14.18359375 C24.66139041 18.65325191 22.40246815 22.59028377 20.02734375 26.68359375 C16.01761795 33.68580963 12.50828462 40.78410564 9.27734375 48.18359375 C6.30734375 47.68859375 6.30734375 47.68859375 3.27734375 47.18359375 C3.93734375 42.89359375 4.59734375 38.60359375 5.27734375 34.18359375 C4.31828125 35.54484375 4.31828125 35.54484375 3.33984375 36.93359375 C-0.51221277 41.49979558 -5.32770629 43.70926008 -11.2109375 44.53125 C-19.27973006 44.81986933 -25.87702688 43.01893843 -32.09765625 37.80859375 C-37.63402334 32.58041409 -39.78979343 27.72552762 -40.16015625 20.18359375 C-40.08000707 12.70968226 -37.18817568 5.82318037 -32.01171875 0.38671875 C-22.51999884 -6.91460426 -9.74014046 -6.4980851 0 0 Z M-30.09765625 8.55859375 C-33.16240329 13.50933896 -34.19888591 17.52028748 -33.26171875 23.23046875 C-31.78134444 28.59414379 -28.19735598 32.12770125 -23.72265625 35.18359375 C-19.28061639 37.65139367 -14.68496209 37.87303933 -9.72265625 37.18359375 C-3.90806597 35.07850725 -0.30595608 31.19186342 2.52734375 25.80859375 C3.82562314 21.26461589 3.76453434 17.58784899 2.21484375 13.12109375 C-1.46096111 7.54809928 -6.07089982 3.56937634 -12.72265625 2.18359375 C-19.82478592 1.39446823 -25.10933835 3.57027585 -30.09765625 8.55859375 Z " fill="#000000" transform="translate(765.72265625,571.81640625)"/>
<path d="M0 0 C4.49882878 1.33039295 7.10882594 4.03029511 9.4453125 8.09375 C10.08582217 10.94045964 9.80361456 12.80844279 9.0078125 15.59375 C9.6678125 15.26375 10.3278125 14.93375 11.0078125 14.59375 C15.80752557 14.46173432 19.12598796 14.8995477 22.9453125 17.90625 C25.84234542 21.68117168 27.40717725 24.14797733 26.8828125 28.96875 C26.81835938 29.69835937 26.75390625 30.42796875 26.6875 31.1796875 C25.07218802 36.91683005 21.04894449 40.75122332 16.6953125 44.59375 C15.73367188 45.44710937 14.77203125 46.30046875 13.78125 47.1796875 C10.53802108 50.00266704 7.29297064 52.81961646 4.0078125 55.59375 C-0.2748497 54.01805353 -2.67764466 50.7557781 -5.4921875 47.34375 C-6.555691 46.07657227 -7.61950225 44.80965276 -8.68359375 43.54296875 C-9.49981201 42.56529541 -9.49981201 42.56529541 -10.33251953 41.56787109 C-11.9614185 39.63034872 -13.61041867 37.71246475 -15.26953125 35.80078125 C-15.79933594 35.18944336 -16.32914063 34.57810547 -16.875 33.94824219 C-17.87990694 32.78994807 -18.88631553 31.63295427 -19.89453125 30.47753906 C-23.17833413 26.67152031 -26.11853973 22.71907737 -28.9921875 18.59375 C-8.40033746 -0.84304462 -8.40033746 -0.84304462 0 0 Z M-18.9921875 18.59375 C-17.71839031 21.33181872 -16.33975562 23.55972375 -14.3671875 25.84375 C-13.5834375 26.75125 -12.7996875 27.65875 -11.9921875 28.59375 C-7.74669846 28.06936656 -5.40214937 25.63932306 -2.3046875 22.84375 C-1.33144531 21.98265625 -0.35820313 21.1215625 0.64453125 20.234375 C3.08765706 17.50453526 3.91114403 16.21881755 4.0078125 12.59375 C2.33146989 9.86193242 0.93180044 8.11734316 -1.8671875 6.53125 C-8.36205737 6.72227558 -14.51425875 14.49395746 -18.9921875 18.59375 Z M-5.9921875 33.59375 C-4.67521606 37.39168279 -3.07562369 39.94703268 -0.3671875 42.90625 C0.26445313 43.60363281 0.89609375 44.30101562 1.546875 45.01953125 C2.02898438 45.53902344 2.51109375 46.05851563 3.0078125 46.59375 C8.95449036 42.99444498 16.86464966 37.88007567 20.0078125 31.59375 C20.55346113 27.50138525 20.36104424 26.05799744 17.8203125 22.71875 C15.2476185 20.4745184 15.2476185 20.4745184 12.5703125 20.03125 C5.09981579 21.67111513 -0.57908143 28.58716178 -5.9921875 33.59375 Z " fill="#000000" transform="translate(658.9921875,694.40625)"/>
<path d="M0 0 C5.4982538 5.34965235 8.43833302 11.26450464 8.625 18.9375 C8.53103137 26.7368963 6.25210647 31.36224576 1.0625 37.0625 C-4.57605332 42.30599544 -10.54778732 43.86660413 -18.171875 43.59765625 C-25.49024442 42.58626669 -31.7492917 38.64996284 -36.6875 33.25 C-41.2179477 26.90186507 -42.36872031 20.89480566 -41.6875 13.25 C-40.21587184 6.49048759 -36.50610557 1.03176564 -30.91796875 -3.0390625 C-20.18184915 -9.54154888 -9.84614249 -6.41144162 0 0 Z M-32.6875 7.875 C-35.26757268 12.5963575 -35.71576167 16.99165371 -34.6875 22.25 C-32.24898886 28.40536073 -28.23291983 31.86113233 -22.6875 35.25 C-18.33700335 36.70016555 -14.23415815 36.76070107 -9.6875 36.25 C-4.69680901 33.7546545 -0.94993893 30.49627154 1.10546875 25.2109375 C2.74689123 19.42119274 2.16492923 15.5044749 -0.6875 10.25 C-3.86077686 4.7919638 -8.94433832 2.4226069 -14.6875 0.25 C-22.05155356 -0.89269797 -28.35720179 1.83215447 -32.6875 7.875 Z " fill="#000000" transform="translate(714.6875,662.75)"/>
<path d="M0 0 C3.57297961 1.1909932 3.94245439 2.03332688 5.8828125 5.1484375 C6.41003906 5.98890625 6.93726563 6.829375 7.48046875 7.6953125 C8.02316406 8.57960938 8.56585938 9.46390625 9.125 10.375 C9.95064453 11.68984375 9.95064453 11.68984375 10.79296875 13.03125 C15.02614324 19.83345176 16.947314 24.87645802 16 33 C13.95835443 36.49996383 11.90910064 38.80555258 8 40 C3.59713091 40.42755134 -0.19610843 40.53592772 -4 38 C-4.020625 38.99 -4.04125 39.98 -4.0625 41 C-4.79671503 46.25655397 -8.39431284 49.37154008 -12 53 C-12.51949219 53.53367187 -13.03898437 54.06734375 -13.57421875 54.6171875 C-14.70090744 55.76001786 -15.84788983 56.88280226 -17 58 C-18.9375 57.25 -18.9375 57.25 -21 56 C-21.62890625 53.921875 -21.62890625 53.921875 -22 52 C-21.30132812 51.39671875 -20.60265625 50.7934375 -19.8828125 50.171875 C-18.97273438 49.37265625 -18.06265625 48.5734375 -17.125 47.75 C-16.22007812 46.96109375 -15.31515625 46.1721875 -14.3828125 45.359375 C-11.2106312 42.21839549 -10.02856616 40.3997418 -9.9375 35.9375 C-10.89756572 30.300191 -14.81311284 25.60143237 -18 21 C-19.89606452 22.10376962 -21.79184154 23.20803313 -23.6875 24.3125 C-25.27111328 25.23482422 -25.27111328 25.23482422 -26.88671875 26.17578125 C-28.86349153 27.33406593 -30.82650714 28.51642125 -32.76953125 29.73046875 C-35 31 -35 31 -37 31 C-37.66 29.02 -38.32 27.04 -39 25 C-28.44241201 17.86692112 -17.76660429 10.93494287 -6.94042969 4.21533203 C-5.32050831 3.20074111 -3.72354637 2.14961059 -2.1328125 1.08984375 C-1.42898437 0.73019531 -0.72515625 0.37054687 0 0 Z M-2 9 C-4.8057554 10.43117031 -4.8057554 10.43117031 -7.6875 12.4375 C-8.68136719 13.09621094 -9.67523438 13.75492188 -10.69921875 14.43359375 C-11.83810547 15.20896484 -11.83810547 15.20896484 -13 16 C-11.92188894 17.89880796 -10.83726681 19.79391978 -9.75 21.6875 C-9.14671875 22.74324219 -8.5434375 23.79898438 -7.921875 24.88671875 C-4.39303283 30.8806065 -4.39303283 30.8806065 1.4375 34.125 C5.10622176 34.30848379 5.10622176 34.30848379 8 32 C10.32856737 29.14395328 10.32856737 29.14395328 9.8671875 25.7109375 C8.91340775 21.62944759 7.49183038 19.06687422 5.125 15.625 C4.42632812 14.58601562 3.72765625 13.54703125 3.0078125 12.4765625 C1.17218629 9.75863004 1.17218629 9.75863004 -2 9 Z " fill="#000000" transform="translate(191,620)"/>
<path d="M0 0 C4.97705037 0.41784938 7.89235065 3.01092708 11.5 6.1875 C12.05558594 6.65736328 12.61117187 7.12722656 13.18359375 7.61132812 C18.40989885 12.1182477 23.56482051 16.56738602 24.2734375 23.78515625 C24.55391572 32.83597269 23.17482292 39.10314563 17.23828125 46.06640625 C11.80862673 51.3418718 5.92677217 53.92041925 -1.66015625 54.04296875 C-10.10508112 53.13164592 -15.68267489 48.33340402 -22 43 C-22.68964844 42.43796875 -23.37929687 41.8759375 -24.08984375 41.296875 C-25.40891205 40.21679084 -26.70811576 39.11245587 -28 38 C-26.58931327 33.8056587 -24.5868483 31.07167564 -21.6875 27.75 C-17.29606025 22.63420755 -13.14351519 17.36634266 -9.0625 12 C-8.50715576 11.27006836 -7.95181152 10.54013672 -7.37963867 9.78808594 C-4.9090767 6.53334467 -2.45027506 3.27004118 0 0 Z M2 9 C0.6226355 10.33192835 0.6226355 10.33192835 -0.7578125 12.11328125 C-1.56762573 13.11294922 -1.56762573 13.11294922 -2.39379883 14.1328125 C-2.96509521 14.85210938 -3.5363916 15.57140625 -4.125 16.3125 C-4.70596436 17.03566406 -5.28692871 17.75882813 -5.88549805 18.50390625 C-10.44004626 24.20831195 -14.80829912 30.02271053 -19 36 C-14.27949565 41.17732736 -8.27336683 47.19651679 -0.9375 47.6875 C5.10286333 46.63283339 9.07076957 43.98137179 13.3125 39.625 C16.80751915 34.18830354 18.77226338 29.73059164 17.76953125 23.2734375 C15.58785902 16.82809111 9.77127604 12.22117732 4 9 C3.34 9 2.68 9 2 9 Z " fill="#000000" transform="translate(253,698)"/>
<path d="M0 0 C6.20671756 3.77453488 10.42484481 9.52031605 12.5 16.4375 C13.53705022 24.86193266 12.1731635 31.63193635 6.9921875 38.41015625 C2.12594214 43.74039244 -3.26596642 46.89567776 -10.4609375 47.81640625 C-18.45429172 48.12848935 -23.79682417 46.85074747 -29.6953125 41.4140625 C-35.09089501 35.74773392 -37.18866286 31.36034795 -37.8125 23.5 C-37.52063874 15.51221817 -34.10136982 10.13100022 -28.65234375 4.42578125 C-20.97633826 -2.66512038 -9.7282471 -4.32158669 0 0 Z M-27.5 13.4375 C-30.8218757 18.25957763 -31.23630363 22.75159977 -30.5 28.4375 C-28.42899464 34.42040437 -24.54303578 37.62812737 -19.1875 40.8125 C-13.85610232 42.05235993 -9.15870244 41.28311301 -4.3125 38.8125 C0.76964568 34.52091031 5.23330097 30.19322815 6.5 23.4375 C6.30037237 17.94774006 4.83474585 13.74488005 1.5 9.4375 C-8.32346999 0.75629396 -19.26282444 4.75334592 -27.5 13.4375 Z " fill="#000000" transform="translate(226.5,667.5625)"/>
<path d="M0 0 C4.97465537 5.24355566 7.96748418 11.92284413 8.375 19.15625 C8.14918017 27.39867363 6.08025005 34.3586265 0.3125 40.4375 C-6.44222561 45.58166826 -13.40421829 46.47719467 -21.6875 45.4375 C-28.83633328 43.88957081 -32.75239891 40.12514041 -36.9375 34.3125 C-41.06765056 27.52725265 -40.88661711 17.49364984 -39.07421875 9.8515625 C-36.2899416 3.64520021 -30.84158799 -0.95041058 -24.875 -4 C-15.57434604 -5.64129188 -8.13053277 -4.72705394 0 0 Z M-28.4375 6.625 C-32.43357478 11.62009348 -34.02556028 16.07149598 -33.625 22.5 C-32.72007936 28.76705677 -30.74685042 32.84045274 -25.625 36.8125 C-21.08927126 39.32162654 -17.84824256 39.86051169 -12.6875 39.4375 C-7.44551963 37.6380142 -3.65177484 35.22594398 -0.6875 30.4375 C1.71841699 25.02418678 2.24801981 19.78744517 0.66015625 14.1015625 C-1.18057971 9.3456696 -3.31708971 6.0149693 -7.69921875 3.3125 C-15.45046554 -0.09865772 -21.86764164 1.39897631 -28.4375 6.625 Z " fill="#000000" transform="translate(458.6875,775.5625)"/>
<path d="M0 0 C5.61766592 4.89912726 9.32498515 11.86016239 9.89453125 19.25390625 C10.15356524 27.60516208 9.08540357 33.68178386 3.296875 40.12109375 C-4.10993584 46.27554527 -17.00075292 48.46484375 -26.3203125 48.46484375 C-27.60757959 42.2729465 -28.88869083 36.07979869 -30.16552734 29.88574219 C-30.60063253 27.77867799 -31.03714689 25.67190427 -31.47509766 23.56542969 C-32.10429518 20.53786246 -32.72842017 17.50928729 -33.3515625 14.48046875 C-33.54842651 13.5386676 -33.74529053 12.59686646 -33.94812012 11.62652588 C-34.12830688 10.74591492 -34.30849365 9.86530396 -34.49414062 8.95800781 C-34.65402466 8.18523499 -34.81390869 7.41246216 -34.9786377 6.61627197 C-35.3203125 4.46484375 -35.3203125 4.46484375 -35.3203125 0.46484375 C-9.35921854 -5.64364895 -9.35921854 -5.64364895 0 0 Z M-27.3203125 5.46484375 C-26.71928527 13.27158091 -25.41913232 20.85470276 -23.8828125 28.52734375 C-23.55700195 30.23567383 -23.55700195 30.23567383 -23.22460938 31.97851562 C-22.90266602 33.59790039 -22.90266602 33.59790039 -22.57421875 35.25 C-22.38158447 36.228479 -22.1889502 37.20695801 -21.99047852 38.21508789 C-21.76932373 38.95750732 -21.54816895 39.69992676 -21.3203125 40.46484375 C-16.93382346 42.65808827 -10.74507127 39.9292282 -6.3203125 38.46484375 C-2.11073018 35.9531263 0.85492527 33.05618096 2.6796875 28.46484375 C3.66411609 21.19609777 2.81502663 14.60631466 -1.3203125 8.46484375 C-4.10487128 5.23384756 -6.69318866 3.6931268 -10.9375 3.09765625 C-16.69301463 2.95416697 -21.82693726 3.80646632 -27.3203125 5.46484375 Z " fill="#000000" transform="translate(529.3203125,768.53515625)"/>
<path d="M0 0 C2.9375 1.5 2.9375 1.5 5 3 C4.67 4.65 4.34 6.3 4 8 C3.01 8.33 2.02 8.66 1 9 C0.34 8.67 -0.32 8.34 -1 8 C-3.87306228 7.49904977 -3.87306228 7.49904977 -7 8 C-11.32195446 11.53614456 -13.74557853 14.50666962 -14.3125 20.0625 C-14.22430027 22.9518829 -14.22430027 22.9518829 -12.8125 24.875 C-10.23429392 26.47526584 -8.99879763 26.55791584 -6 26 C-2.20876847 23.36262155 0.57845731 20.38335388 3.5625 16.875 C7.42871899 12.40099113 9.88479599 10.23502267 15.9375 9.5625 C20.24529758 9.75757008 22.76909056 11.06964027 26 14 C28.80418449 18.61333577 29.53159948 22.36171296 28.69921875 27.59765625 C26.79821596 34.12903456 22.89497133 40.54611744 17.0625 44.23046875 C12.22012263 46.03718909 6.40091894 46.05769126 1.66796875 43.97265625 C0.84232422 43.49119141 0.84232422 43.49119141 0 43 C0.8125 40.5625 0.8125 40.5625 2 38 C5 37 5 37 8.375 37.5625 C12.14952355 38.01804595 13.77483717 37.9350977 17 36 C18.25827123 34.15017528 18.25827123 34.15017528 19 32 C19.37125 31.401875 19.7425 30.80375 20.125 30.1875 C21.38637839 27.03405402 21.24432559 24.35947682 21 21 C19.33433664 17.74234245 19.33433664 17.74234245 16.3125 17.4375 C9.28842781 18.63026697 4.97032956 24.97687339 0.67578125 30.265625 C-2.32570217 33.3720554 -4.57809137 33.95917013 -8.875 34.375 C-13.23478095 34.23698086 -15.72664113 32.96886037 -19 30 C-21.85011253 25.3111052 -22.47750952 21.57645793 -21.63671875 16.26953125 C-19.75792221 9.57271659 -15.53865905 4.97338584 -10 1 C-6.42365687 -0.19211438 -3.75935317 -0.25926574 0 0 Z " fill="#000000" transform="translate(725,616)"/>
<path d="M0 0 C4.55958891 2.86526696 7.32364634 5.6554156 9.4453125 10.63671875 C10.25638321 15.86361885 9.69202501 20.20908123 8.0078125 25.26171875 C6.0278125 24.93171875 4.0478125 24.60171875 2.0078125 24.26171875 C1.0078125 21.26171875 1.0078125 21.26171875 1.6953125 17.44921875 C2.14978977 14.10819663 1.99193472 13.22513083 0.5703125 9.94921875 C-3.10232833 6.09742471 -6.73281911 4.40820722 -12.078125 4.16796875 C-17.02933923 4.54737214 -20.35666229 5.94935133 -23.9921875 9.26171875 C-28.06215568 15.23243725 -30.25467304 21.03364217 -28.9921875 28.26171875 C-26.96149393 33.92628501 -23.82414998 36.65438869 -18.6796875 39.57421875 C-14.88695577 40.54445245 -11.65537226 40.58886147 -7.9921875 39.26171875 C-5.83592855 37.49787466 -3.88703058 35.59351281 -1.890625 33.65234375 C-1.26414062 33.1934375 -0.63765625 32.73453125 0.0078125 32.26171875 C3.5078125 32.82421875 3.5078125 32.82421875 6.0078125 34.26171875 C5.52940643 38.56737336 3.21591444 40.53141922 0.0078125 43.26171875 C-5.76597015 47.22638283 -11.07749863 48.15500392 -17.9921875 47.26171875 C-24.00723376 45.95033029 -29.04825418 43.01440802 -32.9921875 38.26171875 C-37.07540464 31.17932442 -38.28789115 24.40813718 -36.296875 16.5 C-33.73181964 8.6000606 -30.33838044 2.69868941 -22.8046875 -1.17578125 C-15.07348991 -4.17730502 -7.36532558 -3.76185984 0 0 Z " fill="#000000" transform="translate(360.9921875,756.73828125)"/>
<path d="M0 0 C0.33 1.98 0.66 3.96 1 6 C0.37432129 6.23710693 -0.25135742 6.47421387 -0.89599609 6.71850586 C-3.72274269 7.7904212 -6.54887746 8.86394047 -9.375 9.9375 C-10.35984375 10.31068359 -11.3446875 10.68386719 -12.359375 11.06835938 C-13.30039062 11.42607422 -14.24140625 11.78378906 -15.2109375 12.15234375 C-16.08024902 12.48226318 -16.94956055 12.81218262 -17.84521484 13.15209961 C-20.00160483 13.96386752 -20.00160483 13.96386752 -22 15 C-20.68 18.63 -19.36 22.26 -18 26 C-13.11909284 24.57640208 -8.33086813 23.17674224 -3.625 21.25 C-0.03703854 20.01277191 0.64645165 19.90677278 4 21 C4.495 22.98 4.495 22.98 5 25 C-1.2662686 27.84555192 -7.59384869 30.48568591 -14 33 C-14 36.90775329 -13.47934752 38.73654963 -12 42.25 C-11.62875 43.14203125 -11.2575 44.0340625 -10.875 44.953125 C-10.58625 45.62859375 -10.2975 46.3040625 -10 47 C-3.05166043 45.07077705 3.61704021 42.66488605 10.3125 39.98828125 C13 39 13 39 15 39 C15.66 40.98 16.32 42.96 17 45 C12.92730877 46.5729434 8.85217757 48.13933576 4.7746582 49.69970703 C3.38790087 50.23144063 2.00182615 50.76495802 0.61645508 51.30029297 C-1.37502078 52.06948357 -3.36886369 52.83222484 -5.36328125 53.59375 C-6.56251221 54.05458984 -7.76174316 54.51542969 -8.99731445 54.99023438 C-12 56 -12 56 -15 56 C-17.30995558 49.93594334 -19.60545059 43.86655924 -21.89086914 37.79321289 C-22.67040665 35.72684559 -23.45327302 33.66173096 -24.23950195 31.59790039 C-25.36762418 28.63488914 -26.4837835 25.66761121 -27.59765625 22.69921875 C-27.952798 21.7741301 -28.30793976 20.84904144 -28.67384338 19.8959198 C-29.15445473 18.60492119 -29.15445473 18.60492119 -29.64477539 17.2878418 C-29.93123428 16.53061325 -30.21769318 15.7733847 -30.51283264 14.99320984 C-31 13 -31 13 -30 10 C-27.45556641 8.74145508 -27.45556641 8.74145508 -24.1015625 7.51953125 C-22.90015625 7.07802734 -21.69875 6.63652344 -20.4609375 6.18164062 C-19.83155273 5.95710205 -19.20216797 5.73256348 -18.55371094 5.5012207 C-16.63514479 4.81612259 -14.72361409 4.11378842 -12.8125 3.40820312 C-3.43617682 0 -3.43617682 0 0 0 Z " fill="#000000" transform="translate(572,748)"/>
<path d="M0 0 C1.98 0 3.96 0 6 0 C6.14381869 8.72500028 5.69587639 17.30154513 5 26 C9.62 26 14.24 26 19 26 C18.98839844 24.83082031 18.97679687 23.66164063 18.96484375 22.45703125 C18.95546087 20.90885577 18.9463612 19.36067855 18.9375 17.8125 C18.92912109 17.04357422 18.92074219 16.27464844 18.91210938 15.48242188 C18.89508066 11.51473211 19.01395885 7.87428766 20 4 C21.98 4 23.96 4 26 4 C25.67 11.59 25.34 19.18 25 27 C30.28 27 35.56 27 41 27 C41.33 18.42 41.66 9.84 42 1 C43.98 1 45.96 1 48 1 C48.09920291 12.05561292 48.12520495 22.98906587 47 34 C37.67246114 34.12184013 28.38228572 33.95881462 19.0625 33.5625 C18.104646 33.52326416 17.14679199 33.48402832 16.15991211 33.44360352 C10.40141078 33.18314869 4.72212092 32.69839219 -1 32 C-1.20638953 9.19872014 -1.20638953 9.19872014 0 0 Z " fill="#000000" transform="translate(749,472)"/>
<path d="M0 0 C1.49652096 3.32580253 2.96894434 6.66176574 4.4375 10 C4.85837891 10.93457031 5.27925781 11.86914062 5.71289062 12.83203125 C8.67434823 19.60784624 10.97299143 25.35128214 9 32.75 C6.61313125 36.62866172 4.29462562 38.64843253 0 40 C-4.78483592 40.72407033 -8.4380362 40.99993785 -12.60546875 38.33203125 C-15.23774395 35.76846144 -16.60460485 33.49333195 -18.1875 30.1875 C-18.67605469 29.19105469 -19.16460937 28.19460938 -19.66796875 27.16796875 C-21.08421458 23.79971253 -22.06596016 20.52810308 -23 17 C-23.79434448 17.37137085 -23.79434448 17.37137085 -24.60473633 17.75024414 C-27.00275689 18.86448388 -29.40741059 19.96360712 -31.8125 21.0625 C-33.06256836 21.64741211 -33.06256836 21.64741211 -34.33789062 22.24414062 C-35.14033203 22.60830078 -35.94277344 22.97246094 -36.76953125 23.34765625 C-37.50792236 23.68804932 -38.24631348 24.02844238 -39.00708008 24.37915039 C-41 25 -41 25 -44 24 C-44.33 22.35 -44.66 20.7 -45 19 C-36.60910003 14.67589152 -28.10362896 10.73763718 -19.44213867 6.99316406 C-17.40581405 6.11127752 -15.3738047 5.21990613 -13.34179688 4.328125 C-12.03931084 3.76244869 -10.73658545 3.19732307 -9.43359375 2.6328125 C-8.26884521 2.12637207 -7.10409668 1.61993164 -5.90405273 1.09814453 C-3 0 -3 0 0 0 Z M-12.1875 11.5 C-13.27417969 11.9640625 -14.36085937 12.428125 -15.48046875 12.90625 C-16.31191406 13.2671875 -17.14335937 13.628125 -18 14 C-16.95441224 16.59137024 -15.88972121 19.17180597 -14.8125 21.75 C-14.52052734 22.47960937 -14.22855469 23.20921875 -13.92773438 23.9609375 C-12.03456227 28.43940914 -10.36091487 31.4641075 -6 34 C-2.28786141 33.5942372 -2.28786141 33.5942372 1 32 C3.37205626 28.44191561 3.40071344 27.1974733 3 23 C2.08059972 20.44428613 1.13556017 18.07515009 0 15.625 C-0.28617188 14.98433594 -0.57234375 14.34367188 -0.8671875 13.68359375 C-1.5682317 12.11792837 -2.28275118 10.55830844 -3 9 C-6.62850626 9 -8.86167278 10.06953668 -12.1875 11.5 Z " fill="#000000" transform="translate(175,580)"/>
<path d="M0 0 C4.875 1.75 4.875 1.75 6 4 C4.84423828 6.56616211 4.84423828 6.56616211 3.0703125 9.77734375 C2.43996094 10.93041016 1.80960937 12.08347656 1.16015625 13.27148438 C0.48217617 14.49371452 -0.19621387 15.71571733 -0.875 16.9375 C-2.18842321 19.31970156 -3.49684605 21.7045647 -4.8046875 24.08984375 C-5.39233887 25.15066162 -5.97999023 26.21147949 -6.58544922 27.30444336 C-9.16672191 32.22329593 -9.83902297 36.73713289 -8.4375 42.1875 C-5.20916117 46.25801418 -1.35711091 47.83621075 3.625 48.4375 C7.43892109 47.94310282 8.94710511 47.31836379 12 45 C13.88980259 42.46699492 15.40733787 39.76130982 16.9375 37 C17.3691748 36.24340088 17.80084961 35.48680176 18.24560547 34.70727539 C19.51152226 32.47925237 20.75908747 30.24202779 22 28 C22.34337402 27.38237793 22.68674805 26.76475586 23.04052734 26.12841797 C24.72028593 23.09961691 26.37496619 20.05849859 28 17 C32 17 32 17 33.75 18.5 C34.36875 19.2425 34.36875 19.2425 35 20 C32.94538757 23.85842076 30.8799075 27.71092206 28.8125 31.5625 C28.23435547 32.64853516 27.65621094 33.73457031 27.06054688 34.85351562 C17.36293403 52.87902199 17.36293403 52.87902199 8 56 C0.19707227 56.78029277 -5.91202841 53.88524783 -11.9375 49.125 C-15.55756473 45.74851271 -16.76410372 42.93185379 -17.1640625 37.9609375 C-16.94107097 24.62604382 -6.55719531 11.1611835 0 0 Z " fill="#000000" transform="translate(292,726)"/>
<path d="M0 0 C7.3450991 0.56756667 14.42941027 1.75092413 21.625 3.3125 C22.60984375 3.51294922 23.5946875 3.71339844 24.609375 3.91992188 C31.70828149 5.44855307 38.34455872 7.14029401 43.4375 12.625 C46.74453935 19.768205 46.56120702 26.35307004 44.01953125 33.734375 C41.88012275 38.48861611 38.9493494 42.06367558 34 44 C20.56078058 45.78563055 7.02242965 41.90589528 -6 39 C-6.93423645 35.98968256 -7.04449911 35.13349732 -6 32 C1.38004268 32.70818591 8.47730368 34.04954055 15.71484375 35.62695312 C24.31506248 37.5292949 24.31506248 37.5292949 32.75 35.8125 C36.12173553 33.09637971 37.73786387 30.96921775 38.3203125 26.59375 C38.49396608 22.65760212 38.59568093 19.92926225 36.4375 16.5625 C29.50265683 12.11708771 22.18374849 10.85969026 14.1875 9.375 C11.93052414 8.94776401 9.67398795 8.51819665 7.41796875 8.0859375 C5.92946411 7.8082251 5.92946411 7.8082251 4.41088867 7.52490234 C2 7 2 7 0 6 C0 4.02 0 2.04 0 0 Z " fill="#000000" transform="translate(746,515)"/>
<path d="M0 0 C8.90001101 0.53911561 17.50238303 1.86711495 26.25 3.5625 C28.10044922 3.91344727 28.10044922 3.91344727 29.98828125 4.27148438 C32.99327447 4.84220014 35.99708815 5.41845017 39 6 C38.67 7.98 38.34 9.96 38 12 C36.08302063 11.85833643 34.16642277 11.71150416 32.25 11.5625 C31.18265625 11.48128906 30.1153125 11.40007813 29.015625 11.31640625 C26.55228327 11.05794682 24.38045134 10.63104418 22 10 C21.79636841 11.22348145 21.79636841 11.22348145 21.58862305 12.47167969 C21.0724343 15.55876362 20.55188158 18.64507412 20.02856445 21.73095703 C19.69611589 23.69899542 19.36850109 25.66784841 19.04101562 27.63671875 C17.698862 35.52938333 16.07940158 43.26798788 14 51 C12.02 50.67 10.04 50.34 8 50 C8.70154799 40.99532072 10.3567157 32.22934777 12.0625 23.375 C12.34740181 21.87898172 12.63191003 20.38288844 12.91601562 18.88671875 C13.60614489 15.25693709 14.30158318 11.6281973 15 8 C13.97156982 7.90150757 13.97156982 7.90150757 12.92236328 7.80102539 C12.02243652 7.71328857 11.12250977 7.62555176 10.1953125 7.53515625 C9.30344238 7.44886963 8.41157227 7.36258301 7.49267578 7.27368164 C4.95415624 6.99496662 2.48731644 6.58037384 0 6 C0 4.02 0 2.04 0 0 Z " fill="#000000" transform="translate(378,764)"/>
<path d="M0 0 C3.26385704 1.46309523 4.04293749 3.85690553 5.66430664 6.98730469 C5.9844725 7.59552063 6.30463837 8.20373657 6.63450623 8.8303833 C7.65600732 10.77732521 8.65851811 12.73333143 9.66040039 14.69042969 C10.66993672 16.63089981 11.6832274 18.56937305 12.69700623 20.50762939 C13.61864054 22.27474577 14.53147789 24.04644191 15.44384766 25.81835938 C16.50515887 27.82161366 17.62432892 29.79584795 18.8125 31.7265625 C20.09790039 33.94042969 20.09790039 33.94042969 20.09790039 35.94042969 C21.16008789 35.40933594 22.22227539 34.87824219 23.31665039 34.33105469 C30.24373372 30.86751302 37.17081706 27.40397135 44.09790039 23.94042969 C47.09790039 27.69042969 47.09790039 27.69042969 47.09790039 29.94042969 C43.47146324 31.92170825 39.84185037 33.89702607 36.20922852 35.86694336 C34.97462296 36.53752332 33.74088783 37.20970845 32.50805664 37.88354492 C30.73302742 38.85336935 28.95456335 39.81689871 27.17602539 40.78027344 C26.10771484 41.36156006 25.0394043 41.94284668 23.9387207 42.54174805 C21.59665646 43.69486648 19.64493223 44.46487627 17.09790039 44.94042969 C16.609104 44.01818604 16.12030762 43.09594238 15.61669922 42.14575195 C13.78181964 38.68433928 11.94576421 35.22355142 10.109375 31.76293945 C9.31869556 30.27254655 8.52832399 28.78199027 7.73828125 27.29125977 C6.9707291 25.84305733 6.20273897 24.39508694 5.43429565 22.94735718 C4.6851034 21.53568033 3.93698423 20.12343343 3.18997192 18.71060181 C0.83718782 14.275628 -1.60546974 9.9099367 -4.21582031 5.61987305 C-4.90209961 3.94042969 -4.90209961 3.94042969 -3.90209961 0.94042969 C-1.90209961 -0.05957031 -1.90209961 -0.05957031 0 0 Z " fill="#000000" transform="translate(584.902099609375,741.0595703125)"/>
<path d="M0 0 C2.68601216 1.90848233 3.7337462 3.32549038 4.9375 6.375 C5.0221688 9.93108969 3.83947665 12.00233435 2 15 C-1.05693322 16.52846661 -3.62984547 16.23242445 -7 16 C-9.375 14.9375 -9.375 14.9375 -11 13 C-12.10373378 9.02655839 -12.41543583 6.91000228 -10.6875 3.125 C-7.63346061 -0.72082738 -4.73012808 -0.40776966 0 0 Z " fill="#000000" transform="translate(773,388)"/>
<path d="M0 0 C2.99097304 2.54232708 3.84202557 4.1574697 4.5625 8 C3.79301948 12.10389613 2.32878632 13.53959272 -1 16 C-4.78454468 16.70960213 -6.46714413 16.27801176 -9.875 14.5 C-12.4599138 11.45892495 -12.69344392 9.79963955 -12.41015625 5.90625 C-12 4 -12 4 -10.5 1.5 C-6.98105682 -0.61136591 -3.99893269 -0.94237143 0 0 Z " fill="#000000" transform="translate(135,519)"/>
</svg>
