<?xml version="1.0" encoding="UTF-8"?>
<svg version="1.1" xmlns="http://www.w3.org/2000/svg" width="410" height="361">
<path d="M0 0 C1.56453692 1.34892007 3.10618357 2.72480081 4.625 4.125 C5.47707031 4.89714844 6.32914063 5.66929687 7.20703125 6.46484375 C13.14903107 12.10395302 17.6135371 17.996939 21.625 25.125 C22.31722656 26.32576172 22.31722656 26.32576172 23.0234375 27.55078125 C33.23369204 46.45522223 34.40629463 69.53494732 28.36132812 89.93896484 C21.21319183 111.16058698 6.53390637 127.47728077 -13.125 137.8125 C-22.22219601 142.22236081 -32.18898761 145.69536152 -42.375 146.125 C-43.44878906 146.1765625 -44.52257812 146.228125 -45.62890625 146.28125 C-68.51026491 146.85388046 -88.13446601 139.60630027 -105.37890625 124.4921875 C-111.51336622 118.63315226 -116.25279916 112.52548654 -120.375 105.125 C-120.83519531 104.32578125 -121.29539063 103.5265625 -121.76953125 102.703125 C-131.14135514 85.37516059 -133.21952626 63.52443881 -128.41015625 44.48828125 C-124.93050336 33.18269206 -120.50768638 23.65936171 -113.375 14.125 C-112.89417969 13.47144531 -112.41335937 12.81789062 -111.91796875 12.14453125 C-85.48662004 -21.1422105 -32.93739837 -25.38389203 0 0 Z M-105.78515625 11.43359375 C-121.76457917 28.1256496 -126.90358937 48.43487362 -126.6640625 70.984375 C-126.36446307 80.84391991 -123.96592426 89.36409583 -119.375 98.125 C-118.50359375 97.64289063 -117.6321875 97.16078125 -116.734375 96.6640625 C-109.02263463 92.52958583 -102.21991731 89.91877463 -93.375 89.125 C-93.684375 88.25875 -93.99375 87.3925 -94.3125 86.5 C-96.04803562 80.55486735 -96.05094031 74.27360618 -96.375 68.125 C-98.26679203 67.4435177 -98.26679203 67.4435177 -100.375 67.125 C-101.365 68.115 -101.365 68.115 -102.375 69.125 C-106.71141175 70.28137647 -109.43697655 70.36009439 -113.375 68.125 C-116.73937721 64.88077912 -116.82150764 61.63200925 -117.375 57.125 C-117.74625 56.279375 -118.1175 55.43375 -118.5 54.5625 C-119.65271753 51.35135832 -119.29524395 49.38124783 -118.375 46.125 C-116.84194603 44.08092804 -115.73882761 43.27280497 -113.375 42.3125 C-111.07721786 41.21862177 -111.07721786 41.21862177 -110.1875 38.25 C-107.86506348 34.2457991 -105.7087366 33.74573227 -101.52734375 32.1328125 C-98.60351326 30.76375938 -97.20447156 28.72847876 -95.375 26.125 C-91.63485095 24.87828365 -88.25319029 24.48598001 -84.375 25.125 C-79.21137089 28.34008983 -77.55294522 31.58113945 -75.375 37.125 C-74.653125 37.888125 -73.93125 38.65125 -73.1875 39.4375 C-71.09481452 42.54044744 -71.24479061 43.50099284 -71.4375 47.125 C-71.65953849 51.47335135 -71.65953849 51.47335135 -68.9375 55.0625 C-68.091875 55.743125 -67.24625 56.42375 -66.375 57.125 C-66.045 58.115 -65.715 59.105 -65.375 60.125 C-64.859375 60.5375 -64.34375 60.95 -63.8125 61.375 C-62.375 63.125 -62.375 63.125 -62 66.625 C-62.375 70.125 -62.375 70.125 -63.640625 71.83642578 C-65.80906055 73.44749037 -66.83238948 73.41847449 -69.5 73.2421875 C-70.68335938 73.19384766 -70.68335938 73.19384766 -71.890625 73.14453125 C-73.54734626 73.04814967 -75.20363254 72.9439761 -76.859375 72.83203125 C-79.12260665 72.74697516 -81.14888022 72.70077006 -83.375 73.125 C-85.32702271 75.42995106 -85.32702271 75.42995106 -86.375 78.125 C-89.5625 79.9375 -89.5625 79.9375 -92.375 81.125 C-91.10525028 85.54022109 -91.10525028 85.54022109 -88.375 89.125 C-85.25303664 89.58986718 -85.25303664 89.58986718 -81.75 89.75 C-80.56148437 89.82476562 -79.37296875 89.89953125 -78.1484375 89.9765625 C-76.77558594 90.05003906 -76.77558594 90.05003906 -75.375 90.125 C-75.375 86.165 -75.375 82.205 -75.375 78.125 C-74.37339844 77.94324219 -73.37179688 77.76148438 -72.33984375 77.57421875 C-70.99731609 77.32073451 -69.65487257 77.06680432 -68.3125 76.8125 C-67.32733398 76.63557617 -67.32733398 76.63557617 -66.32226562 76.45507812 C-60.3788423 75.31323818 -54.97626208 74.26668804 -51.1875 69.19921875 C-50.589375 68.08160156 -49.99125 66.96398437 -49.375 65.8125 C-43.51989613 55.55653797 -36.38051598 51.09456083 -25.1953125 47.40625 C-19.12938576 45.84971031 -12.95907405 45.84425888 -6.73046875 45.76171875 C-3.20760208 45.43475332 -3.20760208 45.43475332 -1.05078125 42.64453125 C-0.49777344 41.81308594 0.05523437 40.98164063 0.625 40.125 C4.78838263 38.04330868 9.68883948 38.9037257 14.0625 39.9375 C14.908125 40.329375 15.75375 40.72125 16.625 41.125 C18.22212091 45.91636272 18.20550244 50.38349269 16.625 55.125 C16.295 55.785 15.965 56.445 15.625 57.125 C16.511875 58.094375 17.39875 59.06375 18.3125 60.0625 C21.76994929 64.07018469 24.21926112 68.43061573 26.625 73.125 C26.955 73.125 27.285 73.125 27.625 73.125 C28.53920101 49.76208526 23.67483618 29.60830341 7.4609375 12.0234375 C-7.60066881 -3.61233488 -26.99342362 -12.00310816 -48.69140625 -12.90625 C-70.87303835 -12.71807072 -89.93950712 -3.74432949 -105.78515625 11.43359375 Z M2.875 42.8125 C0.58641875 45.16465295 0.22086874 46.0485038 -0.375 49.125 C-1.59574219 49.07859375 -2.81648438 49.0321875 -4.07421875 48.984375 C-14.34566373 48.71679691 -22.72860597 49.24566021 -32.375 53.125 C-32.375 53.455 -32.375 53.785 -32.375 54.125 C-31.50488281 54.21974609 -31.50488281 54.21974609 -30.6171875 54.31640625 C-24.85177882 55.22022444 -22.05138037 56.76343303 -18.46875 61.37109375 C-14.79231143 67.2665256 -15.59502676 76.10230337 -16.87109375 82.68359375 C-17.91479196 85.80289518 -19.44280541 88.21335251 -21.4375 90.8125 C-25.43256194 92.59752767 -27.5547326 91.82182616 -31.59375 90.3984375 C-36.50858198 88.14810713 -40.9426563 85.20067576 -45.375 82.125 C-44.09214163 86.71911059 -42.38354911 89.74101811 -39.3125 93.375 C-35.14983845 98.34309516 -33.93910658 100.47762527 -34.375 107.125 C-34.9525 108.23875 -35.53 109.3525 -36.125 110.5 C-37.70638123 113.83687276 -37.70638123 113.83687276 -36.68359375 115.96875 C-36.31363281 116.6390625 -35.94367188 117.309375 -35.5625 118 C-31.94306696 124.79978732 -33.06611193 132.65162477 -33.375 140.125 C-17.96866459 138.34070462 -5.21243186 129.77169306 5.625 119.125 C6.39972656 118.37476563 7.17445313 117.62453125 7.97265625 116.8515625 C14.52117319 110.08962905 18.77233018 102.62654357 22.625 94.125 C23.17542969 92.95453125 23.72585938 91.7840625 24.29296875 90.578125 C26.27590211 85.43761741 27.38108541 81.42280768 25.32421875 76.1953125 C21.93833855 69.07392317 17.26022296 62.63695246 11.625 57.125 C12.625 55.125 13.625 53.125 14.625 51.125 C15.0417552 48.16711431 15.0417552 48.16711431 14.625 45.125 C12.63202483 42.98439704 10.90220711 42.23161812 8.1875 41.1875 C5.45153474 40.8884502 5.45153474 40.8884502 2.875 42.8125 Z M-42.9921875 61.41796875 C-45.48765109 64.04736965 -46.36493225 66.06235619 -46.9375 69.625 C-45.92330135 75.93556937 -42.17554841 79.81577091 -37.375 83.7265625 C-34.01228125 86.0778385 -30.40551601 88.23098536 -26.375 89.125 C-22.96270076 88.00399195 -22.45637459 87.27569369 -20.6875 84 C-18.15728652 77.23412529 -17.7844707 71.91178587 -20.3671875 65.17578125 C-21.90964534 62.0370589 -23.54943667 60.17995515 -26.375 58.125 C-32.55715869 56.25868794 -37.97312596 57.40514418 -42.9921875 61.41796875 Z M-92.375 67.125 C-92.705 70.095 -93.035 73.065 -93.375 76.125 C-89.45010368 76.57097649 -89.45010368 76.57097649 -87.5 74.4375 C-86.04448299 72.10627775 -86.04448299 72.10627775 -87.1875 69.375 C-87.7753125 68.26125 -87.7753125 68.26125 -88.375 67.125 C-89.695 67.125 -91.015 67.125 -92.375 67.125 Z M-59.25 77.375 C-60.48492187 77.79265625 -61.71984375 78.2103125 -62.9921875 78.640625 C-66.97229757 80.38709362 -69.42183453 82.21866907 -71.375 86.125 C-71.80294952 90.31396746 -71.77877171 94.03244125 -70.3125 98 C-66.16848718 102.54504632 -59.07899206 103.94822504 -53.3125 105.6875 C-51.94645267 106.10493925 -50.58056459 106.52290006 -49.21484375 106.94140625 C-48.5688623 107.13879395 -47.92288086 107.33618164 -47.25732422 107.53955078 C-44.61622333 108.36099824 -41.99474332 109.23812902 -39.375 110.125 C-36.78459072 106.23938608 -36.62956374 104.7467048 -37.375 100.125 C-39.22685114 97.79921539 -41.26533008 95.72995086 -43.33203125 93.59375 C-47.67101501 88.35046561 -49.15633091 81.70344672 -50.375 75.125 C-53.54951699 75.125 -56.26245327 76.34395477 -59.25 77.375 Z M-117.375 101.125 C-115.39455555 106.67609798 -112.04958125 110.59623978 -108.375 115.125 C-107.611875 116.135625 -106.84875 117.14625 -106.0625 118.1875 C-93.99760592 131.37470981 -75.10751283 141.38140274 -57.07641602 142.23364258 C-54.44592224 142.29467666 -51.81867443 142.31059473 -49.1875 142.3125 C-48.28580078 142.32474609 -47.38410156 142.33699219 -46.45507812 142.34960938 C-45.58947266 142.35154297 -44.72386719 142.35347656 -43.83203125 142.35546875 C-42.6560437 142.36163208 -42.6560437 142.36163208 -41.45629883 142.36791992 C-39.06870996 142.24905789 -39.06870996 142.24905789 -36.375 140.125 C-36.04022188 137.32010227 -35.8998522 134.80431669 -35.9375 132 C-35.94994751 130.84129395 -35.94994751 130.84129395 -35.96264648 129.65917969 C-36.18979855 122.01846311 -37.68143454 117.70145392 -43.25 112.375 C-48.66827649 108.89515864 -55.21401984 107.71919713 -61.375 106.125 C-69.74389251 103.91897394 -69.74389251 103.91897394 -72.3125 100.6875 C-72.95067327 99.14837622 -73.57223629 97.60198038 -74.16015625 96.04296875 C-75.22023831 93.95899832 -75.22023831 93.95899832 -77.40625 93.296875 C-92.36813025 90.740098 -104.63772003 92.41743471 -117.375 101.125 Z " fill="#134C38" transform="translate(258.375,128.875)"/>
<path d="M0 0 C4.0226217 1.56435288 5.59149109 2.38723663 8 6 C8.31983581 10.95745506 8.25980539 14.48038922 6 19 C6.886875 19.969375 7.77375 20.93875 8.6875 21.9375 C16.86159178 31.57125103 16.86159178 31.57125103 17.0859375 37.12890625 C16.8125 39.0625 16.8125 39.0625 16 42 C13.54410371 38.8911766 11.61756532 35.64386984 9.6875 32.1875 C6.85687991 27.26703913 3.86330771 23.14598876 0 19 C1 17 2 15 3 13 C3.039992 11.00039988 3.04346799 8.99952758 3 7 C-1.06631895 4.45303631 -1.06631895 4.45303631 -5.6875 4.5 C-8.20910158 5.82824416 -8.20910158 5.82824416 -9.078125 8.5546875 C-11 11 -11 11 -12.85864258 11.45214844 C-15.26839941 11.61295655 -17.64746212 11.64189161 -20.0625 11.625 C-27.14374327 11.76342831 -33.36289276 12.2871464 -40 15 C-38.96875 15.350625 -37.9375 15.70125 -36.875 16.0625 C-32.43439717 17.94885364 -29.67592629 21.0489679 -27 25 C-24.82914991 31.51255026 -24.99381088 40.01849577 -27.125 46.5625 C-29.49178595 50.90160757 -30.59584019 52.67780665 -35 55 C-42.79892084 54.5824412 -49.0535908 49.61795608 -55 45 C-52.61875058 50.22043143 -50.15256596 54.32758642 -46.26953125 58.5546875 C-44.23822087 60.86725624 -43.99672613 62.04174182 -43.75 65.1875 C-44 69 -44 69 -45.75 72.375 C-47.32297631 75.73170834 -47.32297631 75.73170834 -46.30859375 78.01953125 C-45.54112018 79.50367004 -44.77148264 80.98669124 -44 82.46875 C-41.53066746 88.71924798 -42.5690802 96.5608609 -44 103 C-45.32 102.67 -46.64 102.34 -48 102 C-47.95359375 100.865625 -47.9071875 99.73125 -47.859375 98.5625 C-47.31698828 87.12062161 -47.31698828 87.12062161 -52 77 C-56.12724195 73.86163812 -59.81215306 72.23388624 -64.8125 70.9375 C-66.03195313 70.6075 -67.25140625 70.2775 -68.5078125 69.9375 C-70.23644531 69.4734375 -70.23644531 69.4734375 -72 69 C-73.73458372 68.49750221 -75.46491107 67.97969193 -77.1875 67.4375 C-77.86167969 67.22996094 -78.53585938 67.02242188 -79.23046875 66.80859375 C-82.78347138 65.18503626 -83.80653147 63.51826503 -85.1796875 59.83984375 C-86.07989657 55.62600795 -86.22690232 51.84631685 -86.125 47.5625 C-86.11146484 46.46518555 -86.11146484 46.46518555 -86.09765625 45.34570312 C-86.07436153 43.56365702 -86.0385019 41.78178241 -86 40 C-85.40574219 39.8863208 -84.81148437 39.7726416 -84.19921875 39.65551758 C-71.91766856 37.68610421 -71.91766856 37.68610421 -62.10546875 30.953125 C-60.84117258 28.71807596 -59.6468875 26.44174909 -58.53125 24.12890625 C-54.47132386 15.83298574 -46.33110764 12.06555909 -38 9 C-31.24766765 6.78154969 -24.40168653 6.73009371 -17.35546875 6.63671875 C-13.83260208 6.30975332 -13.83260208 6.30975332 -11.67578125 3.51953125 C-11.12277344 2.68808594 -10.56976563 1.85664063 -10 1 C-6.80238831 -0.59880585 -3.47853047 -0.36854319 0 0 Z M-53.6171875 23.29296875 C-56.11265109 25.92236965 -56.98993225 27.93735619 -57.5625 31.5 C-56.54830135 37.81056937 -52.80054841 41.69077091 -48 45.6015625 C-44.63728125 47.9528385 -41.03051601 50.10598536 -37 51 C-33.58770076 49.87899195 -33.08137459 49.15069369 -31.3125 45.875 C-28.78228652 39.10912529 -28.4094707 33.78678587 -30.9921875 27.05078125 C-32.53464534 23.9120589 -34.17443667 22.05495515 -37 20 C-43.18215869 18.13368794 -48.59812596 19.28014418 -53.6171875 23.29296875 Z M-69.875 39.25 C-71.10992187 39.66765625 -72.34484375 40.0853125 -73.6171875 40.515625 C-77.59729757 42.26209362 -80.04683453 44.09366907 -82 48 C-82.42794952 52.18896746 -82.40377171 55.90744125 -80.9375 59.875 C-76.79348718 64.42004632 -69.70399206 65.82322504 -63.9375 67.5625 C-62.57145267 67.97993925 -61.20556459 68.39790006 -59.83984375 68.81640625 C-59.1938623 69.01379395 -58.54788086 69.21118164 -57.88232422 69.41455078 C-55.24122333 70.23599824 -52.61974332 71.11312902 -50 72 C-47.40959072 68.11438608 -47.25456374 66.6217048 -48 62 C-49.85185114 59.67421539 -51.89033008 57.60495086 -53.95703125 55.46875 C-58.29601501 50.22546561 -59.78133091 43.57844672 -61 37 C-64.17451699 37 -66.88745327 38.21895477 -69.875 39.25 Z " fill="#FE6F49" transform="translate(269,167)"/>
<path d="M0 0 C4.48071284 0.84743917 6.63834347 3.02034989 10 6 C7.94235079 12.45353615 5.57616518 18.7361263 3 25 C4.03640625 24.26652344 5.0728125 23.53304687 6.140625 22.77734375 C7.50995783 21.83006556 8.87977496 20.88348716 10.25 19.9375 C10.93191406 19.45216797 11.61382812 18.96683594 12.31640625 18.46679688 C12.98027344 18.01240234 13.64414062 17.55800781 14.328125 17.08984375 C14.9355957 16.66566162 15.54306641 16.24147949 16.16894531 15.80444336 C18.52750614 14.76824897 19.6259081 15.10817151 22 16 C24.16300243 17.5131095 26.01853634 19.24370267 28 21 C26.72296757 23.74978436 25.34750772 25.96049247 23.35546875 28.2421875 C22.84306641 28.83386719 22.33066406 29.42554687 21.80273438 30.03515625 C21.26970703 30.64230469 20.73667969 31.24945313 20.1875 31.875 C19.13893712 33.08039367 18.09075636 34.28611986 17.04296875 35.4921875 C16.53556152 36.07452148 16.0281543 36.65685547 15.50537109 37.25683594 C13.30139296 39.80896112 11.14932034 42.40174584 9 45 C7 44 5 43 3 42 C3.47957233 37.71446004 6.2187222 35.23068595 9.0625 32.25 C9.77116211 31.49009766 9.77116211 31.49009766 10.49414062 30.71484375 C11.65630711 29.47050387 12.82730161 28.23441936 14 27 C12.06182687 28.12383992 10.12448482 29.24911321 8.1875 30.375 C7.10855469 31.00148438 6.02960938 31.62796875 4.91796875 32.2734375 C2.91168907 33.46055346 0.93965941 34.70689373 -1 36 C-3 35.875 -3 35.875 -5 35 C-5.99 33.68 -6.98 32.36 -8 31 C-6.02 26.38 -4.04 21.76 -2 17 C-2.33 16.67 -2.66 16.34 -3 16 C-5.97 19.63 -8.94 23.26 -12 27 C-14 26 -16 25 -18 24 C-17.4373577 20.08829642 -15.61621219 18.196148 -12.9375 15.375 C-8.35839768 10.44365904 -4.14017123 5.30212665 0 0 Z " fill="#000000" transform="translate(286,70)"/>
<path d="M0 0 C3.96 0 7.92 0 12 0 C12.34933594 1.28777344 12.69867188 2.57554688 13.05859375 3.90234375 C13.51805322 5.58077734 13.97769822 7.25916015 14.4375 8.9375 C14.66759766 9.78763672 14.89769531 10.63777344 15.13476562 11.51367188 C15.35712891 12.32255859 15.57949219 13.13144531 15.80859375 13.96484375 C16.01282959 14.7137085 16.21706543 15.46257324 16.42749023 16.23413086 C16.85391799 18.00543922 16.85391799 18.00543922 18 19 C19.98 13.06 21.96 7.12 24 1 C27.63 1 31.26 1 35 1 C35 11.23 35 21.46 35 32 C33.02 32 31.04 32 29 32 C26.95761908 29.95761908 27.58491545 25.76319246 27.4375 22.9375 C27.293125 20.318125 27.14875 17.69875 27 15 C25.02 20.28 23.04 25.56 21 31 C18.36 31 15.72 31 13 31 C11.35 25.06 9.7 19.12 8 13 C7.67 18.94 7.34 24.88 7 31 C4.69 31 2.38 31 0 31 C0 20.77 0 10.54 0 0 Z " fill="#000000" transform="translate(195,46)"/>
<path d="M0 0 C2.76203628 0.57097557 4.10463094 1.01860639 6.3125 2.8125 C7.61531536 5.90668648 7.99243275 8.85880062 8.3125 12.1875 C8.93125 12.290625 9.55 12.39375 10.1875 12.5 C12.3125 13.1875 12.3125 13.1875 14.3125 16.1875 C14.73224413 20.03515451 14.90702825 22.28381706 12.75 25.5625 C9.50223471 27.72767686 7.20692816 28.1875 3.3125 28.1875 C0.56916729 26.5563292 -0.41870788 25.16277952 -1.265625 22.08984375 C-1.5896769 20.52446403 -1.89557822 18.9552216 -2.18359375 17.3828125 C-2.82232104 14.60014011 -4.04376265 12.50367536 -5.6875 10.1875 C-5.6875 11.1775 -5.6875 12.1675 -5.6875 13.1875 C-5.6875 13.8475 -5.6875 14.5075 -5.6875 15.1875 C-7.0075 15.1875 -8.3275 15.1875 -9.6875 15.1875 C-9.6875 16.1775 -9.6875 17.1675 -9.6875 18.1875 C-8.4809375 18.1565625 -8.4809375 18.1565625 -7.25 18.125 C-4.6875 18.1875 -4.6875 18.1875 -3.6875 19.1875 C-3.5 21.625 -3.5 21.625 -3.6875 24.1875 C-6.15785712 26.65785712 -7.0835007 26.53792281 -10.5 26.625 C-14.23186254 26.52778795 -15.54429161 26.2762892 -18.8125 24.25 C-21.31308986 20.16570323 -21.77969911 16.86211218 -20.6875 12.1875 C-18.30519529 9.46486604 -16.85234165 8.33683867 -13.25 7.875 C-10.11835272 7.03480195 -9.77950353 6.13521567 -7.9375 3.5625 C-5.43629825 0.3986422 -4.04802673 -0.32148024 0 0 Z " fill="#F8F9F9" transform="translate(170.6875,155.8125)"/>
<path d="M0 0 C1.80932617 2.17138672 1.80932617 2.17138672 3.79296875 5.1796875 C4.50517578 6.25347656 5.21738281 7.32726562 5.95117188 8.43359375 C6.31782959 8.99804199 6.6844873 9.56249023 7.06225586 10.14404297 C8.1830666 11.86818012 9.31948749 13.5811387 10.45898438 15.29296875 C16 23.7128924 16 23.7128924 16 26 C14.02 26.99 12.04 27.98 10 29 C8.99421411 27.71283353 7.99553202 26.42011342 7 25.125 C6.443125 24.40570313 5.88625 23.68640625 5.3125 22.9453125 C4 21 4 21 4 19 C2.3603125 19.8971875 2.3603125 19.8971875 0.6875 20.8125 C0.07261719 21.14894531 -0.54226562 21.48539063 -1.17578125 21.83203125 C-3.05965603 23.03819519 -4.47964927 24.36737721 -6 26 C-5.566875 26.62648438 -5.13375 27.25296875 -4.6875 27.8984375 C-4.130625 28.71570313 -3.57375 29.53296875 -3 30.375 C-2.443125 31.18710938 -1.88625 31.99921875 -1.3125 32.8359375 C0 35 0 35 0 37 C-1.98 37.99 -3.96 38.98 -6 40 C-19.78641575 22.93931051 -19.78641575 22.93931051 -23 14 C-21.68 13.01 -20.36 12.02 -19 11 C-14.79373966 12.50223584 -13.26099979 15.28550034 -11 19 C-8.03 17.35 -5.06 15.7 -2 14 C-2.98249111 11.27925539 -3.87879403 9.15262974 -5.6875 6.875 C-6.120625 6.25625 -6.55375 5.6375 -7 5 C-5.64703851 0.94111554 -4.27479763 0 0 0 Z " fill="#000000" transform="translate(139,64)"/>
<path d="M0 0 C2.875 1.5 2.875 1.5 5 3 C4.60196439 5.88575819 4.20990931 6.82189513 1.9375 8.75 C1.298125 9.1625 0.65875 9.575 0 10 C-0.99 9.34 -1.98 8.68 -3 8 C-5.58333333 8.08333333 -5.58333333 8.08333333 -8 9 C-10.34549674 12.51824511 -10.57991403 13.85775694 -10 18 C-7.39059762 21.55827598 -5.69918538 22.80373744 -1.4375 24 C1.91423466 24.27177909 1.91423466 24.27177909 4.2109375 22.80859375 C6.22498871 21.14158266 6.22498871 21.14158266 6.28515625 18.66015625 C6.21167969 17.80292969 6.13820313 16.94570312 6.0625 16.0625 C5.79143372 12.79491925 5.69043119 11.47930629 7.49609375 8.68359375 C8.24052734 7.85021484 8.24052734 7.85021484 9 7 C12 8 12 8 13.1640625 9.7890625 C14.57876608 13.53075514 14.55444788 17.06410456 14 21 C11.29820537 26.3035228 7.70503105 30.09832298 2 32 C-3.92522038 32.58090396 -8.2583285 31.53145409 -13 28 C-16.28680358 24.41150914 -18.27431761 20.78359191 -18.5 15.875 C-17.78392233 10.32539803 -16.20299615 6.846825 -12 3.1875 C-7.88785191 0.18905868 -5.01792297 -0.40143384 0 0 Z " fill="#000000" transform="translate(109,93)"/>
<path d="M0 0 C2.4375 3 2.4375 3 4 6 C3.63865967 6.48033691 3.27731934 6.96067383 2.9050293 7.45556641 C0.2198217 11.02979835 -2.45485291 14.61096069 -5.10546875 18.2109375 C-6.1328125 19.59895833 -7.16015625 20.98697917 -8.1875 22.375 C-8.70763672 23.08527344 -9.22777344 23.79554688 -9.76367188 24.52734375 C-10.26833984 25.20667969 -10.77300781 25.88601562 -11.29296875 26.5859375 C-11.7418042 27.1948584 -12.19063965 27.8037793 -12.65307617 28.43115234 C-14 30 -14 30 -17 32 C-19.90756801 28.08110399 -20.31397823 24.98787224 -20.68359375 20.29296875 C-21.16037098 16.83780538 -22.47304293 14.12030359 -24 11 C-24.763125 11.0825 -25.52625 11.165 -26.3125 11.25 C-29 11 -29 11 -30.875 9.1875 C-31.24625 8.465625 -31.6175 7.74375 -32 7 C-31.67 6.01 -31.34 5.02 -31 4 C-27.14744143 3.3238128 -23.29273043 2.66076908 -19.4375 2 C-18.35146484 1.80921875 -17.26542969 1.6184375 -16.14648438 1.421875 C-4.75590796 -0.51694652 -4.75590796 -0.51694652 0 0 Z M-19 10 C-18.01 12.64 -17.02 15.28 -16 18 C-11.71095765 16.4114658 -9.67654474 13.56872632 -7 10 C-7 9.34 -7 8.68 -7 8 C-11.46839215 7.78721942 -14.82262526 8.40861915 -19 10 Z " fill="#000000" transform="translate(329,114)"/>
<path d="M0 0 C2.2596749 2.32332771 4.08110958 4.9122115 5.9375 7.5625 C6.68676758 8.59987305 6.68676758 8.59987305 7.45117188 9.65820312 C8.45923257 11.05387941 9.46234807 12.45314102 10.46044922 13.85595703 C12.9182409 17.27878078 15.45800865 20.63946825 18 24 C14.79593538 26.13604308 14.00399253 26.24208908 10.33203125 26.1953125 C9.43935547 26.18886719 8.54667969 26.18242188 7.62695312 26.17578125 C6.23379883 26.15064453 6.23379883 26.15064453 4.8125 26.125 C3.87212891 26.11597656 2.93175781 26.10695313 1.96289062 26.09765625 C-0.35832968 26.07409056 -2.67903644 26.04119116 -5 26 C-5 27.65 -5 29.3 -5 31 C-7.64738916 32.4606285 -8.89448334 33 -12 33 C-12.39389482 22.23354159 -11.18260948 11.68572134 -10 1 C-6.25137397 -0.82076121 -3.91583411 -1.67992272 0 0 Z M-4 8 C-4 12.29 -4 16.58 -4 21 C0.455 20.505 0.455 20.505 5 20 C3.44691894 16.89383788 1.99825692 14.48417379 -0.0625 11.75 C-0.58972656 11.04359375 -1.11695313 10.3371875 -1.66015625 9.609375 C-2.10230469 9.07828125 -2.54445312 8.5471875 -3 8 C-3.33 8 -3.66 8 -4 8 Z " fill="#000000" transform="translate(172,53)"/>
<path d="M0 0 C2.8125 0.875 2.8125 0.875 4.8125 1.875 C4.8125 12.765 4.8125 23.655 4.8125 34.875 C2.5025 34.215 0.1925 33.555 -2.1875 32.875 C-2.1875 30.895 -2.1875 28.915 -2.1875 26.875 C-4.26914018 26.51101378 -6.35290562 26.15916713 -8.4375 25.8125 C-9.59765625 25.61527344 -10.7578125 25.41804688 -11.953125 25.21484375 C-14.88380438 24.90691005 -16.43931429 25.08980408 -19.1875 25.875 C-21.9375 24.9375 -21.9375 24.9375 -24.1875 23.875 C-22.84441898 20.91144929 -21.33714148 18.73942463 -19.10546875 16.37890625 C-18.50283203 15.73759766 -17.90019531 15.09628906 -17.27929688 14.43554688 C-16.65087891 13.77619141 -16.02246094 13.11683594 -15.375 12.4375 C-14.75818359 11.78201172 -14.14136719 11.12652344 -13.50585938 10.45117188 C-12.29871718 9.17219125 -11.08621474 7.89824454 -9.86791992 6.62988281 C-8.81132675 5.52646981 -7.76546044 4.41258033 -6.7355957 3.28417969 C-3.53817349 -0.1387519 -3.53817349 -0.1387519 0 0 Z M-5.25390625 11.84375 C-6.07761719 12.6790625 -6.90132812 13.514375 -7.75 14.375 C-8.57628906 15.2103125 -9.40257812 16.045625 -10.25390625 16.90625 C-11.21103516 17.88078125 -11.21103516 17.88078125 -12.1875 18.875 C-8.74299263 21.17133824 -6.24937717 21.41516485 -2.1875 21.875 C-2.1875 17.915 -2.1875 13.955 -2.1875 9.875 C-3.54251902 9.76003469 -3.54251902 9.76003469 -5.25390625 11.84375 Z " fill="#000000" transform="translate(258.1875,56.125)"/>
<path d="M0 0 C16.335 0.495 16.335 0.495 33 1 C31 7 31 7 28.6875 8.8125 C24.91762488 11.881003 23.15635609 15.70563979 21 20 C21.99 20.99 22.98 21.98 24 23 C23.34 24.98 22.68 26.96 22 29 C17.88101283 29 16.26048707 26.82296907 13.4375 24.125 C12.65101074 23.38866333 12.65101074 23.38866333 11.84863281 22.63745117 C6.78799449 17.87076966 1.86694327 12.96385143 -3 8 C-2.01 5.36 -1.02 2.72 0 0 Z M7 7 C8.36125 8.670625 8.36125 8.670625 9.75 10.375 C10.51570313 11.31472656 10.51570313 11.31472656 11.296875 12.2734375 C13.08199481 14.08312318 14.67949644 15.00117455 17 16 C19.12821884 13.18288354 19.12821884 13.18288354 21 10 C20.67 9.01 20.34 8.02 20 7 C15.71 7 11.42 7 7 7 Z " fill="#000000" transform="translate(77,130)"/>
<path d="M0 0 C3.0625 1.625 3.0625 1.625 5 5 C5.40423918 9.69662106 5.28626311 14.29892365 5 19 C8.3 19.33 11.6 19.66 15 20 C15 22.31 15 24.62 15 27 C4.6093545 26.3742559 -5.6740221 25.28762194 -16 24 C-15.71781919 21.08213036 -15.42465873 18.166082 -15.125 15.25 C-15.04636719 14.425 -14.96773438 13.6 -14.88671875 12.75 C-14.80292969 11.95078125 -14.71914062 11.1515625 -14.6328125 10.328125 C-14.55949707 9.5949707 -14.48618164 8.86181641 -14.41064453 8.10644531 C-13.94932157 5.74003953 -13.26882808 4.0497699 -12 2 C-7.94241353 -0.70505765 -4.75885673 -0.74174825 0 0 Z M-8 8 C-8.46651207 10.12576782 -8.46651207 10.12576782 -8.625 12.5625 C-8.69976562 13.38878906 -8.77453125 14.21507812 -8.8515625 15.06640625 C-8.90054688 15.70449219 -8.94953125 16.34257812 -9 17 C-6.29120665 18.35439668 -3.99066732 18.06501451 -1 18 C-1 14.7 -1 11.4 -1 8 C-4.58327753 6.99782936 -4.58327753 6.99782936 -8 8 Z " fill="#000000" transform="translate(79,156)"/>
<path d="M0 0 C-0.3609375 0.49628906 -0.721875 0.99257812 -1.09375 1.50390625 C-4.25831577 6.13647891 -5.85645833 9.21890628 -5 15 C-3.25377845 19.77913266 -1.55483313 21.80574752 3 24 C6.12353789 24.36012333 6.12353789 24.36012333 9.3125 24.1875 C10.38113281 24.16042969 11.44976562 24.13335937 12.55078125 24.10546875 C13.76314453 24.05326172 13.76314453 24.05326172 15 24 C13.15133714 28.14843485 10.62746813 30.26089141 7 33 C1.97446208 34.67517931 -3.25478377 35.00081137 -8.29296875 33.1640625 C-13.46373509 30.27308995 -16.3516289 26.69251138 -18 21 C-18.94167775 15.87009837 -18.41452705 12.12912312 -15.75 7.625 C-12.0252575 2.36654 -6.7615452 -2.2538484 0 0 Z M-11 8 C-13.75360803 11.52461828 -14.53769931 14.52360755 -14.3515625 19.0078125 C-13.58326022 23.36152541 -11.0694462 26.08333183 -7.8125 28.875 C-3.85371014 30.45851594 -0.20973308 30.24763136 4 30 C4 29.34 4 28.68 4 28 C2.9275 27.608125 1.855 27.21625 0.75 26.8125 C-3.80031707 24.85448477 -5.98428842 22.03142317 -8.1875 17.625 C-9.17300078 14.44107439 -9.61113504 11.30535219 -10 8 C-10.33 8 -10.66 8 -11 8 Z " fill="#104A35" transform="translate(217,127)"/>
<path d="M0 0 C0.391875 0.9075 0.78375 1.815 1.1875 2.75 C3.2012936 6.36094025 4.4186019 7.94260109 8 10 C11.32813161 10.60743506 14.62194191 10.86881328 18 11 C17.67 13.31 17.34 15.62 17 18 C16.236875 17.34 15.47375 16.68 14.6875 16 C12.15722061 13.70149462 12.15722061 13.70149462 9 14 C9.66 14.45375 10.32 14.9075 11 15.375 C11.99 16.179375 11.99 16.179375 13 17 C13 17.66 13 18.32 13 19 C8.82561234 21.38536438 5.83415572 22.6445541 1 22 C-0.8125 21 -0.8125 21 -2 19 C-2.23144688 17.65264854 -2.41450886 16.29655196 -2.5625 14.9375 C-2.58516344 10.99837319 -2.58516344 10.99837319 -5 9 C-5.55743243 3.76013514 -5.55743243 3.76013514 -3.625 1.125 C-2 0 -2 0 0 0 Z " fill="#F8F9F9" transform="translate(147,174)"/>
<path d="M0 0 C0.12375 1.423125 0.12375 1.423125 0.25 2.875 C0.65074923 6.10461791 0.65074923 6.10461791 3.0625 7.375 C3.701875 7.58125 4.34125 7.7875 5 8 C5.125 10.375 5.125 10.375 5 13 C3 15 3 15 0.6875 15.1875 C-2 15 -2 15 -4.4375 14.5 C-7.33833697 13.93398303 -10.05162352 13.93143311 -13 14 C-12.3125 12.0625 -12.3125 12.0625 -11 10 C-8.375 9.25 -8.375 9.25 -6 9 C-6 8.01 -6 7.02 -6 6 C-9.43338516 7.20632452 -11.50364585 8.38477184 -14 11 C-14.66 11 -15.32 11 -16 11 C-15.51169591 4.52997076 -15.51169591 4.52997076 -13.25 2.1875 C-8.29501692 -0.42762996 -5.61401798 -1.30558558 0 0 Z " fill="#F5F7F6" transform="translate(189,185)"/>
<path d="M0 0 C2.80487926 1.27494512 4.49663523 2.27012108 6.25 4.8125 C7.17590345 7.51305173 7.61486075 10.17564549 8 13 C8.99 12.67 9.98 12.34 11 12 C11 16 11 16 9.13671875 17.95703125 C8.32847656 18.56933594 7.52023437 19.18164062 6.6875 19.8125 C5.48673828 20.75029297 5.48673828 20.75029297 4.26171875 21.70703125 C3.51535156 22.13371094 2.76898438 22.56039063 2 23 C1.01 22.67 0.02 22.34 -1 22 C-1 21.34 -1 20.68 -1 20 C-2.258125 19.608125 -3.51625 19.21625 -4.8125 18.8125 C-7.74800168 17.70064627 -8.89635043 17.11984482 -11 14.6875 C-12.19927229 11.46445573 -12.49777987 9.41334767 -12 6 C-8.50318172 0.75477258 -6.27296016 -0.49199688 0 0 Z M-7.3125 4.625 C-9.28579085 6.93069181 -9.28579085 6.93069181 -9.0625 10.0625 C-8.21846241 13.12593349 -8.21846241 13.12593349 -5.75 15 C-3.04283724 16.26762693 -3.04283724 16.26762693 -0.3125 15.375 C2.26778872 14.06597401 2.26778872 14.06597401 4 11 C3.84141767 7.82835344 3.44914415 6.44914415 1.1875 4.1875 C-2.14665581 2.3775297 -4.22219752 2.4534361 -7.3125 4.625 Z " fill="#000000" transform="translate(299,273)"/>
<path d="M0 0 C0.268125 0.94875 0.53625 1.8975 0.8125 2.875 C1.74986588 6.25267273 1.74986588 6.25267273 5 8 C5.375 10.9375 5.375 10.9375 5 14 C2.83728024 16.78750547 0.63850182 17.67523858 -2.6875 18.6875 C-3.49574219 18.93886719 -4.30398437 19.19023437 -5.13671875 19.44921875 C-5.75160156 19.63097656 -6.36648437 19.81273437 -7 20 C-8.34426712 17.00476403 -9.67507499 14.00383761 -11 11 C-11.4125 10.071875 -11.825 9.14375 -12.25 8.1875 C-13 6 -13 6 -13 2 C-4.738041 -1.62870159 -4.738041 -1.62870159 0 0 Z M-10 4 C-9.34 5.32 -8.68 6.64 -8 8 C-6.02 7.34 -4.04 6.68 -2 6 C-2.33 4.68 -2.66 3.36 -3 2 C-5.6465335 2 -7.5808163 2.98139634 -10 4 Z M-7 11 C-6.67 12.65 -6.34 14.3 -6 16 C-3.69 15.34 -1.38 14.68 1 14 C1.33 12.68 1.66 11.36 2 10 C-1.77897651 8.9502843 -3.64919071 8.89023119 -7 11 Z " fill="#000000" transform="translate(254,303)"/>
<path d="M0 0 C4.16165179 1.85350878 5.81895694 3.94949146 8 8 C8.65145239 11.99014586 8.38016835 13.42974748 6.125 16.8125 C3.48400458 19.53117176 2.58428523 19.91980399 -1.1875 20.4375 C-6.2668325 19.85462578 -8.5170253 17.55708054 -12 14 C-11.59773543 9.58540416 -8.59612875 7.46302944 -5.4375 4.75 C-4.91736328 4.29109375 -4.39722656 3.8321875 -3.86132812 3.359375 C-2.58104445 2.2317857 -1.29141202 1.11482685 0 0 Z M0 5 C-3.96 8.465 -3.96 8.465 -8 12 C-6.68 13.65 -5.36 15.3 -4 17 C0.37499134 16.62231709 0.37499134 16.62231709 3.9375 14.25 C5.19673943 12.01887054 5.19673943 12.01887054 4.9375 9.375 C4.10695927 6.49701776 4.10695927 6.49701776 0 5 Z " fill="#000000" transform="translate(113,266)"/>
<path d="M0 0 C2.08467138 4.01492266 3.65195767 7.43629632 3 12 C1 14 1 14 -2.3125 14.875 C-6.07466567 16.02277936 -8.12050033 17.38227303 -11 20 C-11.66 19.67 -12.32 19.34 -13 19 C-11.88820837 15.66462511 -10.52588702 14.36292656 -8 12 C-8.66 10.35 -9.32 8.7 -10 7 C-12.31 7.66 -14.62 8.32 -17 9 C-17.33 8.01 -17.66 7.02 -18 6 C-15.56781941 4.80036357 -13.13029422 3.61515562 -10.6875 2.4375 C-9.99720703 2.09525391 -9.30691406 1.75300781 -8.59570312 1.40039062 C-3.33984375 -1.11328125 -3.33984375 -1.11328125 0 0 Z M-5.625 4.5 C-6.07875 4.995 -6.5325 5.49 -7 6 C-6.01 7.65 -5.02 9.3 -4 11 C-2.68 10.67 -1.36 10.34 0 10 C-0.66 7.69 -1.32 5.38 -2 3 C-4.12364481 2.77390663 -4.12364481 2.77390663 -5.625 4.5 Z " fill="#000000" transform="translate(98,237)"/>
<path d="M0 0 C2.95473023 1.54159838 4.52908229 2.68087964 5.66796875 5.87109375 C6.37629655 9.58104825 6.27443896 11.473992 4.5 14.875 C1.37265088 17.53324676 -0.9542849 18.36120288 -5 19 C-8.05211457 18.3063376 -9.5358944 17.43209832 -11.8125 15.3125 C-13.51833914 11.99060274 -13.45252566 9.68485182 -13 6 C-9.30920537 0.34078157 -6.6962915 -0.56748233 0 0 Z M-8.3125 4.6875 C-10.17509694 6.87966733 -10.17509694 6.87966733 -10.4375 9.5625 C-10.15485315 11.99926829 -10.15485315 11.99926829 -8.875 13.8125 C-6.05536176 15.59827089 -4.26541798 15.53312947 -1 15 C1.5714939 12.9315113 1.5714939 12.9315113 3 10 C3.09616096 7.31194193 3.09616096 7.31194193 2 5 C-1.97371659 2.35085561 -4.34016699 1.78877051 -8.3125 4.6875 Z " fill="#000000" transform="translate(104,253)"/>
<path d="M0 0 C3.18367026 2.62652796 3.87411215 4.53001868 4.9375 8.5 C5.00868872 12.48656846 4.57833269 13.99194519 2 17 C-0.93187013 18.74327413 -2.64905716 19.0143242 -6.0625 18.875 C-9.59317864 17.82330849 -10.89995631 17.03339644 -13 14 C-14.01668935 10.3859291 -14.38790525 7.22836664 -13.25 3.625 C-9.77919549 -0.88704586 -5.20841635 -0.90417354 0 0 Z M-9.9375 4.6875 C-11.2972698 7.64699899 -11.09161147 8.95908233 -10 12 C-8.5304688 13.95937494 -7.27706049 14.8522344 -5.125 16 C-2.69507432 16.21350339 -2.69507432 16.21350339 -0.1875 13.875 C2.2649158 11.2539227 2.2649158 11.2539227 2 8.375 C0.91546902 5.79923892 0.34108221 4.53381248 -2 3 C-5.52006028 2.48665788 -7.20515233 2.30771332 -9.9375 4.6875 Z " fill="#000000" transform="translate(272,295)"/>
<path d="M0 0 C3.18845573 0.27174339 4.2010566 0.82153773 7 2.6875 C9.23495494 6.03993241 9.67920629 7.81666275 9.43359375 11.75390625 C8.75194607 14.79368646 7.19767713 16.55446044 5 18.6875 C2.14675563 20.11412219 0.16545451 19.99783868 -3 19.6875 C-5.69990662 17.88756226 -7.5418865 16.603727 -9 13.6875 C-9.51213521 9.24899484 -9.27065397 7.15268652 -7 3.25 C-3.47228916 0.23674699 -3.47228916 0.23674699 0 0 Z M-3.75 4.8125 C-5.53834164 7.49501247 -5.9343548 9.47088515 -6 12.6875 C-4.58333333 15.27083333 -4.58333333 15.27083333 -2 16.6875 C1.13362718 16.77642339 1.13362718 16.77642339 4 15.6875 C6.31282587 12.21826119 6.42478586 10.76544425 6 6.6875 C4.93654948 4.70720318 4.93654948 4.70720318 3 3.6875 C0.16995526 3.26299329 -1.32392716 3.25288175 -3.75 4.8125 Z " fill="#000000" transform="translate(171,304.3125)"/>
<path d="M0 0 C8.78630039 0.33535498 8.78630039 0.33535498 12.625 2.4375 C14.75745299 6.41161693 14.95774726 10.6056302 14 15 C12.359375 17.296875 12.359375 17.296875 10 19 C6.984375 19.390625 6.984375 19.390625 3.75 19.25 C2.67234375 19.21390625 1.5946875 19.1778125 0.484375 19.140625 C-0.74539062 19.07101562 -0.74539062 19.07101562 -2 19 C-1.85913398 16.39547729 -1.71251536 13.79149803 -1.5625 11.1875 C-1.50352539 10.08051758 -1.50352539 10.08051758 -1.44335938 8.95117188 C-1.25618965 5.76928658 -1.01279207 3.03837622 0 0 Z M3 3 C1.68737429 4.08552366 1.68737429 4.08552366 1.90234375 6.72265625 C1.91394531 7.82480469 1.92554688 8.92695313 1.9375 10.0625 C1.94652344 11.16722656 1.95554688 12.27195312 1.96484375 13.41015625 C1.97644531 14.26480469 1.98804688 15.11945313 2 16 C6.10968507 16.24829438 6.10968507 16.24829438 9.875 14.9375 C11.61973477 11.93267901 11.30835443 9.39189869 11 6 C8.42218094 3.42218094 6.5598161 3.37870384 3 3 Z " fill="#000000" transform="translate(190,309)"/>
<path d="M0 0 C-0.33 1.32 -0.66 2.64 -1 4 C-2.65 3.67 -4.3 3.34 -6 3 C-6.66 4.32 -7.32 5.64 -8 7 C-7.29875 6.855625 -6.5975 6.71125 -5.875 6.5625 C-4.92625 6.376875 -3.9775 6.19125 -3 6 C-1.96875 5.7525 -0.9375 5.505 0.125 5.25 C3 5 3 5 4.875 6.125 C6.40561164 8.6760194 6.50040136 10.06907774 6 13 C3.86205197 15.96023574 2.46108374 16.86826179 -1.0625 17.875 C-4 18 -4 18 -7 16 C-7 15.01 -7 14.02 -7 13 C-6.071875 13.226875 -5.14375 13.45375 -4.1875 13.6875 C-1.05766878 14.34333157 -1.05766878 14.34333157 0.875 12.6875 C2.18490007 11.06067033 2.18490007 11.06067033 2 9 C0.948125 9.33 -0.10375 9.66 -1.1875 10 C-4.40396204 10.84366218 -6.72872286 11.37386024 -10 11 C-12 9 -12 9 -12.4375 6.125 C-12 3 -12 3 -9.9375 0.5625 C-6.17899254 -1.43670609 -4.0680976 -0.95719944 0 0 Z " fill="#000000" transform="translate(286,286)"/>
<path d="M0 0 C1.65 0.33 3.3 0.66 5 1 C5 1.99 5 2.98 5 4 C3.35 4 1.7 4 0 4 C-0.33 5.98 -0.66 7.96 -1 10 C0.32 10 1.64 10 3 10 C3.4021875 8.8553125 3.4021875 8.8553125 3.8125 7.6875 C5.62637363 3.58241758 5.62637363 3.58241758 8 2 C11.34192692 2.24453124 12.60543557 2.60543557 15 5 C15.38158434 8.43425905 15.13736712 10.64895068 13.875 13.875 C12 16 12 16 8.8125 16.3125 C7.884375 16.209375 6.95625 16.10625 6 16 C6 15.01 6 14.02 6 13 C7.2065625 12.6596875 7.2065625 12.6596875 8.4375 12.3125 C9.283125 11.879375 10.12875 11.44625 11 11 C11.89386164 8.45224694 11.89386164 8.45224694 12 6 C10.68 6 9.36 6 8 6 C7.731875 6.763125 7.46375 7.52625 7.1875 8.3125 C5.37362637 12.41758242 5.37362637 12.41758242 3 14 C-0.34192692 13.75546876 -1.60543557 13.39456443 -4 11 C-4.52981019 7.02642355 -4.31881474 5.45829619 -2 2.125 C-1.34 1.42375 -0.68 0.7225 0 0 Z " fill="#000000" transform="translate(322,225)"/>
<path d="M0 0 C2.625 1.4375 2.625 1.4375 4 4 C4.74035822 8.29250247 4.76884115 11.71859809 2.5 15.5 C-0.93537793 17.56122676 -3.99858048 18.22230108 -8 18 C-10.99795835 16.66048669 -12.52779875 15.9444025 -14 13 C-14.49470367 8.79907375 -14.65022817 5.21178886 -12.625 1.4375 C-8.5029494 -0.81981342 -4.58526458 -0.72358826 0 0 Z M-9.8125 4.3125 C-11.19455846 6.10476225 -11.19455846 6.10476225 -12 9 C-10.65267558 12.14375697 -9.8194101 13.65498522 -6.625 15 C-3.20324773 15 -1.64813599 14.13322066 1 12 C2.07642709 10.11149645 2.07642709 10.11149645 2 8 C1.00974907 5.33393981 0.5722047 4.28610235 -2 3 C-6.17316574 2.57157247 -6.17316574 2.57157247 -9.8125 4.3125 Z " fill="#000000" transform="translate(339,173)"/>
<path d="M0 0 C3.0625 2.125 3.0625 2.125 5 5 C4.8125 8.3125 4.8125 8.3125 4 11 C2.68 11 1.36 11 0 11 C0.20625 10.401875 0.4125 9.80375 0.625 9.1875 C1.30671915 6.71549154 1.30671915 6.71549154 -1 4 C-4 3.5 -4 3.5 -7 4 C-9.29013653 7.4352048 -9.17842973 8.985331 -9 13 C-4.92630576 15.03684712 -2.41062136 15.0257259 2 14 C1.3125 15.9375 1.3125 15.9375 0 18 C-2.96911325 19.12344826 -4.56968242 19.12294788 -7.625 18.25 C-10.92722447 16.51198712 -12.51005781 15.25985135 -13.875 11.75 C-14.05101083 7.87776179 -12.79216007 5.392303 -11 2 C-7.31357059 -0.45761961 -4.27882152 -0.80591396 0 0 Z " fill="#000000" transform="translate(145,292)"/>
<path d="M0 0 C3.14569587 0.93520688 4.7510624 1.70127488 6.875 4.25 C8.29733935 7.72682952 8.13692231 9.43764344 7 13 C4.75613601 16.19319107 3.35320104 16.90367244 -0.4375 17.9375 C-4.41923028 18.00735492 -5.89269999 17.39706001 -9 15 C-11.41486943 12.58513057 -11.2961925 11.87292211 -11.3125 8.5625 C-11.32925781 7.78003906 -11.34601563 6.99757812 -11.36328125 6.19140625 C-10.91425834 3.48278421 -10.19944837 2.60610881 -8 1 C-4.8125 0.8125 -4.8125 0.8125 -2 1 C-2 1.99 -2 2.98 -2 4 C-3.65 4.66 -5.3 5.32 -7 6 C-7 7.98 -7 9.96 -7 12 C-2.95004208 13.73035844 -2.95004208 13.73035844 1.3125 13.4375 C3.58402023 11.50250129 3.69450041 9.90224607 4 7 C3.34 6.5875 2.68 6.175 2 5.75 C1.34 5.1725 0.68 4.595 0 4 C0 2.68 0 1.36 0 0 Z " fill="#000000" transform="translate(336,192)"/>
<path d="M0 0 C0.99 0 1.98 0 3 0 C1.8905928 3.48670834 0.73662334 6.77484237 -1 10 C0.32 10.33 1.64 10.66 3 11 C3.433125 9.5459375 3.433125 9.5459375 3.875 8.0625 C5 5 5 5 7 4 C7.66 4.66 8.32 5.32 9 6 C8.01 7.98 7.02 9.96 6 12 C7.32 12.99 8.64 13.98 10 15 C10.28875 14.236875 10.5775 13.47375 10.875 12.6875 C12 10 12 10 14 7 C14.99 7.33 15.98 7.66 17 8 C16.24163557 9.65161581 15.46787924 11.29617138 14.6875 12.9375 C14.25824219 13.85402344 13.82898438 14.77054687 13.38671875 15.71484375 C12 18 12 18 9 19 C6.49998346 17.7689092 4.18565407 16.50257845 1.8125 15.0625 C0.83120117 14.48338867 0.83120117 14.48338867 -0.16992188 13.89257812 C-1.78535316 12.93746912 -3.39340525 11.96989934 -5 11 C-4.10950811 6.76313335 -2.20552339 3.69958761 0 0 Z " fill="#000000" transform="translate(313,244)"/>
<path d="M0 0 C0.66 0.33 1.32 0.66 2 1 C1.38801624 4.43950364 0.07941153 6.51564485 -2.0625 9.25 C-2.61035156 9.95640625 -3.15820312 10.6628125 -3.72265625 11.390625 C-4.14417969 11.92171875 -4.56570312 12.4528125 -5 13 C-4.34 14.32 -3.68 15.64 -3 17 C1.37653129 16.52379711 3.06538005 15.33100111 5.8125 11.9375 C6.41707031 11.20402344 7.02164063 10.47054688 7.64453125 9.71484375 C8.31548828 8.86599609 8.31548828 8.86599609 9 8 C9.99 8.33 10.98 8.66 12 9 C6.57142857 18.71428571 6.57142857 18.71428571 2 21 C-2.03191305 21.53758841 -3.5619036 21.3075996 -6.9375 18.9375 C-9 16 -9 16 -9.3125 12.75 C-7.43835508 7.39530023 -3.95626005 3.97428401 0 0 Z " fill="#000000" transform="translate(125,278)"/>
<path d="M0 0 C3.57075163 0.62100028 5.81910591 2.06907226 8.6875 4.25 C9.86892578 5.12398438 9.86892578 5.12398438 11.07421875 6.015625 C13.36046756 8.37143513 13.80188351 9.75193233 14 13 C12.61442213 15.83713564 11.22998296 17.77001704 9 20 C2.36968778 20 -1.79794753 16.85730421 -7 13 C-6.67 11.68 -6.34 10.36 -6 9 C-5.25234375 9.51691406 -4.5046875 10.03382813 -3.734375 10.56640625 C-2.25710938 11.55447266 -2.25710938 11.55447266 -0.75 12.5625 C0.22453125 13.22378906 1.1990625 13.88507813 2.203125 14.56640625 C4.83245522 16.24352405 4.83245522 16.24352405 7.359375 15.71484375 C8.17148437 15.36099609 8.17148437 15.36099609 9 15 C9.37651348 12.65296 9.37651348 12.65296 9 10 C7.04530138 7.98725758 7.04530138 7.98725758 4.5 6.375 C1.96875 4.6484375 1.96875 4.6484375 0 3 C0 2.01 0 1.02 0 0 Z " fill="#000000" transform="translate(305,257)"/>
<path d="M0 0 C0.99 0 1.98 0 3 0 C2.67 2.97 2.34 5.94 2 9 C2.99 9 3.98 9 5 9 C5.66 6.69 6.32 4.38 7 2 C7.99 2.33 8.98 2.66 10 3 C9.34 5.64 8.68 8.28 8 11 C9.65 11 11.3 11 13 11 C13.66 8.03 14.32 5.06 15 2 C15.99 2.33 16.98 2.66 18 3 C17.34 6.96 16.68 10.92 16 15 C9.76387648 14.48032304 4.0268236 13.67411767 -2 12 C-1.85904936 10.3745692 -1.71207913 8.74965949 -1.5625 7.125 C-1.48128906 6.22007812 -1.40007812 5.31515625 -1.31640625 4.3828125 C-1 2 -1 2 0 0 Z " fill="#000000" transform="translate(324,210)"/>
<path d="M0 0 C2.5482148 2.5482148 3.12838054 4.51352218 4 8 C3.8125 11.25 3.8125 11.25 3 14 C0 16 0 16 -2.5 15.9375 C-5 15 -5 15 -6.8125 12.625 C-8 10 -8 10 -8 7 C-10.64 7.66 -13.28 8.32 -16 9 C-16 7.68 -16 6.36 -16 5 C-10.72 3.35 -5.44 1.7 0 0 Z M-5 5 C-4.67 6.98 -4.34 8.96 -4 11 C-2.02 11.495 -2.02 11.495 0 12 C1.2077558 8.37673261 0.54311128 7.35853631 -1 4 C-2.36893239 3.94729537 -2.36893239 3.94729537 -5 5 Z " fill="#000000" transform="translate(91,221)"/>
<path d="M0 0 C3.96 0 7.92 0 12 0 C12 0.99 12 1.98 12 3 C9.03 3 6.06 3 3 3 C3 4.65 3 6.3 3 8 C3.66 7.67 4.32 7.34 5 7 C6.99960012 6.960008 9.00047242 6.95653201 11 7 C11 7.99 11 8.98 11 10 C8.36 10 5.72 10 3 10 C3 11.98 3 13.96 3 16 C6.3 15.67 9.6 15.34 13 15 C13 15.99 13 16.98 13 18 C6.565 18.495 6.565 18.495 0 19 C0 12.73 0 6.46 0 0 Z " fill="#000000" transform="translate(207,310)"/>
<path d="M0 0 C2.9375 0.8125 2.9375 0.8125 4.9375 3.8125 C4.75 6.875 4.75 6.875 3.9375 9.8125 C0.9375 11.8125 0.9375 11.8125 -2.125 11.6875 C-5.0625 10.8125 -5.0625 10.8125 -6.5 9.0625 C-7.2050101 6.24245959 -7.00147436 4.55719429 -6.0625 1.8125 C-3.0625 -0.1875 -3.0625 -0.1875 0 0 Z M-2.0625 3.8125 C-2.0625 5.1325 -2.0625 6.4525 -2.0625 7.8125 C-1.0725 7.4825 -0.0825 7.1525 0.9375 6.8125 C0.6075 5.8225 0.2775 4.8325 -0.0625 3.8125 C-0.7225 3.8125 -1.3825 3.8125 -2.0625 3.8125 Z " fill="#104A34" transform="translate(223.0625,194.1875)"/>
<path d="M0 0 C1.98626514 0.7309935 3.96391349 1.48543673 5.9375 2.25 C7.03964844 2.66765625 8.14179688 3.0853125 9.27734375 3.515625 C12 5 12 5 12.87890625 7.171875 C12.91886719 7.77515625 12.95882812 8.3784375 13 9 C10.03 8.505 10.03 8.505 7 8 C5.02 11.96 3.04 15.92 1 20 C0.01 20 -0.98 20 -2 20 C-0.33333333 15 1.33333333 10 3 5 C1.68 4.34 0.36 3.68 -1 3 C-0.67 2.01 -0.34 1.02 0 0 Z " fill="#000000" transform="translate(152,297)"/>
<path d="M0 0 C0.99 0 1.98 0 3 0 C4.20465156 4.65798604 5.28547412 9.23649415 6 14 C8.97 14 11.94 14 15 14 C15.33 14.99 15.66 15.98 16 17 C11.71 17.66 7.42 18.32 3 19 C2.49666458 16.39643759 1.99720622 13.79223349 1.5 11.1875 C1.35691406 10.44951172 1.21382812 9.71152344 1.06640625 8.95117188 C0.49073719 5.92205609 0 3.090804 0 0 Z " fill="#000000" transform="translate(221,309)"/>
<path d="M0 0 C3.08379096 2.77541186 4.85411529 4.98940353 6 9 C6.125 12.3125 6.125 12.3125 6 15 C5.01 14.67 4.02 14.34 3 14 C2.3125 11.9375 2.3125 11.9375 2 10 C0.35 9.67 -1.3 9.34 -3 9 C-3 8.01 -3 7.02 -3 6 C-1.68 6 -0.36 6 1 6 C0.34 4.35 -0.32 2.7 -1 1 C-0.67 0.67 -0.34 0.34 0 0 Z " fill="#2D604E" transform="translate(164,165)"/>
<path d="M0 0 C0.33 0 0.66 0 1 0 C1.144375 1.093125 1.28875 2.18625 1.4375 3.3125 C1.88288104 6.93122987 1.88288104 6.93122987 3 10 C6.63 10.66 10.26 11.32 14 12 C14 12.33 14 12.66 14 13 C12.35 13 10.7 13 9 13 C9 13.66 9 14.32 9 15 C5.44849408 14.69558521 4.02861198 14.02406007 1.25 11.6875 C-0.78634065 9.25520422 -1.6577784 8.07999437 -2 5 C-1.34 5 -0.68 5 0 5 C0 3.35 0 1.7 0 0 Z " fill="#356655" transform="translate(149,170)"/>
<path d="M0 0 C1.32 0.33 2.64 0.66 4 1 C3.8125 3.875 3.8125 3.875 3 7 C0.4375 8.375 0.4375 8.375 -2 9 C-1.34 6.03 -0.68 3.06 0 0 Z " fill="#E8EDEB" transform="translate(168,184)"/>
<path d="M0 0 C1.98 0 3.96 0 6 0 C5.67 2.31 5.34 4.62 5 7 C3.29115995 5.37660195 1.62553283 3.70680947 0 2 C0 1.34 0 0.68 0 0 Z " fill="#EDF1F0" transform="translate(159,185)"/>
<path d="M0 0 C2.475 0.495 2.475 0.495 5 1 C4.67 2.98 4.34 4.96 4 7 C3.01 7 2.02 7 1 7 C1.33 5.02 1.66 3.04 2 1 C1.34 0.67 0.68 0.34 0 0 Z " fill="#326352" transform="translate(163,184)"/>
</svg>
