<?xml version="1.0" encoding="UTF-8"?>
<svg version="1.1" xmlns="http://www.w3.org/2000/svg" width="2572" height="453">
<path d="M0 0 C26.07 0 52.14 0 79 0 C80.81078907 4.82877087 82.50658022 9.44318411 83.96337891 14.35229492 C84.32381287 15.56192398 84.68424683 16.77155304 85.05560303 18.01783752 C85.44599492 19.3386933 85.83631214 20.65957115 86.2265625 21.98046875 C86.64725771 23.39683055 87.06818323 24.81312395 87.48931885 26.22935486 C88.63269665 30.07737225 89.77232024 33.92649221 90.9111557 37.77585602 C91.86781629 41.00782797 92.82662741 44.23916035 93.78537941 47.47051239 C105.59913043 87.29133998 117.30115135 127.14529533 129 167 C132.15176367 159.14651941 134.41314271 151.03497618 136.76953125 142.91796875 C137.24334486 141.29433748 137.71744278 139.67078916 138.19180298 138.0473175 C139.20616234 134.57371199 140.21866651 131.0995733 141.22970581 127.625 C142.82251015 122.1513981 144.41975065 116.67909729 146.01782227 111.20703125 C147.95131144 104.58554533 149.88400287 97.96382789 151.81544781 91.34174538 C156.61478001 74.88723 161.42445447 58.43574941 166.24426174 41.98721981 C167.69961159 37.02039075 169.1530838 32.05301773 170.60503006 27.08519268 C171.50298807 24.01423138 172.40252968 20.9437357 173.3025322 17.87337303 C173.71920127 16.45074671 174.1352223 15.02793041 174.55055618 13.60491371 C175.11455074 11.67294511 175.6811029 9.74172368 176.24780273 7.81054688 C176.56402084 6.72994995 176.88023895 5.64935303 177.20603943 4.53601074 C178 2 178 2 179 0 C205.07 0 231.14 0 258 0 C258 74.25 258 148.5 258 225 C242.16 225 226.32 225 210 225 C209.67 166.59 209.34 108.18 209 48 C194.97415705 92.41516934 180.9663097 136.83207521 167.09277344 181.29443359 C164.40649378 189.90266206 161.71842915 198.51032402 159.0206604 207.11495972 C158.55613814 208.59744734 158.09222944 210.08012739 157.6289978 211.5630188 C157.02116461 213.50865027 156.41105699 215.45357078 155.80078125 217.3984375 C155.30831909 218.97117432 155.30831909 218.97117432 154.8059082 220.57568359 C154 223 154 223 153 225 C136.83 225 120.66 225 104 225 C93.56131939 192.28485743 83.12304036 159.56955259 72.72155762 126.84255981 C71.93156602 124.35707181 71.14085222 121.87181746 70.34973145 119.38668823 C62.78662225 95.62558423 55.40788246 71.81105076 48 48 C47.67 106.41 47.34 164.82 47 225 C31.49 225 15.98 225 0 225 C0 150.75 0 76.5 0 0 Z " fill="#FFFFFF" transform="translate(1333,114)"/>
<path d="M0 0 C26.4 0 52.8 0 80 0 C85.41894522 18.33503803 85.41894522 18.33503803 88.08032227 27.34155273 C90.11943398 34.24218566 92.15891352 41.14270967 94.1988287 48.04310513 C100.14297503 68.1511107 106.08138988 88.26074353 111.99084663 108.37897491 C112.80247159 111.14164578 113.61451875 113.90419215 114.42674255 116.66668701 C114.68876245 117.55786224 114.95078234 118.44903748 115.22074223 119.36721802 C115.74053506 121.13506653 116.26034769 122.90290922 116.78018093 124.67074585 C118.29638229 129.82800887 119.80964565 134.98612325 121.32090187 140.14483738 C122.25493642 143.33078469 123.19159146 146.51595703 124.12898254 149.7009182 C124.56258075 151.1762655 124.99503597 152.65194926 125.42628479 154.127985 C126.01049521 156.12713663 126.5986075 158.1250983 127.18774414 160.12280273 C127.51569473 161.24081772 127.84364532 162.3588327 128.18153381 163.51072693 C128.76480667 165.91509543 128.76480667 165.91509543 130 167 C130.21423615 166.26452438 130.42847229 165.52904877 130.64920044 164.77128601 C141.14763205 128.73241616 151.66212629 92.69829564 162.22542572 56.67837906 C162.93100195 54.27216023 163.63633932 51.86587151 164.34161377 49.45956421 C165.46364206 45.63154954 166.58637276 41.80374152 167.70963097 37.97608757 C168.11684284 36.58818194 168.52387003 35.2002221 168.9306736 33.81219673 C172.238706 22.5265119 175.6205129 11.26495702 179 0 C205.07 0 231.14 0 258 0 C258 74.25 258 148.5 258 225 C242.16 225 226.32 225 210 225 C209.67 166.92 209.34 108.84 209 49 C191.39093585 104.74384816 191.39093585 104.74384816 173.80224609 160.49414062 C172.90594382 163.33772546 172.00907409 166.18113056 171.11181641 169.02441406 C169.72978982 173.40398055 168.34898981 177.78393261 166.96875 182.1640625 C166.7536377 182.84633156 166.53852539 183.52860062 166.31689453 184.23154449 C164.05205588 191.41781675 161.80513981 198.60891617 159.60546875 205.81542969 C159.23296997 207.03467133 158.86047119 208.25391296 158.47668457 209.51010132 C157.78048069 211.79515296 157.08720558 214.08109968 156.39733887 216.36807251 C156.0941272 217.36470917 155.79091553 218.36134583 155.47851562 219.38818359 C155.21542603 220.25978119 154.95233643 221.13137878 154.68127441 222.02938843 C154 224 154 224 153 225 C151.49581261 225.09311889 149.98728644 225.11746028 148.48022461 225.11352539 C147.03884377 225.11341209 147.03884377 225.11341209 145.56834412 225.11329651 C144.523564 225.10813522 143.47878387 225.10297394 142.40234375 225.09765625 C140.80635094 225.09553383 140.80635094 225.09553383 139.17811584 225.09336853 C135.76454917 225.08775064 132.351047 225.07519511 128.9375 225.0625 C126.62955824 225.05748731 124.32161545 225.052924 122.01367188 225.04882812 C116.34242574 225.0377754 110.67121747 225.02101987 105 225 C101.77148721 217.32663609 99.14892658 209.52657754 96.6484375 201.58984375 C96.23303954 200.28071685 95.81731509 198.97169352 95.40129089 197.6627655 C94.28660813 194.15239832 93.17656487 190.64058027 92.0674324 187.12845612 C90.89784544 183.42771407 89.72390167 179.72835425 88.55053711 176.02880859 C85.92107013 167.73511534 83.29811855 159.43937023 80.67707062 151.143013 C80.02326429 149.0736344 79.36930141 147.00430535 78.715271 144.93499756 C71.90239256 123.37941112 71.90239256 123.37941112 68.56591797 112.78881836 C61.75418957 91.17842289 54.87026679 69.59226707 48 48 C47.67 106.41 47.34 164.82 47 225 C31.49 225 15.98 225 0 225 C0 150.75 0 76.5 0 0 Z " fill="#FFFFFF" transform="translate(1882,114)"/>
<path d="M0 0 C0.76828125 0.69609375 1.5365625 1.3921875 2.328125 2.109375 C3.15828125 2.84671875 3.9884375 3.5840625 4.84375 4.34375 C21.38587217 19.87101805 28.57557845 39.76261971 29.30517578 62.12451172 C29.44113293 73.88335913 29.44113293 73.88335913 27.328125 78.109375 C11.158125 78.109375 -5.011875 78.109375 -21.671875 78.109375 C-21.341875 73.159375 -21.011875 68.209375 -20.671875 63.109375 C-21.99863524 49.96238715 -25.14408711 39.62117667 -34.671875 30.109375 C-47.57778912 19.88241578 -62.49859104 16.75197438 -78.671875 18.109375 C-96.19857099 20.69999977 -110.95250093 28.87336833 -121.671875 43.109375 C-136.22060586 64.74317553 -139.55820838 90.49767639 -134.6484375 115.84375 C-133.34484227 121.89480696 -131.27606415 127.50035222 -128.671875 133.109375 C-128.22972656 134.06328125 -127.78757812 135.0171875 -127.33203125 136 C-123.78678579 143.03156717 -119.20717598 148.54544315 -113.671875 154.109375 C-112.76695312 155.06650391 -112.76695312 155.06650391 -111.84375 156.04296875 C-101.173183 166.45837001 -85.05750253 171.00283938 -70.484375 171.421875 C-57.15729127 170.8931973 -45.48164167 167.24555221 -34.609375 159.44140625 C-32.671875 158.109375 -32.671875 158.109375 -30.546875 157.18359375 C-28.17652421 155.82558028 -27.76029158 154.57553408 -26.671875 152.109375 C-25.7568136 150.90449943 -24.81771686 149.7176198 -23.859375 148.546875 C-17.97842427 140.81557635 -15.4516364 132.37524634 -12.671875 123.109375 C3.828125 123.109375 20.328125 123.109375 37.328125 123.109375 C34.71340794 149.25654561 22.22892717 171.97888569 2.328125 189.109375 C-6.53423405 196.15284261 -16.05270152 201.21321991 -26.671875 205.109375 C-27.6825 205.48707031 -28.693125 205.86476563 -29.734375 206.25390625 C-61.23001444 216.98009978 -97.307907 214.03869075 -127.03808594 199.61889648 C-133.41912288 196.39316405 -139.18645738 192.71606067 -144.671875 188.109375 C-145.95964844 187.02849609 -145.95964844 187.02849609 -147.2734375 185.92578125 C-172.16237233 164.23255557 -184.0520402 134.97685983 -186.5234375 102.5078125 C-188.0284131 68.05179217 -178.57116597 36.00980957 -155.484375 10.078125 C-118.04796136 -30.35733835 -42.34839567 -36.17843073 0 0 Z " fill="#FFFFFF" transform="translate(780.671875,131.890625)"/>
<path d="M0 0 C15.84 0 31.68 0 48 0 C48 45.87 48 91.74 48 139 C81.66 139 115.32 139 150 139 C150 93.13 150 47.26 150 0 C165.51 0 181.02 0 197 0 C197 74.25 197 148.5 197 225 C181.49 225 165.98 225 150 225 C150 206.52 150 188.04 150 169 C116.34 169 82.68 169 48 169 C48 187.48 48 205.96 48 225 C32.16 225 16.32 225 0 225 C0 150.75 0 76.5 0 0 Z " fill="#FFFFFF" transform="translate(850,114)"/>
<path d="M0 0 C19.14 0 38.28 0 58 0 C67.72208275 24.58565157 77.3860027 49.19234268 86.98388672 73.82666016 C89.98619891 81.5317654 92.99337425 89.23497267 96.00018311 96.93832397 C97.00238381 99.50610766 98.00439766 102.07396418 99.00634766 104.6418457 C101.97719209 112.25566279 104.9485508 119.86927686 107.9228363 127.48175049 C115.70302495 147.39471332 123.45888993 167.31695557 131.1875 187.25 C131.59368561 188.29752441 131.99987122 189.34504883 132.41836548 190.42431641 C134.30205363 195.28282635 136.1845051 200.14180583 138.06396484 205.00195312 C139.25519503 208.08157333 140.45239114 211.15867512 141.65869141 214.23242188 C142.11808105 215.40869141 142.5774707 216.58496094 143.05078125 217.796875 C143.43532471 218.77495117 143.81986816 219.75302734 144.21606445 220.76074219 C145 223 145 223 145 225 C128.83 225 112.66 225 96 225 C93.525 219.06 93.525 219.06 91 213 C76.02745621 196.42325509 51.99056767 196.40336109 31.31225586 194.84594727 C0.10456746 192.45723692 0.10456746 192.45723692 -13.0625 185.25 C-14.20847656 184.63640625 -15.35445313 184.0228125 -16.53515625 183.390625 C-17.34855469 182.93171875 -18.16195312 182.4728125 -19 182 C-22.96696116 191.34474301 -26.66580397 200.77698515 -30.3125 210.25 C-32.189375 215.1175 -34.06625 219.985 -36 225 C-52.83 225 -69.66 225 -87 225 C-80.11532737 205.49342753 -80.11532737 205.49342753 -77.58203125 199.09375 C-77.14018997 197.96628357 -77.14018997 197.96628357 -76.68942261 196.81604004 C-76.06007425 195.2108631 -75.42948557 193.60617195 -74.79769897 192.00195312 C-73.03871701 187.53494642 -71.2899059 183.06395134 -69.5390625 178.59375 C-68.98568459 177.18210571 -68.98568459 177.18210571 -68.42112732 175.74194336 C-64.14864287 164.83879958 -59.91781777 153.91955664 -55.6875 143 C-54.88739959 140.93553533 -54.08726923 138.87108226 -53.28710938 136.80664062 C-50.85757827 130.53795203 -48.42872671 124.26900028 -46 118 C-30.74898599 78.63426535 -15.4566025 39.28553136 0 0 Z M30 49 C25.01469561 60.53715258 20.63638379 72.31137914 16.1875 84.0625 C15.77624878 85.14839417 15.36499756 86.23428833 14.94128418 87.35308838 C12.80713054 92.99013859 10.67579028 98.62824375 8.54638672 104.26708984 C6.48545091 109.72194168 4.41220571 115.17201034 2.33491516 120.62065125 C0.822107 124.5951696 -0.68137184 128.57316759 -2.18222046 132.55221558 C-2.89168971 134.42777011 -3.60490373 136.30191254 -4.32192993 138.17459106 C-5.31340183 140.76630482 -6.29115746 143.36279163 -7.265625 145.9609375 C-7.56045273 146.72215408 -7.85528046 147.48337067 -8.15904236 148.26765442 C-9.52055319 151.9417782 -10.34113747 154.27717065 -9 158 C4.0096855 169.87714591 23.89279498 169.38690084 40.4230957 170.60180664 C53.15649959 171.54951915 65.4832556 173.49074403 78 176 C75.68716063 167.69271088 72.71415757 159.67239551 69.65234375 151.6171875 C69.12191692 150.21401017 68.59180905 148.81071223 68.06199646 147.40730286 C66.93874111 144.43375733 65.81345309 141.46099289 64.6864624 138.48886108 C62.92714199 133.84905119 61.17232063 129.20754874 59.41845703 124.56567383 C58.82862183 123.00471174 58.23877807 121.44375288 57.64892578 119.88279724 C57.21095169 118.72375791 57.21095169 118.72375791 56.76412964 117.54130363 C55.87842301 115.19794021 54.99225856 112.85475041 54.10595703 110.51161194 C48.83670365 96.57981152 43.59961574 82.63610554 38.375 68.6875 C37.61061846 66.64761517 36.84621494 64.60773858 36.08178711 62.56787109 C34.38722882 58.04548286 32.69335514 53.52283887 31 49 C30.67 49 30.34 49 30 49 Z " fill="#FFFFFF" transform="translate(443,114)"/>
<path d="M0 0 C1.01037827 0.00222061 2.02075653 0.00444122 3.06175232 0.00672913 C4.77341331 0.00684242 4.77341331 0.00684242 6.51965332 0.00695801 C7.76129745 0.01211929 9.00294159 0.01728058 10.2822113 0.02259827 C12.17785072 0.02472069 12.17785072 0.02472069 14.11178589 0.02688599 C17.47705394 0.0315487 20.84225495 0.04053972 24.20750427 0.05158997 C27.63930175 0.06180606 31.07110614 0.06638403 34.50291443 0.07142639 C41.2405633 0.08248071 47.9781803 0.09923742 54.71580505 0.12025452 C58.27035161 7.71418349 61.46415332 15.38994154 64.4540863 23.22181702 C64.89171295 24.35968658 65.3293396 25.49755615 65.78022766 26.66990662 C66.95558842 29.72710974 68.1281442 32.78537049 69.29960251 35.84407043 C70.53306207 39.06216497 71.77053001 42.27871636 73.00804138 45.49525452 C73.25552596 46.13852062 73.50301054 46.78178673 73.75799465 47.44454575 C74.25753642 48.74289778 74.75709993 50.04124145 75.25668526 51.33957672 C76.00444765 53.28322558 76.75181322 55.22702666 77.49911499 57.17085266 C81.59960979 67.83411085 85.74036621 78.48124439 89.90330505 89.12025452 C91.18232385 92.39094213 92.46093264 95.66178979 93.73924255 98.93275452 C94.05786255 99.74803619 94.37648254 100.56331787 94.70475769 101.40330505 C98.83134522 111.96834179 102.92936765 122.54446717 107.02830505 133.12025452 C107.42144897 134.13448486 107.8145929 135.14871521 108.21965027 136.19367981 C112.35666093 146.8666288 116.49142737 157.54044613 120.62481689 168.21479797 C122.34516137 172.65708878 124.06612863 177.09913817 125.78718567 181.54115295 C126.99164397 184.65060944 128.19517253 187.76042465 129.39866638 190.87025452 C130.14621152 192.79997876 130.89384862 194.72966738 131.6415863 196.65931702 C131.99437149 197.57102661 132.34715668 198.48273621 132.71063232 199.42207336 C134.30772618 203.53905152 135.92064107 207.64753318 137.58836365 211.73646545 C137.8726976 212.43508698 138.15703156 213.1337085 138.44998169 213.85350037 C139.19775867 215.6819953 139.95291669 217.50746702 140.70872498 219.33265686 C141.71580505 222.12025452 141.71580505 222.12025452 141.71580505 225.12025452 C125.21580505 225.12025452 108.71580505 225.12025452 91.71580505 225.12025452 C89.17463514 219.40262221 86.71691312 213.7401323 84.48143005 207.90931702 C84.19854126 207.17450104 83.91565247 206.43968506 83.62419128 205.68260193 C83.03480819 204.14879724 82.44670205 202.61450129 81.85984802 201.07972717 C80.95913897 198.72784844 80.05049975 196.37912907 79.1415863 194.03041077 C78.566883 192.53189859 77.99264707 191.03320707 77.41893005 189.53431702 C77.14711914 188.83432587 76.87530823 188.13433472 76.59526062 187.41313171 C75.48812316 184.49744135 74.71580505 182.26786068 74.71580505 179.12025452 C73.72322693 179.72353577 72.7306488 180.32681702 71.70799255 180.94837952 C55.65586879 190.48411727 39.58992562 193.42774773 21.19236755 194.83119202 C20.46822159 194.88676773 19.74407562 194.94234344 18.99798584 194.99960327 C16.0418243 195.22350207 13.08564004 195.44430596 10.12791443 195.6466217 C-12.18819655 197.18811131 -12.18819655 197.18811131 -32.28419495 206.12025452 C-36.59025216 211.50058986 -36.59025216 211.50058986 -41.28419495 225.12025452 C-57.45419495 225.12025452 -73.62419495 225.12025452 -90.28419495 225.12025452 C-83.39996349 205.61493206 -83.39996349 205.61493206 -80.97950745 199.58900452 C-80.69884933 198.88184799 -80.41819122 198.17469147 -80.12902832 197.44610596 C-79.53311619 195.94537597 -78.93583361 194.44518946 -78.33720398 192.94554138 C-76.68879549 188.81516928 -75.05189168 184.6802311 -73.4131012 180.54603577 C-73.07284409 179.68847183 -72.73258698 178.8309079 -72.38201904 177.94735718 C-68.66821492 168.58128107 -65.00475605 159.19571284 -61.34669495 149.80775452 C-60.67474145 148.08379506 -60.00278506 146.35983673 -59.33082581 144.63587952 C-58.31911243 142.04001811 -57.30749465 139.44411958 -56.29611206 136.84812927 C-53.99580872 130.94411594 -51.69187404 125.04153065 -49.38575745 119.13978577 C-42.95320451 102.67518964 -36.53795979 86.20415462 -30.15602112 69.71986389 C-23.68811853 53.01374754 -17.21251058 36.31078831 -10.65116882 19.64109802 C-9.99411742 17.97137285 -9.33791701 16.30131254 -8.68260193 14.63090515 C-7.78946873 12.35545054 -6.89289844 10.08138454 -5.99513245 7.80775452 C-5.73256149 7.13741684 -5.46999054 6.46707916 -5.19946289 5.77642822 C-2.97133932 0.15643016 -2.97133932 0.15643016 0 0 Z M24.71580505 49.12025452 C20.84036346 58.20110941 17.29897396 67.38821554 13.84861755 76.63587952 C13.29080473 78.12588211 12.73279102 79.61580951 12.17459106 81.10566711 C10.69760025 85.04939116 9.22325285 88.99409832 7.74943924 92.93901062 C6.22902786 97.00719443 4.70609188 101.07443281 3.18333435 105.14173889 C0.78630087 111.54496665 -1.60952008 117.94864655 -4.00440979 124.35267639 C-7.83709089 134.6008855 -11.67846053 144.84582744 -15.52229309 155.08985901 C-16.99945634 159.0268718 -18.47580028 162.96419174 -19.9521637 166.90150452 C-20.72950745 168.97442118 -21.5068512 171.04733785 -22.28419495 173.12025452 C-19.28457061 174.03553752 -17.07887871 174.13497552 -13.98731995 173.66712952 C-12.69628357 173.48247131 -12.69628357 173.48247131 -11.37916565 173.29408264 C-10.44032532 173.15421936 -9.50148499 173.01435608 -8.53419495 172.87025452 C-1.39107724 171.85954033 5.74468593 170.98516472 12.9306488 170.35462952 C13.63188873 170.29265381 14.33312866 170.2306781 15.05561829 170.16682434 C18.51851242 169.86378572 21.98204461 169.57422992 25.44725037 169.29896545 C38.75044552 168.15793121 52.63685591 166.40457842 62.02830505 155.87025452 C63.36357326 153.62762002 63.78555417 152.54861783 63.36099243 149.94117737 C63.09804886 149.15271423 62.83510529 148.3642511 62.56419373 147.55189514 C62.12773026 146.22557068 62.12773026 146.22557068 61.68244934 144.87245178 C61.36345673 143.96422668 61.04446411 143.05600159 60.71580505 142.12025452 C60.4180014 141.27197083 60.12019775 140.42368713 59.81336975 139.54969788 C58.8403914 136.84591766 57.8389101 134.15423369 56.8290863 131.46400452 C56.4544928 130.45868179 56.07989929 129.45335907 55.69395447 128.41757202 C54.47540645 125.15054285 53.25203252 121.88534678 52.02830505 118.62025452 C51.18207357 116.35557008 50.33596487 114.09083976 49.48997498 111.82606506 C41.66027553 90.88799522 33.71442866 69.9943032 25.71580505 49.12025452 C25.38580505 49.12025452 25.05580505 49.12025452 24.71580505 49.12025452 Z " fill="#FFFFFF" transform="translate(1710.284194946289,113.87974548339844)"/>
<path d="M0 0 C19.14 0 38.28 0 58 0 C66.20766093 19.86491847 74.02317067 39.86338146 81.77304077 59.91023254 C82.39198715 61.5112104 82.39198715 61.5112104 83.0234375 63.14453125 C83.43759918 64.21591843 83.85176086 65.2873056 84.2784729 66.39115906 C88.55182486 77.43906414 92.866075 88.470828 97.1875 99.5 C97.93898716 101.41861105 98.69045205 103.33723082 99.44189453 105.25585938 C100.55269393 108.09189589 101.66353048 110.92791782 102.77450562 113.7638855 C106.50131287 123.27782246 110.22182183 132.79421126 113.9375 142.3125 C114.25540497 143.12679474 114.57330994 143.94108948 114.90084839 144.78005981 C121.53225644 161.77009122 128.1234035 178.77573386 134.70678711 195.78442383 C135.09634079 196.79028534 135.48589447 197.79614685 135.88725281 198.83248901 C136.61144411 200.70244578 137.33520617 202.57256887 138.0584259 204.44290161 C138.3875145 205.29246429 138.71660309 206.14202698 139.05566406 207.01733398 C139.37216919 207.83571747 139.68867432 208.65410095 140.01477051 209.49728394 C140.70692816 211.25552818 141.41571817 213.0072716 142.13659668 214.75393677 C142.68724792 216.09015579 142.68724792 216.09015579 143.24902344 217.45336914 C143.58432068 218.25416397 143.91961792 219.0549588 144.26507568 219.88002014 C145 222 145 222 145 225 C129.16 225 113.32 225 97 225 C92 214 92 214 90.58203125 210.046875 C88.54800674 206.12949446 86.64400352 205.13191561 82.6875 203.25 C81.57761719 202.69828125 80.46773437 202.1465625 79.32421875 201.578125 C65.77070882 196.16570016 50.68041403 195.9281037 36.31225586 194.84594727 C4.68418609 192.42505994 4.68418609 192.42505994 -8.9375 184.875 C-9.60716797 184.52824219 -10.27683594 184.18148437 -10.96679688 183.82421875 C-13.63392943 182.41933157 -15.85785775 181.14214225 -18 179 C-18.36762451 179.96711914 -18.73524902 180.93423828 -19.11401367 181.93066406 C-20.50061414 185.57690021 -21.88972935 189.22217427 -23.27954102 192.8671875 C-23.87656351 194.43399029 -24.4729366 196.00104072 -25.06860352 197.56835938 C-25.93327828 199.84313032 -26.80041801 202.11694956 -27.66796875 204.390625 C-27.92652145 205.07239807 -28.18507416 205.75417114 -28.45146179 206.456604 C-30.83864031 212.70074111 -33.42466045 218.81918508 -36 225 C-52.5 225 -69 225 -86 225 C-83.750328 214.87647599 -83.750328 214.87647599 -82.28271484 211.23852539 C-81.95347519 210.4120903 -81.62423553 209.58565521 -81.28501892 208.73417664 C-80.93057205 207.86412491 -80.57612518 206.99407318 -80.2109375 206.09765625 C-79.83574478 205.15972733 -79.46055206 204.2217984 -79.07398987 203.25544739 C-78.26723675 201.23986129 -77.4575634 199.22544201 -76.64523315 197.21209717 C-74.46562655 191.80766982 -72.30951631 186.3938813 -70.15234375 180.98046875 C-69.71408768 179.88184509 -69.2758316 178.78322144 -68.82429504 177.65130615 C-64.75601115 167.43220893 -60.82691982 157.16323834 -56.9375 146.875 C-51.44317616 132.36025504 -45.8570375 117.88472684 -40.1875 103.4375 C-38.67825002 99.59119893 -37.16903978 95.74488234 -35.66015625 91.8984375 C-35.28164017 90.9335289 -34.90312408 89.9686203 -34.51313782 88.97447205 C-30.02112966 77.51519261 -25.57168686 66.0394261 -21.125 54.5625 C-20.72665955 53.53447266 -20.32831909 52.50644531 -19.91790771 51.44726562 C-17.62955735 45.54093807 -15.34231368 39.63418267 -13.0557251 33.72717285 C-12.03780983 31.09767119 -11.01968484 28.46825086 -10.00146484 25.83886719 C-9.68561935 25.0232431 -9.36977386 24.20761902 -9.0443573 23.36727905 C-8.74483658 22.59381134 -8.44531586 21.82034363 -8.13671875 21.0234375 C-5.42319844 14.01612014 -2.71165382 7.00804039 0 0 Z M30 48 C26.81694666 56.44369796 23.63420306 64.88751261 20.45180893 73.33145905 C18.97256972 77.25634443 17.49324078 81.18119592 16.01367188 85.10595703 C15.73007057 85.8582962 15.44646927 86.61063538 15.15427399 87.38577271 C14.58183548 88.90425445 14.00932041 90.42270733 13.43672943 91.94113159 C12.00358387 95.74232879 10.57241077 99.54424836 9.1451416 103.34765625 C6.56156748 110.22857202 3.96791396 117.10449774 1.31306076 123.9582901 C0.16624953 126.92180612 -0.97141631 129.8887909 -2.10814667 132.85618591 C-2.64553321 134.25132415 -3.18742829 135.64473513 -3.73407745 137.03627014 C-4.48618744 138.95162734 -5.22267444 140.87233078 -5.95605469 142.79492188 C-6.37651062 143.87704956 -6.79696655 144.95917725 -7.23016357 146.07409668 C-8.22947701 149.87216912 -7.87287088 152.42749978 -5.9765625 155.84375 C2.74651671 166.53330372 17.34166501 168.12931838 30.31982422 169.48779297 C34.70895388 169.90172624 39.10357804 170.23685704 43.5 170.5625 C46.44831858 170.78802074 49.3961724 171.01890399 52.34375 171.25390625 C53.05668213 171.31035309 53.76961426 171.36679993 54.50415039 171.42495728 C62.03283149 172.04448275 69.51427258 172.99586341 77 174 C76.39943178 169.67331568 75.35187606 165.87391894 73.80126953 161.79418945 C73.34149719 160.57611603 72.88172485 159.3580426 72.40802002 158.10305786 C71.89969233 156.77310372 71.39128746 155.44317909 70.8828125 154.11328125 C70.35208371 152.71275051 69.82188333 151.31201943 69.29217529 149.91110229 C68.16269984 146.92688579 67.02993055 143.94395003 65.89447021 140.96200562 C64.11965289 136.30071155 62.35213664 131.63667396 60.58642578 126.97192383 C60.2925617 126.19562087 59.99869762 125.41931791 59.69592857 124.61949062 C59.1007973 123.04729555 58.50568865 121.4750919 57.91060257 119.90287971 C57.01329617 117.53291158 56.11528611 115.16321106 55.21713257 112.79356384 C49.71688681 98.27778278 44.28389272 83.73755749 38.875 69.1875 C38.06267157 67.00365883 37.25033462 64.81982084 36.43798828 62.63598633 C34.62389634 57.75785421 32.8113707 52.8791432 31 48 C30.67 48 30.34 48 30 48 Z " fill="#FFFFFF" transform="translate(1159,114)"/>
<path d="M0 0 C1.01037827 0.00222061 2.02075653 0.00444122 3.06175232 0.00672913 C4.77341331 0.00684242 4.77341331 0.00684242 6.51965332 0.00695801 C7.76129745 0.01211929 9.00294159 0.01728058 10.2822113 0.02259827 C12.17785072 0.02472069 12.17785072 0.02472069 14.11178589 0.02688599 C17.47705394 0.0315487 20.84225495 0.04053972 24.20750427 0.05158997 C27.63930175 0.06180606 31.07110614 0.06638403 34.50291443 0.07142639 C41.2405633 0.08248071 47.9781803 0.09923742 54.71580505 0.12025452 C57.48408014 5.4799782 59.87090039 10.82175924 61.97361755 16.47181702 C62.27374252 17.26663986 62.57386749 18.06146271 62.88308716 18.88037109 C63.53188114 20.5990229 64.17891555 22.31833978 64.82435608 24.03825378 C66.59670274 28.75835665 68.38475842 33.47249911 70.1728363 38.18666077 C70.5456926 39.17014999 70.91854889 40.15363922 71.30270386 41.16693115 C75.30373695 51.70130966 79.40951387 62.19397675 83.52830505 72.68275452 C85.04298984 76.5419876 86.55731164 80.4013629 88.0712738 84.26087952 C88.45069122 85.22805405 88.83010864 86.19522858 89.22102356 87.19171143 C93.62513065 98.42675796 97.98320859 109.67960622 102.34080505 120.93275452 C107.88882582 135.25762692 113.44628692 149.57865225 119.03459167 163.88786316 C120.01497858 166.39862553 120.99463959 168.90966998 121.97410583 171.42079163 C124.90611772 178.9360025 127.84310806 186.44915737 130.79666138 193.95593262 C132.12399109 197.33151181 133.44747548 200.70859104 134.77033997 204.08592224 C135.3949651 205.67765683 136.021417 207.26867592 136.64979553 208.8589325 C137.50970486 211.03542271 138.36344233 213.21423759 139.21580505 215.39369202 C139.47117538 216.03532791 139.72654572 216.67696381 139.98965454 217.33804321 C141.06657198 220.10833713 141.71580505 222.11486423 141.71580505 225.12025452 C125.21580505 225.12025452 108.71580505 225.12025452 91.71580505 225.12025452 C88.76896062 218.04782788 85.85338105 211.019656 83.1650238 203.85462952 C82.86135391 203.05035522 82.55768402 202.24608093 82.24481201 201.41743469 C81.29571612 198.90242942 80.34945185 196.38637051 79.40330505 193.87025452 C78.75180152 192.14231859 78.10011015 190.41445348 77.44822693 188.68666077 C75.86858923 184.49867077 74.29148603 180.3097347 72.71580505 176.12025452 C69.92388888 176.12025452 69.36863727 177.3009644 67.40330505 179.24525452 C51.488015 193.36365698 27.9605621 193.8568591 7.86326599 195.32923889 C-13.07869241 196.05936967 -13.07869241 196.05936967 -32.28419495 203.12025452 C-33.54265227 205.28202118 -33.54265227 205.28202118 -34.3896637 207.87416077 C-34.73319885 208.81066467 -35.07673401 209.74716858 -35.43067932 210.71205139 C-35.77421448 211.69238342 -36.11774963 212.67271545 -36.47169495 213.68275452 C-37.17154604 215.62226924 -37.87326802 217.56111025 -38.5771637 219.49916077 C-39.03385437 220.79188904 -39.03385437 220.79188904 -39.49977112 222.11073303 C-40.28419495 224.12025452 -40.28419495 224.12025452 -41.28419495 225.12025452 C-42.78838234 225.21337341 -44.29690851 225.23771479 -45.80397034 225.23377991 C-47.24535118 225.23366661 -47.24535118 225.23366661 -48.71585083 225.23355103 C-49.76063095 225.22838974 -50.80541107 225.22322845 -51.8818512 225.21791077 C-53.47784401 225.21578835 -53.47784401 225.21578835 -55.1060791 225.21362305 C-58.51964578 225.20800515 -61.93314794 225.19544963 -65.34669495 225.18275452 C-67.65463671 225.17774182 -69.9625795 225.17317852 -72.27052307 225.16908264 C-77.94176921 225.15802991 -83.61297747 225.14127438 -89.28419495 225.12025452 C-88.1508808 219.41228395 -86.68364121 214.04741418 -84.4756012 208.65150452 C-84.19766724 207.95535538 -83.91973328 207.25920624 -83.63337708 206.54196167 C-83.02897081 205.02975559 -82.42155997 203.51874759 -81.81144714 202.00883484 C-80.10539802 197.78491559 -78.42332482 193.55142349 -76.73731995 189.31947327 C-76.19703911 187.9659803 -76.19703911 187.9659803 -75.64584351 186.58514404 C-71.79105249 176.91517087 -68.03363984 167.20800236 -64.28123474 157.49794006 C-57.33312048 139.51858681 -50.3326185 121.56050997 -43.28419495 103.62025452 C-36.55453024 86.49061718 -29.86728557 69.34518586 -23.22169495 52.18275452 C-12.28006987 23.93469928 -12.28006987 23.93469928 -7.65919495 12.12025452 C-7.21567688 10.98080383 -6.77215881 9.84135315 -6.31520081 8.66737366 C-5.92082825 7.66182434 -5.52645569 6.65627502 -5.12013245 5.62025452 C-4.61812317 4.33634827 -4.61812317 4.33634827 -4.10597229 3.02650452 C-2.86631011 0.15090075 -2.86631011 0.15090075 0 0 Z M24.71580505 48.12025452 C24.26837448 49.31340271 24.26837448 49.31340271 23.81190491 50.53065491 C23.38654449 51.66494934 22.96118408 52.79924377 22.52293396 53.96791077 C22.17078292 54.90699012 22.17078292 54.90699012 21.81151772 55.86504078 C20.46502374 59.45571926 19.11849062 63.04638305 17.77189636 66.63702393 C15.03530271 73.93416266 12.29898406 81.23140405 9.56389046 88.52910519 C8.01574007 92.65981235 6.46738785 96.79044383 4.91893005 100.92103577 C4.61059109 101.74355646 4.30225212 102.56607716 3.98456955 103.41352272 C-0.01597783 114.08422835 -4.02679812 124.75097067 -8.04981995 135.41322327 C-9.28582992 138.69316553 -10.52155357 141.97321549 -11.75715637 145.25331116 C-12.52200344 147.28117907 -13.28822757 149.30852815 -14.05586243 151.33534241 C-15.10670149 154.11004347 -16.15297718 156.88642435 -17.19825745 159.66322327 C-17.50112671 160.45883163 -17.80399597 161.25444 -18.11604309 162.07415771 C-19.49037576 165.73816133 -20.67870157 169.23364162 -21.28419495 173.12025452 C-15.16754349 172.61605447 -9.05194987 172.1008141 -2.93702698 171.57606506 C-0.86403058 171.39965008 1.20920893 171.2260648 3.28269958 171.05555725 C31.54607613 169.90252717 31.54607613 169.90252717 55.27830505 156.68275452 C58.37900182 152.50873963 60.84238657 148.55114459 60.56272888 143.18055725 C59.60091571 137.44744997 57.2826709 132.06508768 55.2275238 126.65541077 C54.77243942 125.44057007 54.31735504 124.22572937 53.84848022 122.97407532 C52.6263276 119.71183318 51.39563327 116.4528774 50.16320038 113.1945076 C48.89680625 109.84184544 47.63843522 106.48617577 46.37937927 103.13075256 C44.39942112 97.85682593 42.41525361 92.58450566 40.42723083 87.31361389 C38.13938585 81.24683442 35.85950056 75.17713386 33.5868988 69.10462952 C33.29737839 68.33110641 33.00785797 67.55758331 32.70956421 66.76062012 C32.17147571 65.32295894 31.63340397 63.88529149 31.09535217 62.44761658 C29.30628576 57.67028467 27.51115336 52.89522859 25.71580505 48.12025452 C25.38580505 48.12025452 25.05580505 48.12025452 24.71580505 48.12025452 Z " fill="#FFFFFF" transform="translate(2255.284194946289,113.87974548339844)"/>
<path d="M0 0 C28.9575 -0.0928125 28.9575 -0.0928125 58.5 -0.1875 C64.56697266 -0.21481201 70.63394531 -0.24212402 76.88476562 -0.27026367 C84.36621094 -0.28381348 84.36621094 -0.28381348 87.88269043 -0.28633118 C90.3078375 -0.29089959 92.7329783 -0.30137007 95.15808105 -0.31672668 C118.62365088 -0.45772664 141.98260874 0.55278814 161 16 C161.63164062 16.47050781 162.26328125 16.94101563 162.9140625 17.42578125 C175.67556953 27.40449269 181.63411745 43.91679542 183.6875 59.5 C185.38402998 79.18681668 182.49132467 100.09548604 170 116 C155.88729773 132.6828204 137.31915455 139.59881011 116 142 C110.54289538 142.24951617 105.09730679 142.23561548 99.63671875 142.1953125 C98.27982753 142.19236174 96.92293401 142.19032769 95.56604004 142.18920898 C90.60649135 142.17884127 85.6469918 142.15091969 80.6875 142.125 C69.570625 142.08375 58.45375 142.0425 47 142 C47 169.39 47 196.78 47 225 C31.49 225 15.98 225 0 225 C0 150.75 0 76.5 0 0 Z M47 39 C47 60.12 47 81.24 47 103 C57.333125 103.0825 67.66625 103.165 78.3125 103.25 C81.55360596 103.28641602 84.79471191 103.32283203 88.1340332 103.36035156 C90.73127583 103.3720448 93.32852585 103.38223512 95.92578125 103.390625 C96.91519966 103.40630524 96.91519966 103.40630524 97.92460632 103.42230225 C108.88441946 103.58703795 119.28645764 102.58281066 127.5703125 94.6953125 C134.86389247 86.04664117 135.84779152 74.86477442 135 64 C133.37096816 55.33164809 129.70068217 49.26076145 123.171875 43.39453125 C115.1339272 38.23347484 106.97896312 38.60341084 97.78125 38.70703125 C96.31295203 38.71263549 94.84464839 38.71690167 93.37634277 38.71989441 C89.53593099 38.73127816 85.69586658 38.76068834 81.85559082 38.79400635 C77.2349668 38.83028269 72.6142258 38.84389927 67.99349976 38.86136627 C60.99542587 38.89033071 53.99811222 38.94786175 47 39 Z " fill="#FFFFFF" transform="translate(174,114)"/>
</svg>
