<?xml version="1.0" encoding="UTF-8"?>
<svg version="1.1" xmlns="http://www.w3.org/2000/svg" width="961" height="947">
<path d="M0 0 C1.39780682 -0.04359889 2.7969583 -0.05439966 4.1953125 -0.03515625 C4.89011719 -0.08349609 5.58492187 -0.13183594 6.30078125 -0.18164062 C8.61186885 -0.18816912 10.18307467 0.00765423 12.3203125 0.90234375 C14.88866185 3.58321494 16.5487721 6.65824818 18.3203125 9.90234375 C19.31206125 11.57134816 20.30559326 13.23929404 21.30078125 14.90625 C22.37221442 16.75771466 23.44109135 18.61066026 24.5078125 20.46484375 C31.22771604 32.06950761 38.06189129 43.60347121 44.92260742 55.12524414 C45.31742813 55.78874878 45.71224884 56.45225342 46.11903381 57.13586426 C46.85472281 58.37205439 47.59095249 59.60792299 48.3278656 60.84338379 C50.70517322 64.83757752 53.02336562 68.86165651 55.3203125 72.90234375 C58.34251973 70.25120289 60.08702873 67.11461579 62.0859375 63.65234375 C62.44242371 63.0389917 62.79890991 62.42563965 63.16619873 61.79370117 C64.30533555 59.83244472 65.4382293 57.8676788 66.5703125 55.90234375 C68.77547082 52.0852444 70.98703906 48.27268169 73.23022461 44.4777832 C74.58505578 42.18440631 75.86791619 39.88428965 77.13110352 37.53588867 C81.16866104 30.38089139 81.16866104 30.38089139 84.36376953 29.05322266 C86.60321031 28.81768029 88.52748602 28.9230444 90.7578125 29.21484375 C91.48935547 29.26447266 92.22089844 29.31410156 92.97460938 29.36523438 C94.76087157 29.49365845 96.54195508 29.69099035 98.3203125 29.90234375 C98.64604248 30.50892822 98.97177246 31.1155127 99.30737305 31.74047852 C105.37285063 43.02186478 111.48440429 54.27017531 117.8203125 65.40234375 C122.81542268 74.17969151 127.65947049 83.02895222 132.4453125 91.921875 C136.15476893 98.79685313 139.9566025 105.61298796 143.8203125 112.40234375 C148.80720529 121.16536931 153.64990469 129.99680556 158.41894531 138.88012695 C161.21596636 144.07368261 164.0608058 149.23245573 166.9921875 154.3515625 C167.59095703 155.39763672 168.18972656 156.44371094 168.80664062 157.52148438 C169.9553138 159.51989585 171.10997072 161.51488361 172.27148438 163.50585938 C172.78775391 164.40369141 173.30402344 165.30152344 173.8359375 166.2265625 C174.52091309 167.40351685 174.52091309 167.40351685 175.21972656 168.60424805 C176.3203125 170.90234375 176.3203125 170.90234375 177.3203125 175.90234375 C173.3603125 179.20234375 169.4003125 182.50234375 165.3203125 185.90234375 C161.28211922 183.88324711 158.53056053 181.47270334 155.3203125 178.40234375 C141.03801817 165.03431044 128.7569422 154.37248064 108.3203125 154.77734375 C105.3503125 154.81859375 102.3803125 154.85984375 99.3203125 154.90234375 C99.3203125 166.12234375 99.3203125 177.34234375 99.3203125 188.90234375 C93.3803125 188.90234375 87.4403125 188.90234375 81.3203125 188.90234375 C81.3203125 179.33234375 81.3203125 169.76234375 81.3203125 159.90234375 C68.31908855 165.20896577 56.22034207 170.9442654 44.15234375 178.10546875 C25.63134118 188.99973327 6.60619289 194.04217075 -14.6796875 188.90234375 C-26.07305545 185.38023877 -36.39776661 179.56002189 -46.66015625 173.59765625 C-57.33781869 167.41735412 -67.94629026 162.81347616 -79.6796875 158.90234375 C-79.6796875 168.80234375 -79.6796875 178.70234375 -79.6796875 188.90234375 C-85.6196875 188.90234375 -91.5596875 188.90234375 -97.6796875 188.90234375 C-97.6796875 177.35234375 -97.6796875 165.80234375 -97.6796875 153.90234375 C-117.96633144 153.44128366 -131.78560811 156.07388401 -146.9296875 170.33984375 C-151.85896223 175.05165944 -151.85896223 175.05165944 -156.58007812 179.96923828 C-157.18529297 180.61876465 -157.79050781 181.26829102 -158.4140625 181.9375 C-158.94741211 182.53054932 -159.48076172 183.12359863 -160.03027344 183.73461914 C-161.6796875 184.90234375 -161.6796875 184.90234375 -163.70898438 184.71679688 C-166.73710791 183.46533254 -168.93765388 181.4462055 -171.4296875 179.33984375 C-172.41453125 178.51355469 -173.399375 177.68726563 -174.4140625 176.8359375 C-175.16171875 176.19785156 -175.909375 175.55976562 -176.6796875 174.90234375 C-168.19415808 159.01058471 -159.05713092 143.47854287 -149.84658813 127.99966431 C-144.8298735 119.566882 -139.88175907 111.09716598 -134.9921875 102.58984375 C-129.89815575 93.72699751 -124.74975526 84.89995102 -119.53369141 76.10839844 C-115.44128771 69.20679171 -111.39946482 62.27671847 -107.3671875 55.33984375 C-93.7964679 32.01912415 -93.7964679 32.01912415 -91.6796875 29.90234375 C-89.25386281 29.58528158 -86.92856739 29.39281199 -84.4921875 29.27734375 C-83.17863281 29.18195313 -81.86507812 29.0865625 -80.51171875 28.98828125 C-76.29681292 29.99367163 -75.92696185 30.31157637 -73.62890625 33.6953125 C-72.62170464 35.4171 -71.64031963 37.15414662 -70.6796875 38.90234375 C-69.53530599 40.82898809 -68.38941215 42.75473476 -67.2421875 44.6796875 C-66.05180057 46.73140066 -64.86433727 48.78481265 -63.6796875 50.83984375 C-62.49280119 52.89098024 -61.30530714 54.94176517 -60.1171875 56.9921875 C-59.26253906 58.46727783 -59.26253906 58.46727783 -58.390625 59.97216797 C-55.85999059 64.30616828 -53.27670557 68.60786996 -50.6796875 72.90234375 C-45.6843143 66.2604905 -41.09967558 59.50360416 -36.74023438 52.43481445 C-33.34180278 46.9328048 -29.84279818 41.50295378 -26.3046875 36.08984375 C-21.3436475 28.49384876 -16.45929777 20.85365971 -11.63720703 13.16870117 C-10.73059954 11.72524914 -9.81679618 10.28628184 -8.89453125 8.8527832 C-7.79575937 7.08869788 -6.80652033 5.25754047 -5.83203125 3.421875 C-3.6796875 0.90234375 -3.6796875 0.90234375 0 0 Z M3.3203125 24.90234375 C1.80224548 26.8534906 1.80224548 26.8534906 0.2578125 29.421875 C-0.36536865 30.41147217 -0.9885498 31.40106934 -1.63061523 32.4206543 C-2.30680908 33.50773682 -2.98300293 34.59481934 -3.6796875 35.71484375 C-5.12662684 38.01060108 -6.5752984 40.30513735 -8.02734375 42.59765625 C-8.404319 43.19380234 -8.78129425 43.78994843 -9.16969299 44.40415955 C-13.00468524 50.45084525 -16.96842157 56.40872989 -20.95568848 62.35571289 C-22.1111673 64.08085552 -23.26272436 65.80855108 -24.41308594 67.53710938 C-27.53297371 72.22037855 -30.65875154 76.89431477 -33.88671875 81.50390625 C-34.32894775 82.14948486 -34.77117676 82.79506348 -35.22680664 83.46020508 C-36.31715057 85.05068647 -37.42702335 86.62773621 -38.5390625 88.203125 C-39.96530568 90.88330757 -39.96530568 90.88330757 -39.12109375 93.8515625 C-37.55435621 97.16761132 -35.80670918 100.29600789 -33.8671875 103.40234375 C-33.04854682 104.7403154 -32.23089795 106.07889424 -31.4140625 107.41796875 C-30.97255859 108.13919922 -30.53105469 108.86042969 -30.07617188 109.60351562 C-27.54962484 113.76260074 -25.08741347 117.95965428 -22.6171875 122.15234375 C-21.5143579 124.01824985 -20.41149205 125.88413452 -19.30859375 127.75 C-17.03013391 131.60834427 -14.75886988 135.47079607 -12.4934845 139.33682251 C-11.04012429 141.81533026 -9.58308862 144.29166623 -8.1255188 146.7677002 C-7.41574441 147.97546358 -6.7076141 149.18419476 -6.00119019 150.3939209 C-5.01019288 152.09058966 -4.01302864 153.78365182 -3.015625 155.4765625 C-2.44376465 156.45197998 -1.8719043 157.42739746 -1.28271484 158.43237305 C0.10644661 160.5728157 1.43252777 162.20547864 3.3203125 163.90234375 C9.87485202 153.40715962 16.15623309 142.75587087 22.4375 132.09570312 C25.54178036 126.83066331 28.6521 121.56920885 31.765625 116.30963135 C32.79506487 114.57000902 33.82332856 112.82969085 34.8515625 111.08935547 C35.4909375 110.00928223 36.1303125 108.92920898 36.7890625 107.81640625 C37.38976562 106.79450195 37.99046875 105.77259766 38.609375 104.71972656 C40.49764569 101.61033104 42.53055522 98.62720186 44.68554688 95.69677734 C45.55351544 93.80317896 45.55351544 93.80317896 44.58764648 91.44311523 C43.44271784 89.14774394 42.26427872 86.92824314 40.94921875 84.7265625 C40.46654541 83.91413086 39.98387207 83.10169922 39.48657227 82.26464844 C38.95733154 81.38196289 38.42809082 80.49927734 37.8828125 79.58984375 C37.32585693 78.65430664 36.76890137 77.71876953 36.19506836 76.75488281 C34.94388339 74.65333705 33.69127122 72.55264057 32.4375 70.45263672 C30.09960659 66.53517157 27.77220542 62.61150618 25.4453125 58.6875 C21.69618572 52.3661315 21.69618572 52.3661315 17.94555664 46.0456543 C17.35985146 45.05887947 17.35985146 45.05887947 16.76231384 44.0521698 C16.00085416 42.77081037 15.23839853 41.49004217 14.47486877 40.20991516 C12.79482619 37.39285492 11.12923007 34.570692 9.49169922 31.72851562 C8.95947754 30.81134766 8.42725586 29.89417969 7.87890625 28.94921875 C7.42700928 28.15870117 6.9751123 27.36818359 6.50952148 26.55371094 C5.92086304 25.73628418 5.92086304 25.73628418 5.3203125 24.90234375 C4.6603125 24.90234375 4.0003125 24.90234375 3.3203125 24.90234375 Z M-84.6796875 52.90234375 C-85.74514858 54.53981772 -86.75746479 56.21185416 -87.75 57.89453125 C-88.39155029 58.97903564 -89.03310059 60.06354004 -89.6940918 61.1809082 C-90.39777691 62.37963013 -91.10130462 63.57844446 -91.8046875 64.77734375 C-92.52952213 66.00686166 -93.25454075 67.23627112 -93.97973633 68.46557617 C-99.45313955 77.75735935 -104.84826084 87.09364281 -110.22290039 96.44287109 C-115.34295744 105.34300477 -120.54135192 114.19500011 -125.77734375 123.02734375 C-126.2480127 123.82398438 -126.71868164 124.620625 -127.20361328 125.44140625 C-128.25674973 127.19721428 -129.33037005 128.94080311 -130.41748047 130.67578125 C-130.97709473 131.57554687 -131.53670898 132.4753125 -132.11328125 133.40234375 C-132.62818115 134.21703125 -133.14308105 135.03171875 -133.67358398 135.87109375 C-134.00559814 136.54140625 -134.3376123 137.21171875 -134.6796875 137.90234375 C-134.3496875 138.56234375 -134.0196875 139.22234375 -133.6796875 139.90234375 C-132.76703125 139.56227295 -132.76703125 139.56227295 -131.8359375 139.21533203 C-125.29243511 137.07786811 -119.80025154 136.85157028 -112.95796204 137.35742188 C-100.27275452 138.72376662 -100.27275452 138.72376662 -88.34228516 135.56933594 C-84.63916208 131.86517178 -82.77457312 127.27949107 -80.83740234 122.48291016 C-78.72036893 117.76400606 -75.69975216 113.6086136 -72.8046875 109.33984375 C-71.2377002 106.94905407 -69.68294467 104.55144028 -68.14160156 102.14404297 C-67.16441953 100.64563192 -66.15533622 99.16756418 -65.11621094 97.71142578 C-64.63958008 97.02290527 -64.16294922 96.33438477 -63.671875 95.625 C-63.23987793 95.0256665 -62.80788086 94.42633301 -62.36279297 93.80883789 C-61.44151893 91.82667278 -61.44151893 91.82667278 -62.39648438 89.45874023 C-63.61740626 87.0264204 -64.86650287 84.6392095 -66.21875 82.27734375 C-66.71334717 81.41133545 -67.20794434 80.54532715 -67.7175293 79.65307617 C-68.2412915 78.74533447 -68.76505371 77.83759277 -69.3046875 76.90234375 C-69.83940674 75.97204346 -70.37412598 75.04174316 -70.92504883 74.08325195 C-77.05048144 63.33781329 -77.05048144 63.33781329 -83.6796875 52.90234375 C-84.0096875 52.90234375 -84.3396875 52.90234375 -84.6796875 52.90234375 Z M89.3203125 52.90234375 C88.9078125 53.62188232 88.4953125 54.3414209 88.0703125 55.08276367 C72.93089365 81.46903036 72.93089365 81.46903036 66.3203125 91.90234375 C71.32379465 100.72836195 76.40241466 109.50993093 81.5078125 118.27734375 C82.10158691 119.29892578 82.69536133 120.32050781 83.30712891 121.37304688 C86.55524623 126.94332705 89.86894795 132.45555752 93.3203125 137.90234375 C94.47273438 137.7425 95.62515625 137.58265625 96.8125 137.41796875 C109.06361107 135.89936949 120.38030332 136.8541668 132.3203125 139.90234375 C133.98478131 140.24648392 135.65073923 140.58388811 137.3203125 140.90234375 C131.01070603 127.92027804 124.18449304 115.2190367 117.33943176 102.51428223 C114.99378963 98.15927517 112.6597997 93.79817753 110.33203125 89.43359375 C103.79432993 77.18062509 97.22539769 64.95349513 90.3203125 52.90234375 C89.9903125 52.90234375 89.6603125 52.90234375 89.3203125 52.90234375 Z M-51.6796875 109.90234375 C-53.10844213 111.74530129 -54.44590471 113.65923338 -55.7421875 115.59765625 C-56.13414307 116.18271942 -56.52609863 116.76778259 -56.92993164 117.37057495 C-57.76040929 118.6142454 -58.58737765 119.86026514 -59.41113281 121.10839844 C-60.66495631 123.00505984 -61.93306561 124.89152794 -63.203125 126.77734375 C-64.00870005 127.98769099 -64.81341477 129.19861137 -65.6171875 130.41015625 C-65.99431885 130.96978058 -66.3714502 131.52940491 -66.76000977 132.10598755 C-69.0395673 135.58625828 -70.53078379 138.90749726 -71.6796875 142.90234375 C-70.8606897 143.21703613 -70.8606897 143.21703613 -70.02514648 143.53808594 C-54.12808303 149.70329853 -38.84317167 156.84454785 -24.08447266 165.40820312 C-23.27671387 165.87548828 -22.46895508 166.34277344 -21.63671875 166.82421875 C-20.92104736 167.24799805 -20.20537598 167.67177734 -19.46801758 168.10839844 C-18.58279419 168.50140137 -18.58279419 168.50140137 -17.6796875 168.90234375 C-17.0196875 168.57234375 -16.3596875 168.24234375 -15.6796875 167.90234375 C-23.3310552 154.44031641 -30.98767346 140.98261931 -38.8671875 127.65234375 C-39.38240967 126.78013184 -39.89763184 125.90791992 -40.4284668 125.00927734 C-41.8369862 122.63505532 -43.25721132 120.26822119 -44.6796875 117.90234375 C-45.14197754 117.11666016 -45.60426758 116.33097656 -46.08056641 115.52148438 C-46.52190918 114.78607422 -46.96325195 114.05066406 -47.41796875 113.29296875 C-47.80637939 112.63844727 -48.19479004 111.98392578 -48.5949707 111.30957031 C-48.95292725 110.84518555 -49.31088379 110.38080078 -49.6796875 109.90234375 C-50.3396875 109.90234375 -50.9996875 109.90234375 -51.6796875 109.90234375 Z M55.3203125 111.90234375 C54.20602375 113.58927463 53.14412387 115.31079064 52.1015625 117.04296875 C51.08533813 118.72471191 51.08533813 118.72471191 50.04858398 120.44042969 C49.30578399 121.67770866 48.56302787 122.91501398 47.8203125 124.15234375 C47.06296135 125.40810684 46.30522557 126.66363804 45.54711914 127.91894531 C43.95587363 130.55444764 42.36633938 133.19097147 40.77783203 135.828125 C37.16554427 141.82132464 33.52987357 147.80032502 29.89550781 153.78015137 C28.07654269 156.77344193 26.25903784 159.76761823 24.44140625 162.76171875 C23.40104167 164.47526042 22.36067708 166.18880208 21.3203125 167.90234375 C21.9803125 168.23234375 22.6403125 168.56234375 23.3203125 168.90234375 C25.60645772 167.85427181 27.75346689 166.74913272 29.9453125 165.52734375 C30.61191895 165.16519775 31.27852539 164.80305176 31.96533203 164.42993164 C35.4300782 162.53804582 38.86263762 160.59673667 42.2734375 158.609375 C52.54194928 152.65064473 63.03391435 147.66447647 74.3203125 143.90234375 C73.66110352 140.60677107 72.43806508 138.07485677 70.7734375 135.1640625 C70.2578125 134.26107422 69.7421875 133.35808594 69.2109375 132.42773438 C68.66953125 131.49123047 68.128125 130.55472656 67.5703125 129.58984375 C67.044375 128.66494141 66.5184375 127.74003906 65.9765625 126.78710938 C63.00584536 121.6140908 59.95280379 116.6389556 56.3203125 111.90234375 C55.9903125 111.90234375 55.6603125 111.90234375 55.3203125 111.90234375 Z " fill="#000407" transform="translate(487.6796875,365.09765625)"/>
<path d="M0 0 C2.91623397 1.33652377 5.16876762 2.84393592 7.56640625 4.96875 C8.21673828 5.53980469 8.86707031 6.11085937 9.53710938 6.69921875 C10.20548828 7.29347656 10.87386719 7.88773438 11.5625 8.5 C12.89578705 9.67861041 14.23037324 10.85575323 15.56640625 12.03125 C16.44727905 12.81338867 16.44727905 12.81338867 17.34594727 13.61132812 C19.16073534 15.1867266 19.16073534 15.1867266 22 17 C21.41948487 20.34694885 20.60075059 23.22497118 19.18994141 26.31201172 C18.81930573 27.1299118 18.44867004 27.94781189 18.06680298 28.79049683 C17.66577362 29.66142975 17.26474426 30.53236267 16.8515625 31.4296875 C16.43836761 32.33824493 16.02517273 33.24680237 15.59945679 34.18289185 C14.27956406 37.08253691 12.95250919 39.9788351 11.625 42.875 C10.30619132 45.7647142 8.98885228 48.65509385 7.67196655 51.54568481 C6.85313324 53.34165909 6.03291268 55.13700174 5.21109009 56.93161011 C3.07777841 61.5962381 0.99821699 66.27585478 -1 71 C7.83466847 65.53385736 16.6077261 59.98353092 25.3125 54.3125 C26.16368408 53.76037842 27.01486816 53.20825684 27.8918457 52.6394043 C31.4643093 50.31958207 35.02857461 47.9948475 38.5390625 45.58203125 C39.97378906 44.61330078 39.97378906 44.61330078 41.4375 43.625 C42.21996094 43.08101562 43.00242187 42.53703125 43.80859375 41.9765625 C46 41 46 41 48.4140625 41.0078125 C51.93899931 42.3602807 54.2879899 44.65137678 56.9375 47.25 C57.94531465 48.21490125 58.95442772 49.17844818 59.96484375 50.140625 C60.45839355 50.61306641 60.95194336 51.08550781 61.46044922 51.57226562 C63.88741806 53.82296556 66.43675399 55.90661876 69 58 C65.11470716 63.45464641 60.8684491 68.42731486 56.3515625 73.3671875 C54.00298292 75.99666032 51.77521304 78.69311033 49.5625 81.4375 C46.48663412 85.24087503 43.31246834 88.90082652 40 92.5 C35.85818487 97.00141458 31.9593002 101.64804638 28.1171875 106.40625 C25.16876275 110.01834231 22.10168208 113.51933426 19 117 C14.86186295 116.46823005 12.72917682 114.22067834 9.75 111.4375 C8.85796875 110.61121094 7.9659375 109.78492188 7.046875 108.93359375 C6.37140625 108.29550781 5.6959375 107.65742188 5 107 C6.50006391 103.55220914 8.50409262 101.17639467 11.0625 98.4375 C14.31107492 94.89831774 17.42468216 91.30439832 20.4375 87.5625 C24.29020913 82.79376212 28.34995241 78.2719413 32.54296875 73.80078125 C35.57247871 70.34742888 38.28954882 66.70596176 41 63 C39.3603125 64.03833984 39.3603125 64.03833984 37.6875 65.09765625 C28.22196025 71.08682182 18.74300081 77.05445293 9.25 83 C8.239375 83.63429932 7.22875 84.26859863 6.1875 84.92211914 C4.29769243 86.10435421 2.40404577 87.28048403 0.50585938 88.44921875 C-1.04739406 89.41046834 -2.59020249 90.38910857 -4.11523438 91.39453125 C-8.41596739 94.12762194 -8.41596739 94.12762194 -11.109375 93.5390625 C-13.55751005 91.54615917 -15.92727767 89.51434951 -18.25 87.375 C-19.14203125 86.55773437 -20.0340625 85.74046875 -20.953125 84.8984375 C-21.62859375 84.27195312 -22.3040625 83.64546875 -23 83 C-16.20132741 65.43324351 -8.61376542 48.22405786 -1 31 C-1.33 30.67 -1.66 30.34 -2 30 C-2.71542969 30.83660156 -3.43085937 31.67320312 -4.16796875 32.53515625 C-5.17437151 33.71102965 -6.18089165 34.88680259 -7.1875 36.0625 C-7.72415283 36.68938721 -8.26080566 37.31627441 -8.8137207 37.9621582 C-12.20620401 41.9204647 -15.6161282 45.86287027 -19.03955078 49.79443359 C-24.81851012 56.43295963 -30.48190418 63.14159151 -36 70 C-40.13813705 69.46823005 -42.27082318 67.22067834 -45.25 64.4375 C-46.14203125 63.61121094 -47.0340625 62.78492188 -47.953125 61.93359375 C-48.96632813 60.97646484 -48.96632813 60.97646484 -50 60 C-48.73735096 57.2846613 -47.39649574 55.0995414 -45.41796875 52.85546875 C-44.90484131 52.26886475 -44.39171387 51.68226074 -43.86303711 51.07788086 C-43.31010986 50.45405518 -42.75718262 49.83022949 -42.1875 49.1875 C-41.00511024 47.83862765 -39.82282138 46.48966684 -38.640625 45.140625 C-38.03541016 44.45291016 -37.43019531 43.76519531 -36.80664062 43.05664062 C-34.00164253 39.86349144 -31.21934261 36.65081896 -28.4375 33.4375 C-27.9017334 32.8192334 -27.3659668 32.2009668 -26.81396484 31.56396484 C-17.77328143 21.12695265 -8.80540924 10.63662266 0 0 Z " fill="#000000" transform="translate(702,174)"/>
<path d="M0 0 C9.24 0 18.48 0 28 0 C32.95 18.15 37.9 36.3 43 55 C46.07212517 47.45435992 46.07212517 47.45435992 48.73925781 39.82568359 C49.01924622 38.94552582 49.29923462 38.06536804 49.58770752 37.15853882 C49.87329529 36.24770538 50.15888306 35.33687195 50.453125 34.3984375 C50.75820984 33.435961 51.06329468 32.4734845 51.37762451 31.48184204 C52.3386188 28.44733273 53.29439714 25.4112109 54.25 22.375 C54.90590382 20.30067176 55.56215071 18.22645196 56.21875 16.15234375 C57.81646373 11.10280798 59.40991381 6.05194252 61 1 C64.91665108 0.97095136 68.8332744 0.95318483 72.75 0.9375 C73.86117187 0.92912109 74.97234375 0.92074219 76.1171875 0.91210938 C77.18710937 0.90888672 78.25703125 0.90566406 79.359375 0.90234375 C80.34389648 0.89710693 81.32841797 0.89187012 82.34277344 0.88647461 C84.72869514 0.98840897 86.72164581 1.31696643 89 2 C89.15078799 18.1946302 88.92203133 34.37230665 88.5625 50.5625 C88.5330278 51.97844955 88.5330278 51.97844955 88.50296021 53.42300415 C88.44519199 56.15842579 88.38169214 58.89365478 88.31640625 61.62890625 C88.29968872 62.44063293 88.28297119 63.25235962 88.26574707 64.08868408 C88.12836341 69.44290019 87.65227806 74.68328715 87 80 C85.10424749 80.02721176 83.20838021 80.04649136 81.3125 80.0625 C79.72888672 80.07990234 79.72888672 80.07990234 78.11328125 80.09765625 C75 80 75 80 70 79 C70.33 60.19 70.66 41.38 71 22 C69.64003906 26.03089844 68.28007813 30.06179687 66.87890625 34.21484375 C65.79536384 37.42095894 64.71122716 40.62687179 63.6266861 43.83264923 C62.48061581 47.22083961 61.3356049 50.60937968 60.19311523 53.9987793 C58.88330484 57.88440758 57.56874372 61.76841364 56.25390625 65.65234375 C55.84346573 66.87211411 55.43302521 68.09188446 55.01014709 69.34861755 C54.62982834 70.46970413 54.24950958 71.59079071 53.85766602 72.74584961 C53.52235367 73.73846298 53.18704132 74.73107635 52.84156799 75.75376892 C52 78 52 78 51 79 C48.13732433 79.07325168 45.299281 79.09238205 42.4375 79.0625 C41.63119141 79.05798828 40.82488281 79.05347656 39.99414062 79.04882812 C37.99606244 79.03700518 35.99802217 79.01906914 34 79 C27.81436732 60.15600509 22.483104 41.05712977 17 22 C16.34 40.48 15.68 58.96 15 78 C9.39 78 3.78 78 -2 78 C-2.12913737 61.05430794 -1.93801033 44.12867632 -1.5625 27.1875 C-1.54285187 26.23853851 -1.52320374 25.28957703 -1.50296021 24.31185913 C-1.4454382 21.5762664 -1.38189401 18.84088114 -1.31640625 16.10546875 C-1.29968872 15.28977417 -1.28297119 14.47407959 -1.26574707 13.63366699 C-1.23583679 12.4773175 -1.23583679 12.4773175 -1.20532227 11.29760742 C-1.18200584 10.30176888 -1.18200584 10.30176888 -1.15821838 9.28581238 C-0.94282647 6.17400265 -0.44112931 3.08790518 0 0 Z " fill="#000000" transform="translate(464,114)"/>
<path d="M0 0 C4.28176909 3.95598231 7.34444526 8.24159244 10.5 13.125 C11.56273393 14.74419115 12.62657262 16.36265765 13.69140625 17.98046875 C14.23684082 18.8111084 14.78227539 19.64174805 15.34423828 20.49755859 C17.99773247 24.50792654 20.71552131 28.47342535 23.4375 32.4375 C23.96899658 33.21311279 24.50049316 33.98872559 25.0480957 34.7878418 C27.90615378 38.95654145 30.77174178 43.11999446 33.640625 47.28125 C34.23431885 48.14435791 34.8280127 49.00746582 35.43969727 49.89672852 C36.57861872 51.55237254 37.71963061 53.20658108 38.86303711 54.85913086 C39.37616455 55.60557861 39.88929199 56.35202637 40.41796875 57.12109375 C41.09508911 58.10227173 41.09508911 58.10227173 41.78588867 59.10327148 C43.00856314 61.01337765 44.02397316 62.95446369 45 65 C43.25579087 66.32018588 41.50439909 67.63088602 39.75 68.9375 C38.77546875 69.66839844 37.8009375 70.39929688 36.796875 71.15234375 C34.30027968 72.80163088 32.83497031 73.40274502 30 74 C29.28714844 72.96101563 28.57429688 71.92203125 27.83984375 70.8515625 C22.59378286 63.21026185 17.33735523 55.57795145 12 48 C8.09226876 49.38208807 5.11956009 51.20109884 1.8125 53.6875 C0.86117187 54.39261719 -0.09015625 55.09773438 -1.0703125 55.82421875 C-2.03710938 56.54222656 -3.00390625 57.26023438 -4 58 C-5.8479654 59.34191493 -7.70173514 60.67589051 -9.5625 62 C-10.36816406 62.5775 -11.17382812 63.155 -12.00390625 63.75 C-14 65 -14 65 -16 65 C-12.8066236 70.14427871 -9.56088482 75.22909564 -6.0859375 80.1875 C-5.58682861 80.90099609 -5.08771973 81.61449219 -4.57348633 82.34960938 C-3.57414874 83.77183678 -2.56885616 85.18990029 -1.55737305 86.60351562 C-1.0962915 87.26029297 -0.63520996 87.91707031 -0.16015625 88.59375 C0.25613037 89.17833984 0.67241699 89.76292969 1.10131836 90.36523438 C2 92 2 92 2 95 C-0.625 97.04296875 -0.625 97.04296875 -4 99.1875 C-4.85851562 99.73954102 -4.85851562 99.73954102 -5.734375 100.30273438 C-7.15024462 101.21125071 -8.57437797 102.10686477 -10 103 C-13.83836764 101.51016968 -15.33029365 99.46302313 -17.5390625 96.046875 C-18.19656494 95.04253418 -18.85406738 94.03819336 -19.53149414 93.00341797 C-20.22235107 91.92979004 -20.91320801 90.85616211 -21.625 89.75 C-23.07249826 87.53793572 -24.52170798 85.32699037 -25.97265625 83.1171875 C-26.6702002 82.05209961 -27.36774414 80.98701172 -28.08642578 79.88964844 C-30.33744273 76.49043478 -32.66965652 73.17575205 -35.0625 69.875 C-39.48210976 63.73918439 -43.86247309 57.57796614 -48.1875 51.375 C-48.87271729 50.41319824 -49.55793457 49.45139648 -50.26391602 48.46044922 C-50.89225342 47.55311035 -51.52059082 46.64577148 -52.16796875 45.7109375 C-52.73797607 44.89931152 -53.3079834 44.08768555 -53.89526367 43.25146484 C-55 41 -55 41 -54.82910156 38.83935547 C-53.49696104 35.88401192 -51.17775506 34.58645999 -48.5625 32.75 C-47.57378906 32.04359375 -46.58507812 31.3371875 -45.56640625 30.609375 C-43 29 -43 29 -41 29 C-39.30419922 31.203125 -39.30419922 31.203125 -37.3046875 34.25 C-36.58925781 35.3328125 -35.87382812 36.415625 -35.13671875 37.53125 C-34.38266335 38.68740274 -33.62875907 39.84365405 -32.875 41 C-32.11391537 42.1566675 -31.35220455 43.31292323 -30.58984375 44.46875 C-28.72034394 47.30849654 -26.85741598 50.15234084 -25 53 C-19.72485274 50.08315387 -14.7587643 46.8789853 -9.8125 43.4375 C-9.11447266 42.95603516 -8.41644531 42.47457031 -7.69726562 41.97851562 C-4.41859495 39.71058643 -1.16345671 37.4277691 2 35 C0.69821271 31.42864159 -0.85580566 28.54204842 -3.07421875 25.4609375 C-3.65880859 24.63335937 -4.24339844 23.80578125 -4.84570312 22.953125 C-6.08122623 21.22365469 -7.32086633 19.49711868 -8.56445312 17.7734375 C-9.14517578 16.9484375 -9.72589844 16.1234375 -10.32421875 15.2734375 C-10.86135498 14.52497559 -11.39849121 13.77651367 -11.9519043 13.00537109 C-12.47071167 12.0127124 -12.47071167 12.0127124 -13 11 C-11.6390377 6.91711311 -9.52046678 6.11314183 -5.9375 3.8125 C-4.83277344 3.09707031 -3.72804688 2.38164062 -2.58984375 1.64453125 C-1.73519531 1.10183594 -0.88054687 0.55914062 0 0 Z " fill="#000000" transform="translate(312,159)"/>
<path d="M0 0 C6.24158816 3.69293966 6.24158816 3.69293966 8.3125 6.75 C7.95308945 10.67784382 5.70088426 13.04337772 3.25 16 C2.51652344 16.89203125 1.78304687 17.7840625 1.02734375 18.703125 C0.46144531 19.37859375 -0.10445312 20.0540625 -0.6875 20.75 C-3.62545991 20.14734156 -4.91590249 19.5838891 -7.4375 17.75 C-11.3034797 15.37093557 -14.15797215 14.4264623 -18.6875 14.75 C-23.83459992 16.04644998 -27.01555423 18.70004526 -30.125 22.9375 C-33.47026174 28.55570671 -34.57550038 33.18818634 -32.98046875 39.5859375 C-29.81643085 48.98981111 -25.21280254 53.84759162 -16.6875 58.75 C-10.66426769 61.38744566 -5.21041836 62.512634 1.26171875 60.58984375 C7.24561045 58.13929762 11.21297521 54.82110349 13.875 48.875 C15.53452021 43.98455549 15.56255219 40.75020876 14.3125 35.75 C13.755625 34.698125 13.19875 33.64625 12.625 32.5625 C11.3125 29.75 11.3125 29.75 11.97265625 27.375 C13.46749824 24.44632999 15.20706313 22.34781082 17.4375 19.9375 C18.16195312 19.14730469 18.88640625 18.35710937 19.6328125 17.54296875 C20.18710937 16.95128906 20.74140625 16.35960937 21.3125 15.75 C26.19640235 17.80747376 27.99864192 21.13863619 30.3125 25.75 C33.89654568 34.93986073 33.02878674 44.76664522 29.3125 53.75 C23.7353956 65.02251102 15.58509555 73.42672713 3.5625 77.5625 C-7.92355384 80.61375705 -19.35162201 78.91723959 -29.671875 73.0546875 C-39.15797673 66.58212637 -46.79961794 58.05540193 -49.6875 46.75 C-51.95132443 34.28324463 -49.89414657 23.74092619 -42.6953125 13.2890625 C-32.41030386 0.28272862 -16.16490807 -7.67713923 0 0 Z " fill="#000000" transform="translate(241.6875,238.25)"/>
<path d="M0 0 C17.36868562 -0.14749994 34.72644928 0.04530744 52.09210205 0.37332153 C54.36254109 0.41607906 56.63300919 0.4573205 58.90350342 0.49703979 C62.13370041 0.55437551 65.36371115 0.6180092 68.59375 0.68359375 C69.56974152 0.70031128 70.54573303 0.71702881 71.55130005 0.73425293 C72.45927338 0.75419312 73.3672467 0.7741333 74.30273438 0.79467773 C75.09240601 0.81022202 75.88207764 0.8257663 76.69567871 0.84178162 C79.19623722 1.01347396 81.55469304 1.46008772 84 2 C79.634677 16.87633601 79.634677 16.87633601 75.73828125 19.5546875 C73.375 20.1875 73.375 20.1875 71.1484375 20.41796875 C67.26737547 21.46938374 65.75738087 24.7021005 63.81396484 28.0324707 C62.0733643 31.1656196 60.38964204 34.32749342 58.7109375 37.49414062 C56.52013265 41.54309745 54.55533904 44.9631479 51 48 C52.71760201 52.06295704 55.10287712 53.76354107 58.63671875 56.2421875 C60 58 60 58 59.8671875 60.796875 C58.96233528 64.13912195 57.81393269 67.19861688 56.4375 70.375 C55.98246094 71.43460937 55.52742188 72.49421875 55.05859375 73.5859375 C54.70925781 74.38257813 54.35992187 75.17921875 54 76 C48.19363646 72.55884844 43.811964 68.00357069 39.125 63.1875 C34.18757413 58.13767068 29.22695952 53.24252535 23.86669922 48.6418457 C20.93722619 46.06524276 18.22517732 43.28915059 15.5 40.5 C11.41785649 36.36614659 7.28781562 32.39416443 2.85546875 28.6328125 C-0.59642396 25.59514691 -3.78867957 22.28818715 -7 19 C-6.59173486 17.51849242 -6.17276672 16.03993475 -5.75 14.5625 C-5.40195313 13.32693359 -5.40195313 13.32693359 -5.046875 12.06640625 C-3.63155547 7.92078747 -1.82538729 3.97892794 0 0 Z M15 16 C19.54311949 21.50222249 24.41978254 26.43712704 29.625 31.3125 C30.37523437 32.02728516 31.12546875 32.74207031 31.8984375 33.47851562 C32.62546875 34.16236328 33.3525 34.84621094 34.1015625 35.55078125 C34.75463379 36.16606689 35.40770508 36.78135254 36.08056641 37.4152832 C37.9726192 38.97739395 39.76695239 40.0026714 42 41 C46.67670592 36.8541634 49.37780679 32.22809399 52.3125 26.75 C52.76689453 25.92242187 53.22128906 25.09484375 53.68945312 24.2421875 C55.91902005 20.80009771 55.91902005 20.80009771 57 17 C43.01935971 15.68858316 29.02824319 15.90063901 15 16 Z " fill="#000000" transform="translate(155,333)"/>
<path d="M0 0 C1.52319336 1.31347656 1.52319336 1.31347656 2.58984375 3.140625 C2.98107422 3.79933594 3.37230469 4.45804687 3.77539062 5.13671875 C4.35063477 6.18279297 4.35063477 6.18279297 4.9375 7.25 C5.55334961 8.27287109 5.55334961 8.27287109 6.18164062 9.31640625 C9.08147307 14.35321472 9.08147307 14.35321472 8.74536133 17.02148438 C7.96458003 19.09402012 7.06959681 20.56546621 5.734375 22.328125 C5.26322266 22.95460938 4.79207031 23.58109375 4.30664062 24.2265625 C3.79294922 24.89429688 3.27925781 25.56203125 2.75 26.25 C2.21568359 26.95382812 1.68136719 27.65765625 1.13085938 28.3828125 C-3.17509587 34.01714742 -7.63746258 39.51678432 -12.1394043 44.99487305 C-15.90534509 49.59606796 -19.51976732 54.2877649 -23.0625 59.0625 C-27.17823063 64.59948026 -31.34842794 70.08593863 -35.625 75.5 C-36.13426025 76.15363525 -36.64352051 76.80727051 -37.16821289 77.48071289 C-38.39829338 79.02590854 -39.69342085 80.51892656 -41 82 C-41.66 82 -42.32 82 -43 82 C-44.39820138 79.78268064 -45.76763358 77.55461846 -47.125 75.3125 C-47.52332031 74.68666016 -47.92164063 74.06082031 -48.33203125 73.41601562 C-49.4453125 71.55078125 -49.4453125 71.55078125 -51 68 C-50.26953125 65.234375 -50.26953125 65.234375 -49 63 C-47.98794998 55.91564989 -51.15463819 50.29824682 -54 44 C-54.94853254 41.87990159 -55.88641354 39.75499885 -56.8125 37.625 C-57.23144531 36.68914062 -57.65039062 35.75328125 -58.08203125 34.7890625 C-59.09482879 31.71188188 -59.16615265 29.21861427 -59 26 C-59.89203125 26.23976563 -60.7840625 26.47953125 -61.703125 26.7265625 C-62.87359375 27.02304687 -64.0440625 27.31953125 -65.25 27.625 C-66.41015625 27.92664063 -67.5703125 28.22828125 -68.765625 28.5390625 C-72 29 -72 29 -74.1875 28.4609375 C-76.79946192 26.35560613 -78.11125867 23.91331793 -79.75 21 C-80.36359375 19.9275 -80.9771875 18.855 -81.609375 17.75 C-83 15 -83 15 -83 13 C-72.24596082 11.14304654 -61.4896187 9.2998004 -50.73162842 7.46588135 C-48.88184345 7.15039909 -47.03211359 6.8345936 -45.18243408 6.51849365 C-39.45080358 5.53902931 -33.71830198 4.56494979 -27.98455811 3.59793091 C-26.12574449 3.28363983 -24.2672205 2.96763085 -22.40899658 2.64987183 C-19.78775236 2.2020144 -17.16552114 1.76043567 -14.54296875 1.3203125 C-13.76623306 1.18622482 -12.98949738 1.05213715 -12.18922424 0.91398621 C-4.07858331 -0.4327148 -4.07858331 -0.4327148 0 0 Z M-23.390625 19.3125 C-24.09523865 19.44567627 -24.79985229 19.57885254 -25.52581787 19.71606445 C-27.76787462 20.14063564 -30.00893161 20.57024557 -32.25 21 C-33.77337422 21.28939578 -35.29681109 21.57846205 -36.8203125 21.8671875 C-40.54761163 22.57430868 -44.27402245 23.28594926 -48 24 C-48.25607998 30.39770605 -48.25607998 30.39770605 -46.3203125 36.39453125 C-45.96839844 37.12220703 -45.61648438 37.84988281 -45.25390625 38.59960938 C-44.88136719 39.32986328 -44.50882813 40.06011719 -44.125 40.8125 C-43.76019531 41.56208984 -43.39539063 42.31167969 -43.01953125 43.08398438 C-41.48387908 46.20833851 -39.93586244 49.09620635 -38 52 C-31.56129279 44.11795779 -25.13388434 36.22665253 -18.8125 28.25 C-18.35576904 27.67878418 -17.89903809 27.10756836 -17.4284668 26.51904297 C-15.28206396 23.79675605 -13.38531846 21.18855423 -12 18 C-15.95276005 18 -19.53541196 18.56767929 -23.390625 19.3125 Z " fill="#000000" transform="translate(810,289)"/>
<path d="M0 0 C3.46931153 0.93826528 6.66065174 2.04059565 9.95703125 3.46875 C11.51550781 4.13390625 11.51550781 4.13390625 13.10546875 4.8125 C15.58203125 5.96875 15.58203125 5.96875 16.58203125 6.96875 C16.68396201 8.64983832 16.71287016 10.3353567 16.71484375 12.01953125 C16.71677734 13.14931396 16.71871094 14.27909668 16.72070312 15.44311523 C16.71619141 16.70969971 16.71167969 17.97628418 16.70703125 19.28125 C16.70509766 20.59875244 16.70316406 21.91625488 16.70117188 23.27368164 C16.63061715 45.50747631 16.05999721 67.74083551 15.58203125 89.96875 C14.00052744 89.50654861 12.41998443 89.04105901 10.83984375 88.57421875 C9.9595752 88.31535889 9.07930664 88.05649902 8.17236328 87.78979492 C4.85103894 86.73705093 1.74966936 85.41484566 -1.41796875 83.96875 C-1.41796875 79.01875 -1.41796875 74.06875 -1.41796875 68.96875 C-2.55492187 69.0203125 -3.691875 69.071875 -4.86328125 69.125 C-9.66012219 69.125 -13.75273812 67.90511918 -18.29296875 66.46875 C-27.69841544 63.61198895 -27.69841544 63.61198895 -37.41796875 63.96875 C-38.26359375 64.525625 -39.10921875 65.0825 -39.98046875 65.65625 C-42.41796875 66.96875 -42.41796875 66.96875 -44.46875 66.60546875 C-46.84047996 65.8281791 -49.12050058 64.94331486 -51.41796875 63.96875 C-52.12308594 63.67871094 -52.82820312 63.38867188 -53.5546875 63.08984375 C-55.18534779 62.40516489 -56.80324938 61.69022036 -58.41796875 60.96875 C-57.13376766 58.16875194 -55.77252956 56.05350082 -53.65234375 53.82421875 C-52.82283203 52.94443359 -52.82283203 52.94443359 -51.9765625 52.046875 C-51.37972656 51.42296875 -50.78289063 50.7990625 -50.16796875 50.15625 C-48.89180461 48.80610533 -47.61576641 47.45584162 -46.33984375 46.10546875 C-45.68693359 45.41759277 -45.03402344 44.7297168 -44.36132812 44.02099609 C-41.36212499 40.85374716 -38.39063569 37.66088123 -35.41796875 34.46875 C-34.25537714 33.22249876 -33.09261604 31.9764056 -31.9296875 30.73046875 C-31.3526709 30.11220215 -30.7756543 29.49393555 -30.18115234 28.85693359 C-28.39253252 26.94151048 -26.60265871 25.02726612 -24.8125 23.11328125 C-24.21896729 22.47777344 -23.62543457 21.84226563 -23.01391602 21.1875 C-21.8360446 19.92852396 -20.65558799 18.67196101 -19.47241211 17.41796875 C-16.67984686 14.44807896 -13.95468753 11.45239053 -11.33984375 8.32421875 C-10.85539795 7.75727295 -10.37095215 7.19032715 -9.87182617 6.60620117 C-8.57003688 5.07416032 -7.29189287 3.52211565 -6.015625 1.96875 C-3.41796875 -0.03125 -3.41796875 -0.03125 0 0 Z M-1.79736328 21.31054688 C-2.37599121 21.92994141 -2.95461914 22.54933594 -3.55078125 23.1875 C-4.51371094 24.21617187 -4.51371094 24.21617187 -5.49609375 25.265625 C-6.50929688 26.35617188 -6.50929688 26.35617188 -7.54296875 27.46875 C-8.19523438 28.16484375 -8.8475 28.8609375 -9.51953125 29.578125 C-13.36648018 33.699856 -17.13268457 37.88087055 -20.82788086 42.13916016 C-22.98254789 44.61836709 -25.16689798 47.07068099 -27.3515625 49.5234375 C-28.61587482 50.93761621 -28.61587482 50.93761621 -28.41796875 52.96875 C-27.36996094 53.24589844 -26.32195313 53.52304688 -25.2421875 53.80859375 C-23.86326808 54.17442952 -22.48436255 54.54031767 -21.10546875 54.90625 C-20.41517578 55.08865234 -19.72488281 55.27105469 -19.01367188 55.45898438 C-16.11909031 56.2280761 -13.26012146 57.02136576 -10.41796875 57.96875 C-8.87847546 58.06057942 -7.3351902 58.09877352 -5.79296875 58.09375 C-4.99632812 58.09632813 -4.1996875 58.09890625 -3.37890625 58.1015625 C-1.41443339 58.18445074 -1.41443339 58.18445074 -0.41796875 56.96875 C-0.25786394 54.23173822 -0.15850047 51.5170741 -0.1015625 48.77734375 C-0.0807814 47.95750504 -0.06000031 47.13766632 -0.03858948 46.29298401 C0.02699619 43.66416099 0.08583251 41.03523496 0.14453125 38.40625 C0.18770792 36.62824439 0.23132192 34.85024935 0.27539062 33.07226562 C0.38268668 28.70453366 0.48392829 24.33669773 0.58203125 19.96875 C-0.61922681 19.85253827 -0.61922681 19.85253827 -1.79736328 21.31054688 Z " fill="#000000" transform="translate(622.41796875,138.03125)"/>
<path d="M0 0 C2.18359375 2.30859375 2.18359375 2.30859375 4.4375 5.4375 C5.31391222 6.62978334 6.19158834 7.82113831 7.0703125 9.01171875 C7.53985352 9.65544434 8.00939453 10.29916992 8.49316406 10.96240234 C11.19377351 14.6142634 14.01177618 18.17474741 16.8125 21.75 C27.69530405 35.71811225 38.40333435 49.8138332 49 64 C46.2956439 66.7043561 43.26996032 67.3572944 39.6875 68.375 C38.69073242 68.69791016 38.69073242 68.69791016 37.67382812 69.02734375 C35.69921875 69.5859375 35.69921875 69.5859375 32 70 C29.51953125 68.1640625 29.51953125 68.1640625 27 66 C21.2563819 64.73992052 17.02972886 65.13183836 11.25 66.4375 C4.38058067 67.89692819 -1.94822234 68.26444166 -9 68 C-9.66 72.95 -10.32 77.9 -11 83 C-23.5 87 -23.5 87 -28 87 C-27.36855379 72.00197445 -26.15148673 57.06858451 -24.84326172 42.1159668 C-24.61240012 39.47386586 -24.38304852 36.83169729 -24.15673828 34.18920898 C-23.82591001 30.3277263 -23.49169907 26.4665525 -23.15625 22.60546875 C-23.05517944 21.4273613 -22.95410889 20.24925385 -22.84997559 19.03544617 C-22.75317505 17.93602188 -22.65637451 16.8365976 -22.55664062 15.70385742 C-22.47305298 14.74412521 -22.38946533 13.78439301 -22.30334473 12.795578 C-21.98251365 9.83884852 -21.51537284 6.92855446 -21 4 C-18.44165429 3.13118459 -15.87957539 2.2797867 -13.3125 1.4375 C-12.59126953 1.19064453 -11.87003906 0.94378906 -11.12695312 0.68945312 C-3.82102486 -1.67913549 -3.82102486 -1.67913549 0 0 Z M-6 19 C-6.9554118 23.16111584 -7.2806664 27.22981772 -7.53515625 31.48828125 C-7.59962196 32.5430793 -7.59962196 32.5430793 -7.66539001 33.6191864 C-7.80099549 35.85010968 -7.93181824 38.08128343 -8.0625 40.3125 C-8.15398045 41.8313993 -8.245774 43.35027978 -8.33789062 44.86914062 C-8.56221813 48.57921612 -8.78225917 52.28953144 -9 56 C-4.46342653 57.49827278 -1.20174327 58.26543947 3.49609375 57.3203125 C4.95112305 57.03994141 4.95112305 57.03994141 6.43554688 56.75390625 C7.42619141 56.54636719 8.41683594 56.33882812 9.4375 56.125 C10.96407227 55.82529297 10.96407227 55.82529297 12.52148438 55.51953125 C15.01756534 55.02734627 17.509708 54.52054972 20 54 C16.92689438 48.24269295 13.2516868 43.28191466 9.1875 38.1875 C4.6384572 32.425654 0.21729839 26.66013915 -3.86328125 20.5546875 C-4.42595703 19.78511719 -4.42595703 19.78511719 -5 19 C-5.33 19 -5.66 19 -6 19 Z " fill="#000000" transform="translate(398,129)"/>
<path d="M0 0 C5.98977511 3.95551186 9.04447322 8.83366584 10.62890625 15.7421875 C11.06915316 19.60709191 10.90607624 23.32324474 10.625 27.1875 C10.57609619 27.93056396 10.52719238 28.67362793 10.47680664 29.43920898 C10.08031083 35.30163744 9.58132022 41.15305737 9 47 C10.27746094 46.979375 11.55492187 46.95875 12.87109375 46.9375 C17.98506646 46.9375 22.98644221 47.41717878 28.0625 48 C29.3609082 48.14308594 29.3609082 48.14308594 30.68554688 48.2890625 C32.79084969 48.52169264 34.89549956 48.76021969 37 49 C36.85848172 51.0836309 36.71162064 53.16689938 36.5625 55.25 C36.44068359 56.99023438 36.44068359 56.99023438 36.31640625 58.765625 C36.0659662 61.32567884 35.6585193 63.53465371 35 66 C21.11727102 65.42346852 7.35362931 63.95385741 -6.45141602 62.41601562 C-10.21776179 61.99663033 -13.98477969 61.58375328 -17.75195312 61.171875 C-20.16149954 60.90662402 -22.57100626 60.64101223 -24.98046875 60.375 C-26.09922897 60.25205566 -27.2179892 60.12911133 -28.37065125 60.00244141 C-33.27279432 59.45485569 -38.14594265 58.89376629 -43 58 C-38.76908913 9.85921777 -38.76908913 9.85921777 -31 2 C-22.02670672 -4.7823618 -9.92991461 -4.89586247 0 0 Z M-22 17 C-25.02389793 21.09738169 -25.68956556 25.04806481 -26.1875 30 C-26.26935547 30.69867188 -26.35121094 31.39734375 -26.43554688 32.1171875 C-26.84502032 35.76459804 -27.03364084 39.33354472 -27 43 C-23.52168452 43.362889 -20.04226909 43.71384828 -16.5625 44.0625 C-15.56927734 44.16626953 -14.57605469 44.27003906 -13.55273438 44.37695312 C-12.60849609 44.47041016 -11.66425781 44.56386719 -10.69140625 44.66015625 C-9.81685791 44.74918213 -8.94230957 44.83820801 -8.04125977 44.92993164 C-7.36764404 44.9530542 -6.69402832 44.97617676 -6 45 C-3.59030887 42.59030887 -4.088469 37.06483995 -3.75 33.8125 C-3.63398438 32.86568359 -3.51796875 31.91886719 -3.3984375 30.94335938 C-2.83009408 25.44041258 -2.65860596 21.71859023 -6 17 C-11.397258 13.401828 -16.95275274 12.67378806 -22 17 Z " fill="#000000" transform="translate(162,402)"/>
<path d="M0 0 C7.57101498 4.83225767 11.65159249 9.55584116 14.0625 18.31640625 C14.51981903 20.65804907 14.80977374 22.94077942 15.0625 25.31640625 C15.3925 25.64640625 15.7225 25.97640625 16.0625 26.31640625 C19.5275 20.37640625 19.5275 20.37640625 23.0625 14.31640625 C24.7125 14.64640625 26.3625 14.97640625 28.0625 15.31640625 C29.0625 18.31640625 29.0625 18.31640625 27.47265625 21.546875 C26.69882806 22.87102234 25.91561755 24.18971443 25.125 25.50390625 C21.71280446 31.35067998 18.49779002 37.2460016 15.5 43.31640625 C14.98095093 44.36671021 14.98095093 44.36671021 14.45141602 45.43823242 C13.65177402 47.0626521 12.85659543 48.68926794 12.0625 50.31640625 C9.625 49.94140625 9.625 49.94140625 7.0625 49.31640625 C5.56908031 46.32956688 6.65601324 44.36479647 7.5 41.19140625 C7.78746094 40.09570312 8.07492187 39 8.37109375 37.87109375 C8.59925781 37.02804687 8.82742188 36.185 9.0625 35.31640625 C8.58683594 36.00476563 8.58683594 36.00476563 8.1015625 36.70703125 C3.96005019 42.15277672 -0.34757786 44.57896968 -6.9375 46.31640625 C-15.15046324 47.35932222 -23.30914306 44.68715226 -29.875 39.62890625 C-35.06268416 34.64074841 -37.13840489 28.87147584 -37.375 21.75390625 C-37.04661914 14.15877472 -34.87789695 8.43321348 -29.6484375 2.859375 C-21.4896622 -4.49842465 -9.63742617 -5.08445094 0 0 Z M-27.1875 10.69140625 C-30.34057239 15.42101484 -31.55802012 19.51059371 -30.59375 25.23046875 C-29.04619722 30.1494758 -26.1058407 33.91544566 -21.78515625 36.70703125 C-17.13894087 38.96262983 -13.13491651 40.07239411 -7.9375 39.31640625 C-1.78970688 37.14727924 1.86977611 34.13190414 5.14453125 28.43359375 C7.17405365 23.75273784 6.56893674 18.77944572 4.9375 14.06640625 C1.92270356 9.64470481 -1.93091812 6.34780213 -6.9375 4.31640625 C-15.6608218 3.27155155 -21.03062019 4.19247757 -27.1875 10.69140625 Z " fill="#000000" transform="translate(806.9375,580.68359375)"/>
<path d="M0 0 C2.69420979 1.9614288 4.47935188 4.03444485 6 7 C6.375 10.9375 6.375 10.9375 6 14 C6.88751953 13.94779297 6.88751953 13.94779297 7.79296875 13.89453125 C12.69743851 13.72651516 16.0960176 13.67013266 20 17 C23.34012348 20.80083016 23.37934812 24.46363536 23.49609375 29.3046875 C22.1623835 36.55082981 17.52776994 40.75884607 12.0625 45.1875 C11.45470703 45.69474609 10.84691406 46.20199219 10.22070312 46.72460938 C8.49103361 48.16320182 6.74635787 49.58176136 5 51 C3.60587891 52.16982422 3.60587891 52.16982422 2.18359375 53.36328125 C0 55 0 55 -2 55 C-3.41438406 53.42713316 -4.75604401 51.78860004 -6.0625 50.125 C-9.11025865 46.31164438 -12.20500341 42.60191191 -15.5 39 C-21.32230109 32.60568337 -26.85690166 25.95450404 -32 19 C-30.65827517 15.95807111 -29.23655705 14.04885448 -26.734375 11.87109375 C-26.09113281 11.31099609 -25.44789063 10.75089844 -24.78515625 10.17382812 C-23.77775391 9.3143457 -23.77775391 9.3143457 -22.75 8.4375 C-22.09386719 7.86064453 -21.43773437 7.28378906 -20.76171875 6.68945312 C-14.36412173 1.17581831 -8.58636673 -2.99987144 0 0 Z M-14.5625 10.25 C-15.51253906 11.03890625 -16.46257813 11.8278125 -17.44140625 12.640625 C-20.26458488 15.10087177 -20.26458488 15.10087177 -23 19 C-20.36 22.3 -17.72 25.6 -15 29 C-5.05590419 22.50848104 -5.05590419 22.50848104 0.75 12.8125 C-0.25130237 9.05761611 -1.69182596 7.95483011 -5 6 C-9.90726941 6 -10.88621654 7.14891735 -14.5625 10.25 Z M-2 26 C-2.75539063 26.64582031 -3.51078125 27.29164063 -4.2890625 27.95703125 C-6.20805928 29.62174401 -8.11074861 31.30168359 -10 33 C-8.48446596 36.47775179 -6.4226544 38.9557984 -3.875 41.75 C-3.15054688 42.54921875 -2.42609375 43.3484375 -1.6796875 44.171875 C-1.12539063 44.77515625 -0.57109375 45.3784375 0 46 C10.33676148 38.92008636 10.33676148 38.92008636 17.3125 28.875 C16.84795827 24.60121612 15.16054445 22.82431632 12 20 C5.99612029 18.39896541 2.30569817 22.31054487 -2 26 Z " fill="#000000" transform="translate(706,707)"/>
<path d="M0 0 C1.41040039 1.66479492 1.41040039 1.66479492 2.84765625 3.98046875 C3.37037109 4.81513672 3.89308594 5.64980469 4.43164062 6.50976562 C5.23891602 7.83524414 5.23891602 7.83524414 6.0625 9.1875 C6.60455078 10.05181641 7.14660156 10.91613281 7.70507812 11.80664062 C11.7417603 18.31822312 15.27878994 24.03095538 14 32 C11.90067538 36.04869747 10.23151922 38.33047333 6 40 C3.7109375 40.23046875 3.7109375 40.23046875 1.375 40.1875 C0.59898437 40.18105469 -0.17703125 40.17460938 -0.9765625 40.16796875 C-3 40 -3 40 -5 39 C-5.268125 39.6290625 -5.53625 40.258125 -5.8125 40.90625 C-8.77897202 47.38564941 -12.27234994 52.63878733 -18 57 C-20.24609375 57.71484375 -20.24609375 57.71484375 -22 58 C-23.485 55.525 -23.485 55.525 -25 53 C-24.31292969 52.41992188 -23.62585938 51.83984375 -22.91796875 51.2421875 C-21.56638672 50.07042969 -21.56638672 50.07042969 -20.1875 48.875 C-19.29417969 48.10929688 -18.40085938 47.34359375 -17.48046875 46.5546875 C-14.84070785 43.83594163 -13.39603603 41.51138553 -12 38 C-12.78218286 31.22108189 -16.98448942 26.33611968 -21 21 C-21.69561035 21.47010498 -21.69561035 21.47010498 -22.40527344 21.94970703 C-24.50947416 23.35829117 -26.62912603 24.74166179 -28.75 26.125 C-29.47960937 26.61871094 -30.20921875 27.11242187 -30.9609375 27.62109375 C-31.66992188 28.07871094 -32.37890625 28.53632812 -33.109375 29.0078125 C-33.75874023 29.43723145 -34.40810547 29.86665039 -35.07714844 30.30908203 C-37 31 -37 31 -39.18066406 30.37451172 C-41 29 -41 29 -41.75 26.875 C-41.8325 26.25625 -41.915 25.6375 -42 25 C-41.31599121 24.56244385 -40.63198242 24.1248877 -39.92724609 23.67407227 C-37.89100809 22.37142093 -35.85488515 21.06858972 -33.81884766 19.765625 C-31.51974904 18.29446506 -29.21986427 16.8245448 -26.91943359 15.35546875 C-22.04032615 12.23803786 -17.16238623 9.12040688 -12.328125 5.93359375 C-11.68568848 5.51198975 -11.04325195 5.09038574 -10.38134766 4.65600586 C-8.74312224 3.57774657 -7.10965083 2.492274 -5.4765625 1.40625 C-3 0 -3 0 0 0 Z M-9.625 12.5 C-11.12933594 13.47453125 -11.12933594 13.47453125 -12.6640625 14.46875 C-13.43492187 14.9740625 -14.20578125 15.479375 -15 16 C-13.63410386 19.79189077 -11.89545351 22.84381378 -9.5625 26.125 C-8.96566406 26.97320313 -8.36882812 27.82140625 -7.75390625 28.6953125 C-4.73921552 32.88606844 -4.73921552 32.88606844 -0.0625 34.4375 C3.66427799 33.90510314 4.73122317 32.941007 7 30 C8.15086993 26.5473902 7.6433905 25.39151898 6.16015625 22.18359375 C3.73806019 17.62483383 1.09996989 13.13080325 -2 9 C-5.13172017 9 -7.03609573 10.81420187 -9.625 12.5 Z " fill="#000000" transform="translate(233,631)"/>
<path d="M0 0 C4.7951056 3.68854277 7.59461964 7.89661602 9.015625 13.78125 C10.08381206 22.97168965 9.8262097 31.25422139 4.015625 38.78125 C-1.3538163 44.26517832 -7.01743814 46.66334052 -14.6171875 46.84375 C-22.03260887 46.51325768 -28.35559505 44.5874764 -33.58203125 39.10546875 C-39.18145941 31.74295534 -39.86924377 23.79180396 -38.984375 14.78125 C-37.32969496 8.95575274 -34.39995685 2.86306125 -29.09375 -0.37109375 C-19.40431852 -5.4131868 -9.51372992 -5.84307822 0 0 Z M-25.671875 5.40625 C-30.2555778 10.11383666 -32.2192976 14.69087729 -32.484375 21.28125 C-32.21555444 27.96468521 -30.26328921 32.61350233 -25.421875 37.21875 C-20.28635494 40.51075004 -14.90475221 40.39194794 -8.984375 39.78125 C-3.129154 36.90686878 0.18093745 33.16607157 2.328125 27.03125 C3.57880389 21.05953996 3.12051736 15.8726534 0.265625 10.46875 C-3.89131551 5.5035155 -7.36689765 3.14903648 -13.7109375 1.96875 C-18.3631243 1.58506449 -21.76230535 3.04232417 -25.671875 5.40625 Z " fill="#000000" transform="translate(498.984375,787.21875)"/>
<path d="M0 0 C5.71362701 3.35884768 10.25733222 8.63935893 13.25 14.5 C14.62089529 22.89673366 14.2430415 30.18858999 9.53125 37.4375 C5.18121795 43.04420798 -0.5740488 46.33718293 -7.25 48.5625 C-14.8367765 49.26323247 -21.34889323 48.68338541 -27.41796875 43.828125 C-33.70838551 37.91582072 -36.35642781 32.83320174 -36.6875 24.125 C-36.47097831 16.24902362 -34.2947577 11.58015151 -29.0625 5.8125 C-21.16814746 -1.49646623 -10.22192026 -4.3578717 0 0 Z M-23.0625 10.4375 C-27.76889864 14.82227686 -29.86134078 18.79121481 -30.375 25.22265625 C-30.11969956 30.00156135 -28.02111269 33.74632083 -24.71484375 37.13671875 C-19.98265972 41.19453749 -16.98968095 41.92833068 -10.9140625 41.83203125 C-5.71722987 41.306252 -1.970191 39.45883257 1.54296875 35.5859375 C6.45106989 29.17392889 7.57817219 24.69469077 6.75 16.5625 C4.29374793 11.55902356 0.98912301 7.82215895 -4.2890625 5.76953125 C-11.90003187 3.6117822 -17.04516377 5.56812519 -23.0625 10.4375 Z " fill="#000000" transform="translate(265.25,678.4375)"/>
<path d="M0 0 C9.23235397 4.00605883 18.70603887 11.93497095 23 21 C25.23487549 28.73266921 23.69299912 35.03886006 20 42 C15.21329574 49.06493313 9.76938831 52.78597388 1.5625 54.875 C-9.03792103 55.2469446 -14.96292642 50.61206054 -23 44 C-23.69222656 43.43796875 -24.38445312 42.8759375 -25.09765625 42.296875 C-26.41268571 41.2150068 -27.70962379 40.11115729 -29 39 C-27.49942814 34.3315542 -24.7750778 30.96327825 -21.6875 27.25 C-20.60893153 25.92980958 -19.53217945 24.6081336 -18.45703125 23.28515625 C-17.8945166 22.59309082 -17.33200195 21.90102539 -16.75244141 21.18798828 C-13.14264865 16.68102775 -9.67328348 12.06505955 -6.19018555 7.45996094 C-5.67109619 6.77579102 -5.15200684 6.09162109 -4.6171875 5.38671875 C-4.15940918 4.78045654 -3.70163086 4.17419434 -3.22998047 3.54956055 C-2 2 -2 2 0 0 Z M2 9 C-3.0228816 14.21440599 -7.43332029 19.99625863 -11.8125 25.75 C-12.38419922 26.49121094 -12.95589844 27.23242188 -13.54492188 27.99609375 C-14.09341797 28.71410156 -14.64191406 29.43210937 -15.20703125 30.171875 C-15.94143433 31.1323877 -15.94143433 31.1323877 -16.69067383 32.11230469 C-18.00476145 34.00686473 -19.02246196 35.91481683 -20 38 C-18.44384991 39.29930979 -16.8797832 40.58914138 -15.3125 41.875 C-14.44238281 42.59429688 -13.57226562 43.31359375 -12.67578125 44.0546875 C-7.7135346 47.66227704 -4.15825472 48.40483803 1.796875 47.52734375 C8.56159095 45.90812983 12.45985818 40.615795 16 35 C17.75793031 29.72620908 17.62526217 25.59157644 15.625 20.5 C12.54495231 15.65032491 7.64461987 12.25715601 3 9 C2.67 9 2.34 9 2 9 Z " fill="#000000" transform="translate(294,709)"/>
<path d="M0 0 C6.58333909 4.33985482 11.86273066 10.36550641 14.0625 18 C15.17164798 26.07559425 13.70820206 32.29607551 9.0625 39 C4.77417939 44.04383118 -0.42096238 46.8783009 -6.9375 48 C-15.07055293 48.42873921 -22.67569708 45.768331 -28.79296875 40.359375 C-34.98604916 33.56992389 -36.58746797 27.30422188 -36.34765625 18.22265625 C-35.40264932 10.79760181 -31.41457427 5.85484214 -25.78125 1.19140625 C-18.40811144 -3.57301591 -7.81966348 -3.99731507 0 0 Z M-26.875 11.1875 C-29.4342132 15.23886463 -30.23309867 19.23663854 -29.9375 24 C-27.71053714 31.03251431 -24.58513485 35.31815433 -18.125 38.8125 C-13.09642386 41.13904475 -9.34499702 42.0550135 -3.90625 40.37109375 C1.75524413 38.01565869 4.55749752 34.51530588 7.0625 29 C8.62473096 24.41094654 7.97679384 20.77464358 6.33984375 16.31640625 C3.3522376 10.89851497 -1.59873375 7.10059588 -7.125 4.5 C-15.09034212 3.08393918 -21.65394861 4.69891013 -26.875 11.1875 Z " fill="#000000" transform="translate(752.9375,670)"/>
<path d="M0 0 C5.06672531 4.13186255 8.03165727 9.12474242 9.71484375 15.3984375 C10.46960876 23.45511515 11.11446374 31.85959133 5.71484375 38.3984375 C-0.49223261 45.72004415 -11.16763658 47.27463612 -20.28515625 48.3984375 C-22.28499469 48.42385791 -24.28538652 48.42878573 -26.28515625 48.3984375 C-27.59747826 42.20794223 -28.89613165 36.01469348 -30.18530273 29.81933594 C-30.62551371 27.711905 -31.06885461 25.60512533 -31.51538086 23.49902344 C-32.15651418 20.47236068 -32.78637039 17.44353747 -33.4140625 14.4140625 C-33.6160878 13.47226135 -33.8181131 12.53046021 -34.02626038 11.56011963 C-34.20652267 10.67950867 -34.38678497 9.79889771 -34.57250977 8.89160156 C-34.73461441 8.11882874 -34.89671906 7.34605591 -35.06373596 6.54986572 C-35.30193124 4.23544348 -34.98339512 2.60285862 -34.28515625 0.3984375 C-9.13420998 -5.44576578 -9.13420998 -5.44576578 0 0 Z M-27.28515625 5.3984375 C-26.71282833 13.04371347 -25.39152439 20.40817235 -23.78515625 27.8984375 C-23.55957031 28.98125 -23.33398438 30.0640625 -23.1015625 31.1796875 C-22.12729612 36.43315578 -22.12729612 36.43315578 -20.28515625 41.3984375 C-8.22996693 40.06845782 -8.22996693 40.06845782 1.02734375 32.7109375 C4.24268933 26.39933322 4.31801777 21.38105591 2.15234375 14.6484375 C0.16447175 9.72017149 -1.8247089 7.24553155 -6.28515625 4.3984375 C-13.29925109 2.06040589 -20.30124038 3.60617165 -27.28515625 5.3984375 Z " fill="#000000" transform="translate(571.28515625,780.6015625)"/>
<path d="M0 0 C3 1.5 3 1.5 5 3 C4.67 4.65 4.34 6.3 4 8 C3.01 8.33 2.02 8.66 1 9 C0.34 8.67 -0.32 8.34 -1 8 C-4.77160651 7.58093261 -6.50970134 7.68799176 -9.75 9.75 C-13.16843381 13.16843381 -14.10319984 15.34104175 -14.25 20.125 C-14.42727246 24.01280395 -14.42727246 24.01280395 -12 26 C-8.02880711 26.63178069 -6.41428241 26.28206462 -3.0625 24 C-0.65157394 21.79103633 1.4429929 19.36152132 3.5625 16.875 C7.42871899 12.40099113 9.88479599 10.23502267 15.9375 9.5625 C20.22902681 9.74873607 22.7525341 11.13014641 26 14 C28.93647552 18.40471328 29.54218784 21.75885093 29 27 C27.52423206 33.60771773 23.98219805 38.49328143 19 43 C14.09538665 45.99726372 10.53378926 46.24306677 5.015625 45.51953125 C3 45 3 45 0 43 C0.8125 40.5625 0.8125 40.5625 2 38 C5 37 5 37 8.3125 37.6875 C12.04298869 38.31800167 12.04298869 38.31800167 15.25 36.4375 C18.76585187 33.32117676 20.68746637 30.65901628 21.24609375 25.90625 C21.36166437 23.48143426 21.36166437 23.48143426 21 20 C19.13738349 17.74589841 19.13738349 17.74589841 16.25 17.5625 C10.27925564 18.36625405 7.15547742 22.76321697 3.4375 27.125 C-0.42871899 31.59900887 -2.88479599 33.76497733 -8.9375 34.4375 C-13.22902681 34.25126393 -15.7525341 32.86985359 -19 30 C-21.93362786 25.5995582 -22.62136088 22.23718452 -22 17 C-19.77155238 10.03909641 -16.4426041 5.69825727 -10.6875 1.1875 C-7.04621343 -0.42144058 -3.92262224 -0.61686398 0 0 Z " fill="#000000" transform="translate(769,627)"/>
<path d="M0 0 C4.16219691 3.5516267 7.01933835 7.55187973 8 13 C7.87076261 16.81250289 7.72202697 20.55594607 6 24 C3.69 23.67 1.38 23.34 -1 23 C-0.89300781 22.34773437 -0.78601563 21.69546875 -0.67578125 21.0234375 C0.08505257 15.47671349 0.46731816 11.73866816 -3 7 C-6.82019687 3.83469402 -11.09663243 2.86429795 -16 3 C-20.48353978 3.852038 -23.84034481 5.43097783 -26.875 8.875 C-31.11855301 15.11551913 -31.8418696 20.57236566 -31 28 C-29.72310446 32.16711419 -27.3770667 35.04712195 -23.75 37.4375 C-19.84358025 39.36566872 -16.2773094 39.847075 -12 39 C-8.03906092 37.40785782 -5.40699191 35.61048786 -3 32 C-0.69 32.33 1.62 32.66 4 33 C3.22687136 38.21861835 0.10728053 41.10936131 -3.875 44.3125 C-9.92235342 47.51250343 -18.08294568 47.14094884 -24.5078125 45.26953125 C-30.75594412 42.35927983 -35.37511105 37.68317859 -38.26953125 31.43359375 C-40.51815311 23.9421958 -39.86874983 15.91863925 -36.26953125 9 C-32.72479451 3.41567628 -28.71693131 -1.60275774 -22.140625 -3.55078125 C-14.27080762 -5.20229402 -6.93618222 -4.07799679 0 0 Z " fill="#000000" transform="translate(404,770)"/>
<path d="M0 0 C0.33 1.65 0.66 3.3 1 5 C-2.62310328 6.33852796 -6.24878144 7.66993718 -9.875 9 C-11.42380859 9.57234375 -11.42380859 9.57234375 -13.00390625 10.15625 C-13.99003906 10.5171875 -14.97617187 10.878125 -15.9921875 11.25 C-16.90339355 11.58515625 -17.81459961 11.9203125 -18.75341797 12.265625 C-21 13 -21 13 -23 13 C-22.71125 13.68707031 -22.4225 14.37414062 -22.125 15.08203125 C-21.568125 16.43361328 -21.568125 16.43361328 -21 17.8125 C-20.62875 18.70582031 -20.2575 19.59914063 -19.875 20.51953125 C-19 23 -19 23 -19 26 C-18.44014404 25.78794922 -17.88028809 25.57589844 -17.3034668 25.35742188 C-14.76670026 24.39985367 -12.22716489 23.44985301 -9.6875 22.5 C-8.80642578 22.16613281 -7.92535156 21.83226562 -7.01757812 21.48828125 C-6.17001953 21.17246094 -5.32246094 20.85664062 -4.44921875 20.53125 C-3.27879028 20.09135742 -3.27879028 20.09135742 -2.0847168 19.64257812 C0 19 0 19 3 19 C3.66 20.98 4.32 22.96 5 25 C1.87694627 26.17192435 -1.24874739 27.33663876 -4.375 28.5 C-5.26445313 28.83386719 -6.15390625 29.16773438 -7.0703125 29.51171875 C-7.92109375 29.82753906 -8.771875 30.14335938 -9.6484375 30.46875 C-10.82672119 30.90864258 -10.82672119 30.90864258 -12.02880859 31.35742188 C-14 32 -14 32 -16 32 C-14.02 36.95 -12.04 41.9 -10 47 C-8.53046875 46.4225 -7.0609375 45.845 -5.546875 45.25 C-3.61471981 44.49964847 -1.68242059 43.74966775 0.25 43 C1.21808594 42.6184375 2.18617188 42.236875 3.18359375 41.84375 C4.58544922 41.30234375 4.58544922 41.30234375 6.015625 40.75 C6.87446289 40.41484375 7.73330078 40.0796875 8.61816406 39.734375 C11 39 11 39 15 39 C15.495 41.97 15.495 41.97 16 45 C6.1 48.63 -3.8 52.26 -14 56 C-16.07064729 53.92935271 -16.61276026 52.76563437 -17.60400391 50.07275391 C-17.90416412 49.2649649 -18.20432434 48.4571759 -18.51358032 47.62490845 C-18.83136444 46.75095428 -19.14914856 45.87700012 -19.4765625 44.9765625 C-19.80667328 44.07884125 -20.13678406 43.18112 -20.47689819 42.25619507 C-21.17390749 40.35573518 -21.86805624 38.45422411 -22.55957031 36.55175781 C-23.61934702 33.64052887 -24.6918493 30.7342152 -25.765625 27.828125 C-26.4408799 25.9820544 -27.11538413 24.135709 -27.7890625 22.2890625 C-28.11089508 21.4191568 -28.43272766 20.5492511 -28.76431274 19.65298462 C-29.05816864 18.8388913 -29.35202454 18.02479797 -29.65478516 17.18603516 C-29.91522614 16.47258942 -30.17566711 15.75914368 -30.44400024 15.02407837 C-31 13 -31 13 -31 9 C-27.23328152 7.54349998 -23.4613638 6.1014975 -19.68408203 4.67260742 C-18.40035086 4.18468587 -17.11809874 3.69285403 -15.83740234 3.19702148 C-13.99451563 2.48431472 -12.14574639 1.78687815 -10.296875 1.08984375 C-9.18666992 0.66566162 -8.07646484 0.24147949 -6.93261719 -0.19555664 C-4.03231845 -0.99113476 -2.75189527 -1.08026527 0 0 Z " fill="#000000" transform="translate(615,761)"/>
<path d="M0 0 C2.97 0.495 2.97 0.495 6 1 C6.18451025 18.85649203 6.18451025 18.85649203 5 27 C9.62 27 14.24 27 19 27 C19.33 19.74 19.66 12.48 20 5 C21.98 5 23.96 5 26 5 C26.02734471 7.33341499 26.04700237 9.66649949 26.0625 12 C26.07410156 13.299375 26.08570313 14.59875 26.09765625 15.9375 C26.13466749 20.08275911 25.52985599 23.76115207 25 28 C30.61 28 36.22 28 42 28 C41.98839844 26.7934375 41.97679687 25.586875 41.96484375 24.34375 C41.95545665 22.72916823 41.94635744 21.11458476 41.9375 19.5 C41.92912109 18.70851563 41.92074219 17.91703125 41.91210938 17.1015625 C41.89108815 11.97238283 42.26062713 7.07663894 43 2 C44.98 2 46.96 2 49 2 C48.67 12.89 48.34 23.78 48 35 C39.04194806 35 30.1821371 34.98099873 21.25 34.5625 C20.31285156 34.52318359 19.37570312 34.48386719 18.41015625 34.44335938 C11.91907858 34.15238003 5.46568694 33.63981725 -1 33 C-1.12308347 21.94983981 -0.83058514 11.02008501 0 0 Z " fill="#000000" transform="translate(793,481)"/>
<path d="M0 0 C1.28613281 1.81005859 1.28613281 1.81005859 2.203125 4.1484375 C2.5434375 4.98890625 2.88375 5.829375 3.234375 6.6953125 C3.56953125 7.57960938 3.9046875 8.46390625 4.25 9.375 C4.600625 10.2515625 4.95125 11.128125 5.3125 12.03125 C9.87351944 23.50396812 9.87351944 23.50396812 9 30 C7.20496744 33.65910484 5.64752442 35.54823878 2.3125 37.875 C-2.58532382 39.53841186 -6.98425073 40.25500125 -11.88671875 38.21484375 C-18.65183996 33.48686017 -21.11595003 24.38106406 -24 17 C-29.56880122 18.73778194 -34.87257409 20.74422801 -40.15234375 23.23046875 C-42 24 -42 24 -44 24 C-45.4606285 21.35261084 -46 20.10551666 -46 17 C-45.14881592 16.63237549 -44.29763184 16.26475098 -43.4206543 15.88598633 C-40.20903325 14.49830267 -36.99782093 13.10968113 -33.78686523 11.72045898 C-32.40714061 11.12373892 -31.02726232 10.52737402 -29.6472168 9.93139648 C-28.30666052 9.35242031 -26.96633715 8.77290457 -25.62625122 8.19284058 C-24.30158733 7.61969938 -22.97629029 7.04801931 -21.65036011 6.47781372 C-16.80678866 4.38464666 -12.05524279 2.13281051 -7.34301758 -0.2434082 C-4.41874277 -1.18769576 -2.8690825 -1.08711446 0 0 Z M-12.125 10 C-13.22070312 10.556875 -14.31640625 11.11375 -15.4453125 11.6875 C-16.28835937 12.120625 -17.13140625 12.55375 -18 13 C-14.9864725 23.30733796 -14.9864725 23.30733796 -9 32 C-4.59836054 32.58134861 -2.66472856 32.47084939 1 29.875 C3.29868023 27.20955906 3.29868023 27.20955906 2.81640625 24.28125 C1.88655897 20.54406475 0.51188641 17.12444821 -1.0625 13.625 C-1.34416016 12.98433594 -1.62582031 12.34367188 -1.91601562 11.68359375 C-2.60459421 10.11970341 -3.30144711 8.55946059 -4 7 C-7.12114363 7 -9.3698871 8.59313384 -12.125 10 Z " fill="#000000" transform="translate(215,592)"/>
<path d="M0 0 C1.98 0.66 3.96 1.32 6 2 C5.40739433 6.02281086 4.12292405 8.91191916 2.09375 12.421875 C1.22556641 13.96101562 1.22556641 13.96101562 0.33984375 15.53125 C-0.87999301 17.66531686 -2.10649341 19.79558949 -3.33984375 21.921875 C-6.80334676 28.09292713 -9.07776212 32.85295402 -9 40 C-7.37739288 43.18196226 -5.02576505 45.22183341 -2.1875 47.375 C1.238727 48.353922 4.54884119 48.87814183 8 48 C12.55554572 44.64057312 15.14066716 41.65192307 17.8671875 36.60546875 C18.19163849 36.01325027 18.51608948 35.4210318 18.85037231 34.81086731 C19.87046439 32.94258054 20.87289379 31.06548372 21.875 29.1875 C22.56915965 27.90887866 23.26446236 26.63087718 23.9609375 25.35351562 C25.65388333 22.24272445 27.33113808 19.12379163 29 16 C30.98 16.66 32.96 17.32 35 18 C34.03039581 24.4921324 30.59163436 29.71256231 27.4375 35.375 C26.84130859 36.48617187 26.24511719 37.59734375 25.63085938 38.7421875 C21.59613135 46.00729263 17.25387174 53.24870942 9 56 C1.65237235 57.05180764 -3.88030971 55.044131 -10 51 C-14.06153287 47.71661128 -16.04596408 43.61170746 -16.85473633 38.51416016 C-17.39498047 29.16385059 -11.1732358 20.21845652 -6.8125 12.375 C-6.15082474 11.16844434 -5.49001125 9.96141566 -4.83007812 8.75390625 C-3.22843052 5.83119164 -1.61830088 2.91351624 0 0 Z " fill="#000000" transform="translate(332,738)"/>
<path d="M0 0 C7.29178361 0.16317809 14.51711926 1.74027863 21.625 3.25 C22.60984375 3.44207031 23.5946875 3.63414062 24.609375 3.83203125 C31.79070977 5.35447422 37.89932257 7.59925701 42.9375 13.125 C46.19854197 18.87977995 45.97851309 26.39439199 44.28125 32.6484375 C42.38216253 37.25831918 40.38454804 40.39014997 36 43 C22.5555556 48.22942527 5.52437345 41.86928554 -8 39 C-7.67 36.69 -7.34 34.38 -7 32 C-6.19892822 32.15146484 -5.39785645 32.30292969 -4.57250977 32.45898438 C-0.9040233 33.14770304 2.76666104 33.82393708 6.4375 34.5 C7.69755859 34.73847656 8.95761719 34.97695313 10.25585938 35.22265625 C21.62427354 37.59585776 21.62427354 37.59585776 32.875 35.9375 C36.55495078 32.58225076 37.79098104 28.74182469 38.375 23.875 C37.90969189 20.30763782 37.37669298 18.73679797 35 16 C28.21904994 11.99763736 20.71032629 10.69613815 13.0625 9.3125 C10.82378347 8.89425029 8.585478 8.47379228 6.34765625 8.05078125 C5.36804932 7.87200439 4.38844238 7.69322754 3.37915039 7.5090332 C1 7 1 7 -1 6 C-1.042721 4.33388095 -1.04063832 2.66617115 -1 1 C-0.67 0.67 -0.34 0.34 0 0 Z " fill="#000000" transform="translate(791,525)"/>
<path d="M0 0 C8.49889726 0.58238416 16.76021323 1.91576008 25.125 3.5 C26.35476563 3.72558594 27.58453125 3.95117188 28.8515625 4.18359375 C37.86946216 5.86946216 37.86946216 5.86946216 39 7 C39.04063832 8.66617115 39.042721 10.33388095 39 12 C35.81619067 13.59190467 32.71923676 12.28749598 29.375 11.5625 C28.66859375 11.41490234 27.9621875 11.26730469 27.234375 11.11523438 C25.48831251 10.74950507 23.74398116 10.37552879 22 10 C21.91363281 10.69738281 21.82726562 11.39476562 21.73828125 12.11328125 C20.57024101 20.88965696 19.06626453 29.599403 17.5 38.3125 C17.28641846 39.53557861 17.07283691 40.75865723 16.8527832 42.01879883 C16.64355225 43.16372803 16.43432129 44.30865723 16.21875 45.48828125 C16.03248047 46.52509033 15.84621094 47.56189941 15.65429688 48.63012695 C15.33041992 49.80321411 15.33041992 49.80321411 15 51 C12.3333581 52.33332095 10.83319697 51.67102033 8 51 C8.71936595 41.83946655 10.38045331 32.89503599 12.0625 23.875 C12.34737648 22.33079761 12.63188457 20.78652722 12.91601562 19.2421875 C13.6064344 15.49399444 14.30182499 11.74675571 15 8 C13.87851562 7.90912109 13.87851562 7.90912109 12.734375 7.81640625 C11.74953125 7.73261719 10.7646875 7.64882813 9.75 7.5625 C8.77546875 7.48128906 7.8009375 7.40007813 6.796875 7.31640625 C4.43538247 7.04925416 2.28098935 6.64628032 0 6 C0 4.02 0 2.04 0 0 Z " fill="#000000" transform="translate(419,776)"/>
<path d="M0 0 C3.54799713 1.35201494 4.70429496 5.07214958 6.33477783 8.29981995 C6.92558136 9.42969582 6.92558136 9.42969582 7.52832031 10.58239746 C8.78396825 12.99088619 10.02040963 15.40866694 11.25665283 17.8271637 C12.10436492 19.46127434 12.95330851 21.09474677 13.80352783 22.72755432 C15.88560101 26.73265703 17.9505015 30.74619584 20.00665283 34.7646637 C23.56797924 34.19368062 26.24495123 33.28266953 29.36212158 31.47950745 C30.14909424 31.03155823 30.93606689 30.58360901 31.74688721 30.12208557 C32.55448486 29.65351135 33.36208252 29.18493713 34.19415283 28.7021637 C35.81047612 27.77001187 37.42886908 26.84143665 39.04962158 25.91700745 C39.76142578 25.50442688 40.47322998 25.09184631 41.206604 24.66676331 C43.00665283 23.7646637 43.00665283 23.7646637 45.00665283 23.7646637 C45.66665283 25.7446637 46.32665283 27.7246637 47.00665283 29.7646637 C33.82305908 37.08888245 33.82305908 37.08888245 31.42120361 38.41065979 C29.78009678 39.33094073 28.15364628 40.27775161 26.5413208 41.24757385 C25.36207031 41.94632629 25.36207031 41.94632629 24.15899658 42.65919495 C23.45637695 43.086922 22.75375732 43.51464905 22.02984619 43.95533752 C20.00665283 44.7646637 20.00665283 44.7646637 17.93170166 44.71339417 C15.10282349 43.31922542 14.44348365 41.49238554 13.05352783 38.69044495 C12.52001709 37.63623352 11.98650635 36.58202209 11.43682861 35.49586487 C10.88237061 34.36769348 10.3279126 33.23952209 9.75665283 32.0771637 C8.60555455 29.78681905 7.45192002 27.49774729 6.29571533 25.2099762 C5.73658447 24.10041565 5.17745361 22.9908551 4.60137939 21.84767151 C2.02721409 16.87116211 -0.84755745 12.09906532 -3.79803467 7.33888245 C-4.99334717 4.7646637 -4.99334717 4.7646637 -4.81365967 2.47169495 C-3.63974266 0.02882956 -2.65586093 -0.31355326 0 0 Z " fill="#000000" transform="translate(627.9933471679688,753.2353363037109)"/>
<path d="M0 0 C3.38121991 2.44598887 4.76936783 3.89296559 5.625 8 C4.76936783 12.10703441 3.38121991 13.55401113 0 16 C-3.95779649 16.62491523 -6.00863886 16.61006839 -9.4375 14.5 C-11.63828902 10.97873756 -11.80414661 8.04560357 -11 4 C-8.16650967 -0.53358453 -5.10426635 -0.80593679 0 0 Z " fill="#000000" transform="translate(173,529)"/>
<path d="M0 0 C3.38121991 2.44598887 4.76936783 3.89296559 5.625 8 C4.76936783 12.10703441 3.38121991 13.55401113 0 16 C-3.95779649 16.62491523 -6.00863886 16.61006839 -9.4375 14.5 C-11.63828902 10.97873756 -11.80414661 8.04560357 -11 4 C-8.16650967 -0.53358453 -5.10426635 -0.80593679 0 0 Z " fill="#000000" transform="translate(817,397)"/>
</svg>
