<?xml version="1.0" encoding="UTF-8"?>
<svg version="1.1" xmlns="http://www.w3.org/2000/svg" width="1319" height="1249">
<path d="M0 0 C6.89035137 1.56729488 9.69827714 4.88635202 13.3918457 10.73120117 C16.10579565 15.578488 18.51283368 20.56891705 20.8359375 25.61279297 C23.18396134 30.56557063 25.97127932 35.18310165 28.83203125 39.8515625 C29.89099681 41.63756173 30.94688201 43.42539026 32 45.21484375 C37.41217542 54.36896369 42.84527321 63.51068307 48.27684021 72.65330505 C48.8842379 73.6757003 48.8842379 73.6757003 49.50390625 74.71875 C49.91169815 75.40514053 50.31949005 76.09153107 50.73963928 76.79872131 C53.31799936 81.13926426 55.89389712 85.48125857 58.46792603 89.82437134 C60.19444771 92.73745418 61.92164364 95.650137 63.64886475 98.56280518 C64.46906135 99.94635697 65.2889347 101.33010045 66.10845947 102.71405029 C70.1728286 109.57733333 74.24881572 116.42620056 78.51953125 123.1640625 C84.0196983 114.58272079 89.30792174 105.88954234 94.43774414 97.08154297 C95.87720663 94.61142417 97.33314517 92.15216161 98.80249023 89.69970703 C102.25371072 83.91518983 105.58799993 78.1433692 108.53317261 72.08187866 C118.47486773 51.68678124 118.47486773 51.68678124 125.70361328 48.96533203 C133.10150205 47.78984893 140.24040065 48.56695368 147.51953125 50.1640625 C150.45703125 55.48828126 150.45703125 55.48828126 151.40077209 57.19883728 C153.16871595 60.40327113 154.9367234 63.60766986 156.70483398 66.81201172 C160.34352156 73.40654564 163.98148665 80.00147517 167.6171875 86.59765625 C174.68067196 99.41121559 181.76328253 112.21374083 188.87524414 125.00048828 C193.77958033 133.8219951 198.65794913 142.65759595 203.52978516 151.49707031 C208.34275352 160.22887068 213.17313516 168.95075248 218.01953125 177.6640625 C223.54417354 187.5967878 229.04366877 197.54304377 234.52978516 207.49707031 C239.34275362 216.22887087 244.1731842 224.95072505 249.01953125 233.6640625 C254.39043355 243.32154343 259.74372326 252.9885351 265.08203125 262.6640625 C265.41396484 263.26549072 265.74589844 263.86691895 266.08789062 264.48657227 C267.65016651 267.31761261 269.21035098 270.14974831 270.76611328 272.984375 C271.93841408 275.11025158 273.12177652 277.23006445 274.31591797 279.34375 C274.86650879 280.32601563 275.41709961 281.30828125 275.984375 282.3203125 C276.47413818 283.18462891 276.96390137 284.04894531 277.46850586 284.93945312 C278.51953125 287.1640625 278.51953125 287.1640625 278.51953125 290.1640625 C276.4296875 292.14453125 276.4296875 292.14453125 273.58203125 294.3515625 C268.39203907 298.45246306 263.42001323 302.72337883 258.51953125 307.1640625 C254.48274093 305.52411643 251.62924833 302.67998209 248.51953125 299.7265625 C247.35171782 298.63394855 246.1837457 297.54150419 245.015625 296.44921875 C244.42894043 295.89766113 243.84225586 295.34610352 243.23779297 294.77783203 C238.70924552 290.52467792 234.13346108 286.32432739 229.51953125 282.1640625 C228.96652344 281.66342285 228.41351562 281.1627832 227.84375 280.64697266 C208.67069685 263.39447082 189.44885961 254.70567567 163.39453125 255.0390625 C158.81578125 255.0803125 154.23703125 255.1215625 149.51953125 255.1640625 C149.51953125 273.9740625 149.51953125 292.7840625 149.51953125 312.1640625 C139.61953125 312.1640625 129.71953125 312.1640625 119.51953125 312.1640625 C119.51953125 296.3240625 119.51953125 280.4840625 119.51953125 264.1640625 C96.40721775 273.61909984 75.44837802 284.26621556 54.01953125 296.7890625 C25.57669886 313.31302607 -6.06936433 319.58568341 -38.234375 311.37109375 C-55.93988711 306.49681433 -72.64193635 297.09290745 -88.23046875 287.5390625 C-106.15559516 276.56854758 -124.56825521 268.80146701 -144.48046875 262.1640625 C-144.81046875 278.6640625 -145.14046875 295.1640625 -145.48046875 312.1640625 C-155.05046875 312.1640625 -164.62046875 312.1640625 -174.48046875 312.1640625 C-174.48046875 293.3540625 -174.48046875 274.5440625 -174.48046875 255.1640625 C-199.46091586 252.66601779 -222.51924488 252.95097359 -243.10546875 269.4140625 C-244.91199776 270.98041713 -246.70374852 272.56397528 -248.48046875 274.1640625 C-249.77210938 275.29328125 -249.77210938 275.29328125 -251.08984375 276.4453125 C-261.65842738 285.8794154 -271.51257769 296.10512128 -281.48046875 306.1640625 C-284.14046833 304.90695676 -286.44393283 303.55271217 -288.7578125 301.73828125 C-289.35400391 301.27099609 -289.95019531 300.80371094 -290.56445312 300.32226562 C-291.17611328 299.83693359 -291.78777344 299.35160156 -292.41796875 298.8515625 C-293.02576172 298.37783203 -293.63355469 297.90410156 -294.25976562 297.41601562 C-297.91386155 294.53452251 -301.21039112 291.48650606 -304.48046875 288.1640625 C-296.05875155 273.34666101 -287.58846254 258.56544497 -278.88671875 243.91015625 C-274.91359954 237.21790409 -270.97739315 230.50410093 -267.04296875 223.7890625 C-266.68051056 223.17056427 -266.31805237 222.55206604 -265.9446106 221.91482544 C-260.5453407 212.70059433 -255.16054573 203.47798233 -249.78271484 194.2512207 C-243.09374371 182.77858145 -236.37287942 171.3246534 -229.65380859 159.86962891 C-227.50822457 156.21159387 -225.36336376 152.5531352 -223.21875 148.89453125 C-222.86872925 148.29741333 -222.5187085 147.70029541 -222.15808105 147.08508301 C-221.09886439 145.27808353 -220.03966342 143.47107486 -218.98046875 141.6640625 C-215.05966776 134.97507881 -211.13882307 128.28612142 -207.21601868 121.59831238 C-197.60169549 105.22007755 -197.60169549 105.22007755 -188.02880859 88.81762695 C-186.8822967 86.85855902 -185.72394931 84.90636419 -184.55322266 82.96166992 C-181.5033244 77.85903872 -178.80028875 72.7722361 -176.37890625 67.33984375 C-169.11612341 51.78345314 -169.11612341 51.78345314 -162.58642578 48.875 C-155.06607573 47.05494889 -147.71939627 47.36133276 -140.48046875 50.1640625 C-135.77432018 53.27177801 -133.96339287 58.30413162 -131.80712891 63.31689453 C-129.36320388 68.56184367 -126.26783815 73.45624038 -123.2906189 78.4112854 C-121.42268222 81.53565031 -119.59339351 84.68241216 -117.76171875 87.828125 C-117.03656268 89.07069892 -116.31130336 90.31321259 -115.5859375 91.55566406 C-114.22632551 93.88560408 -112.86702433 96.2157249 -111.5078125 98.54589844 C-109.73161333 101.58750047 -107.95039721 104.62610806 -106.16796875 107.6640625 C-105.6474292 108.55883301 -105.12688965 109.45360352 -104.59057617 110.37548828 C-104.10435791 111.20290527 -103.61813965 112.03032227 -103.1171875 112.8828125 C-102.70170654 113.59373047 -102.28622559 114.30464844 -101.8581543 115.03710938 C-100.22662614 117.55595986 -98.38512152 119.84716149 -96.48046875 122.1640625 C-87.49678288 108.4366925 -78.51855321 94.70599309 -69.5859375 80.9453125 C-67.48814834 77.71367259 -65.38629139 74.48473291 -63.28125 71.2578125 C-55.25688733 58.95039626 -47.34361055 46.5750266 -39.48046875 34.1640625 C-38.6613501 32.87242187 -38.6613501 32.87242187 -37.82568359 31.5546875 C-36.76264887 29.87800498 -35.70148169 28.20013672 -34.64233398 26.52099609 C-33.62873993 24.92533015 -32.60370973 23.3368636 -31.56665039 21.75634766 C-29.30446411 18.2761186 -27.31374209 14.99502315 -25.87109375 11.09375 C-21.17327226 -0.11806107 -11.18104088 -1.1293425 0 0 Z M-7.48046875 40.1640625 C-8.13789062 41.22238281 -8.7953125 42.28070313 -9.47265625 43.37109375 C-15.68354152 53.31185537 -22.07821657 63.11669873 -28.60546875 72.8515625 C-33.73753775 80.5076279 -38.82234909 88.17738061 -43.65161133 96.02905273 C-47.5851335 102.39788911 -51.6888891 108.65426835 -55.79296875 114.9140625 C-56.15755188 115.47015198 -56.52213501 116.02624146 -56.89776611 116.59918213 C-58.7202125 119.37837497 -60.54315321 122.1572433 -62.36621094 124.93603516 C-66.10892088 130.65036667 -69.82745467 136.38037151 -73.54614258 142.11035156 C-74.03880615 142.86928711 -74.53146973 143.62822266 -75.0390625 144.41015625 C-75.46501709 145.06685303 -75.89097168 145.7235498 -76.32983398 146.40014648 C-77.37000096 147.99471606 -78.42440939 149.57997346 -79.48046875 151.1640625 C-79.18589788 155.51772793 -77.25163225 158.56166149 -74.98046875 162.21484375 C-74.6290683 162.78564667 -74.27766785 163.35644958 -73.9156189 163.94454956 C-73.16538324 165.16195162 -72.41190317 166.3773593 -71.65545654 167.59091187 C-69.67789172 170.76455876 -67.72470124 173.9531506 -65.76953125 177.140625 C-65.38713287 177.76279404 -65.0047345 178.38496307 -64.61074829 179.02598572 C-61.92054274 183.41339134 -59.3308541 187.84017269 -56.85546875 192.3515625 C-52.62279284 200.03362127 -48.08971154 207.52691664 -43.55908203 215.03613281 C-38.54857731 223.3526016 -33.6255906 231.71684477 -28.73046875 240.1015625 C-22.44245194 250.86922662 -16.04982915 261.56511602 -9.48046875 272.1640625 C-5.79679465 268.89428436 -3.59647027 265.13697947 -1.29296875 260.8515625 C-0.493949 259.39876938 0.30687395 257.94696675 1.109375 256.49609375 C1.51269043 255.76600098 1.91600586 255.0359082 2.33154297 254.28369141 C4.08056377 251.16305874 5.91576748 248.09830237 7.76953125 245.0390625 C11.47292963 238.91462182 15.13185966 232.76529014 18.76953125 226.6015625 C19.32310303 225.6638501 19.8766748 224.7261377 20.44702148 223.76000977 C21.5792552 221.84172479 22.71133443 219.92334862 23.84326172 218.00488281 C26.50465819 213.49454064 29.16813258 208.98542716 31.83203125 204.4765625 C32.35587402 203.58976807 32.8797168 202.70297363 33.41943359 201.78930664 C36.49163694 196.59015783 39.56809783 191.39355079 42.6484375 186.19921875 C43.00120255 185.60428116 43.35396759 185.00934357 43.71742249 184.39637756 C45.43643418 181.49738192 47.15592921 178.59867602 48.8762207 175.70043945 C53.12302985 168.54020347 57.3348087 161.36075002 61.51953125 154.1640625 C56.45231567 145.25621586 51.33471274 136.38010024 46.1472168 127.54174805 C45.0846227 125.7309786 44.0236808 123.91924856 42.96289062 122.10742188 C38.99018107 115.32908002 34.97760094 108.57612239 30.92828369 101.84327698 C28.26166984 97.40754329 25.61325145 92.96139496 22.9765625 88.5078125 C22.59933044 87.87065308 22.22209839 87.23349365 21.83343506 86.57702637 C21.06163382 85.27336719 20.28983411 83.9697071 19.51803589 82.66604614 C13.1987812 71.9991026 6.86380228 61.34121013 0.45703125 50.7265625 C-0.12006592 49.76234375 -0.69716309 48.798125 -1.29174805 47.8046875 C-1.81937744 46.93457031 -2.34700684 46.06445312 -2.890625 45.16796875 C-3.34574463 44.41330322 -3.80086426 43.6586377 -4.26977539 42.88110352 C-5.38203598 41.01608085 -5.38203598 41.01608085 -7.48046875 40.1640625 Z M-153.48046875 87.1640625 C-153.8458374 87.79981201 -154.21120605 88.43556152 -154.58764648 89.09057617 C-164.08439764 105.60583384 -173.67349746 122.06449246 -183.32324219 138.49072266 C-186.52617841 143.94360305 -189.72328804 149.39989886 -192.92080688 154.85595703 C-194.68659479 157.86892832 -196.45265994 160.88173707 -198.21875 163.89453125 C-198.56876572 164.4916391 -198.91878143 165.08874695 -199.27940369 165.70394897 C-201.43401231 169.37943779 -203.58918088 173.05459769 -205.74475098 176.72952271 C-207.55266609 179.81176618 -209.36037205 182.89413228 -211.16796875 185.9765625 C-211.51877502 186.57476807 -211.8695813 187.17297363 -212.23101807 187.78930664 C-217.87028525 197.40664129 -223.4940721 207.03289676 -229.10424805 216.66723633 C-229.63832275 217.58400146 -230.17239746 218.5007666 -230.72265625 219.4453125 C-231.41657471 220.63737305 -231.41657471 220.63737305 -232.12451172 221.85351562 C-233.1079125 223.52922772 -234.12144243 225.18737465 -235.15283203 226.83398438 C-236.64548879 229.00672063 -236.64548879 229.00672063 -236.48046875 231.1640625 C-230.38341959 229.82121024 -230.38341959 229.82121024 -224.3046875 228.3984375 C-222.65919922 228.00398438 -222.65919922 228.00398438 -220.98046875 227.6015625 C-219.95953125 227.35277344 -218.93859375 227.10398437 -217.88671875 226.84765625 C-209.77089932 225.21890808 -201.74227953 224.97148729 -193.48046875 224.9765625 C-191.84573608 224.9755957 -191.84573608 224.9755957 -190.17797852 224.97460938 C-181.16335625 225.03296932 -172.38324 225.7925214 -163.48046875 227.1640625 C-163.15062988 226.63901123 -162.82079102 226.11395996 -162.48095703 225.57299805 C-155.21985738 214.03679893 -147.82149148 202.60975437 -140.23046875 191.2890625 C-134.52590148 182.77977075 -128.9084961 174.23344134 -123.5390625 165.5078125 C-120.57393812 160.6915953 -117.52584508 155.92985299 -114.48046875 151.1640625 C-118.96346861 142.80513568 -123.6729635 134.58919902 -128.48046875 126.4140625 C-128.84608917 125.79164673 -129.21170959 125.16923096 -129.58840942 124.5279541 C-134.81857596 115.62893678 -140.08358776 106.75107144 -145.41796875 97.9140625 C-146.00255859 96.93856445 -146.58714844 95.96306641 -147.18945312 94.95800781 C-147.72763672 94.07209961 -148.26582031 93.18619141 -148.8203125 92.2734375 C-149.52208618 91.11279785 -149.52208618 91.11279785 -150.23803711 89.92871094 C-151.3732983 88.02019539 -151.3732983 88.02019539 -153.48046875 87.1640625 Z M134.51953125 87.1640625 C133.13255676 89.20278658 131.81639987 91.25562369 130.51953125 93.3515625 C130.08946777 94.04282227 129.6594043 94.73408203 129.21630859 95.44628906 C123.97628022 103.94178617 118.9555288 112.57019195 113.9440918 121.2019043 C110.60088028 126.95360949 107.23311067 132.67413495 103.6875 138.3046875 C103.11628418 139.21959961 102.54506836 140.13451172 101.95654297 141.07714844 C100.90180358 142.75674245 99.83255884 144.42734618 98.74658203 146.08691406 C98.28622559 146.82393555 97.82586914 147.56095703 97.3515625 148.3203125 C96.94655518 148.94744141 96.54154785 149.57457031 96.12426758 150.22070312 C95.23305066 153.08468645 96.20311321 154.53606244 97.51953125 157.1640625 C98.27801274 158.57361669 99.06981984 159.96564723 99.890625 161.33984375 C100.37297607 162.15171143 100.85532715 162.9635791 101.35229492 163.80004883 C101.88185791 164.68329834 102.4114209 165.56654785 102.95703125 166.4765625 C103.79681519 167.88748169 103.79681519 167.88748169 104.65356445 169.3269043 C105.90762394 171.43360978 107.1631658 173.53943331 108.41992188 175.64453125 C111.94551266 181.5509643 115.45320442 187.46805259 118.9642334 193.38314819 C120.20135726 195.46700502 121.43898958 197.55055906 122.67675781 199.6340332 C128.316843 209.12891465 133.93708198 218.63515166 139.51953125 228.1640625 C141.2072364 228.02062282 142.89468611 227.87417681 144.58203125 227.7265625 C145.52175781 227.64535156 146.46148438 227.56414062 147.4296875 227.48046875 C149.55273949 227.26306393 151.66981989 226.98062318 153.77734375 226.64453125 C174.61717205 223.96885392 194.15942847 227.5915666 213.51953125 235.1640625 C212.10014178 230.45742838 210.12655906 226.22966296 207.80859375 221.9140625 C207.44470551 221.22803955 207.08081726 220.5420166 206.7059021 219.83520508 C205.52337039 217.60901226 204.33411546 215.38649355 203.14453125 213.1640625 C202.31742489 211.61082799 201.49060414 210.05744135 200.6640625 208.50390625 C195.87765869 199.51926141 191.03662575 190.56576976 186.13476562 181.64355469 C181.55195132 173.2791392 177.0982812 164.84763119 172.64453125 156.4140625 C165.58168463 143.04119063 158.45624787 129.70468219 151.26660156 116.39941406 C148.37231342 111.03956128 145.48583102 105.67550751 142.59875488 100.31176758 C141.09608272 97.52018447 139.59294588 94.72885161 138.08984375 91.9375 C137.23307292 90.34635417 136.37630208 88.75520833 135.51953125 87.1640625 C135.18953125 87.1640625 134.85953125 87.1640625 134.51953125 87.1640625 Z M-97.48046875 179.1640625 C-98.74741355 180.91773119 -99.96520186 182.70691379 -101.1640625 184.5078125 C-101.53528732 185.06403793 -101.90651215 185.62026337 -102.28898621 186.19334412 C-103.50243676 188.01442802 -104.71041549 189.83906377 -105.91796875 191.6640625 C-106.74719429 192.91221652 -107.57645866 194.16034474 -108.40576172 195.40844727 C-113.12809356 202.53015216 -117.77894838 209.68827153 -122.25317383 216.96923828 C-125.37999276 222.05386831 -128.69435327 226.99210843 -132.08203125 231.90625 C-133.6559878 234.00480685 -133.6559878 234.00480685 -133.48046875 236.1640625 C-132.82900879 236.40415039 -132.17754883 236.64423828 -131.50634766 236.89160156 C-105.53303209 246.52342938 -80.93586251 257.95344867 -56.9375 271.78125 C-56.21578613 272.19415283 -55.49407227 272.60705566 -54.75048828 273.0324707 C-53.41759021 273.79673852 -52.08870327 274.56807198 -50.76513672 275.34838867 C-46.71416566 277.67975267 -42.97863319 279.05248025 -38.48046875 280.1640625 C-42.5620021 271.6938142 -47.06663136 263.58960861 -51.91796875 255.5390625 C-53.34637399 253.15260499 -54.77111421 250.76397003 -56.1953125 248.375 C-56.5546286 247.7729071 -56.9139447 247.17081421 -57.28414917 246.55047607 C-60.91356622 240.45844128 -64.45179906 234.31491582 -67.98046875 228.1640625 C-73.93242646 217.79713442 -79.99136365 207.49838592 -86.11523438 197.23242188 C-89.67109568 191.26222192 -93.15554522 185.26624077 -96.48046875 179.1640625 C-96.81046875 179.1640625 -97.14046875 179.1640625 -97.48046875 179.1640625 Z M77.51953125 184.1640625 C76.16877218 186.14339262 74.95764218 188.10627239 73.765625 190.1796875 C73.39321182 190.81340271 73.02079865 191.44711792 72.63710022 192.10003662 C71.82892704 193.47692967 71.02409132 194.85578574 70.22216797 196.23632812 C68.07392139 199.93419758 65.90198842 203.61814971 63.734375 207.3046875 C63.29366669 208.05592896 62.85295837 208.80717041 62.39889526 209.58117676 C58.34397025 216.48658621 54.19427714 223.33048988 50.01953125 230.1640625 C43.64288241 240.62620305 37.34091811 251.13104605 31.08203125 261.6640625 C30.66453613 262.36563477 30.24704102 263.06720703 29.81689453 263.79003906 C28.63413644 265.77834877 27.45341073 267.76784912 26.2734375 269.7578125 C25.922173 270.34816284 25.57090851 270.93851318 25.20899963 271.54675293 C23.53726128 274.37238911 21.93693508 277.20175632 20.51953125 280.1640625 C27.08367521 278.23635712 32.83159624 275.60021195 38.76953125 272.2265625 C39.6294165 271.74711182 40.48930176 271.26766113 41.37524414 270.77368164 C45.85779038 268.2654211 50.31162223 265.71051133 54.75 263.125 C72.70964205 252.6769184 90.86608103 243.94731046 110.51953125 237.1640625 C106.26776999 229.22540227 101.80683874 221.42010752 97.24316406 213.65820312 C96.15068019 211.7995239 95.06148679 209.93894621 93.97265625 208.078125 C92.19254472 205.04037936 90.40134873 202.00943127 88.60119629 198.98352051 C87.86376229 197.74309011 87.12841424 196.50141782 86.39489746 195.25866699 C85.30599888 193.41779467 84.20720543 191.58321058 83.10546875 189.75 C82.46399902 188.67540527 81.8225293 187.60081055 81.16162109 186.49365234 C80.61973145 185.7248877 80.0778418 184.95612305 79.51953125 184.1640625 C78.85953125 184.1640625 78.19953125 184.1640625 77.51953125 184.1640625 Z " fill="#FFFFFF" transform="translate(675.48046875,442.8359375)"/>
<path d="M0 0 C3.40829937 1.61817175 5.79530758 3.47765964 8.5625 6.0625 C12.12296928 9.33018473 15.7393292 12.46479193 19.5 15.5 C24.83785742 19.81749665 29.94234697 24.35924678 35 29 C32.61652944 36.99269075 29.18064464 44.43428243 25.677948 51.98077393 C24.24010669 55.07949009 22.81338069 58.18327968 21.38615417 61.28689575 C20.65632877 62.8739245 19.92603155 64.46073636 19.19526672 66.04733276 C11.13551341 83.55267625 3.12750427 101.09052564 -4 119 C-3.30140869 118.54262451 -2.60281738 118.08524902 -1.88305664 117.61401367 C11.06499062 109.1382902 24.01704215 100.66964438 37.02001953 92.27832031 C40.51520302 90.02175055 44.00740369 87.76057111 47.5 85.5 C51.91358306 82.64378933 56.32749608 79.78809104 60.7421875 76.93359375 C61.51755859 76.43214844 62.29292969 75.93070312 63.09179688 75.4140625 C64.57996792 74.45165248 66.06824404 73.48940493 67.55664062 72.52734375 C68.22630859 72.09421875 68.89597656 71.66109375 69.5859375 71.21484375 C70.1742334 70.83448975 70.7625293 70.45413574 71.36865234 70.06225586 C72.9195674 69.05237388 74.4601001 68.02659993 76 67 C80.80833506 67.12865111 83.3738739 69.7918498 86.625 73 C87.68258929 74.00763479 88.74253402 75.0128025 89.8046875 76.015625 C90.33674805 76.51900391 90.86880859 77.02238281 91.41699219 77.54101562 C94.62288932 80.4957413 98.04784822 83.18440604 101.44140625 85.91796875 C105.04526763 88.85057656 108.53159795 91.90924631 112 95 C110.49993609 98.44779086 108.49590738 100.82360533 105.9375 103.5625 C102.68892508 107.10168226 99.57531784 110.69560168 96.5625 114.4375 C92.70291397 119.20996203 88.62800009 123.73109109 84.47265625 128.24609375 C81.25290481 131.83207284 78.24094824 135.56701492 75.21484375 139.31640625 C72.33519113 142.80550916 69.29306124 146.12996921 66.24609375 149.47265625 C63.93812402 152.06962393 61.74444137 154.73404013 59.5625 157.4375 C56.48663412 161.24087503 53.31246834 164.90082652 50 168.5 C45.85818487 173.00141458 41.9593002 177.64804638 38.1171875 182.40625 C35.16876275 186.01834231 32.10168208 189.51933426 29 193 C25.20535021 191.40553448 22.61551246 188.981158 19.625 186.1875 C15.82884226 182.67592704 12.0160549 179.25626073 8 176 C9.41919832 171.53966242 11.86616643 168.67150822 15.0625 165.375 C18.71762369 161.50427013 22.2250808 157.59139497 25.5625 153.4375 C28.59357567 149.67161811 31.72581577 146.05670244 35 142.5 C39.11378909 138.0301488 42.97087297 133.40955107 46.78515625 128.68359375 C48.95632827 126.05291443 51.20241357 123.52057576 53.5 121 C59.32615907 114.60144635 64.82458496 107.93538615 70 101 C41.82585171 118.31343279 41.82585171 118.31343279 13.75341797 135.79101562 C9.74344638 138.30202015 5.72643781 140.80166533 1.70996094 143.30224609 C-0.77437194 144.85864707 -3.24427366 146.43534226 -5.7109375 148.01953125 C-7.05699286 148.86766192 -8.40332223 149.71535795 -9.75 150.5625 C-10.63437744 151.14499512 -10.63437744 151.14499512 -11.53662109 151.73925781 C-13.171875 152.75390625 -13.171875 152.75390625 -16 154 C-18.99695735 152.87019613 -21.18661106 151.14025102 -23.56640625 149.03125 C-24.21673828 148.46019531 -24.86707031 147.88914062 -25.53710938 147.30078125 C-26.20548828 146.70652344 -26.87386719 146.11226562 -27.5625 145.5 C-28.89578705 144.32138959 -30.23037324 143.14424677 -31.56640625 141.96875 C-32.44727905 141.18661133 -32.44727905 141.18661133 -33.34594727 140.38867188 C-35.16073534 138.8132734 -35.16073534 138.8132734 -38 137 C-35.44961799 128.75195604 -32.05548886 120.90958362 -28.625 113 C-27.9812801 111.50823321 -27.33798172 110.01628448 -26.69506836 108.52416992 C-25.64597672 106.08971931 -24.59650893 103.65543543 -23.54570007 101.22172546 C-19.00839523 90.71255971 -14.50538851 80.1886932 -9.9989624 69.66625977 C-7.68903996 64.27320184 -5.37767952 58.88076036 -3.06640625 53.48828125 C-2.27416291 51.63973282 -1.48192584 49.79118171 -0.68969727 47.94262695 C-0.12646484 46.62841797 0.43676758 45.31420898 1 44 C0.67 43.67 0.34 43.34 0 43 C-0.72703125 43.84820312 -1.4540625 44.69640625 -2.203125 45.5703125 C-6.484375 50.56510417 -10.765625 55.55989583 -15.046875 60.5546875 C-15.53502686 61.12421143 -16.02317871 61.69373535 -16.52612305 62.28051758 C-17.51711773 63.43665068 -18.5081668 64.59273715 -19.49926758 65.7487793 C-21.98905327 68.65305795 -24.47792538 71.55810928 -26.96484375 74.46484375 C-32.65937824 81.11845773 -38.36801731 87.75925718 -44.12231445 94.36132812 C-46.91102654 97.56572013 -49.66892108 100.79047898 -52.3828125 104.05859375 C-52.92744141 104.70957031 -53.47207031 105.36054688 -54.03320312 106.03125 C-55.07304122 107.27650397 -56.10593606 108.52759794 -57.13085938 109.78515625 C-58.35613081 111.24664507 -59.6716178 112.63155548 -61 114 C-64.40915829 114 -64.74735245 113.6694595 -67.1796875 111.515625 C-68.07880859 110.73058594 -68.07880859 110.73058594 -68.99609375 109.9296875 C-69.61613281 109.37539062 -70.23617187 108.82109375 -70.875 108.25 C-72.10094277 107.17117036 -73.32749443 106.09303219 -74.5546875 105.015625 C-75.13831055 104.50064453 -75.72193359 103.98566406 -76.32324219 103.45507812 C-78.49636181 101.56926086 -80.73511129 99.7740193 -83 98 C-81.73063053 95.26637247 -80.37591334 93.07719578 -78.3828125 90.8203125 C-77.86460937 90.22863281 -77.34640625 89.63695312 -76.8125 89.02734375 C-75.9771875 88.08568359 -75.9771875 88.08568359 -75.125 87.125 C-73.93971682 85.77377718 -72.75482956 84.42220697 -71.5703125 83.0703125 C-70.6716748 82.0479248 -70.6716748 82.0479248 -69.75488281 81.00488281 C-67.14563694 78.02392467 -64.57210914 75.01299293 -62 72 C-57.30839911 66.51484125 -52.58695696 61.05623307 -47.85546875 55.60546875 C-44.22167405 51.41663142 -40.60493818 47.21368764 -37 43 C-32.85140148 38.15084658 -28.68328351 33.31926196 -24.5 28.5 C-18.77646438 21.90588313 -13.08646702 15.28364111 -7.41064453 8.6484375 C-4.94230958 5.76401424 -2.47105782 2.88209061 0 0 Z " fill="#FFFFFF" transform="translate(1016,129)"/>
<path d="M0 0 C25.29320988 0 25.29320988 0 35.375 0.5 C37.27032856 0.58954242 39.16567489 0.67870924 41.06103516 0.76757812 C41.99323883 0.81144653 42.9254425 0.85531494 43.88589478 0.9005127 C44.93237686 0.94975891 44.93237686 0.94975891 46 1 C51.36888542 18.99391997 56.34893749 37.08236192 61.21850586 55.21630859 C62.24775256 59.04823976 63.28407228 62.87822238 64.3219595 66.70782089 C65.12919209 69.69056195 65.93189247 72.67450851 66.73329353 75.65882111 C67.11403868 77.07382776 67.49639399 78.48840223 67.88043022 79.90251923 C68.41128532 81.85918556 68.93517805 83.81773682 69.45874023 85.77636719 C69.90672218 87.43983185 69.90672218 87.43983185 70.36375427 89.13690186 C71 92 71 92 71 96 C71.66 96 72.32 96 73 96 C73.0912616 95.44666489 73.18252319 94.89332977 73.27655029 94.32322693 C74.69614511 86.48291271 77.09664073 79.03057629 79.578125 71.47265625 C80.03223129 70.07531626 80.48581334 68.67780581 80.93890381 67.28013611 C82.12849975 63.61491575 83.32464608 59.95186795 84.5223999 56.28930664 C85.95789141 51.89601143 87.38601336 47.50031687 88.8148613 43.10485744 C89.93109799 39.67136673 91.04840366 36.23824112 92.16973877 32.80641174 C95.51329081 22.55700222 98.75301694 12.28211302 102 2 C116.85 2.33 131.7 2.66 147 3 C147.10011511 27.28792631 146.78832498 51.53391041 146.20043945 75.8137207 C146.0829139 80.67016649 145.97271015 85.52674877 145.86443424 90.38340855 C145.77892856 94.18312954 145.68965316 97.98275484 145.59924126 101.78236198 C145.55702602 103.57514704 145.51595757 105.36795952 145.4761219 107.16079903 C145.42029216 109.64840541 145.35935451 112.1358377 145.29711914 114.62329102 C145.28201294 115.34168152 145.26690674 116.06007202 145.25134277 116.80023193 C145.11475653 121.9540484 144.57462667 126.82835998 144 132 C135.09 131.67 126.18 131.34 117 131 C116.89071414 113.84211958 117.16472776 96.72475173 117.64428711 79.57495117 C118.05187523 64.3819189 118.0520443 49.19733682 118 34 C117.63081955 35.0994545 117.2616391 36.198909 116.88127136 37.3316803 C113.39750761 47.70540373 109.91068818 58.07809566 106.42089367 68.44979191 C104.62696389 73.78168837 102.83410326 79.11393931 101.04370117 84.44702148 C99.31503165 89.59608915 97.58353397 94.74419782 95.85009193 99.89166069 C95.1900637 101.8532483 94.53104601 103.81517625 93.87306786 105.77745247 C92.94956582 108.53101634 92.02244084 111.28333567 91.09448242 114.03540039 C90.82474609 114.84244919 90.55500977 115.64949799 90.27709961 116.48100281 C90.02055099 117.23948517 89.76400238 117.99796753 89.49967957 118.7794342 C89.28121463 119.42929826 89.06274969 120.07916231 88.8376646 120.74871922 C87.67342203 123.87770057 86.31512334 126.93137886 85 130 C75.76 130 66.52 130 57 130 C51.23361303 112.26446385 46.00802225 94.40608253 40.88653564 76.47717285 C39.60782703 72.00310272 38.32512343 67.53017658 37.04253769 63.05721664 C36.04613775 59.58231271 35.05042603 56.10721841 34.05718994 52.63140869 C32.08511211 45.73963374 30.08482455 38.85857479 28 32 C27.27624361 44.63781504 26.76805225 57.26347349 26.46484375 69.91796875 C26.42165974 71.6395982 26.37824368 73.36122185 26.33460999 75.08283997 C26.22218315 79.54265978 26.11283757 84.00254959 26.00421143 88.46246338 C25.89209814 93.04208089 25.77696344 97.62162243 25.66210938 102.20117188 C25.43850725 111.13404414 25.21817155 120.06699356 25 129 C22.20826484 129.02736995 19.41680696 129.04701454 16.625 129.0625 C15.85027344 129.07087891 15.07554687 129.07925781 14.27734375 129.08789062 C8.38291963 129.11224775 2.93790267 128.59379027 -3 128 C-2.01 85.76 -1.02 43.52 0 0 Z " fill="#FFFFFF" transform="translate(622,29)"/>
<path d="M0 0 C2.78321921 1.20787539 3.67082213 3.10963998 5.26074219 5.66625977 C5.95683594 6.75551758 6.65292969 7.84477539 7.37011719 8.96704102 C7.75748047 9.57628418 8.14484375 10.18552734 8.54394531 10.81323242 C10.95716072 14.54450556 13.4923589 18.19303633 16.01074219 21.85375977 C17.13984005 23.50076384 18.26874356 25.14790117 19.39746094 26.79516602 C20.24896729 28.0367749 20.24896729 28.0367749 21.11767578 29.3034668 C23.85580397 33.29738696 26.58935624 37.29443513 29.32324219 41.29125977 C30.40655216 42.87460908 31.48988553 44.45794239 32.57324219 46.04125977 C34.73990885 49.20792643 36.90657552 52.3745931 39.07324219 55.54125977 C39.87797974 56.71736816 39.87797974 56.71736816 40.69897461 57.91723633 C41.77998329 59.49723458 42.86087562 61.07731244 43.94165039 62.6574707 C46.68459214 66.66749858 49.42967458 70.67603207 52.17871094 74.68188477 C58.80091515 84.33673227 65.35930304 94.02969026 71.82324219 103.79125977 C70.31139197 108.47908309 66.45105252 110.34833842 62.51074219 112.85375977 C61.51397461 113.50441406 61.51397461 113.50441406 60.49707031 114.16821289 C56.98320324 116.45170514 53.43302335 118.66169835 49.82324219 120.79125977 C43.24446159 111.93892999 36.87533412 103.01503623 30.82324219 93.79125977 C28.66093532 90.53834944 26.49188738 87.28994671 24.32324219 84.04125977 C23.27105044 82.46320705 22.21895822 80.88508796 21.16699219 79.30688477 C20.48926758 78.29029785 20.48926758 78.29029785 19.79785156 77.25317383 C19.47623047 76.77074219 19.15460938 76.28831055 18.82324219 75.79125977 C12.33187157 79.2136304 6.34695756 83.08334021 0.38574219 87.35375977 C-9.01657384 94.01714025 -18.55663851 100.44755791 -28.17675781 106.79125977 C-23.81563072 113.93957335 -19.11221529 120.81564431 -14.30175781 127.66625977 C-13.69630127 128.53089844 -13.09084473 129.39553711 -12.46704102 130.28637695 C-9.75210938 134.15620294 -7.02479918 138.01379365 -4.23535156 141.83032227 C-3.80786621 142.42345215 -3.38038086 143.01658203 -2.93994141 143.62768555 C-1.82079421 145.17828925 -0.68871999 146.71954017 0.44433594 148.26000977 C1.82324219 150.79125977 1.82324219 150.79125977 1.66650391 152.74511719 C-0.08202307 156.98785159 -4.80333295 159.12757434 -8.48925781 161.60375977 C-9.35744141 162.21413086 -10.225625 162.82450195 -11.12011719 163.45336914 C-11.95994141 164.02506836 -12.79976563 164.59676758 -13.66503906 165.18579102 C-14.43372314 165.71019775 -15.20240723 166.23460449 -15.99438477 166.77490234 C-18.17675781 167.79125977 -18.17675781 167.79125977 -20.32617188 167.62353516 C-23.46345655 166.21258483 -24.85983567 163.2431681 -26.61425781 160.41625977 C-27.50082157 159.03771744 -28.38891637 157.66015888 -29.27832031 156.28344727 C-29.98263184 155.18468262 -29.98263184 155.18468262 -30.70117188 154.0637207 C-33.22648569 150.17463715 -35.86070717 146.36098936 -38.48925781 142.54125977 C-39.60267535 140.91765531 -40.71595535 139.29395651 -41.82910156 137.67016602 C-42.38452637 136.8607959 -42.93995117 136.05142578 -43.51220703 135.2175293 C-46.19520437 131.30675964 -48.87362389 127.3928609 -51.55175781 123.47875977 C-52.08260986 122.70306641 -52.61346191 121.92737305 -53.16040039 121.12817383 C-57.97209045 114.09509525 -62.77209819 107.05407337 -67.57055664 100.01196289 C-70.64445125 95.50172478 -73.72120675 90.99350114 -76.80566406 86.49047852 C-77.38445312 85.64549805 -77.96324219 84.80051758 -78.55957031 83.92993164 C-79.63588144 82.35926831 -80.71266139 80.78892608 -81.79003906 79.21899414 C-85.29499546 74.10452487 -88.74854425 68.95746614 -92.17675781 63.79125977 C-90.7625339 60.36759209 -89.21636076 58.81503666 -86.14941406 56.77563477 C-85.35728516 56.24711914 -84.56515625 55.71860352 -83.74902344 55.17407227 C-82.92080078 54.63524414 -82.09257812 54.09641602 -81.23925781 53.54125977 C-80.00272461 52.70981445 -80.00272461 52.70981445 -78.74121094 51.86157227 C-72.57057709 47.79125977 -72.57057709 47.79125977 -69.17675781 47.79125977 C-67.41503906 49.77563477 -67.41503906 49.77563477 -65.48925781 52.54125977 C-64.78027344 53.55317383 -64.07128906 54.56508789 -63.34082031 55.60766602 C-60.67035913 59.53623256 -58.02409306 63.47912912 -55.40722656 67.44360352 C-51.09155843 73.95612079 -46.61514987 80.36211834 -42.17675781 86.79125977 C-39.48790361 85.49742241 -36.99605603 84.08649504 -34.51660156 82.42797852 C-33.46303467 81.72499634 -33.46303467 81.72499634 -32.38818359 81.0078125 C-31.63778809 80.5032251 -30.88739258 79.9986377 -30.11425781 79.47875977 C-29.3329248 78.95548096 -28.5515918 78.43220215 -27.74658203 77.89306641 C-21.74617241 73.86595786 -15.76887285 69.80500581 -9.80175781 65.72875977 C-8.99988037 65.1811499 -8.19800293 64.63354004 -7.37182617 64.06933594 C-6.61909424 63.55346924 -5.8663623 63.03760254 -5.09082031 62.50610352 C-4.43033691 62.05356201 -3.76985352 61.60102051 -3.08935547 61.13476562 C-1.71634923 60.17029622 -0.37520577 59.15985981 0.94287109 58.12158203 C2.82324219 56.79125977 2.82324219 56.79125977 4.82324219 56.79125977 C-0.02634457 48.8461921 -4.91781706 40.96933275 -10.36425781 33.41625977 C-10.77571045 32.84456055 -11.18716309 32.27286133 -11.61108398 31.68383789 C-13.51575668 29.05040431 -15.44327806 26.43652507 -17.39550781 23.83813477 C-18.04519531 22.95641602 -18.69488281 22.07469727 -19.36425781 21.16625977 C-19.9353125 20.41086914 -20.50636719 19.65547852 -21.09472656 18.87719727 C-22.17675781 16.79125977 -22.17675781 16.79125977 -22.00146484 14.86523438 C-20.30290406 10.5936909 -15.55254242 8.45653045 -11.86425781 5.97875977 C-10.99607422 5.36838867 -10.12789063 4.75801758 -9.23339844 4.12915039 C-8.39357422 3.55745117 -7.55375 2.98575195 -6.68847656 2.39672852 C-5.91979248 1.87232178 -5.1511084 1.34791504 -4.35913086 0.80761719 C-2.17675781 -0.20874023 -2.17675781 -0.20874023 0 0 Z " fill="#FFFFFF" transform="translate(373.1767578125,105.208740234375)"/>
<path d="M0 0 C1.8125 2.25 1.8125 2.25 3 4 C1.42458807 7.57819624 -0.75686314 10.31479973 -3.25 13.3125 C-4.44689453 14.75496094 -4.44689453 14.75496094 -5.66796875 16.2265625 C-8.4236828 19.50387737 -11.19564626 22.76420722 -14 26 C-16.88756268 24.68804217 -18.9617963 23.24517975 -21.25 21.0625 C-26.70568448 16.31489372 -32.47015953 14.35766122 -39.7109375 14.65625 C-47.4762744 15.82237568 -53.8198576 20.26367389 -59 26 C-65.11616982 34.43516104 -67.97305722 42.56317657 -67 53 C-65.06877871 63.97284825 -58.8519026 75.15108266 -50 82 C-37.77677412 90.48659206 -26.98976135 95.03427172 -12 93 C-0.78051894 89.86551083 6.19150466 83.98200681 12 74 C16.06392094 64.53177719 15.7474975 57.0901179 12.16796875 47.61328125 C11.05205354 44.92818647 11.05205354 44.92818647 9.30078125 42.41796875 C8 40 8 40 8.24145508 38.06958008 C9.10598161 35.7108445 10.16467794 34.33824195 11.8359375 32.46875 C12.69058594 31.50001953 12.69058594 31.50001953 13.5625 30.51171875 C14.160625 29.84785156 14.75875 29.18398438 15.375 28.5 C16.55060618 27.17808475 17.72511951 25.85519665 18.8984375 24.53125 C19.42099121 23.94923828 19.94354492 23.36722656 20.48193359 22.76757812 C22.08050211 20.90626644 23.54844752 18.97736719 25 17 C31.43641485 19.48423029 34.39018306 26.70606688 37.26953125 32.59765625 C43.23421954 46.69397951 43.86223625 61.64664871 38.20166016 76.02832031 C34.34643747 84.90055636 29.66996582 92.93344162 23 100 C22.21238281 100.84046875 21.42476563 101.6809375 20.61328125 102.546875 C8.54251258 114.45525664 -6.90430951 120.8070251 -23.8125 121.4375 C-41.64005093 120.96262628 -57.79333986 113.91143603 -71 102 C-71.68449219 101.40832031 -72.36898437 100.81664062 -73.07421875 100.20703125 C-85.7468518 88.53028292 -93.30913389 72.23944668 -94.09155273 55.05126953 C-94.36865409 36.13967443 -86.95024813 19.66597859 -74 6 C-73.32582031 5.28457031 -72.65164062 4.56914062 -71.95703125 3.83203125 C-51.7096284 -15.80756964 -21.72897884 -18.79263035 0 0 Z " fill="#FFFFFF" transform="translate(267,243)"/>
<path d="M0 0 C1.96044922 2.3449707 1.96044922 2.3449707 3.8046875 5.42578125 C4.80242187 7.08577148 4.80242187 7.08577148 5.8203125 8.77929688 C6.15708008 9.35929443 6.49384766 9.93929199 6.84082031 10.53686523 C7.87261457 12.30840433 8.9338084 14.05954357 10 15.81054688 C15.05705599 24.35300519 15.05705599 24.35300519 14.80664062 27.19262695 C13.50983624 30.09826946 11.59405475 32.3841768 9.625 34.875 C9.17801758 35.44452393 8.73103516 36.01404785 8.27050781 36.60083008 C6.85271512 38.40513654 5.42644145 40.20252735 4 42 C3.12679142 43.11003822 2.25437826 44.22070268 1.3828125 45.33203125 C-0.41417214 47.62306919 -2.21408691 49.91176006 -4.015625 52.19921875 C-7.36088642 56.45283346 -10.68043322 60.72632243 -14 65 C-20.40728502 73.24687153 -26.85244683 81.46318155 -33.31347656 89.66796875 C-38.29349897 95.99344503 -43.26108355 102.32812917 -48.20092773 108.68505859 C-49.39368686 110.21983156 -50.58720077 111.75401826 -51.78149414 113.28759766 C-54.62180466 116.93510471 -57.45391322 120.58820327 -60.265625 124.2578125 C-61.26036526 125.54691467 -62.25515416 126.83597931 -63.25 128.125 C-63.70375 128.723125 -64.1575 129.32125 -64.625 129.9375 C-65.70354199 131.32895232 -66.84585006 132.67059025 -68 134 C-68.66 134 -69.32 134 -70 134 C-72.49917135 130.59640305 -74.54473851 126.88565045 -76.6875 123.25 C-77.30689453 122.23421875 -77.92628906 121.2184375 -78.56445312 120.171875 C-79.14517578 119.1921875 -79.72589844 118.2125 -80.32421875 117.203125 C-80.86135498 116.30239258 -81.39849121 115.40166016 -81.9519043 114.47363281 C-83.13114258 111.69048763 -83.103576 110.75194603 -82 108 C-81.65839844 107.2059375 -81.31679687 106.411875 -80.96484375 105.59375 C-77.70158626 96.82126833 -80.40472751 88.08761877 -84.09619141 79.9296875 C-85.50893206 76.91339844 -86.966425 73.91917716 -88.42041016 70.92260742 C-88.8179248 70.10252197 -89.21543945 69.28243652 -89.625 68.4375 C-90.01993652 67.62321533 -90.41487305 66.80893066 -90.82177734 65.9699707 C-94.50026776 58.23764964 -97.23283125 50.66132233 -97 42 C-97.57967529 42.12117188 -98.15935059 42.24234375 -98.7565918 42.3671875 C-101.39919401 42.91657407 -104.04330146 43.45835103 -106.6875 44 C-107.59951172 44.19078125 -108.51152344 44.3815625 -109.45117188 44.578125 C-110.33740234 44.75859375 -111.22363281 44.9390625 -112.13671875 45.125 C-113.35427856 45.37636719 -113.35427856 45.37636719 -114.59643555 45.6328125 C-117.14978821 46.02288283 -119.42372782 46.23341882 -122 46 C-124.02734375 43.5078125 -124.02734375 43.5078125 -125.9375 40.125 C-126.44410156 39.24557739 -126.44410156 39.24557739 -126.9609375 38.34838867 C-127.65118583 37.14973338 -128.33463577 35.94713754 -129.01123047 34.74072266 C-130.44101963 32.22358767 -131.97592904 29.77335216 -133.5 27.3125 C-136 23.25 -136 23.25 -136 21 C-108.81648765 16.19178597 -81.6112339 11.52468564 -54.37768555 7.00830078 C-50.27071933 6.32674214 -46.16469762 5.63982929 -42.05932617 4.94873047 C-36.99597172 4.09639539 -31.93125467 3.25267408 -26.86540794 2.4152832 C-24.96272005 2.09931786 -23.06052705 1.78035628 -21.15886879 1.45825195 C-18.53600547 1.0146289 -15.91153726 0.5821333 -13.28637695 0.15234375 C-12.13122841 -0.04694481 -12.13122841 -0.04694481 -10.95274353 -0.2502594 C-7.06373171 -0.87446407 -3.77089528 -1.28749408 0 0 Z M-27.56298828 28.87036133 C-28.67739288 29.06088577 -29.79179749 29.25141022 -30.93997192 29.44770813 C-32.73699051 29.76169807 -32.73699051 29.76169807 -34.5703125 30.08203125 C-36.41917557 30.40429939 -36.41917557 30.40429939 -38.3053894 30.733078 C-40.90986913 31.18922743 -43.51395327 31.64725223 -46.11767578 32.10766602 C-49.45606815 32.69707576 -52.79689424 33.27126091 -56.13850594 33.84209156 C-59.32605823 34.39016931 -62.51044437 34.95609829 -65.6953125 35.51953125 C-66.89737335 35.72278519 -68.0994342 35.92603912 -69.33792114 36.13545227 C-70.44602142 36.3354332 -71.5541217 36.53541412 -72.69580078 36.74145508 C-73.67412872 36.91244217 -74.65245667 37.08342926 -75.66043091 37.25959778 C-78.34605385 37.84101261 -78.34605385 37.84101261 -80 41 C-81.27474313 49.55898959 -76.31958679 57.25201408 -72.734375 64.75390625 C-72.33597412 65.58825195 -71.93757324 66.42259766 -71.52709961 67.28222656 C-70.73266029 68.93721533 -69.93164428 70.58906724 -69.12329102 72.23730469 C-66.9269357 76.77458076 -65.22176892 81.1063908 -64 86 C-60.32355052 82.46141738 -57.10648665 78.73838175 -54 74.6875 C-49.83542342 69.32081468 -45.60608514 64.01407011 -41.3125 58.75 C-37.15477716 53.650312 -33.01521936 48.53838505 -28.921875 43.38671875 C-27.47012499 41.58383409 -25.99770771 39.79756444 -24.515625 38.01953125 C-23.27039062 36.52486328 -23.27039062 36.52486328 -22 35 C-21.236875 34.0925 -20.47375 33.185 -19.6875 32.25 C-17.8 30.20208333 -17.8 30.20208333 -18 28 C-21.39627267 28 -24.23902851 28.29845632 -27.56298828 28.87036133 Z " fill="#FFFFFF" transform="translate(1193,319)"/>
<path d="M0 0 C1.16976379 -0.0013797 2.33952759 -0.0027594 3.54473877 -0.00418091 C5.52047882 0.00344772 5.52047882 0.00344772 7.53613281 0.01123047 C8.22329124 0.01269199 8.91044968 0.01415352 9.61843109 0.01565933 C30.44301541 0.06274945 51.2652948 0.47197284 72.08544922 0.87304688 C77.91097493 0.984752 83.7366468 1.0844978 89.56242752 1.18185234 C94.08688208 1.25954001 98.61114554 1.34572504 103.13539886 1.43429947 C105.28675325 1.47495029 107.4381705 1.51240766 109.58963776 1.54656601 C112.56717355 1.59462321 115.54423458 1.65468068 118.52148438 1.71777344 C119.84113945 1.73503983 119.84113945 1.73503983 121.18745422 1.75265503 C122.40107887 1.78202148 122.40107887 1.78202148 123.63922119 1.8119812 C124.68856024 1.83133885 124.68856024 1.83133885 125.75909805 1.85108757 C128.06693643 2.17431085 129.71889527 2.99270022 131.73925781 4.12841797 C130.34346839 8.09093398 128.86260153 12.01615197 127.36425781 15.94091797 C126.97109375 17.06046875 126.57792969 18.18001953 126.17285156 19.33349609 C123.01461833 27.42343198 123.01461833 27.42343198 119.30126953 29.47607422 C116.64550781 30.24169922 116.64550781 30.24169922 114.13183594 30.66870117 C108.6585132 31.72036104 105.08098644 35.32000113 101.85253906 39.67138672 C98.61805307 44.7429033 95.80598436 49.95872651 93.10644531 55.32763672 C83.73768832 73.90741647 83.73768832 73.90741647 75.73925781 80.12841797 C79.49752868 84.73229979 83.36589752 88.71658719 87.90722656 92.55029297 C89.60116732 94.00946582 91.18090265 95.52664115 92.73925781 97.12841797 C90.32575788 106.48360343 86.49669315 115.25469397 82.73925781 124.12841797 C79.86508692 122.81621137 77.71529713 121.38584168 75.41894531 119.22216797 C74.80607666 118.64797119 74.19320801 118.07377441 73.56176758 117.48217773 C72.91908936 116.87043701 72.27641113 116.25869629 71.61425781 115.62841797 C70.94773193 115.00056396 70.28120605 114.37270996 69.59448242 113.72583008 C64.94437584 109.32711094 60.41151774 104.8283016 55.91503906 100.27294922 C53.99758979 98.38303961 52.041017 96.61917365 49.98925781 94.87841797 C46.02948479 91.49812393 42.39857679 87.82619537 38.73925781 84.12841797 C33.39460912 78.71346529 33.39460912 78.71346529 27.73925781 73.62841797 C23.18066832 69.77719581 19.0682361 65.48178666 14.87426758 61.24389648 C11.32728878 57.6740616 7.71398518 54.28634108 3.86816406 51.03857422 C0.25287253 47.79476218 -3.12383821 44.30535923 -6.51879883 40.83325195 C-9.93753083 37.36004652 -13.46883 34.19155424 -17.26074219 31.12841797 C-16.60766455 27.25786818 -15.47167026 23.84614938 -14.01074219 20.20654297 C-13.56730469 19.09923828 -13.12386719 17.99193359 -12.66699219 16.85107422 C-12.20292969 15.70509766 -11.73886719 14.55912109 -11.26074219 13.37841797 C-10.79667969 12.21697266 -10.33261719 11.05552734 -9.85449219 9.85888672 C-5.88866094 0.00195149 -5.88866094 0.00195149 0 0 Z M15.73925781 25.12841797 C19.45226262 29.67684886 23.26565496 33.57875178 27.73535156 37.37841797 C29.65892495 39.05826373 31.45239277 40.80492016 33.23925781 42.62841797 C35.64991261 45.08290285 38.13278173 47.38283857 40.73925781 49.62841797 C43.3457339 51.87399737 45.82860302 54.17393309 48.23925781 56.62841797 C54.69828956 63.56890701 54.69828956 63.56890701 62.73925781 68.12841797 C71.40399076 63.75684456 75.48476455 53.28086207 79.73925781 45.12841797 C80.86219122 43.01722648 81.98996122 40.90867204 83.11816406 38.80029297 C83.80821401 37.50676762 84.49459751 36.21127761 85.17675781 34.91357422 C86.59544065 32.21867042 88.04740199 29.6662017 89.73925781 27.12841797 C82.45344734 26.86426699 75.16752992 26.60329153 67.88146973 26.34611511 C64.49644501 26.22653928 61.11146272 26.1059636 57.7265625 25.98291016 C36.73847523 25.20150719 36.73847523 25.20150719 15.73925781 25.12841797 Z " fill="#FFFFFF" transform="translate(119.2607421875,390.87158203125)"/>
<path d="M0 0 C1.31176758 1.38842773 1.31176758 1.38842773 2.64453125 3.18359375 C3.4015332 4.1900293 3.4015332 4.1900293 4.17382812 5.21679688 C4.71458984 5.94962891 5.25535156 6.68246094 5.8125 7.4375 C6.98485502 8.99931533 8.15806 10.56049293 9.33203125 12.12109375 C10.24009521 13.33321533 10.24009521 13.33321533 11.16650391 14.56982422 C14.06702132 18.41426502 17.03365088 22.2062764 20 26 C24.53127327 31.8098224 29.03240199 37.64107791 33.5 43.5 C38.61768582 50.21105295 43.78436313 56.88245474 48.97167969 63.53979492 C53.21265263 68.98356481 57.43201042 74.44315292 61.6328125 79.91796875 C63.26943742 82.04882198 64.90942274 84.1766336 66.5546875 86.30078125 C71.82661604 93.1145943 76.9775567 99.99944356 82 107 C79.52328855 109.47671145 77.7050421 109.80771579 74.3359375 110.7265625 C73.21445312 111.0359375 72.09296875 111.3453125 70.9375 111.6640625 C69.761875 111.98117188 68.58625 112.29828125 67.375 112.625 C66.19164062 112.94984375 65.00828125 113.2746875 63.7890625 113.609375 C60.86095621 114.41224285 57.93128658 115.20883721 55 116 C54.67 115.01 54.34 114.02 54 113 C52.35369807 111.88064927 52.35369807 111.88064927 50 111 C48.845 110.46375 47.69 109.9275 46.5 109.375 C37.19643106 105.98390956 27.25451508 108.3175363 17.9375 110.5 C6.98891163 112.90053667 -2.80636327 113.44069436 -14 113 C-14.66 120.92 -15.32 128.84 -16 137 C-20.29063831 138.33672181 -24.58242448 139.66952633 -28.875 141 C-30.09832031 141.3815625 -31.32164062 141.763125 -32.58203125 142.15625 C-33.74863281 142.5171875 -34.91523438 142.878125 -36.1171875 143.25 C-37.19597168 143.58515625 -38.27475586 143.9203125 -39.38623047 144.265625 C-42 145 -42 145 -44 145 C-43.32204238 129.40667578 -42.05266762 113.88086455 -40.71484375 98.33203125 C-40.49180378 95.71362032 -40.26903532 93.09518626 -40.04652405 90.47673035 C-39.52484797 84.34310695 -39.00009122 78.20975142 -38.47415501 72.07649201 C-37.87435363 65.08002062 -37.27809702 58.08324847 -36.68210018 51.08645213 C-35.45860595 36.72396978 -34.23078345 22.36185952 -33 8 C-28.78583026 6.68879825 -24.56834777 5.38906097 -20.34741211 4.09985352 C-18.91187485 3.65963507 -17.47729165 3.21629287 -16.04370117 2.76977539 C-13.98338528 2.12864559 -11.91990414 1.4988127 -9.85546875 0.87109375 C-8.61434326 0.48880615 -7.37321777 0.10651855 -6.09448242 -0.28735352 C-3 -1 -3 -1 0 0 Z M-9 31 C-9.57439692 38.52528073 -10.14349187 46.05094924 -10.70898438 53.5769043 C-10.90178704 56.13461281 -11.09578228 58.69223173 -11.29101562 61.24975586 C-11.57218522 64.93580315 -11.84899815 68.62215634 -12.125 72.30859375 C-12.21249512 73.44332626 -12.29999023 74.57805878 -12.39013672 75.74717712 C-12.84267162 81.85255694 -13.09032105 87.87792649 -13 94 C-6.29384391 96.74370702 -1.5969259 97.24230481 5.5 95.8125 C6.29019531 95.67263672 7.08039062 95.53277344 7.89453125 95.38867188 C12.59745703 94.53814274 17.25453763 93.50570778 21.91552734 92.45288086 C24.78323926 91.82983031 27.66557031 91.34117259 30.5625 90.875 C31.59503906 90.70742187 32.62757813 90.53984375 33.69140625 90.3671875 C34.83416016 90.18542969 34.83416016 90.18542969 36 90 C32.09886777 83.97433224 27.96159422 78.2454084 23.5 72.625 C18.4692364 66.2260681 13.5576742 59.75567511 8.75 53.1875 C4.60458476 47.52982618 0.44686322 41.88514083 -3.8125 36.3125 C-4.60269531 35.27738281 -5.39289063 34.24226563 -6.20703125 33.17578125 C-6.79871094 32.45777344 -7.39039063 31.73976562 -8 31 C-8.33 31 -8.66 31 -9 31 Z " fill="#FFFFFF" transform="translate(512,53)"/>
<path d="M0 0 C7.06905306 0.07211464 13.50557202 3.40416479 19.9375 6.0625 C21.09830078 6.53494141 22.25910156 7.00738281 23.45507812 7.49414062 C26.30633351 8.65576319 29.15442386 9.8245496 32 11 C31.89211267 26.05718689 31.77924431 41.11433096 31.66066074 56.17143726 C31.60569633 63.1648135 31.55228064 70.15819478 31.50268555 77.15161133 C31.45472147 83.91439332 31.40221055 90.67712843 31.34705925 97.43985558 C31.32685029 100.0058957 31.30810526 102.57194783 31.29092598 105.13801003 C31.19404812 119.45348564 30.93181227 133.71246296 30 148 C26.34376638 147.3100199 23.14024672 146.36232466 19.69921875 144.93359375 C18.37796997 144.38916626 18.37796997 144.38916626 17.0300293 143.83374023 C15.37547729 143.14260132 15.37547729 143.14260132 13.6875 142.4375 C10.160625 140.973125 6.63375 139.50875 3 138 C3.33 129.75 3.66 121.5 4 113 C1.9375 113.165 -0.125 113.33 -2.25 113.5 C-14.25561462 113.91988719 -25.81646393 109.41520162 -37.1159668 105.84790039 C-45.85747516 103.27791321 -52.83238957 102.96780456 -61.15234375 106.9296875 C-63.15626215 107.98464808 -63.15626215 107.98464808 -65 110 C-68.51295922 109.60720778 -71.60326547 108.47738242 -74.86328125 107.15234375 C-76.19262695 106.61577148 -76.19262695 106.61577148 -77.54882812 106.06835938 C-78.46083984 105.69517578 -79.37285156 105.32199219 -80.3125 104.9375 C-81.24384766 104.56044922 -82.17519531 104.18339844 -83.13476562 103.79492188 C-85.42478917 102.86716875 -87.71309996 101.93541999 -90 101 C-90 96.50113379 -90 96.50113379 -87.4296875 93.85546875 C-86.87023437 93.26894531 -86.31078125 92.68242187 -85.734375 92.078125 C-85.12078125 91.45421875 -84.5071875 90.8303125 -83.875 90.1875 C-82.58046896 88.83748905 -81.2862054 87.48722156 -79.9921875 86.13671875 C-79.32670898 85.44884277 -78.66123047 84.7609668 -77.97558594 84.05224609 C-74.94500899 80.90407138 -71.97393665 77.70156401 -69 74.5 C-67.83365867 73.24969644 -66.66699083 71.99969737 -65.5 70.75 C-64.9225 70.13125 -64.345 69.5125 -63.75 68.875 C-57.33333333 62 -50.91666667 55.125 -44.5 48.25 C-43.92258057 47.63133057 -43.34516113 47.01266113 -42.75024414 46.37524414 C-41.58278686 45.12440869 -40.41530637 43.87359491 -39.24780273 42.62280273 C-36.34304226 39.51076179 -33.43867748 36.39835348 -30.53515625 33.28515625 C-29.9620874 32.6708374 -29.38901855 32.05651855 -28.79858398 31.42358398 C-27.64558827 30.18757129 -26.49275497 28.95140707 -25.34008789 27.71508789 C-22.22184251 24.37264063 -19.09603768 21.03758556 -15.9609375 17.7109375 C-15.28925537 16.99736084 -14.61757324 16.28378418 -13.92553711 15.54858398 C-12.63874081 14.18214317 -11.35058026 12.81698527 -10.06079102 11.45336914 C-9.47225342 10.82809326 -8.88371582 10.20281738 -8.27734375 9.55859375 C-7.43018799 8.66696533 -7.43018799 8.66696533 -6.56591797 7.75732422 C-5.06249907 6.0701385 -3.80731346 4.31503851 -2.50390625 2.47265625 C-1.67761719 1.65667969 -0.85132813 0.84070313 0 0 Z M3.6171875 33.25 C-0.04769598 36.93131793 -3.53392245 40.70759322 -6.92578125 44.640625 C-9.52629095 47.59864357 -12.19731019 50.48692625 -14.875 53.375 C-19.19082421 58.03189848 -23.46791205 62.71901221 -27.69921875 67.453125 C-29.41651427 69.35410408 -31.14651799 71.23703566 -32.89453125 73.109375 C-33.38945068 73.64167725 -33.88437012 74.17397949 -34.39428711 74.72241211 C-35.35368821 75.75268076 -36.3165374 76.77975357 -37.28344727 77.80297852 C-39.95961141 80.68292891 -42.10512085 83.55533558 -44 87 C-43.19332886 87.19577637 -43.19332886 87.19577637 -42.37036133 87.39550781 C-24.62155077 91.72051403 -24.62155077 91.72051403 -16.875 94.25 C-10.57919249 96.2407052 -4.3458431 98.00375293 2.125 96.0625 C2.74375 95.711875 3.3625 95.36125 4 95 C4.93865641 87.75464141 5.20887083 80.60995363 5.31640625 73.30859375 C5.33718735 72.12274185 5.35796844 70.93688995 5.37937927 69.71510315 C5.444357 65.95595663 5.50351729 62.19674488 5.5625 58.4375 C5.60573454 55.87694659 5.64935035 53.31639959 5.69335938 50.75585938 C5.79998477 44.50397363 5.90184385 38.25202414 6 32 C4.81296447 31.888236 4.81296447 31.888236 3.6171875 33.25 Z " fill="#FFFFFF" transform="translate(879,69)"/>
<path d="M0 0 C9.64189424 6.70899865 14.58724429 14.77258891 17.328125 26.1015625 C19.71702299 40.97583302 18.46201446 61.52020663 13.7421875 75.6796875 C37.0071875 78.1546875 37.0071875 78.1546875 60.7421875 80.6796875 C59.6171875 96.4296875 59.6171875 96.4296875 58.6796875 102.0546875 C58.50308594 103.13492188 58.32648438 104.21515625 58.14453125 105.328125 C58.01175781 106.10414063 57.87898437 106.88015625 57.7421875 107.6796875 C50.66577317 107.82030499 43.82539516 107.27717344 36.79663086 106.48632812 C35.63464172 106.35953171 34.47265259 106.23273529 33.27545166 106.10209656 C29.46045628 105.68465107 25.64625828 105.26034115 21.83203125 104.8359375 C19.17693057 104.54404947 16.5217906 104.2525448 13.86659241 103.96154785 C7.60845613 103.27484055 1.35087724 102.58318538 -4.90651268 101.88971376 C-12.03554441 101.09988967 -19.16518595 100.31563994 -26.29488194 99.53183842 C-40.9498742 97.92061979 -55.60409559 96.30246532 -70.2578125 94.6796875 C-69.40701747 86.54128028 -68.54685913 78.40393738 -67.67518902 70.26774216 C-67.27059062 66.48852167 -66.86905691 62.70903099 -66.47485352 58.92871094 C-66.09330913 55.27093482 -65.70328861 51.61414774 -65.30771828 47.95786285 C-65.15928448 46.57255432 -65.01375318 45.18693116 -64.87137413 43.80098724 C-63.30236988 28.56842779 -61.03989427 13.09944477 -49.25390625 2.1796875 C-35.46076872 -8.18540998 -14.77133406 -8.63790815 0 0 Z M-37.5078125 28.0546875 C-40.47714164 32.50868121 -41.53412387 36.53340099 -42.109375 41.828125 C-42.23828125 42.99859375 -42.3671875 44.1690625 -42.5 45.375 C-42.62632813 46.58929687 -42.75265625 47.80359375 -42.8828125 49.0546875 C-43.016875 50.26125 -43.1509375 51.4678125 -43.2890625 52.7109375 C-43.90094309 58.39268581 -44.44327218 63.96415734 -44.2578125 69.6796875 C-40.50835385 70.16315118 -36.75815553 70.64063682 -33.0078125 71.1171875 C-31.96367188 71.25189453 -30.91953125 71.38660156 -29.84375 71.52539062 C-22.65952766 72.43450518 -15.47880283 73.13625048 -8.2578125 73.6796875 C-3.97324156 51.57091791 -3.97324156 51.57091791 -6.8828125 30.0546875 C-11.93625242 25.00124758 -16.44769622 22.5479052 -23.5703125 22.4296875 C-29.61370771 22.50144285 -33.26892306 23.5803042 -37.5078125 28.0546875 Z " fill="#FFFFFF" transform="translate(124.2578125,505.3203125)"/>
<path d="M0 0 C1.41703593 1.03405325 2.81432903 2.09586892 4.1875 3.1875 C4.80238281 3.66574219 5.41726563 4.14398437 6.05078125 4.63671875 C17.75459458 14.93918858 20.12663175 30.50285004 21.1875 45.1875 C21.69539063 44.20910156 22.20328125 43.23070312 22.7265625 42.22265625 C26.53443733 34.9492813 30.40007872 27.87900929 35.1875 21.1875 C38.52572957 21.80199997 41.20959492 22.53310829 44.1875 24.1875 C43.54078106 28.2369555 41.38887485 31.34304249 39.25 34.75 C30.33364082 49.31597215 22.89884278 64.49645557 16.1875 80.1875 C12.84376525 79.63021087 10.15437001 78.83576111 7.1875 77.1875 C7.60322266 75.61162109 7.60322266 75.61162109 8.02734375 74.00390625 C9.91375751 66.73515599 11.65058217 59.70434956 12.1875 52.1875 C11.8471875 52.75597656 11.506875 53.32445312 11.15625 53.91015625 C4.78988097 64.05232393 -2.55927507 70.05869058 -14.359375 72.7734375 C-26.01745777 74.74120306 -37.90428331 71.41877585 -47.8125 65.1875 C-55.78672942 59.51377761 -61.73373731 51.91301793 -63.8125 42.1875 C-64.69675377 27.56107281 -63.33651481 16.67905569 -54.15625 4.70703125 C-40.05209155 -10.45493909 -16.81608273 -10.54184682 0 0 Z M-48.8125 14.1875 C-53.76983983 21.41387099 -55.75527608 29.12679663 -54.40234375 37.82421875 C-52.1734751 46.53949555 -47.81605478 52.11200402 -40.375 57.0625 C-32.33385649 61.80720699 -25.0921468 63.14453929 -15.8125 62.1875 C-8.18846582 60.19186723 -1.39983863 55.35420663 2.76171875 48.65234375 C6.99983497 40.4068397 8.68156448 32.81641548 6.1875 23.6875 C2.66594748 14.38865394 -4.25252137 9.39928546 -12.98046875 5.28125 C-26.07703146 0.22326716 -39.62803017 3.533515 -48.8125 14.1875 Z " fill="#FFFFFF" transform="translate(1191.8125,801.8125)"/>
<path d="M0 0 C3.54654833 3.00147005 6.3960331 5.83002993 7.6875 10.375 C7.99053091 14.40026057 7.92555692 18.34787039 7.6875 22.375 C8.3475 22.045 9.0075 21.715 9.6875 21.375 C17.29754485 20.51245546 23.6245225 20.56247069 29.80859375 25.4140625 C34.44720693 30.2551931 36.91635126 35.73324572 37.25 42.4375 C36.60420605 53.29703509 30.08522508 60.47820498 22.3203125 67.4140625 C19.11418702 70.23435053 15.86242444 72.99798865 12.59765625 75.75 C10.77401548 77.30139992 8.97785085 78.87914788 7.1875 80.46875 C6.12523948 81.39610772 5.06275255 82.32320619 4 83.25 C3.06800781 84.07242187 2.13601563 84.89484375 1.17578125 85.7421875 C-1.3125 87.375 -1.3125 87.375 -3.3059082 87.14379883 C-6.68177483 85.85038065 -8.58865541 82.92081643 -10.8125 80.1875 C-11.88385364 78.90342808 -12.95547572 77.61958008 -14.02734375 76.3359375 C-14.57245605 75.6769043 -15.11756836 75.01787109 -15.67919922 74.33886719 C-18.20782605 71.29846745 -20.79299142 68.30754557 -23.375 65.3125 C-27.65637632 60.32380811 -31.91656094 55.31763223 -36.1484375 50.28686523 C-38.60310558 47.37372563 -41.08326763 44.48683409 -43.59765625 41.625 C-44.14421875 40.99916016 -44.69078125 40.37332031 -45.25390625 39.72851562 C-46.30698611 38.52445203 -47.36530677 37.3249448 -48.4296875 36.13085938 C-51.12746834 33.03677381 -53.07276035 30.30695534 -54.3125 26.375 C-48.39078623 20.94141014 -42.36961176 15.68449041 -36.10546875 10.6484375 C-34.20634659 9.10257862 -32.33446644 7.52277159 -30.48828125 5.9140625 C-21.37369454 -1.94202479 -11.16202153 -7.71006302 0 0 Z M-25.3125 14.375 C-26.53926088 15.37665162 -27.76861171 16.37513637 -29 17.37109375 C-30.29255961 18.43381069 -31.58422573 19.49761529 -32.875 20.5625 C-33.50736572 21.07329102 -34.13973145 21.58408203 -34.79125977 22.11035156 C-36.79123033 23.74953842 -36.79123033 23.74953842 -39.3125 26.375 C-39.3125 31.44986736 -37.98797082 32.2713255 -34.5625 35.875 C-33.68078125 36.8134375 -32.7990625 37.751875 -31.890625 38.71875 C-29.71718211 40.95805479 -27.52940626 43.17881249 -25.3125 45.375 C-19.31501058 40.59353698 -13.44120182 35.70392406 -7.75 30.5625 C-7.23791992 30.10705811 -6.72583984 29.65161621 -6.19824219 29.18237305 C-3.5897968 26.79889949 -1.51110449 24.73676645 -0.3125 21.375 C-0.3125 16.15499544 -2.50596827 13.50364589 -5.83984375 9.79296875 C-8.0156607 7.69795137 -9.34800018 7.36920405 -12.375 6.875 C-18.16420695 7.61013739 -20.99894882 10.6194518 -25.3125 14.375 Z M-19.3125 53.375 C-18.50425781 54.31601563 -17.69601562 55.25703125 -16.86328125 56.2265625 C-15.78383178 57.48435579 -14.70440596 58.74216937 -13.625 60 C-13.09455078 60.61746094 -12.56410156 61.23492188 -12.01757812 61.87109375 C-8.75024572 65.67964073 -5.51560202 69.51226102 -2.3125 73.375 C2.04415202 71.95418195 4.68636975 69.81890457 8 66.6875 C11.32520599 63.57740168 14.656221 60.51161173 18.125 57.5625 C22.98420113 53.28082687 26.28024253 50.02277438 26.78125 43.359375 C26.557377 38.62072976 24.14912896 35.88059362 21.0625 32.5 C6.71560264 23.46676833 -9.91876276 43.75171655 -19.3125 53.375 Z " fill="#FFFFFF" transform="translate(1023.3125,1009.625)"/>
<path d="M0 0 C9.11494656 6.3539142 16.14262076 14.81544548 18.82421875 25.71484375 C20.06057808 35.17469406 19.63086521 44.29946895 14.82421875 52.71484375 C14.40011719 53.48054687 13.97601563 54.24625 13.5390625 55.03515625 C7.0504161 65.69894839 -2.11781049 71.52206288 -13.48828125 76.02734375 C-25.02628759 78.17849748 -35.51828414 77.02148341 -45.36328125 70.52734375 C-54.372546 63.76333464 -61.03795102 55.03022798 -63.17578125 43.71484375 C-64.27786674 30.70662152 -61.3986367 20.51233759 -53.3828125 10.19140625 C-39.72935191 -5.12946811 -18.26174716 -10.78656161 0 0 Z M-45.92578125 18.40234375 C-50.7677527 24.19719746 -54.04156305 31.95673019 -53.5546875 39.62109375 C-52.0380312 48.0017925 -48.78834003 55.20229475 -42.17578125 60.71484375 C-34.65890271 65.35932494 -27.78981038 67.84351766 -18.88671875 66.32421875 C-9.85250889 64.08717631 -2.0250662 58.86802866 3.32421875 51.21484375 C4.19665713 49.7372458 5.03324365 48.23760533 5.82421875 46.71484375 C6.16195312 46.06773437 6.4996875 45.420625 6.84765625 44.75390625 C9.59474025 38.57926791 9.93220277 31.80383241 8.16796875 25.29296875 C4.76157945 16.77699549 -0.93995942 10.89817848 -8.96484375 6.625 C-23.04415101 0.82910143 -36.22327509 8.35038292 -45.92578125 18.40234375 Z " fill="#FFFFFF" transform="translate(298.17578125,963.28515625)"/>
<path d="M0 0 C1.19165039 1.3984375 1.19165039 1.3984375 2.34765625 3.375 C2.78335938 4.10525391 3.2190625 4.83550781 3.66796875 5.58789062 C4.12816406 6.38388672 4.58835937 7.17988281 5.0625 8 C6.04169736 9.65700198 7.02219351 11.31323705 8.00390625 12.96875 C8.50035645 13.81050781 8.99680664 14.65226563 9.50830078 15.51953125 C10.90816104 17.84728579 12.35591269 20.13140699 13.83984375 22.40625 C25.41104542 40.14695102 25.41104542 40.14695102 23.5546875 50.90625 C21.96587645 56.90345226 19.52865446 59.98282246 14.5 63.4375 C8.74340672 66.62236078 3.44534907 66.9723587 -3 66 C-5.34705852 65.22494523 -6.92860181 64.38093213 -9 63 C-9.20625 64.299375 -9.4125 65.59875 -9.625 66.9375 C-11.67128354 75.76810614 -17.37562571 81.63340072 -23.5625 87.9375 C-24.11655518 88.5056543 -24.67061035 89.07380859 -25.24145508 89.65917969 C-28.29384336 92.67561469 -30.78566014 94.7521787 -35 96 C-39.06004716 90.58660378 -39.06004716 90.58660378 -38.79174805 87.96557617 C-37.44218857 84.61518969 -34.49555334 82.61357428 -31.8125 80.3125 C-22.40135459 72.1862239 -22.40135459 72.1862239 -18.49609375 60.84765625 C-18.64783613 54.91873404 -21.59654314 50.88138821 -24.875 46.125 C-25.70837891 44.86429688 -25.70837891 44.86429688 -26.55859375 43.578125 C-28.02089275 41.37234386 -29.50565638 39.18412516 -31 37 C-31.66 36.01 -32.32 35.02 -33 34 C-36.71459273 35.36230887 -39.85313099 37.05727283 -43.16015625 39.22265625 C-44.11857422 39.84333984 -45.07699219 40.46402344 -46.06445312 41.10351562 C-48.06767745 42.41246285 -50.07027927 43.72236326 -52.07226562 45.03320312 C-53.02939453 45.65259766 -53.98652344 46.27199219 -54.97265625 46.91015625 C-55.84156494 47.47871338 -56.71047363 48.04727051 -57.60571289 48.63305664 C-59.79430395 49.88256427 -61.53827351 50.55186239 -64 51 C-67.22265625 45.82421875 -67.22265625 45.82421875 -68 44 C-66.81654949 40.44964847 -66.06167363 40.12234066 -62.96875 38.20703125 C-62.10789795 37.66731689 -61.2470459 37.12760254 -60.36010742 36.5715332 C-58.94435425 35.70081177 -58.94435425 35.70081177 -57.5 34.8125 C-55.48532661 33.55264361 -53.4710177 32.29220422 -51.45703125 31.03125 C-50.3995166 30.37253906 -49.34200195 29.71382812 -48.25244141 29.03515625 C-42.87151544 25.66813937 -37.53078706 22.23880806 -32.1875 18.8125 C-31.14190918 18.14452393 -30.09631836 17.47654785 -29.01904297 16.78833008 C-24.24243437 13.73458651 -19.4773516 10.6665969 -14.74609375 7.54296875 C-13.95759033 7.02436279 -13.16908691 6.50575684 -12.35668945 5.97143555 C-10.91248138 5.01921566 -9.4719424 4.06139745 -8.03588867 3.09692383 C-3.33288434 0 -3.33288434 0 0 0 Z M-14.5625 19.875 C-15.45130859 20.43058594 -16.34011719 20.98617187 -17.25585938 21.55859375 C-18.10083984 22.09355469 -18.94582031 22.62851562 -19.81640625 23.1796875 C-20.59443604 23.67194824 -21.37246582 24.16420898 -22.17407227 24.67138672 C-24.13303357 25.88264592 -24.13303357 25.88264592 -25 28 C-23.9046782 30.27966781 -23.9046782 30.27966781 -22.24609375 32.796875 C-21.63830078 33.7559375 -21.03050781 34.715 -20.40429688 35.703125 C-19.75525391 36.70859375 -19.10621094 37.7140625 -18.4375 38.75 C-17.81552734 39.74 -17.19355469 40.73 -16.55273438 41.75 C-11.23084735 50.81639505 -11.23084735 50.81639505 -2.95385742 56.67236328 C0.59968298 57.38191689 2.7966402 57.07039378 6.25 55.875 C9.94430257 53.35615734 12.43716382 50.97475095 13.68359375 46.6015625 C14.92305729 36.41041787 4.39769707 25.01568124 -1 17 C-1.66 16.01 -2.32 15.02 -3 14 C-7.18563906 14 -11.12135722 17.68449833 -14.5625 19.875 Z " fill="#FFFFFF" transform="translate(241,882)"/>
<path d="M0 0 C10.48749205 6.84312835 17.19242735 15.4588363 20.99609375 27.40625 C23.296129 39.68843823 20.60747575 50.05669885 13.76171875 60.2421875 C6.74742555 69.3685913 -2.40268214 74.77854879 -13.73828125 76.3671875 C-24.81040951 77.08894898 -34.72909411 73.99981471 -43.61328125 67.4921875 C-44.25910156 67.028125 -44.90492187 66.5640625 -45.5703125 66.0859375 C-50.37970719 62.31386324 -53.61387447 57.78220754 -56.61328125 52.4921875 C-57.02964844 51.76515625 -57.44601562 51.038125 -57.875 50.2890625 C-62.05695333 41.66103246 -62.04974776 31.27115184 -59.765625 22.08203125 C-55.36270476 10.5150374 -47.7398504 1.93940911 -36.61328125 -3.5078125 C-24.13662839 -7.83615075 -11.32276725 -6.53301668 0 0 Z M-44.171875 14.53515625 C-49.63195312 22.35210262 -51.61690733 28.93818855 -50.61328125 38.4921875 C-48.41622888 48.23884265 -41.68506858 56.08639675 -33.42578125 61.4921875 C-26.21992917 65.76232207 -18.81745758 66.43586036 -10.61328125 65.4921875 C-1.54880784 62.52785971 4.47824465 56.48189352 9.38671875 48.4921875 C12.40964025 42.01449857 12.25093914 34.73267553 10.32421875 27.9296875 C6.46519802 17.72311864 -1.67524936 10.5450398 -11.42578125 6.1171875 C-22.95070315 1.91667998 -36.50345095 4.48356282 -44.171875 14.53515625 Z " fill="#FFFFFF" transform="translate(1100.61328125,948.5078125)"/>
<path d="M0 0 C8.61453646 8.3453322 13.03405468 16.88309214 13.29248047 28.85449219 C13.39978966 43.03500864 11.17584494 53.41888688 1.1875 63.90234375 C-7.27730904 71.9746314 -17.38268971 74.3510087 -28.8125 74.2109375 C-38.85423447 73.54641095 -48.04919693 69.87384759 -55.26171875 62.7734375 C-62.95533429 53.81414398 -66.44035928 43.24100308 -66.2109375 31.42578125 C-65.12008419 18.88096821 -61.30708079 8.21425933 -51.96875 -0.46875 C-36.96158571 -12.1409889 -14.80844709 -11.91114222 0 0 Z M-49 12 C-54.7500796 21.13167404 -55.82288184 29.29094617 -55 40 C-54.12820744 43.64658375 -52.81341256 46.72673331 -51 50 C-50.61070312 50.71929688 -50.22140625 51.43859375 -49.8203125 52.1796875 C-45.79636373 58.48942965 -40.03311946 61.74579504 -33 64 C-23.97555597 65.38454495 -16.49667909 64.2972956 -9 59 C-2.38889588 53.86652224 1.37511522 47.20035311 3 39 C3.89615239 28.29024434 2.64955438 19.00442566 -4.375 10.5625 C-10.57472962 4.11214301 -16.88707014 1.00750369 -25.875 0.6875 C-35.70191329 0.96996801 -42.54019801 4.55119731 -49 12 Z " fill="#FFFFFF" transform="translate(682,1142)"/>
<path d="M0 0 C6.0020925 3.00104625 10.86114134 7.07812441 15.9375 11.42578125 C18.63738309 13.72967018 21.45828113 15.82729245 24.3125 17.9375 C31.17410583 23.39584666 36.63911343 31.22984213 38 40 C39.10576195 53.00586677 36.25067904 63.16050413 28.19140625 73.4609375 C20.7822259 82.04554932 12.83804468 88.06866556 1.28515625 89.44140625 C-12.89391341 89.88765108 -21.62968447 85.16020518 -32.23828125 76.42480469 C-34.10927983 74.91161903 -36.01610382 73.45637978 -37.9375 72.0078125 C-38.58420654 71.51611572 -39.23091309 71.02441895 -39.8972168 70.51782227 C-41.15486946 69.56219861 -42.41664595 68.6119732 -43.68286133 67.66772461 C-45.17810899 66.5145647 -46.59719622 65.26399561 -48 64 C-48 60.00852993 -46.07896941 58.16430959 -43.6875 55.1875 C-43.01352173 54.33079712 -43.01352173 54.33079712 -42.32592773 53.45678711 C-41.37170079 52.24515155 -40.41433771 51.03598031 -39.45410156 49.82910156 C-38.05283155 48.06645634 -36.66130048 46.29665072 -35.2734375 44.5234375 C-32.98472816 41.60005447 -30.68907302 38.68222821 -28.39111328 35.76611328 C-26.54915476 33.42762119 -24.71011019 31.08684741 -22.87133789 28.74584961 C-21.96056849 27.58634952 -21.04959994 26.42700584 -20.13842773 25.26782227 C-17.76919584 22.25363044 -15.40237242 19.23758785 -13.0390625 16.21875 C-12.55115234 15.59613281 -12.06324219 14.97351562 -11.56054688 14.33203125 C-10.63662307 13.15292849 -9.71339007 11.97328392 -8.79101562 10.79296875 C-5.92570709 7.13828298 -2.98778518 3.55535728 0 0 Z M2 14 C-4.95890129 22.49684029 -11.85551078 31.02085867 -18.51171875 39.7578125 C-20.30353122 42.10490585 -22.12232202 44.42847137 -23.95703125 46.7421875 C-24.70218994 47.68263916 -24.70218994 47.68263916 -25.46240234 48.64208984 C-26.41734537 49.84485655 -27.37455811 51.04582616 -28.33447266 52.24462891 C-30.81693157 55.37460581 -33.03359536 58.52147563 -35 62 C-19.03904191 75.77530043 -19.03904191 75.77530043 1 79 C11.37588926 76.30196044 17.65362242 70.32746369 23.48828125 61.58203125 C27.58571558 54.58357106 29.12479539 47.75570974 27.56640625 39.78125 C24.4078909 28.32427505 14.33333049 21.4702683 5 15 C4.01 14.67 3.02 14.34 2 14 Z " fill="#FFFFFF" transform="translate(343,1011)"/>
<path d="M0 0 C8.65736377 7.07876577 13.15401304 16.75888446 15.03515625 27.6640625 C16.04946707 40.60337893 14.59775864 51.56169389 6.03515625 61.6640625 C-3.16771067 70.90344873 -15.57585477 73.0492975 -27.96484375 75.4140625 C-29.62193359 75.74470703 -29.62193359 75.74470703 -31.3125 76.08203125 C-35.63483668 76.92759165 -39.54674092 77.6640625 -43.96484375 77.6640625 C-45.92642475 68.23359892 -47.88266559 58.80204799 -49.83211517 49.3690691 C-50.73750822 44.98890568 -51.64472978 40.60913773 -52.55615234 36.23022461 C-53.43580388 32.00361612 -54.31062306 27.77603367 -55.18211365 23.54773521 C-55.51529864 21.93546684 -55.85021752 20.32355577 -56.18690491 18.71201515 C-56.65850802 16.45322127 -57.12390694 14.1932308 -57.58789062 11.93286133 C-57.98760071 10.00426018 -57.98760071 10.00426018 -58.39538574 8.03669739 C-58.88255203 5.15143807 -59.08741086 2.57757409 -58.96484375 -0.3359375 C-16.13758979 -11.55531121 -16.13758979 -11.55531121 0 0 Z M-46.96484375 6.6640625 C-46.38314545 14.00349096 -45.21961 21.11403061 -43.75 28.32421875 C-43.53419785 29.3953038 -43.31839569 30.46638885 -43.09605408 31.56993103 C-42.64220676 33.81333649 -42.18575559 36.05621664 -41.72680664 38.29858398 C-41.02338818 41.74594822 -40.33461618 45.19604032 -39.64648438 48.64648438 C-39.20270734 50.83090903 -38.75807682 53.01516051 -38.3125 55.19921875 C-38.00458275 56.75214378 -38.00458275 56.75214378 -37.69044495 58.33644104 C-37.49361618 59.28510544 -37.29678741 60.23376984 -37.09399414 61.21118164 C-36.92380264 62.04927872 -36.75361115 62.88737579 -36.57826233 63.75086975 C-36.3758342 64.38222336 -36.17340607 65.01357697 -35.96484375 65.6640625 C-32.13713642 67.57791617 -27.36560768 65.44524998 -23.33984375 64.5390625 C-21.87998047 64.23742188 -21.87998047 64.23742188 -20.390625 63.9296875 C-11.21199305 61.87901064 -4.41401095 58.44858707 1.03515625 50.6640625 C5.19775283 42.93352599 5.8944751 34.79861686 3.88671875 26.3125 C0.57640156 16.01710983 -3.89586086 9.30545223 -13.08984375 3.7890625 C-23.98462173 -0.23622051 -36.25874053 3.79200607 -46.96484375 6.6640625 Z " fill="#FFFFFF" transform="translate(800.96484375,1131.3359375)"/>
<path d="M0 0 C1.90197174 1.19892147 3.65963947 2.42784598 5.375 3.87890625 C4.61096585 7.35044006 3.29313089 9.87661443 1.375 12.87890625 C-3.375 11.00390625 -3.375 11.00390625 -5.625 9.87890625 C-10.41515565 9.40928315 -13.79942918 9.8675371 -17.921875 12.4765625 C-22.94987498 16.61659001 -27.02586065 22.47974609 -27.91015625 28.97265625 C-28.1745715 33.04058323 -28.01904532 36.02539866 -25.5625 39.37890625 C-22.03425382 42.38166895 -20.23568705 42.9597955 -15.625 42.87890625 C-10.86275627 40.930129 -7.75506508 38.3625291 -4.1875 34.69140625 C-3.70869385 34.20454346 -3.2298877 33.71768066 -2.73657227 33.21606445 C-0.0316658 30.43998824 2.49090699 27.56957018 4.9375 24.56640625 C9.23700497 19.6015017 14.40910686 15.65888523 20.95703125 14.37109375 C26.83288473 14.10031709 31.6202362 15.39956192 36.375 18.87890625 C41.90956635 23.95840826 44.36543564 28.9688484 44.75 36.50390625 C44.45375861 47.48129544 39.73722324 56.88957711 32.375 64.87890625 C23.62024619 72.20695944 16.76188605 73.84559889 5.375 72.87890625 C2.29232887 71.85729744 0.13141402 70.64301122 -2.625 68.87890625 C-1.42600302 65.79577115 -0.14799523 62.81611133 1.375 59.87890625 C3.76064077 60.45475057 6.04182784 61.1011822 8.375 61.87890625 C13.99245875 62.2472642 17.58383608 62.1409753 22.375 58.87890625 C28.48905662 53.1795887 33.36933177 46.25514244 33.875 37.69140625 C33.29872595 33.29731662 32.29396011 31.19232043 29.375 27.87890625 C26.45800688 26.11335779 24.90091361 25.83740558 21.50390625 26.10546875 C12.70249319 28.28109894 5.78898803 38.54552243 -0.08203125 45.1796875 C-4.7934485 50.18059275 -9.84704813 54.53026631 -16.98046875 55.05078125 C-23.71044325 54.75862732 -28.77865354 52.57261188 -33.625 47.87890625 C-37.82742469 42.26258166 -39.40752323 36.65158043 -39.04296875 29.67578125 C-37.29452836 17.97593711 -31.32579308 9.95117828 -22.65234375 2.32421875 C-16.30356271 -2.20188719 -7.18006931 -3.06648793 0 0 Z " fill="#FFFFFF" transform="translate(1128.625,877.12109375)"/>
<path d="M0 0 C6.28999489 4.64959899 10.65278184 10.95467319 12.26171875 18.671875 C12.84800123 25.19990494 12.4989153 31.82360634 9.26171875 37.671875 C5.85239978 38.80831466 5.25836419 38.53935264 2.07421875 37.234375 C1.35878906 36.94691406 0.64335938 36.65945313 -0.09375 36.36328125 C-0.63644531 36.13511719 -1.17914062 35.90695312 -1.73828125 35.671875 C-1.40828125 34.74375 -1.07828125 33.815625 -0.73828125 32.859375 C1.06977076 26.33982979 1.66082525 19.38330548 -1.67578125 13.296875 C-5.4459162 8.05100152 -11.44001614 4.85575942 -17.73828125 3.671875 C-27.47913969 2.81197288 -34.00519844 4.39512536 -41.98828125 9.921875 C-49.41315253 17.34674628 -52.77399541 26.22544315 -53.17578125 36.671875 C-52.96399937 44.50780447 -50.45096202 52.11787981 -44.73828125 57.671875 C-38.42136304 62.39919672 -31.90924617 65.22262979 -23.84765625 64.98828125 C-16.15958606 63.83507072 -9.67701661 59.29631528 -4.86328125 53.359375 C-4.49203125 52.8025 -4.12078125 52.245625 -3.73828125 51.671875 C-0.76828125 52.331875 2.20171875 52.991875 5.26171875 53.671875 C5.75671875 55.651875 5.75671875 55.651875 6.26171875 57.671875 C0.90092388 65.77233899 -6.65927535 71.45073069 -15.73828125 74.671875 C-27.42639776 76.95793308 -38.57921149 74.90388547 -48.5234375 68.328125 C-57.37003738 61.71267818 -62.72591816 53.38365398 -64.51953125 42.36328125 C-65.66333875 28.29036399 -61.88060187 15.43742397 -52.73828125 4.671875 C-38.40913983 -10.56380394 -17.12607389 -10.86174859 0 0 Z " fill="#FFFFFF" transform="translate(523.73828125,1112.328125)"/>
<path d="M0 0 C1.52164099 2.89111788 2 4.71823412 2 8 C-3.3736411 9.99794087 -8.74882095 11.99166265 -14.12548828 13.98144531 C-15.95534783 14.6593155 -17.78477715 15.33834822 -19.61376953 16.01855469 C-22.23879257 16.99457951 -24.86532112 17.96644911 -27.4921875 18.9375 C-28.31306854 19.24373291 -29.13394958 19.54996582 -29.97970581 19.86547852 C-35.77225659 22 -35.77225659 22 -38 22 C-35.36 28.93 -32.72 35.86 -30 43 C-22.0753998 40.65366513 -22.0753998 40.65366513 -14.3515625 37.921875 C-13.40925781 37.56609375 -12.46695313 37.2103125 -11.49609375 36.84375 C-9.55635721 36.10480275 -7.61889874 35.35985183 -5.68359375 34.609375 C-4.74902344 34.25875 -3.81445312 33.908125 -2.8515625 33.546875 C-2.01447754 33.22557617 -1.17739258 32.90427734 -0.31494141 32.57324219 C2 32 2 32 6 33 C6.66 35.64 7.32 38.28 8 41 C7.04109863 41.35827881 6.08219727 41.71655762 5.09423828 42.08569336 C1.5417396 43.41336041 -2.0102176 44.74247085 -5.56201172 46.07202148 C-7.10027536 46.647612 -8.6386862 47.22280928 -10.17724609 47.79760742 C-12.38678039 48.62315553 -14.59578404 49.45010945 -16.8046875 50.27734375 C-17.49432587 50.53466782 -18.18396423 50.79199188 -18.89450073 51.05711365 C-22.50034094 52.404116 -22.50034094 52.404116 -26 54 C-23.03 61.92 -20.06 69.84 -17 78 C-11.03644636 76.21093391 -5.32663899 74.4654327 0.46875 72.30078125 C1.11573853 72.0608696 1.76272705 71.82095795 2.42932129 71.57377625 C5.14830745 70.56547525 7.86456996 69.54992898 10.58105469 68.53491211 C12.5843258 67.78758884 14.588981 67.04407484 16.59375 66.30078125 C18.36782227 65.63816284 18.36782227 65.63816284 20.17773438 64.9621582 C23 64 23 64 25 64 C25.99 68.455 25.99 68.455 27 73 C20.88194856 75.77560895 14.73298499 78.31921317 8.44140625 80.671875 C7.57104233 80.99915588 6.70067841 81.32643677 5.80393982 81.66363525 C3.98349216 82.34726833 2.16252726 83.02952552 0.34106445 83.71044922 C-2.45596932 84.75690997 -5.25050839 85.80984627 -8.04492188 86.86328125 C-9.82016684 87.52903436 -11.59555242 88.19441268 -13.37109375 88.859375 C-14.20748886 89.17493347 -15.04388397 89.49049194 -15.90562439 89.81561279 C-21.77039557 92 -21.77039557 92 -24 92 C-24.3082798 91.15912842 -24.3082798 91.15912842 -24.62278748 90.30126953 C-26.81282029 84.32822666 -29.00410878 78.35564544 -31.19604492 72.38330078 C-32.00787375 70.17084771 -32.81940933 67.95828701 -33.63061523 65.74560547 C-34.41881518 63.59579135 -35.20744199 61.44613368 -35.99649048 59.29663086 C-36.78895538 57.13764836 -37.58043647 54.97830451 -38.37094116 52.81860352 C-40.41924993 47.23731914 -42.50159234 41.67201559 -44.64111328 36.125 C-45.06368912 35.022771 -45.48626495 33.92054199 -45.92164612 32.78491211 C-46.73122939 30.67850146 -47.54841563 28.57499309 -48.37413025 26.47485352 C-48.73414627 25.53569092 -49.09416229 24.59652832 -49.46508789 23.62890625 C-49.7865126 22.80463135 -50.10793732 21.98035645 -50.43910217 21.13110352 C-51 19 -51 19 -50 16 C-48.1603241 14.98712158 -48.1603241 14.98712158 -45.72729492 14.08300781 C-44.81932663 13.73965393 -43.91135834 13.39630005 -42.97587585 13.0425415 C-41.98739151 12.68303406 -40.99890717 12.32352661 -39.98046875 11.953125 C-38.46529411 11.38993561 -38.46529411 11.38993561 -36.91950989 10.81536865 C-34.77875326 10.02309469 -32.63583022 9.23665404 -30.4909668 8.45556641 C-27.20563634 7.25661867 -23.92981786 6.03405004 -20.65429688 4.80859375 C-18.5760505 4.0428318 -16.49729044 3.27846225 -14.41796875 2.515625 C-13.4355571 2.14802063 -12.45314545 1.78041626 -11.44096375 1.40167236 C-10.06482658 0.9055545 -10.06482658 0.9055545 -8.66088867 0.39941406 C-7.85560226 0.10423889 -7.05031586 -0.19093628 -6.22062683 -0.49505615 C-3.7160713 -1.06456197 -2.36697246 -0.97483666 0 0 Z " fill="#FFFFFF" transform="translate(871,1096)"/>
<path d="M0 0 C2.97 0 5.94 0 9 0 C9.12319281 9.43109421 8.95437758 18.82634809 8.5625 28.25 C8.52326416 29.24974854 8.48402832 30.24949707 8.44360352 31.27954102 C8.38064087 32.69577759 8.38064087 32.69577759 8.31640625 34.140625 C8.26141968 35.40181152 8.26141968 35.40181152 8.20532227 36.68847656 C8.00970297 38.8907637 7.60124486 40.8762332 7 43 C7.83917969 42.98259766 7.83917969 42.98259766 8.6953125 42.96484375 C13.94716216 42.90573933 19.12862805 43.11209409 24.3671875 43.50390625 C26.23673096 43.64227905 26.23673096 43.64227905 28.14404297 43.78344727 C29.08650879 43.85490967 30.02897461 43.92637207 31 44 C31.03758423 42.47862427 31.03758423 42.47862427 31.07592773 40.92651367 C31.17009645 37.16368973 31.27029405 33.40104631 31.37231445 29.63842773 C31.41562749 28.00988996 31.45730518 26.38130784 31.49731445 24.75268555 C31.55510503 22.41181065 31.61877398 20.07115824 31.68359375 17.73046875 C31.70866249 16.63813179 31.70866249 16.63813179 31.73423767 15.52372742 C31.82467238 12.43833061 32.01723993 9.94828022 33 7 C35.97 7 38.94 7 42 7 C41.88157356 11.76904424 41.75731313 16.53788767 41.62768555 21.30664062 C41.58442069 22.92834357 41.54273972 24.55008958 41.50268555 26.171875 C41.44477786 28.50534027 41.38114302 30.83859043 41.31640625 33.171875 C41.29133751 34.25647003 41.29133751 34.25647003 41.26576233 35.36297607 C41.16797351 38.69890556 41.0154335 41.80554016 40 45 C40.6705542 44.99476318 41.3411084 44.98952637 42.03198242 44.98413086 C45.083812 44.96328395 48.13562656 44.95031531 51.1875 44.9375 C52.77014648 44.92493164 52.77014648 44.92493164 54.38476562 44.91210938 C55.40634766 44.90888672 56.42792969 44.90566406 57.48046875 44.90234375 C58.41785889 44.89710693 59.35524902 44.89187012 60.32104492 44.88647461 C63 45 63 45 68 46 C68.66 31.48 69.32 16.96 70 2 C73.3 2 76.6 2 80 2 C79.73830841 8.72627389 79.47165274 15.45232596 79.20043945 22.17822266 C79.10891188 24.46527808 79.01872969 26.75238776 78.92993164 29.03955078 C78.80189893 32.3312075 78.66899418 35.62263733 78.53515625 38.9140625 C78.47727684 40.44252304 78.47727684 40.44252304 78.41822815 42.00186157 C78.22083923 46.74591041 77.9440244 51.33174746 77 56 C64.24727664 56.13461707 51.55172907 55.78682229 38.81274414 55.20043945 C35.80568027 55.06218646 32.79839463 54.93002989 29.79101562 54.79882812 C19.18353132 54.32868398 8.58991731 53.77482113 -2 53 C-2.1076236 41.15643633 -2.07035546 29.3348631 -1.5625 17.5 C-1.52326416 16.5524585 -1.48402832 15.60491699 -1.44360352 14.62866211 C-1.21288318 9.69053846 -0.79758753 4.87935903 0 0 Z " fill="#FFFFFF" transform="translate(1166,636)"/>
<path d="M0 0 C1.94981581 4.20850952 3.88812987 8.42207032 5.81665039 12.64038086 C6.47215784 14.07015527 7.1306112 15.49858334 7.79223633 16.92553711 C18.87013302 40.83400303 18.87013302 40.83400303 16 52 C12.6192773 58.63623344 7.24610054 63.15348952 0.203125 65.4921875 C-6.12128112 66.94994068 -12.34363364 66.87098306 -18.00952148 63.46826172 C-25.74844681 57.75970083 -29.35560632 48.52314556 -32.9375 39.9375 C-33.43056641 38.78572266 -33.92363281 37.63394531 -34.43164062 36.44726562 C-35.63300239 33.63631237 -36.8220668 30.82083162 -38 28 C-48.37278624 32.24455417 -58.71364279 36.5496426 -69 41 C-71.65575614 37.86137911 -72.77207194 34.89733689 -74 31 C-32.44418761 12.56807987 -32.44418761 12.56807987 -14.5 4.8125 C-12.78731934 4.06564941 -12.78731934 4.06564941 -11.04003906 3.30371094 C-10.00588867 2.85930664 -8.97173828 2.41490234 -7.90625 1.95703125 C-6.58077148 1.38432495 -6.58077148 1.38432495 -5.22851562 0.80004883 C-3 0 -3 0 0 0 Z M-17.5625 17.375 C-18.54669922 17.7875 -19.53089844 18.2 -20.54492188 18.625 C-21.48013672 19.02460937 -22.41535156 19.42421875 -23.37890625 19.8359375 C-24.2407251 20.20251465 -25.10254395 20.5690918 -25.99047852 20.94677734 C-28.16098192 21.83479184 -28.16098192 21.83479184 -29 24 C-27.61418853 28.19840476 -25.7188819 32.20614963 -23.9375 36.25 C-23.45861328 37.38308594 -22.97972656 38.51617188 -22.48632812 39.68359375 C-19.74894382 45.93523715 -17.3451165 50.68078903 -12 55 C-7.47647397 56.67173788 -4.13401733 55.83389455 0.16796875 54.0078125 C4.10804428 51.84035091 5.59766985 49.13599102 7.0625 45 C7.97528678 34.66992517 -0.5850102 22.19895569 -5 13 C-9.33033257 13 -13.63561917 15.69168225 -17.5625 17.375 Z " fill="#FFFFFF" transform="translate(210,816)"/>
<path d="M0 0 C3.40312738 1.05875074 6.01353231 2.00902154 9 4 C7.63837121 8.51411392 5.82209029 12.4000564 3.515625 16.5078125 C3.17754822 17.11454803 2.83947144 17.72128357 2.4911499 18.34640503 C1.41556227 20.27533177 0.33331216 22.20040253 -0.75 24.125 C-13.29873653 43.76587394 -13.29873653 43.76587394 -16.375 65.875 C-13.30967404 72.84164992 -8.8656332 75.66709799 -2.16796875 78.82421875 C3.96366776 81.09995561 8.63774555 80.92087885 14.6875 78.5625 C23.45072521 72.66029591 28.14334289 61.74202844 33 52.6875 C34.35116948 50.18977594 35.70667225 47.69441653 37.0625 45.19921875 C37.38919678 44.59608856 37.71589355 43.99295837 38.05249023 43.37155151 C41.24129846 37.50582791 44.59539951 31.74326845 48 26 C51.07745908 27.21465217 54.06176804 28.47647232 57 30 C55.75898644 33.98631909 54.30491695 37.57175643 52.3125 41.23828125 C51.51912231 42.70382446 51.51912231 42.70382446 50.7097168 44.19897461 C49.86340698 45.74016968 49.86340698 45.74016968 49 47.3125 C48.41839111 48.3754126 47.83678223 49.4383252 47.23754883 50.53344727 C45.50067009 53.69402834 43.75292596 56.8482951 42 60 C41.51837402 60.86915039 41.03674805 61.73830078 40.54052734 62.63378906 C27.25318985 86.46102768 27.25318985 86.46102768 15 91 C5.48705807 93.26570068 -2.95379673 91.13005307 -11.44140625 86.6015625 C-18.73197748 82.03799883 -24.74605536 76.87828102 -27.4453125 68.5234375 C-30.57542166 54.28364511 -23.54897326 41.27710208 -16.8125 29.125 C-16.14182558 27.89522256 -15.47182748 26.66507605 -14.80249023 25.43457031 C-10.09631488 16.82032663 -5.21819646 8.31517484 0 0 Z " fill="#FFFFFF" transform="translate(406,1059)"/>
<path d="M0 0 C9.99375711 1.38939796 19.84869395 3.28504881 29.72167969 5.34912109 C32.25786271 5.87663541 34.79674892 6.38951956 37.3359375 6.90234375 C50.34488433 9.58305536 62.83851834 12.52980955 71 24 C75.73649477 33.14633472 75.05821702 43.28778697 72.25 53 C69.22044321 61.72851327 65.03168584 67.18225593 56.875 71.75 C36.56864401 79.39784836 7.51135784 68.19171313 -13 64 C-12.34 60.7 -11.68 57.4 -11 54 C-4.8596935 54.43336159 1.05299603 55.34655954 7.0703125 56.62890625 C7.80014343 56.78322113 8.52997437 56.93753601 9.28192139 57.0965271 C12.31984159 57.74208822 15.35648697 58.39217059 18.38867188 59.06420898 C37.61494567 63.65050974 37.61494567 63.65050974 56 59 C61.42388556 53.57611444 63.16723935 47.3929662 63.4375 39.9375 C63.26149018 34.34742809 62.55002319 31.34877841 59 27 C49.01437649 17.86148594 30.62429017 16.79911882 17.75 14.3125 C15.38477619 13.85204597 13.01985517 13.39012244 10.65533447 12.92607117 C9.20115956 12.64103214 7.74654734 12.35821223 6.29144287 12.07795715 C3.44918479 11.52370585 0.75144733 10.91714911 -2 10 C-1.34 6.7 -0.68 3.4 0 0 Z " fill="#FFFFFF" transform="translate(1162,707)"/>
<path d="M0 0 C7.32147739 0.57238313 14.4808551 1.9280044 21.69140625 3.28515625 C22.87725815 3.50570175 24.06311005 3.72624725 25.28489685 3.95347595 C29.04467292 4.65344028 32.80359022 5.3579 36.5625 6.0625 C39.12299133 6.54001147 41.68353766 7.01722812 44.24414062 7.49414062 C50.49673428 8.65934938 56.74863043 9.82824279 63 11 C62.67 13.97 62.34 16.94 62 20 C58.72017823 21.09327392 57.52843973 20.89955218 54.21875 20.22265625 C53.29449219 20.03896484 52.37023437 19.85527344 51.41796875 19.66601562 C50.45503906 19.46685547 49.49210938 19.26769531 48.5 19.0625 C46.59423439 18.6759893 44.68800171 18.29177253 42.78125 17.91015625 C41.93626953 17.73621338 41.09128906 17.56227051 40.22070312 17.38305664 C37.88285957 16.91500845 37.88285957 16.91500845 35 17 C34.8518837 17.79291443 34.7037674 18.58582886 34.55116272 19.402771 C33.15465129 26.87755519 31.75697601 34.35212037 30.35799503 41.82644272 C29.63881867 45.66900616 28.92009159 49.51165251 28.20239258 53.35449219 C27.50967597 57.06347463 26.81577751 60.77223418 26.12106133 64.48084259 C25.85630688 65.89532864 25.59197737 67.3098943 25.32808113 68.72454071 C24.95821063 70.70687061 24.58668498 72.68889147 24.21508789 74.67089844 C24.00412979 75.79896912 23.79317169 76.92703979 23.57582092 78.08929443 C23.11729796 80.4070729 22.57303836 82.70784656 22 85 C19.03 84.67 16.06 84.34 13 84 C11.87889252 79.82572843 12.19183375 76.69284144 12.98803711 72.46557617 C13.10493393 71.83086395 13.22183075 71.19615173 13.3422699 70.54220581 C13.72849494 68.45737527 14.12781237 66.37528651 14.52734375 64.29296875 C14.79862837 62.84295063 15.06908892 61.39277811 15.33876038 59.94245911 C16.04898076 56.13510694 16.77034843 52.32995022 17.49407959 48.52514648 C18.23132958 44.63847411 18.95798758 40.74982397 19.68554688 36.86132812 C21.11335499 29.23891344 22.55294857 21.6187876 24 14 C22.92516357 13.82609741 22.92516357 13.82609741 21.82861328 13.64868164 C18.59351736 13.12332643 15.35925979 12.59297734 12.125 12.0625 C10.43310547 11.78889648 10.43310547 11.78889648 8.70703125 11.50976562 C7.63066406 11.33251953 6.55429687 11.15527344 5.4453125 10.97265625 C4.45031738 10.81031494 3.45532227 10.64797363 2.43017578 10.48071289 C0 10 0 10 -2 9 C-1.125 1.125 -1.125 1.125 0 0 Z " fill="#FFFFFF" transform="translate(550,1121)"/>
<path d="M0 0 C1.3246333 2.09215309 2.47004585 4.12540084 3.58984375 6.32421875 C4.10121132 7.29911255 4.10121132 7.29911255 4.62290955 8.29370117 C5.73642986 10.4205718 6.83674656 12.5539985 7.9375 14.6875 C8.70019172 16.14813968 9.46403204 17.60818015 10.22900391 19.06762695 C11.38355195 21.27035173 12.53754938 23.47333593 13.68811035 25.67814636 C17.01559251 32.05244036 20.42273683 38.37977593 23.875 44.6875 C24.35573975 45.56946045 24.83647949 46.4514209 25.33178711 47.36010742 C27.48050254 51.28819741 29.65356438 55.1850997 32 59 C38.08808209 57.33217247 43.33314319 54.23486253 48.8125 51.1875 C49.75931641 50.66607422 50.70613281 50.14464844 51.68164062 49.60742188 C57.16085753 46.58938037 57.16085753 46.58938037 62.59912109 43.49853516 C63.39527832 43.04140137 64.19143555 42.58426758 65.01171875 42.11328125 C65.71127686 41.70505127 66.41083496 41.29682129 67.1315918 40.8762207 C69 40 69 40 72 40 C75 45.625 75 45.625 75 49 C74.12770752 49.45101074 74.12770752 49.45101074 73.23779297 49.91113281 C61.05382919 56.21885501 48.92610516 62.60919978 36.92138672 69.25292969 C36.05529785 69.73020508 35.18920898 70.20748047 34.296875 70.69921875 C33.53729492 71.12033936 32.77771484 71.54145996 31.99511719 71.9753418 C30 73 30 73 27 74 C26.6189209 73.2879541 26.2378418 72.5759082 25.84521484 71.84228516 C19.35545479 59.71785443 12.86468553 47.59402975 6.34057617 35.48803711 C5.16364079 33.30336192 3.98800282 31.11798725 2.8137207 28.93188477 C0.33753136 24.32353065 -2.14602638 19.72116466 -4.6875 15.1484375 C-5.07494385 14.44436768 -5.4623877 13.74029785 -5.86157227 13.01489258 C-6.84733774 11.22610962 -7.843095 9.44284241 -8.83984375 7.66015625 C-10 5 -10 5 -9 2 C-3.69230769 -1.23076923 -3.69230769 -1.23076923 0 0 Z " fill="#FFFFFF" transform="translate(895,1084)"/>
<path d="M0 0 C4.11293161 1.90413501 5.64916002 3.4001768 7.9375 7.3125 C9.53739245 12.86506793 8.94682201 16.26960115 6.1875 21.3125 C3.65449009 24.4244836 1.81900471 25.71557381 -2.1484375 26.3359375 C-7.58888644 26.43138397 -10.80304082 25.79724878 -15 22 C-18.13201418 17.65559324 -18.3717532 14.24126524 -17.578125 9.1171875 C-16.53187736 5.28565897 -14.5178108 2.9005041 -11.13671875 0.89453125 C-7.45538345 -0.64664934 -3.91452901 -0.53688853 0 0 Z " fill="#FFFFFF" transform="translate(142,714)"/>
<path d="M0 0 C3.23547321 1.82659101 5.46675491 4.14217094 7.4375 7.3125 C8.59633235 12.84914345 7.81444668 16.62562122 5 21.375 C1.18312011 24.7147699 -1.94100395 25.87851467 -7 26 C-12.17788061 24.55698409 -15.29438138 22.68280145 -18 18 C-19.24640056 13.8396009 -19.30247998 10.87383106 -17.875 6.75 C-13.27558257 0.00418777 -7.90621871 -2.18205658 0 0 Z " fill="#FFFFFF" transform="translate(1205,497)"/>
</svg>
