<?xml version="1.0" encoding="UTF-8"?>
<svg version="1.1" xmlns="http://www.w3.org/2000/svg" width="1200" height="290">
<path d="M0 0 C13.86 0 27.72 0 42 0 C47.63709643 18.17963599 53.09871756 36.40023917 58.42987061 54.671875 C59.401107 57.99909528 60.37449191 61.32568696 61.34765625 64.65234375 C63.23378592 71.10097448 65.11767971 77.55025632 67 84 C70.14622287 77.32422987 72.06195642 70.32456969 74.08984375 63.24609375 C74.47915273 61.89947048 74.86885436 60.55296067 75.25892639 59.20655823 C76.28225102 55.67035948 77.30016835 52.13262661 78.31695557 48.59454346 C79.34011975 45.03797362 80.36856797 41.48293301 81.39648438 37.92773438 C82.91408261 32.67582621 84.42938306 27.42326471 85.94116211 22.16967773 C86.28009491 20.9937204 86.61902771 19.81776306 86.9682312 18.60617065 C87.69229884 16.07545693 88.40907932 13.54354143 89.11697388 11.0083313 C89.29884782 10.36072122 89.48072176 9.71311113 89.66810703 9.0458765 C90.17304919 7.2458954 90.67452635 5.44494332 91.17579651 3.64393616 C92 1 92 1 93 0 C106.53 0 120.06 0 134 0 C134 38.61 134 77.22 134 117 C125.75 117 117.5 117 109 117 C108.67 87.96 108.34 58.92 108 29 C100.65448647 52.34831544 100.65448647 52.34831544 93.31176758 75.69750977 C91.87438965 80.2635498 91.87438965 80.2635498 91.19633484 82.41636658 C90.7335898 83.88639451 90.27133211 85.35657592 89.80949402 86.82688904 C86.63877093 96.91963698 83.37110673 106.97222733 80 117 C71.42 117 62.84 117 54 117 C51.67899942 109.81505111 49.3583872 102.6299897 47.04068756 95.44397736 C45.96017002 92.09413584 44.87913868 88.74446262 43.79663086 85.39526367 C42.74473895 82.14070713 41.69456253 78.88560079 40.64535332 75.63017845 C40.07015615 73.84679737 39.49338844 72.06392306 38.91651917 70.28108215 C34.49594416 56.55495906 30.27504359 42.77514047 26 29 C25.67 58.04 25.34 87.08 25 117 C16.75 117 8.5 117 0 117 C0 78.39 0 39.78 0 0 Z " fill="#000000" transform="translate(624,87)"/>
<path d="M0 0 C13.53 0 27.06 0 41 0 C42.9954805 5.32128132 44.84664726 10.54477541 46.4519043 15.9765625 C46.68024617 16.74076508 46.90858805 17.50496765 47.14384937 18.29232788 C47.87326048 20.7357795 48.59882975 23.18035171 49.32421875 25.625 C49.77761753 27.14590943 50.23127067 28.66674306 50.68518066 30.1875 C52.35569497 35.79075097 54.02130773 41.39546231 55.6875 47 C59.420625 59.54 63.15375 72.08 67 85 C75.25 56.95 83.5 28.9 92 0 C105.86 0 119.72 0 134 0 C134 38.61 134 77.22 134 117 C125.75 117 117.5 117 109 117 C108.67 87.3 108.34 57.6 108 27 C101.77733186 46.93609294 101.77733186 46.93609294 95.55664062 66.87280273 C91.53141908 79.76806008 87.49570877 92.66010649 83.40625 105.53515625 C83.07355103 106.58980576 82.74085205 107.64445526 82.39807129 108.73106384 C82.09461792 109.68227615 81.79116455 110.63348846 81.47851562 111.61352539 C81.21542603 112.44203506 80.95233643 113.27054474 80.68127441 114.12416077 C80 116 80 116 79 117 C77.14630389 117.08737645 75.28932459 117.10698153 73.43359375 117.09765625 C72.30888672 117.09443359 71.18417969 117.09121094 70.02539062 117.08789062 C68.84138672 117.07951172 67.65738281 117.07113281 66.4375 117.0625 C65.24962891 117.05798828 64.06175781 117.05347656 62.83789062 117.04882812 C59.89187774 117.03699675 56.94596319 117.02051287 54 117 C50.87734382 109.56357204 48.31770785 102.02493772 45.91796875 94.328125 C45.54070145 93.12927673 45.16343414 91.93042847 44.7747345 90.69525146 C43.77680605 87.5219098 42.78216485 84.34757823 41.78924561 81.17266846 C40.40765584 76.75827966 39.01918083 72.34604876 37.63240051 67.93328857 C36.8989425 65.59801375 36.16633569 63.26247128 35.43486023 60.92657471 C31.99222347 49.93935743 28.49121566 38.97239208 25 28 C24.67 57.37 24.34 86.74 24 117 C16.08 117 8.16 117 0 117 C0 78.39 0 39.78 0 0 Z " fill="#000000" transform="translate(909,87)"/>
<path d="M0 0 C8.63385882 7.22834692 14.20513377 15.36864902 15.91015625 26.671875 C16.37249853 32.12865555 16.43206841 36.56622045 15.3515625 41.96875 C6.7715625 41.96875 -1.8084375 41.96875 -10.6484375 41.96875 C-10.6484375 38.66875 -10.6484375 35.36875 -10.6484375 31.96875 C-12.92309695 23.628332 -15.11702066 18.5485722 -22.61328125 13.984375 C-29.56559455 10.51489043 -39.22795402 10.90829503 -46.64453125 12.6875 C-56.92124804 16.56668686 -62.17301223 23.41172063 -66.65625 33.16015625 C-71.54253575 46.04002598 -70.00719761 59.91008557 -64.5234375 72.34375 C-60.30380848 80.00206178 -53.62119099 85.46623128 -45.38671875 88.34765625 C-37.25855691 90.19127641 -28.07641366 90.0439149 -20.6484375 85.96875 C-14.47637279 81.61729433 -10.36079289 77.00963109 -7.6484375 69.96875 C-6.9884375 68.31875 -6.3284375 66.66875 -5.6484375 64.96875 C2.9315625 64.96875 11.5115625 64.96875 20.3515625 64.96875 C18.54902198 79.38907413 13.07195991 91.05296092 1.60546875 100.41015625 C-9.7956307 108.29410544 -21.85625381 111.5363199 -35.5859375 111.34375 C-36.64208252 111.33287354 -37.69822754 111.32199707 -38.78637695 111.31079102 C-53.80679764 111.00316203 -67.58709392 106.6826364 -78.74609375 96.08984375 C-93.05545564 80.13505215 -96.50082392 62.79364194 -95.82763672 41.80761719 C-94.86041938 26.48499693 -87.63963822 13.40682211 -76.6484375 2.96875 C-55.89470286 -14.77569312 -21.98292077 -16.46974382 0 0 Z " fill="#000000" transform="translate(337.6484375,95.03125)"/>
<path d="M0 0 C8.25 0 16.5 0 25 0 C25 23.76 25 47.52 25 72 C42.49 72 59.98 72 78 72 C78 48.24 78 24.48 78 0 C86.25 0 94.5 0 103 0 C103 38.61 103 77.22 103 117 C94.75 117 86.5 117 78 117 C78 107.43 78 97.86 78 88 C60.51 88 43.02 88 25 88 C25 97.57 25 107.14 25 117 C16.75 117 8.5 117 0 117 C0 78.39 0 39.78 0 0 Z " fill="#000000" transform="translate(374,87)"/>
<path d="M0 0 C10.23 0 20.46 0 31 0 C40.16230819 23.10435563 49.22171409 46.2465693 58.18798828 69.42773438 C61.65319214 78.3841287 65.12028155 87.33924879 68.65234375 96.26953125 C68.91981415 96.94634949 69.18728455 97.62316772 69.46286011 98.32049561 C70.65549628 101.33627616 71.85241302 104.35025339 73.05566406 107.36181641 C73.45366211 108.36519043 73.85166016 109.36856445 74.26171875 110.40234375 C74.60162842 111.25304443 74.94153809 112.10374512 75.29174805 112.98022461 C76 115 76 115 76 117 C67.42 117 58.84 117 50 117 C49.01 115.02 48.02 113.04 47 111 C38.31949127 101.89605182 25.2298827 102.21712078 13.43164062 101.27148438 C5.00872371 100.49574979 -2.40476995 98.79761503 -10 95 C-10.23783203 95.87398437 -10.23783203 95.87398437 -10.48046875 96.765625 C-12.50607612 103.88322881 -15.10059829 110.04143589 -18 117 C-26.91 117 -35.82 117 -45 117 C-41.14555616 105.90297946 -37.09783394 94.92063773 -32.7935791 83.99124146 C-31.0557823 79.57847654 -29.32754555 75.1619631 -27.59765625 70.74609375 C-27.04892349 69.34652687 -27.04892349 69.34652687 -26.48910522 67.91868591 C-21.45798991 55.07911865 -16.48643284 42.21638328 -11.50894165 29.35595703 C-10.33450872 26.32177628 -9.15945613 23.28783602 -7.984375 20.25390625 C-7.64019028 19.36381363 -7.29600555 18.47372101 -6.94139099 17.55665588 C-4.66776052 11.68706848 -2.33806118 5.84515296 0 0 Z M16 27 C11.91604506 35.98285756 8.34893787 45.14134693 4.80737305 54.34863281 C4.05722163 56.29212516 3.30163104 58.23352633 2.54077148 60.17285156 C1.43546307 62.99085376 0.3468378 65.8147971 -0.73828125 68.640625 C-1.08087479 69.50528381 -1.42346832 70.36994263 -1.77644348 71.26080322 C-4.08355423 77.03957981 -4.08355423 77.03957981 -3 83 C5.19540933 88.98043383 18.26170367 88.40377126 28.05712891 89.30297852 C32.09630832 89.67788186 36.03922626 90.08097036 40 91 C39.33596436 87.14994177 38.23699807 83.67244629 36.86694336 80.01635742 C36.20637184 78.24508736 36.20637184 78.24508736 35.53245544 76.43803406 C35.05166645 75.16048159 34.57079394 73.88296054 34.08984375 72.60546875 C33.59769578 71.28994442 33.10588445 69.97429411 32.61439514 68.65852356 C31.32394352 65.20659075 30.02894178 61.75638248 28.73297119 58.30651855 C27.40971256 54.78155169 26.09078346 51.2549659 24.77148438 47.72851562 C22.18521392 40.81742258 19.59413232 33.90814642 17 27 C16.67 27 16.34 27 16 27 Z " fill="#000000" transform="translate(163,87)"/>
<path d="M0 0 C10.23 0 20.46 0 31 0 C42.37695156 29.10930366 53.70652788 58.2367451 64.98724365 87.38348389 C65.9282105 89.81452756 66.86957551 92.24541667 67.81103516 94.67626953 C69.27225201 98.44992438 70.73040559 102.22475146 72.1875 106 C72.59145996 107.04341553 72.99541992 108.08683105 73.41162109 109.16186523 C73.76434082 110.07782471 74.11706055 110.99378418 74.48046875 111.9375 C74.77848389 112.70964844 75.07649902 113.48179687 75.38354492 114.27734375 C76 116 76 116 76 117 C67.09 117 58.18 117 49 117 C43.375 103.5 43.375 103.5 41.6875 98.75 C41.36136719 97.83734375 41.03523437 96.9246875 40.69921875 95.984375 C40.35310547 95.00210938 40.35310547 95.00210938 40 94 C39.40574219 94.33773437 38.81148437 94.67546875 38.19921875 95.0234375 C30.11773809 99.37210361 22.8799642 100.71168584 13.796875 101.41796875 C11.86451065 101.56938782 9.93222031 101.72175383 8 101.875 C7.03707031 101.95113525 6.07414063 102.02727051 5.08203125 102.10571289 C-1.07583962 102.65424065 -6.47259493 103.67659841 -12.171875 106.1953125 C-14 107 -14 107 -16 107 C-16.99 110.3 -17.98 113.6 -19 117 C-27.58 117 -36.16 117 -45 117 C-42.9884447 110.29481567 -40.90364508 103.87691373 -38.33203125 97.40234375 C-37.98004166 96.50639999 -37.62805206 95.61045624 -37.26539612 94.68736267 C-36.1180955 91.76928399 -34.96530378 88.85340845 -33.8125 85.9375 C-33.00754277 83.8929111 -32.20302423 81.84814945 -31.39892578 79.80322266 C-30.16193541 76.65770649 -28.92460129 73.5123296 -27.68572998 70.36755371 C-24.95540429 63.43644891 -22.23889386 56.50011178 -19.53515625 49.55859375 C-19.00427147 48.19579536 -19.00427147 48.19579536 -18.46266174 46.8054657 C-17.1127543 43.33936032 -15.76327166 39.87309026 -14.41470337 36.40646362 C-9.68123679 24.24177742 -4.86080193 12.11444896 0 0 Z M14 27 C13.78559769 27.57247971 13.57119537 28.14495941 13.35029602 28.73478699 C11.0956254 34.75468191 8.84014912 40.77427456 6.58422852 46.79370117 C5.7451594 49.03288333 4.90628794 51.27213956 4.06762695 53.51147461 C2.85421317 56.75134 1.64011733 59.99094894 0.42578125 63.23046875 C0.03560822 64.27218231 -0.35456482 65.31389587 -0.75656128 66.38717651 C-3.19616794 72.89060201 -5.67573202 79.37530055 -8.23364258 85.83325195 C-9.11114931 87.93120915 -9.11114931 87.93120915 -9 90 C-4.7302159 89.64226755 -0.4620939 89.26938002 3.80517578 88.88305664 C5.25371273 88.75399345 6.70261041 88.62890927 8.15185547 88.50805664 C20.7712489 88.1164072 20.7712489 88.1164072 31.41723633 82.51469421 C31.84286865 81.97834854 32.26850098 81.44200287 32.70703125 80.8894043 C33.46371094 79.93590088 34.22039062 78.98239746 35 78 C32.3406026 70.8938081 29.67027897 63.79179464 26.9921875 56.69262695 C26.081764 54.27528999 25.1738796 51.85699521 24.26855469 49.43774414 C22.96950307 45.96768449 21.66146535 42.50113179 20.3515625 39.03515625 C19.94628326 37.94662857 19.54100403 36.85810089 19.1234436 35.73658752 C18.74320038 34.73562546 18.36295715 33.73466339 17.97119141 32.70336914 C17.63809967 31.81734512 17.30500793 30.93132111 16.96182251 30.01844788 C16.17299178 27.83022017 16.17299178 27.83022017 14 27 Z " fill="#000000" transform="translate(818,87)"/>
<path d="M0 0 C10.23 0 20.46 0 31 0 C37.78338948 16.39319125 44.28211914 32.85512877 50.55908203 49.44671631 C54.65572884 60.27339129 58.79575181 71.08071239 63.02734375 81.85546875 C63.44359512 82.91554642 63.8598465 83.97562408 64.28871155 85.06782532 C66.32438724 90.24769527 68.36567402 95.42529882 70.41235352 100.60083008 C71.14995354 102.47344989 71.88750495 104.34608885 72.625 106.21875 C73.13938881 107.51252815 73.13938881 107.51252815 73.66416931 108.83244324 C73.97350906 109.61927994 74.28284882 110.40611664 74.6015625 111.21679688 C74.87307129 111.90286011 75.14458008 112.58892334 75.42431641 113.29577637 C76 115 76 115 76 117 C67.09 117 58.18 117 49 117 C45.7 108.75 42.4 100.5 39 92 C36.03 93.98 33.06 95.96 30 98 C21.39141475 101.14948241 11.71720742 101.55758915 2.63574219 102.26660156 C-3.35752314 102.74944959 -9.12979399 103.70030313 -15 105 C-15.103125 105.680625 -15.20625 106.36125 -15.3125 107.0625 C-16 110 -16 110 -19 117 C-27.58 117 -36.16 117 -45 117 C-40.75111191 104.66802719 -36.12447906 92.53832767 -31.28277588 80.4281311 C-29.17917422 75.16491828 -27.08720222 69.89709292 -24.99609375 64.62890625 C-24.57513428 63.56856674 -24.1541748 62.50822723 -23.72045898 61.41575623 C-19.62121011 51.07385294 -15.60694296 40.70005514 -11.625 30.3125 C-11.16856613 29.12185944 -11.16856613 29.12185944 -10.70291138 27.90716553 C-9.3477105 24.37023787 -7.99430116 20.832634 -6.64306641 17.29418945 C-4.43623069 11.52657676 -2.21683693 5.76377602 0 0 Z M15 27 C11.8750495 33.80370827 9.11556107 40.71486364 6.453125 47.7109375 C5.8290274 49.34586655 5.8290274 49.34586655 5.19232178 51.01382446 C4.32041327 53.30086717 3.44984809 55.58842242 2.58056641 57.87646484 C1.2453611 61.38719733 -0.0978517 64.8947994 -1.44140625 68.40234375 C-2.28955209 70.63002199 -3.13722525 72.85788027 -3.984375 75.0859375 C-4.38742859 76.13590912 -4.79048218 77.18588074 -5.20574951 78.26766968 C-5.75697479 79.72531235 -5.75697479 79.72531235 -6.31933594 81.21240234 C-6.80753815 82.49405777 -6.80753815 82.49405777 -7.30560303 83.80160522 C-8.15059863 86.09253828 -8.15059863 86.09253828 -8 89 C12.84856718 89.33886464 12.84856718 89.33886464 31 81 C33.06586549 78.30043344 32.9952167 76.92664931 32.77026367 73.47705078 C32.06109349 68.37887314 30.27692573 63.80121103 28.40234375 59.03125 C28.04862198 58.11033569 27.69490021 57.18942139 27.33045959 56.24060059 C26.20788706 53.32373665 25.07292236 50.41188275 23.9375 47.5 C23.17039778 45.51333965 22.40411317 43.52636338 21.63867188 41.5390625 C19.76855785 36.68901359 17.88826839 31.84300767 16 27 C15.67 27 15.34 27 15 27 Z " fill="#000000" transform="translate(1100,87)"/>
<path d="M0 0 C10.23 0 20.46 0 31 0 C51.66203576 52.65008498 51.66203576 52.65008498 61.65625 78.30273438 C64.42100718 85.39826418 67.18949749 92.49202928 69.98828125 99.57421875 C70.42116455 100.6715332 70.85404785 101.76884766 71.30004883 102.89941406 C72.06910152 104.84653343 72.84083156 106.79259873 73.6159668 108.73730469 C73.93863525 109.55489258 74.26130371 110.37248047 74.59375 111.21484375 C74.86896484 111.90698975 75.14417969 112.59913574 75.42773438 113.31225586 C76 115 76 115 76 117 C67.42 117 58.84 117 50 117 C48.35 113.7 46.7 110.4 45 107 C36.81035344 102.77476833 28.59213067 102.17034401 19.5 101.5 C9.29486443 100.74759644 -0.29410662 99.80392892 -9 94 C-9.23710693 94.62567871 -9.47421387 95.25135742 -9.71850586 95.89599609 C-10.7904212 98.72274269 -11.86394047 101.54887746 -12.9375 104.375 C-13.31068359 105.35984375 -13.68386719 106.3446875 -14.06835938 107.359375 C-14.42607422 108.30039063 -14.78378906 109.24140625 -15.15234375 110.2109375 C-15.48226318 111.08024902 -15.81218262 111.94956055 -16.15209961 112.84521484 C-17 115 -17 115 -18 117 C-26.91 117 -35.82 117 -45 117 C-40.42239723 103.63802007 -35.52107489 90.47910071 -30.26391602 77.37155151 C-28.17731335 72.16718242 -26.10513017 66.9570955 -24.03515625 61.74609375 C-23.61545563 60.68953079 -23.195755 59.63296783 -22.76333618 58.54438782 C-17.70754776 45.78384774 -12.837625 32.95301156 -7.98852539 20.11279297 C-7.67291153 19.27824081 -7.35729767 18.44368866 -7.03211975 17.58384705 C-6.45123314 16.04681184 -5.87178265 14.50923264 -5.29417419 12.97096252 C-5.03467484 12.28372604 -4.77517548 11.59648956 -4.5078125 10.88842773 C-4.28754395 10.30262436 -4.06727539 9.71682098 -3.84033203 9.11326599 C-2.62227627 6.05010081 -1.29853875 3.02992375 0 0 Z M16 27 C12.40700911 34.76862895 9.35095628 42.71539518 6.30883789 50.7109375 C5.43899874 52.9960627 4.56450688 55.2793673 3.68945312 57.5625 C0.97550068 64.66352046 -1.68679549 71.75580081 -4 79 C-3.52062988 79.44102051 -3.04125977 79.88204102 -2.54736328 80.33642578 C-1.40397135 81.38834635 -0.26057943 82.44026693 0.8828125 83.4921875 C5.54224753 86.81053053 10.79195996 87.34472363 16.3671875 87.8515625 C17.38656906 87.94719986 17.38656906 87.94719986 18.42654419 88.04476929 C20.57547717 88.24485057 22.7251476 88.4350803 24.875 88.625 C26.34120597 88.75976396 27.80735269 88.8951743 29.2734375 89.03125 C32.84830389 89.36164173 36.42389956 89.6832107 40 90 C37.83423359 82.31825424 35.17230655 74.88520259 32.33203125 67.4296875 C31.89235519 66.26744659 31.45267914 65.10520569 30.99967957 63.90774536 C29.60715305 60.22894178 28.20990578 56.55195256 26.8125 52.875 C25.86193107 50.36745214 24.91239728 47.85951276 23.96289062 45.3515625 C21.64551523 39.23300992 19.32427077 33.11593631 17 27 C16.67 27 16.34 27 16 27 Z " fill="#000000" transform="translate(534,87)"/>
<path d="M0 0 C10.456875 -0.0825 20.91375 -0.165 31.6875 -0.25 C34.96260498 -0.28641602 38.23770996 -0.32283203 41.61206055 -0.36035156 C44.24527331 -0.37204806 46.87849337 -0.3822376 49.51171875 -0.390625 C50.17685989 -0.40107849 50.84200104 -0.41153198 51.52729797 -0.42230225 C64.28862925 -0.61245152 76.40720768 0.90968728 86 10 C93.24095301 17.24095301 95.5607551 25.74408359 96.03125 35.765625 C95.92954892 46.29168665 93.02196055 55.93990511 85.8125 63.8125 C73.61598254 75.0058407 58.34591983 74.27804333 42.875 74.125 C34.026875 74.063125 34.026875 74.063125 25 74 C25 88.19 25 102.38 25 117 C16.75 117 8.5 117 0 117 C0 78.39 0 39.78 0 0 Z M25 20 C25 30.89 25 41.78 25 53 C29.8756298 53.09208955 34.74821519 53.17164167 39.62402344 53.21972656 C41.28070325 53.23978009 42.93731282 53.26703029 44.59375 53.30175781 C46.98194758 53.35055512 49.36920547 53.37303064 51.7578125 53.390625 C52.49242706 53.41127014 53.22704163 53.43191528 53.98391724 53.45318604 C59.15145109 53.4554155 62.02723806 52.2597404 66 49 C69.76679755 43.80441718 70.43154379 39.36527096 70 33 C68.18248909 27.14357596 65.94491789 24.36254416 61 21 C56.91138531 19.85657763 52.95788966 19.88494696 48.73046875 19.90234375 C47.48418701 19.90484131 46.23790527 19.90733887 44.95385742 19.90991211 C43.38095947 19.91901611 41.80806152 19.92812012 40.1875 19.9375 C35.175625 19.958125 30.16375 19.97875 25 20 Z " fill="#000000" transform="translate(24,87)"/>
</svg>
